<?xml version="1.0" encoding="UTF-8" standalone="no"?><!DOCTYPE svg PUBLIC "-//W3C//DTD SVG 1.1//EN" "http://www.w3.org/Graphics/SVG/1.1/DTD/svg11.dtd"><svg width="100%" height="100%" viewBox="0 0 985 130" version="1.1" xmlns="http://www.w3.org/2000/svg" xmlns:xlink="http://www.w3.org/1999/xlink" xml:space="preserve" style="fill-rule:evenodd;clip-rule:evenodd;stroke-linejoin:round;stroke-miterlimit:1.41421;"><g><path d="M298.396,81.172l0,-26.907l-7.027,0l0,-3.755l7.027,0l0,-10.763l4.407,0l0,10.763l7.325,0l0,3.755l-7.325,0l0,26.907l-4.407,0Z" style="fill:#373c42;fill-rule:nonzero;"/><path d="M348.777,67.214l-29.478,0c0.198,3.363 1.786,6.129 4.764,8.296c2.342,1.719 4.983,2.579 7.92,2.579c3.613,0 6.65,-1.234 9.112,-3.7c0.992,-0.972 1.747,-2.074 2.263,-3.307l4.585,0c-0.833,2.391 -2.421,4.634 -4.764,6.726c-3.096,2.728 -6.789,4.092 -11.076,4.092c-5.003,0 -9.171,-1.663 -12.506,-4.988c-3.137,-3.102 -4.705,-6.839 -4.705,-11.212c0,-4.633 1.747,-8.501 5.241,-11.603c3.215,-2.877 7.106,-4.316 11.672,-4.316c4.724,0 8.734,1.532 12.029,4.596c1.072,1.009 1.985,2.13 2.74,3.364c1.469,2.429 2.203,5.586 2.203,9.473Zm-29.359,-3.756l24.952,0c-1.032,-4.223 -3.394,-7.137 -7.086,-8.744c-1.668,-0.748 -3.514,-1.121 -5.539,-1.121c-4.049,0 -7.285,1.457 -9.707,4.372c-1.31,1.569 -2.183,3.401 -2.62,5.493Z" style="fill:#373c42;fill-rule:nonzero;"/><path d="M357.829,81.172l0,-30.662l4.407,0l0,3.531c1.985,-2.429 4.367,-3.812 7.146,-4.148c0.636,-0.075 1.31,-0.112 2.025,-0.112c4.208,0 7.464,1.532 9.767,4.596c0.317,0.411 0.615,0.841 0.893,1.29c2.541,-3.775 6.074,-5.755 10.6,-5.942c0.238,0 0.477,0 0.715,0c4.327,0 7.662,1.401 10.005,4.204c0.079,0.037 0.139,0.093 0.178,0.168c1.747,2.055 2.621,5.008 2.621,8.857l0,18.218l-4.407,0l0,-17.77c0,-3.064 -0.596,-5.381 -1.787,-6.951c-1.548,-1.943 -3.831,-2.914 -6.848,-2.914c-3.176,0 -5.578,1.102 -7.206,3.307l-0.179,0.224c-1.032,1.42 -1.548,3.531 -1.548,6.334l0,17.77l-4.407,0l0,-17.882c0,-3.102 -0.675,-5.4 -2.025,-6.895c-1.667,-1.868 -3.93,-2.802 -6.789,-2.802c-3.93,0 -6.57,1.663 -7.92,4.988c-0.556,1.346 -0.834,2.915 -0.834,4.709l0,17.882l-4.407,0Z" style="fill:#373c42;fill-rule:nonzero;"/><path d="M417.501,50.51l4.406,0l0,5.269c3.097,-3.849 7.365,-5.849 12.804,-5.998c5.122,0 9.35,1.7 12.685,5.101c2.977,3.027 4.466,6.708 4.466,11.043c0,4.671 -1.766,8.557 -5.3,11.659c-3.295,2.878 -7.285,4.316 -11.97,4.316c-5.558,0 -9.786,-1.999 -12.685,-5.997l0,16.031l-4.406,0l0,-41.424Zm17.032,3.083c-3.971,0 -7.246,1.382 -9.827,4.148c-2.064,2.279 -3.096,4.933 -3.096,7.959c0,3.999 1.528,7.213 4.585,9.642c2.343,1.831 5.142,2.747 8.397,2.747c4.089,0 7.385,-1.42 9.886,-4.26c1.945,-2.243 2.918,-4.877 2.918,-7.904c0,-3.999 -1.529,-7.194 -4.586,-9.586c-1.508,-1.196 -3.255,-1.999 -5.24,-2.41c-0.993,-0.224 -2.005,-0.336 -3.037,-0.336Z" style="fill:#373c42;fill-rule:nonzero;"/><rect x="461.093" y="39.747" width="4.407" height="41.425" style="fill:#373c42;fill-rule:nonzero;"/><path d="M509.152,50.51l0,30.662l-4.407,0l0,-5.382c-2.621,3.289 -5.658,5.232 -9.112,5.83c-1.072,0.187 -2.223,0.28 -3.454,0.28c-5.36,0 -9.707,-1.719 -13.042,-5.157c-2.938,-2.952 -4.407,-6.558 -4.407,-10.818c0,-4.858 1.807,-8.857 5.42,-11.996c3.215,-2.765 7.126,-4.148 11.731,-4.148c5.201,0 9.33,1.85 12.387,5.549l0.477,0.617l0,-5.437l4.407,0Zm-17.151,3.083c-3.891,0 -7.107,1.382 -9.648,4.148c-1.628,1.719 -2.62,3.718 -2.978,5.998c-0.119,0.635 -0.178,1.27 -0.178,1.905c0,3.924 1.508,7.101 4.526,9.53c2.422,1.943 5.26,2.915 8.516,2.915c3.89,0 7.067,-1.42 9.528,-4.26c1.985,-2.28 2.978,-4.989 2.978,-8.129c0,-3.811 -1.489,-6.913 -4.467,-9.305c-2.342,-1.868 -5.101,-2.802 -8.277,-2.802Z" style="fill:#373c42;fill-rule:nonzero;"/><path d="M523.623,81.172l0,-26.907l-7.027,0l0,-3.755l7.027,0l0,-10.763l4.407,0l0,10.763l7.325,0l0,3.755l-7.325,0l0,26.907l-4.407,0Z" style="fill:#373c42;fill-rule:nonzero;"/><path d="M574.004,67.214l-29.478,0c0.198,3.363 1.786,6.129 4.764,8.296c2.342,1.719 4.982,2.579 7.92,2.579c3.613,0 6.65,-1.234 9.112,-3.7c0.992,-0.972 1.747,-2.074 2.263,-3.307l4.585,0c-0.833,2.391 -2.421,4.634 -4.764,6.726c-3.097,2.728 -6.789,4.092 -11.077,4.092c-5.002,0 -9.171,-1.663 -12.506,-4.988c-3.136,-3.102 -4.704,-6.839 -4.704,-11.212c0,-4.633 1.747,-8.501 5.24,-11.603c3.216,-2.877 7.107,-4.316 11.673,-4.316c4.724,0 8.734,1.532 12.029,4.596c1.072,1.009 1.985,2.13 2.74,3.364c1.469,2.429 2.203,5.586 2.203,9.473Zm-29.359,-3.756l24.952,0c-1.032,-4.223 -3.394,-7.137 -7.087,-8.744c-1.667,-0.748 -3.513,-1.121 -5.538,-1.121c-4.049,0 -7.285,1.457 -9.707,4.372c-1.31,1.569 -2.184,3.401 -2.62,5.493Z" style="fill:#373c42;fill-rule:nonzero;"/><path d="M586.748,75.566c-1.786,0 -3.275,1.402 -3.275,3.195c0,1.626 1.489,3.027 3.216,3.027c1.846,0 3.394,-1.345 3.394,-3.027c0,-1.737 -1.548,-3.195 -3.335,-3.195Z" style="fill:#373c42;fill-rule:nonzero;"/><path d="M632.187,39.747l0,41.425l-7.266,0l0,-4.036c-2.819,2.989 -6.153,4.578 -10.005,4.764c-0.317,0 -0.615,0 -0.893,0c-4.843,0 -8.873,-1.681 -12.089,-5.045c-2.978,-3.101 -4.466,-6.857 -4.466,-11.267c0,-4.858 1.727,-8.912 5.181,-12.164c3.136,-2.952 6.908,-4.428 11.315,-4.428c4.129,0 7.444,1.159 9.945,3.475c0.119,0.15 0.238,0.281 0.357,0.393l0,-13.117l7.921,0Zm-17.092,16.088c-3.216,0 -5.776,1.214 -7.682,3.643c-1.31,1.682 -1.965,3.607 -1.965,5.774c0,3.251 1.25,5.848 3.751,7.792c1.747,1.345 3.772,2.018 6.075,2.018c3.136,0 5.657,-1.215 7.563,-3.644c1.35,-1.719 2.025,-3.7 2.025,-5.942c0,-3.288 -1.291,-5.867 -3.871,-7.735c-1.866,-1.196 -3.831,-1.831 -5.896,-1.906Z" style="fill:#373c42;fill-rule:nonzero;"/><path d="M673.099,50.117l0,31.055l-7.265,0l0,-4.036c-2.621,2.803 -5.678,4.372 -9.171,4.708c-0.556,0.038 -1.152,0.056 -1.787,0.056c-5.201,0 -9.389,-1.737 -12.565,-5.213c-2.7,-2.989 -4.05,-6.633 -4.05,-10.93c0,-5.158 1.826,-9.306 5.479,-12.445c3.097,-2.616 6.868,-3.924 11.315,-3.924c4.327,0 7.761,1.42 10.302,4.261c0.159,0.186 0.318,0.392 0.477,0.616l0,-4.148l7.265,0Zm-17.211,6.11c-3.493,0 -6.133,1.308 -7.92,3.924c-1.151,1.644 -1.727,3.569 -1.727,5.774c0,3.475 1.39,6.035 4.169,7.679c1.588,0.972 3.454,1.458 5.598,1.458c3.136,0 5.538,-0.935 7.205,-2.803c1.469,-1.869 2.263,-3.999 2.383,-6.39c0,-3.551 -1.35,-6.222 -4.05,-8.016c-1.628,-1.084 -3.514,-1.626 -5.658,-1.626Z" style="fill:#373c42;fill-rule:nonzero;"/><path d="M683.163,81.172l0,-24.272l-3.87,0l0,-6.783l3.87,0l0,-10.37l7.921,0l0,10.37l4.764,0l0,6.783l-4.764,0l0,24.272l-7.921,0Z" style="fill:#373c42;fill-rule:nonzero;"/><path d="M735.748,50.117l0,31.055l-7.265,0l0,-4.036c-2.621,2.803 -5.678,4.372 -9.171,4.708c-0.556,0.038 -1.152,0.056 -1.787,0.056c-5.201,0 -9.389,-1.737 -12.565,-5.213c-2.7,-2.989 -4.05,-6.633 -4.05,-10.93c0,-5.158 1.826,-9.306 5.479,-12.445c3.097,-2.616 6.868,-3.924 11.315,-3.924c4.327,0 7.761,1.42 10.302,4.261c0.159,0.186 0.318,0.392 0.477,0.616l0,-4.148l7.265,0Zm-17.21,6.11c-3.494,0 -6.134,1.308 -7.921,3.924c-1.151,1.644 -1.727,3.569 -1.727,5.774c0,3.475 1.39,6.035 4.169,7.679c1.588,0.972 3.454,1.458 5.598,1.458c3.136,0 5.538,-0.935 7.205,-2.803c1.469,-1.869 2.263,-3.999 2.383,-6.39c0,-3.551 -1.35,-6.222 -4.05,-8.016c-1.628,-1.084 -3.514,-1.626 -5.657,-1.626Z" style="fill:#373c42;fill-rule:nonzero;"/><path d="M748.85,75.566c-1.787,0 -3.276,1.402 -3.276,3.195c0,1.626 1.489,3.027 3.216,3.027c1.846,0 3.395,-1.345 3.395,-3.027c0,-1.737 -1.549,-3.195 -3.335,-3.195Z" style="fill:#373c42;fill-rule:nonzero;"/><path d="M788.095,50.117l7.563,0l0,25.169c0,5.68 -1.112,9.884 -3.335,12.612c-3.176,3.775 -7.762,5.662 -13.757,5.662c-6.312,0 -11.156,-1.981 -14.531,-5.942c-0.992,-1.158 -1.806,-2.466 -2.441,-3.924l8.992,0c1.906,1.981 4.189,3.065 6.849,3.251c0.436,0.038 0.913,0.056 1.429,0.056c5.876,0 8.953,-3.307 9.231,-9.921c-2.541,2.802 -5.479,4.372 -8.814,4.708c-0.635,0.075 -1.31,0.112 -2.025,0.112c-5.082,0 -9.171,-1.775 -12.268,-5.325c-2.62,-3.027 -3.93,-6.745 -3.93,-11.155c0,-4.97 1.767,-9.006 5.3,-12.108c3.017,-2.616 6.67,-3.924 10.958,-3.924c4.764,0 8.357,1.551 10.779,4.653l0,-3.924Zm-9.886,6.11c-3.613,0 -6.233,1.402 -7.861,4.204c-0.873,1.532 -1.31,3.308 -1.31,5.326c0,3.849 1.469,6.577 4.407,8.184c1.389,0.747 3.017,1.121 4.883,1.121c3.732,0 6.432,-1.383 8.099,-4.148c0.874,-1.458 1.31,-3.177 1.31,-5.157c0,-3.663 -1.389,-6.353 -4.168,-8.072c-1.35,-0.86 -2.899,-1.346 -4.645,-1.458c-0.239,0 -0.477,0 -0.715,0Z" style="fill:#373c42;fill-rule:nonzero;"/><path d="M820.789,49.388c5.161,0 9.449,1.701 12.863,5.101c3.176,3.14 4.764,6.933 4.764,11.38c0,4.372 -1.747,8.146 -5.24,11.323c-3.454,3.139 -7.563,4.708 -12.328,4.708c-4.883,0 -9.052,-1.625 -12.506,-4.876c-3.335,-3.177 -5.002,-6.97 -5.002,-11.38c0,-4.521 1.747,-8.37 5.241,-11.547c3.414,-3.139 7.483,-4.709 12.208,-4.709Zm0.059,6.839c-2.977,0 -5.439,1.14 -7.384,3.42c-1.429,1.719 -2.144,3.68 -2.144,5.885c0,3.177 1.251,5.718 3.752,7.624c1.707,1.27 3.652,1.906 5.836,1.906c3.057,0 5.538,-1.177 7.444,-3.532c1.39,-1.719 2.084,-3.681 2.084,-5.886c0,-3.027 -1.211,-5.493 -3.632,-7.399c-1.747,-1.345 -3.732,-2.018 -5.956,-2.018Z" style="fill:#373c42;fill-rule:nonzero;"/><path d="M875.22,50.117l0,31.055l-7.325,0l0,-2.971c-2.303,2.13 -4.804,3.326 -7.504,3.587l-1.965,0.112c-4.447,0 -7.801,-1.532 -10.064,-4.596c-1.509,-2.093 -2.323,-4.933 -2.442,-8.52c-0.04,-0.598 -0.06,-1.271 -0.06,-2.018l0,-16.649l7.921,0l0,15.191c0,3.924 0.536,6.521 1.608,7.792c1.032,1.308 2.58,1.962 4.645,1.962c2.819,0 4.824,-0.953 6.015,-2.859c0.833,-1.196 1.25,-3.681 1.25,-7.455l0,-14.631l7.921,0Z" style="fill:#373c42;fill-rule:nonzero;"/><path d="M894.693,81.172l-13.28,-31.055l8.814,0l7.623,20.572l7.503,-20.572l8.933,0l-13.28,31.055l-6.313,0Z" style="fill:#373c42;fill-rule:nonzero;"/><path d="M918.729,75.568c-1.681,0 -3.081,1.401 -3.081,3.194c0,1.625 1.4,3.026 3.025,3.026c1.737,0 3.194,-1.345 3.194,-3.026c0,-1.737 -1.457,-3.194 -3.138,-3.194Z" style="fill:#373c42;fill-rule:nonzero;"/><path d="M932.129,53.914l6.17,0l-6.238,28.885c-1.627,7.459 -3.865,11.188 -6.78,11.188c-0.814,0 -1.357,-0.475 -1.357,-1.153c0,-0.203 0.068,-0.339 0.272,-0.678c0.271,-0.474 0.339,-0.746 0.339,-1.152c0,-1.492 -1.221,-2.645 -2.713,-2.645c-1.423,0 -2.508,1.288 -2.508,2.916c0,2.305 2.373,4.136 5.356,4.136c6.171,0 10.985,-6.781 13.968,-19.46l5.086,-22.037l7.526,0l0.407,-2.17l-7.391,0c2.034,-10.849 4.679,-15.663 8.476,-15.663c0.949,0 1.492,0.339 1.492,0.881c0,0.136 -0.068,0.339 -0.272,0.678c-0.339,0.543 -0.406,0.882 -0.406,1.424c0,1.628 1.017,2.712 2.508,2.712c1.56,0 2.916,-1.288 2.916,-2.78c0,-2.508 -2.509,-4.407 -5.899,-4.407c-3.322,0 -6.035,1.492 -8.544,4.679c-2.034,2.712 -3.458,5.831 -5.56,12.476l-6.373,0l-0.475,2.17Z" style="fill:#373c42;fill-rule:nonzero;"/><path d="M959.794,81.172c3.729,-11.866 4.882,-14.646 8.001,-19.867c2.373,-3.865 4.272,-5.967 5.424,-5.967c0.475,0 0.814,0.271 1.153,0.949c0.543,1.153 1.085,1.492 2.441,1.492c2.034,0 3.187,-1.221 3.187,-3.391c0,-2.169 -1.288,-3.526 -3.187,-3.526c-1.559,0 -3.458,1.018 -5.221,2.916c-2.848,2.848 -5.696,6.984 -6.781,9.629l-1.017,2.508l3.797,-14.917l-0.203,-0.136c-4.95,0.882 -5.696,1.018 -10.645,1.831l0,1.153c1.491,-0.271 1.762,-0.339 2.305,-0.339c1.492,0 2.373,0.678 2.373,1.898c0,0.882 -0.542,3.662 -1.085,5.696l-5.763,20.071l5.221,0Z" style="fill:#373c42;fill-rule:nonzero;"/></g><clipPath id="_clip1"><rect x="0" y="0" width="245.808" height="130"/></clipPath><g clip-path="url(#_clip1)"><clipPath id="_clip2"><rect x="0" y="0" width="690.267" height="130"/></clipPath><g clip-path="url(#_clip2)"><rect x="0" y="0" width="244.558" height="74.613" style="fill:#fff;fill-rule:nonzero;"/><path d="M195.292,129.916c-0.134,-0.049 -0.143,-0.183 -0.029,-0.475c0.142,-0.371 0.21,-0.401 0.762,-0.335c0.498,0.062 0.646,0.019 0.848,-0.252c0.404,-0.517 0.094,-0.891 -0.646,-0.768c-0.566,0.095 -0.566,0.089 -0.458,-0.298c0.337,-1.232 0.364,-1.163 -0.646,-1.346c-1.226,-0.218 -2.384,-0.832 -3.273,-1.728c-1.346,-1.346 -1.804,-2.707 -1.67,-4.896c0.068,-1.114 0.162,-1.549 0.553,-2.325c1.185,-2.372 3.905,-3.58 7.568,-3.365c0.794,0.047 1.791,0.17 2.235,0.271l0.794,0.183l0.081,2.639l-0.485,0c-0.282,0 -0.484,-0.079 -0.484,-0.183c0,-0.379 -0.983,-1.241 -1.67,-1.476c-0.889,-0.314 -2.613,-0.236 -3.488,0.143c-1.979,0.863 -2.882,3.097 -2.276,5.658c0.283,1.175 0.741,1.972 1.616,2.795c0.835,0.771 1.684,1.085 2.949,1.085c1.334,0 2.263,-0.484 2.855,-1.49c0.404,-0.679 0.539,-0.77 0.929,-0.548c0.175,0.104 0.175,0.339 0.014,1.424l-0.202,1.306l-0.727,0.222c-0.404,0.118 -1.32,0.262 -2.034,0.314c-1.252,0.078 -1.319,0.105 -1.319,0.418c0,0.248 0.094,0.34 0.363,0.34c0.525,0 1.024,0.366 1.145,0.849c0.134,0.562 -0.31,1.385 -0.889,1.659c-0.417,0.196 -2.06,0.275 -2.478,0.118l0.062,0.061Zm-94.605,-0.603c-1.373,-0.366 -2.558,-0.919 -3.986,-1.856l-1.225,-0.812l-1.899,-0.089c-2.114,-0.098 -2.854,-0.311 -4.215,-1.218c-3.016,-1.996 -3.124,-7.079 -0.202,-9.55c2.209,-1.865 6.074,-2.248 8.848,-0.882c3.757,1.844 4.161,7.286 0.74,10.138c-0.525,0.442 -1.037,0.804 -1.144,0.804c-0.323,0 3.42,1.846 4.511,2.224c1.212,0.418 2.612,0.473 3.649,0.143c0.754,-0.239 0.889,-0.209 1.01,0.225c0.081,0.255 -0.054,0.362 -0.808,0.679c-1.198,0.502 -3.703,0.595 -5.211,0.194l-0.068,0Zm-4.659,-4.435c2.666,-1.254 3.178,-5.274 0.997,-7.841c-2.02,-2.378 -5.562,-2.019 -6.895,0.701c-1.198,2.456 0.175,6.256 2.626,7.262c0.996,0.405 2.262,0.361 3.286,-0.122l-0.014,0Zm-83.572,1.487c-0.727,-0.287 -1.53,-1.182 -2.795,-3.122c-1.946,-2.985 -2.311,-3.424 -2.855,-3.424l-0.472,0l0.004,1.617c0.007,2.946 0.337,3.953 1.365,4.187c0.274,0.062 0.382,0.186 0.382,0.442l0,0.356l-6.518,0l0,-0.326c0,-0.248 0.122,-0.366 0.499,-0.471c0.276,-0.065 0.651,-0.313 0.835,-0.535c0.327,-0.392 0.334,-0.536 0.334,-5.971c0,-5.435 -0.007,-5.579 -0.334,-5.971c-0.184,-0.222 -0.559,-0.457 -0.835,-0.536c-0.364,-0.091 -0.499,-0.209 -0.499,-0.444c0,-0.313 0.017,-0.313 4.038,-0.405c4.279,-0.091 5.222,-0.026 6.428,0.51c1.053,0.457 1.933,1.855 1.934,3.07c0.003,1.398 -1.145,2.966 -2.66,3.645l-0.794,0.353l1.755,2.365c2.06,2.796 2.706,3.541 3.312,3.828c0.566,0.261 0.62,0.849 0.095,0.967c-0.647,0.157 -2.734,0.091 -3.219,-0.105l0,-0.03Zm-3.976,-7.996c2.131,-0.535 2.85,-3.206 1.238,-4.599c-0.759,-0.653 -1.564,-0.892 -2.593,-0.764l-0.781,0.098l0,5.425l0.754,0c0.417,0 1.05,-0.072 1.387,-0.16l-0.005,0Zm36.635,7.996c-0.871,-0.279 -1.692,-0.78 -2.127,-1.293c-0.791,-0.937 -0.875,-1.428 -0.884,-5.233c-0.01,-3.977 -0.094,-4.416 -0.902,-4.753c-0.323,-0.136 -0.514,-0.32 -0.517,-0.503c-0.003,-0.274 0.102,-0.288 2.7,-0.288c2.697,0 2.704,0 2.704,0.324c0,0.217 -0.094,0.323 -0.291,0.323c-0.159,0 -0.463,0.167 -0.676,0.37l-0.385,0.371l0,3.899c0,3.668 0.019,3.932 0.33,4.465c0.485,0.837 1.454,1.264 2.696,1.197c1.333,-0.073 2.06,-0.5 2.585,-1.536c0.404,-0.795 0.418,-0.834 0.418,-4.325c0,-3.122 -0.027,-3.564 -0.283,-3.906c-0.162,-0.213 -0.458,-0.428 -0.673,-0.476c-0.256,-0.056 -0.404,-0.192 -0.404,-0.362c0,-0.252 0.148,-0.27 2.141,-0.27c1.993,0 2.141,0.018 2.141,0.27c0,0.17 -0.148,0.306 -0.39,0.361c-0.741,0.156 -0.795,0.47 -0.876,4.612l-0.081,3.88l-0.484,0.836c-0.566,0.993 -1.482,1.686 -2.653,1.999c-0.997,0.262 -3.326,0.275 -4.121,0.013l0.032,0.025Zm62.015,0c-0.881,-0.282 -1.694,-0.781 -2.144,-1.314c-0.75,-0.889 -0.858,-1.542 -0.867,-5.289c-0.014,-3.893 -0.108,-4.338 -0.903,-4.677c-0.336,-0.135 -0.525,-0.319 -0.525,-0.502c-0.013,-0.274 0.094,-0.288 2.693,-0.288c2.667,0 2.694,0.004 2.694,0.314c0,0.209 -0.122,0.327 -0.35,0.359c-0.189,0.026 -0.499,0.228 -0.674,0.451c-0.31,0.379 -0.336,0.614 -0.39,3.76c-0.068,3.864 0.054,4.678 0.781,5.348c1.306,1.215 4.04,0.875 4.807,-0.588c0.485,-0.928 0.606,-2.077 0.552,-5.122c-0.067,-3.214 -0.175,-3.619 -1.01,-3.802c-0.256,-0.052 -0.404,-0.183 -0.404,-0.352c0,-0.249 0.148,-0.262 2.141,-0.262c1.993,0 2.155,0.026 2.155,0.275c0,0.17 -0.189,0.339 -0.471,0.444c-0.256,0.104 -0.526,0.287 -0.593,0.418c-0.067,0.131 -0.161,1.986 -0.215,4.129l-0.095,3.893l-0.484,0.849c-0.566,0.993 -1.482,1.686 -2.667,1.999c-0.996,0.275 -3.326,0.288 -4.12,0.026l0.089,-0.069Zm50.332,-0.004c-0.636,-0.251 -1.391,-1.1 -2.561,-2.881c-1.511,-2.299 -1.684,-2.508 -2.077,-2.508c-0.35,-0.003 -0.357,0.026 -0.357,1.795c0,2.145 0.198,2.75 0.947,2.885c0.377,0.068 0.485,0.163 0.485,0.428l0,0.34l-5.408,0l0,-0.34c0,-0.265 0.107,-0.36 0.485,-0.428c0.906,-0.163 0.969,-0.551 0.915,-5.546l-0.048,-4.423l-0.385,-0.371c-0.212,-0.203 -0.516,-0.37 -0.676,-0.37c-0.179,0 -0.29,-0.104 -0.29,-0.274c0,-0.235 0.162,-0.288 1.172,-0.374c0.646,-0.065 2.41,-0.078 3.932,-0.052c2.478,0.039 2.841,0.078 3.434,0.366c1.05,0.496 1.642,1.476 1.642,2.704c0,1.176 -0.74,2.208 -2.1,2.901c-0.431,0.222 -0.714,0.444 -0.62,0.496c0.095,0.053 0.795,0.941 1.562,1.986c1.509,2.051 2.344,2.966 2.694,2.966c0.309,0 0.282,0.666 -0.027,0.771c-0.445,0.157 -2.195,0.078 -2.694,-0.118l-0.025,0.047Zm-2.938,-6.751c0.632,-0.294 1.252,-1.003 1.368,-1.563c0.151,-0.719 -0.202,-1.66 -0.808,-2.182c-0.562,-0.471 -1.104,-0.614 -2.044,-0.51l-0.573,0.065l0,4.416l0.803,0c0.431,0 0.996,-0.091 1.252,-0.209l0.002,-0.017Zm70.777,6.726c-0.475,-0.117 -0.894,-0.235 -0.929,-0.267c-0.033,-0.026 -0.151,-0.667 -0.256,-1.424l-0.196,-1.372l0.448,0c0.247,0 0.449,0.052 0.449,0.117c0,0.379 1.043,1.477 1.648,1.738c1.636,0.719 3.599,0.039 3.598,-1.228c0,-0.836 -0.45,-1.333 -1.982,-2.195c-2.149,-1.215 -2.98,-1.855 -3.407,-2.639c-0.431,-0.771 -0.505,-1.986 -0.183,-2.862c0.213,-0.575 1.212,-1.45 2.053,-1.777c0.846,-0.339 3.496,-0.326 4.592,0.014l0.835,0.261l0,2.561l-0.458,0c-0.358,0 -0.482,-0.079 -0.56,-0.353c-0.165,-0.601 -1.018,-1.346 -1.732,-1.516c-1.898,-0.457 -3.433,1.307 -2.235,2.587c0.229,0.248 1.266,0.967 2.303,1.607c2.02,1.228 2.76,1.908 3.016,2.705c0.552,1.777 -0.363,3.358 -2.329,4.011c-1.051,0.366 -3.327,0.392 -4.66,0.065l-0.015,-0.033Zm-208.311,-0.3c0,-0.256 0.089,-0.332 0.385,-0.332c0.229,0 0.521,-0.157 0.717,-0.379c0.316,-0.363 0.328,-0.542 0.328,-4.886c0,-3.154 -0.067,-4.606 -0.188,-4.824c-0.243,-0.402 -0.62,-0.662 -0.97,-0.666c-0.188,-0.005 -0.283,-0.122 -0.283,-0.366l0,-0.358l9.548,0l0,3.031l-0.418,-0.044c-0.323,-0.034 -0.471,-0.166 -0.606,-0.536c-0.323,-0.854 -0.848,-1.074 -2.733,-1.137l-1.67,-0.055l0,4.087l1.279,-0.065c1.387,-0.075 2.088,-0.379 2.182,-0.954c0.027,-0.228 0.161,-0.309 0.471,-0.309l0.418,0l0,3.736l-0.431,0c-0.35,0 -0.445,-0.065 -0.445,-0.34c0,-0.64 -0.538,-0.875 -2.087,-0.927l-1.414,-0.052l0,2.025c0,2.43 0.014,2.469 1.832,2.469c1.79,0 2.72,-0.405 3.191,-1.398c0.229,-0.496 0.781,-0.64 0.956,-0.248c0.108,0.261 -0.337,1.947 -0.673,2.535l-0.243,0.418l-4.605,-0.027l-4.605,-0.026l0,-0.326l0.064,-0.046Zm12.244,0.044c0,-0.261 0.107,-0.359 0.457,-0.424c0.835,-0.152 0.876,-0.366 0.93,-4.974c0.053,-4.799 -0.014,-5.232 -0.889,-5.596c-0.364,-0.152 -0.512,-0.314 -0.525,-0.551l0,-0.338l3.609,0.061c3.905,0.065 4.228,0.13 5.292,0.927c1.158,0.889 1.468,2.652 0.673,3.959c-0.687,1.15 -1.885,1.751 -3.77,1.921l-0.997,0.091l-0.242,-0.549l-0.256,-0.548l0.579,-0.079c0.74,-0.091 1.548,-0.522 1.979,-1.045c0.243,-0.287 0.337,-0.601 0.324,-1.15c-0.027,-1.398 -0.889,-2.247 -2.411,-2.365l-0.862,-0.065l0.041,4.795c0.054,5.226 0.08,5.37 0.969,5.54c0.323,0.065 0.431,0.17 0.431,0.431l0,0.34l-5.4,0l0,-0.34l0.068,-0.041Zm26.393,-0.052c0,-0.222 0.094,-0.324 0.296,-0.324c0.162,0 0.472,-0.124 0.674,-0.274l0.377,-0.275l0.04,-4.447c0.054,-4.978 -0.013,-5.354 -0.929,-5.665c-0.296,-0.098 -0.485,-0.267 -0.485,-0.418c0,-0.233 0.216,-0.262 2.424,-0.293c4.632,-0.068 5.615,-0.021 6.37,0.308c0.969,0.428 1.427,1.046 1.508,2.052c0.027,0.453 0.013,0.982 -0.041,1.176c-0.161,0.561 -0.902,1.251 -1.723,1.594l-0.768,0.316l0.647,0.173c1.535,0.405 2.504,1.856 2.302,3.411c-0.175,1.306 -0.794,2.051 -2.249,2.652c-0.767,0.313 -0.969,0.326 -4.645,0.326l-3.81,0l0,-0.326l0.012,0.014Zm7.003,-1.08c0.807,-0.489 1.131,-1.154 1.036,-2.156c-0.134,-1.503 -1.306,-2.398 -3.137,-2.398l-0.97,0l0.041,2.167c0.04,2.074 0.067,2.176 0.417,2.439c0.539,0.4 1.872,0.374 2.572,-0.052l0.041,0Zm-0.66,-5.962c0.969,-0.34 1.481,-1.028 1.387,-1.864c-0.135,-1.124 -1.145,-1.749 -2.815,-1.749l-0.956,0l0,3.874l0.835,-0.008c0.458,-0.004 1.145,-0.117 1.535,-0.253l0.014,0Zm6.517,7.05c0,-0.231 0.108,-0.327 0.418,-0.358c0.229,-0.026 0.565,-0.222 0.754,-0.451c0.323,-0.392 0.336,-0.562 0.336,-4.808c0,-3.527 -0.053,-4.472 -0.228,-4.76c-0.283,-0.448 -0.647,-0.705 -1.01,-0.712c-0.189,-0.013 -0.283,-0.117 -0.283,-0.339c0,-0.327 0,-0.327 2.855,-0.327c2.854,0 2.854,0 2.854,0.314c0,0.222 -0.094,0.313 -0.309,0.313c-0.175,0 -0.512,0.157 -0.754,0.34l-0.404,0.379l-0.054,4.52l-0.041,4.521l0.404,0.235c0.324,0.183 0.66,0.222 1.643,0.17c1.508,-0.078 2.222,-0.418 2.64,-1.267c0.269,-0.562 0.579,-0.693 0.996,-0.458c0.148,0.092 0.121,0.353 -0.121,1.242c-0.175,0.614 -0.431,1.28 -0.566,1.463l-0.256,0.34l-4.443,-0.053l-4.444,-0.052l0,-0.313l0.013,0.061Zm11.123,0.044c0,-0.265 0.108,-0.36 0.485,-0.428c0.875,-0.157 0.943,-0.549 0.943,-5.36c0,-3.995 -0.027,-4.303 -0.31,-4.736c-0.175,-0.254 -0.498,-0.504 -0.714,-0.554c-0.283,-0.052 -0.404,-0.183 -0.404,-0.392c0,-0.3 0.041,-0.3 2.707,-0.3c2.666,0 2.693,0.013 2.693,0.313c0,0.209 -0.134,0.34 -0.39,0.405c-0.216,0.053 -0.526,0.262 -0.674,0.484c-0.255,0.353 -0.282,0.823 -0.282,4.769c0,4.873 0.067,5.265 0.888,5.422c0.337,0.065 0.445,0.17 0.445,0.431l0,0.34l-5.4,0l0,-0.34l0.013,-0.054Zm38.002,-0.026c0,-0.235 0.121,-0.337 0.484,-0.402c0.876,-0.157 0.943,-0.549 0.943,-5.375c0,-4.228 -0.013,-4.295 -0.364,-4.776c-0.202,-0.267 -0.525,-0.509 -0.713,-0.533c-0.256,-0.032 -0.35,-0.143 -0.35,-0.394l0,-0.349l9.372,0l0,1.506c0,1.49 -0.013,1.503 -0.39,1.503c-0.31,0 -0.404,-0.092 -0.485,-0.497c-0.189,-0.849 -0.835,-1.136 -2.734,-1.202l-1.602,-0.052l-0.108,0.68c-0.054,0.365 -0.108,1.293 -0.108,2.038l0,1.358l1.347,-0.078c1.481,-0.091 2.074,-0.327 2.235,-0.901c0.068,-0.262 0.202,-0.366 0.472,-0.366l0.377,0l0,3.723l-0.391,0c-0.269,0 -0.404,-0.078 -0.404,-0.248c-0.013,-0.718 -0.781,-1.045 -2.383,-1.045l-1.307,0l0.054,2.012c0.068,2.443 0.054,2.43 1.953,2.43c1.683,0 2.558,-0.366 3.016,-1.254c0.229,-0.457 0.404,-0.614 0.66,-0.614c0.189,0 0.404,0.065 0.458,0.157c0.148,0.209 -0.566,2.547 -0.848,2.796c-0.189,0.169 -0.997,0.196 -4.741,0.169l-4.511,-0.026l0,-0.313l0.068,0.053Zm17.492,0.034c0,-0.235 0.148,-0.392 0.498,-0.538c0.283,-0.112 0.647,-0.387 0.835,-0.61c0.323,-0.392 0.323,-0.569 0.323,-5.812c0,-6.088 -0.013,-6.153 -1.117,-6.48c-0.431,-0.131 -0.566,-0.248 -0.566,-0.523l0,-0.352l11.123,0l0,3.593l-0.485,0c-0.39,0 -0.484,-0.066 -0.484,-0.327c0,-0.536 -0.593,-1.254 -1.239,-1.503c-0.377,-0.143 -1.239,-0.261 -2.37,-0.3l-1.791,-0.065l0,4.912l1.306,-0.013c1.751,-0.013 2.343,-0.209 2.72,-0.888c0.242,-0.445 0.377,-0.549 0.754,-0.549l0.471,0l0,4.324l-0.511,-0.052c-0.35,-0.039 -0.539,-0.143 -0.593,-0.339c-0.256,-0.85 -1.225,-1.229 -3.164,-1.229l-1.024,0l0.068,2.548c0.067,2.901 0.202,3.332 1.158,3.632c0.417,0.131 0.552,0.262 0.552,0.51l0,0.326l-6.518,0l0,-0.326l0.054,0.061Zm25.438,-0.026c0,-0.261 0.08,-0.358 0.309,-0.358c0.485,0 1.037,-0.895 2.249,-3.619c1.616,-3.653 3.151,-7.365 3.151,-7.63c0,-0.179 0.162,-0.23 0.754,-0.227l0.754,0.002l2.142,4.961c2.329,5.387 2.76,6.224 3.299,6.441c0.215,0.085 0.35,0.265 0.35,0.464c0,0.327 0,0.327 -2.707,0.327l-2.707,0l0,-0.343c0,-0.261 0.108,-0.36 0.472,-0.426c0.687,-0.122 0.727,-0.54 0.202,-1.959l-0.458,-1.219l-3.757,0l-0.377,1.006c-0.485,1.267 -0.458,2.129 0.067,2.208c0.256,0.039 0.35,0.143 0.35,0.392l0,0.352l-4.134,0l0,-0.352l0.041,-0.02Zm7.312,-5.024c0,-0.209 -1.172,-3.083 -1.266,-3.083c-0.067,0 -0.229,0.274 -0.364,0.614l-0.673,1.581l-0.404,0.967l1.347,0c0.74,0 1.346,-0.026 1.346,-0.065l0.014,-0.014Zm6.84,5.044c0,-0.249 0.108,-0.353 0.431,-0.418c0.862,-0.157 0.889,-0.353 0.956,-5.044c0.068,-4.834 0,-5.239 -0.929,-5.552c-0.282,-0.092 -0.484,-0.262 -0.484,-0.418c0,-0.223 0.175,-0.249 1.791,-0.249l1.777,0l1.037,1.189c0.566,0.654 2.033,2.247 3.259,3.554c1.225,1.307 2.383,2.574 2.585,2.809l0.364,0.431l-0.054,-3.24c-0.054,-3.528 -0.148,-3.893 -0.997,-4.089c-0.255,-0.053 -0.404,-0.196 -0.404,-0.366c0,-0.248 0.149,-0.275 2.142,-0.275c2.02,0 2.141,0.027 2.141,0.288c0,0.183 -0.135,0.3 -0.35,0.326c-0.189,0.027 -0.499,0.236 -0.674,0.458c-0.323,0.392 -0.336,0.588 -0.39,5.709l-0.054,5.305l-0.7,0c-0.633,0 -0.754,-0.052 -1.226,-0.601c-0.431,-0.484 -7.164,-8.022 -7.42,-8.284c-0.04,-0.039 -0.04,1.542 0,3.515c0.068,4.011 0.175,4.481 0.93,4.625c0.35,0.065 0.457,0.157 0.457,0.418l0,0.34l-4.282,0l0,-0.34l0.094,-0.091Zm27.821,-0.013c0,-0.209 0.081,-0.353 0.216,-0.353c0.31,0 0.902,-0.666 1.32,-1.516c0.579,-1.163 3.299,-7.499 3.77,-8.78l0.431,-1.189l1.427,0.105l2.101,4.886c1.158,2.692 2.235,5.109 2.397,5.383c0.35,0.641 0.875,1.15 1.145,1.15c0.121,0 0.215,0.157 0.215,0.366l0,0.366l-5.413,0l0,-0.366c0,-0.248 0.081,-0.353 0.283,-0.353c0.767,0 0.834,-0.601 0.255,-2.182l-0.417,-1.11l-3.73,0l-0.337,0.967c-0.633,1.829 -0.606,2.338 0.148,2.338c0.216,0 0.297,0.105 0.297,0.366l0,0.366l-4.134,0l0,-0.366l0.026,-0.078Zm6.747,-6.415c-0.31,-0.81 -0.593,-1.568 -0.646,-1.686c-0.054,-0.131 -0.377,0.418 -0.795,1.372c-0.39,0.875 -0.7,1.633 -0.7,1.685c0,0.066 0.592,0.118 1.333,0.118l1.333,0l-0.552,-1.463l0.027,-0.026Zm7.245,6.428c0,-0.275 0.081,-0.353 0.363,-0.353c0.202,0 0.512,-0.131 0.674,-0.301c0.269,-0.274 0.296,-0.614 0.336,-4.768c0.027,-2.457 0.014,-4.612 -0.04,-4.782c-0.108,-0.405 -0.7,-0.902 -1.064,-0.902c-0.202,0 -0.296,-0.104 -0.296,-0.313c0,-0.314 0,-0.314 2.693,-0.314c2.599,0 2.707,0.013 2.707,0.287c0,0.183 -0.175,0.366 -0.472,0.471c-0.255,0.104 -0.525,0.366 -0.619,0.575c-0.229,0.548 -0.364,5.03 -0.216,7.447c0.095,1.685 0.162,2.09 0.418,2.339c0.162,0.169 0.431,0.3 0.592,0.3c0.202,0 0.283,0.105 0.283,0.366l0,0.366l-5.4,0l0,-0.366l0.041,-0.052Zm17.802,-0.026c0,-0.249 0.094,-0.327 0.39,-0.327c0.229,0 0.512,-0.157 0.714,-0.379c0.31,-0.366 0.323,-0.536 0.323,-4.886c0,-3.149 -0.054,-4.599 -0.188,-4.821c-0.243,-0.392 -0.62,-0.654 -0.97,-0.667c-0.188,0 -0.283,-0.117 -0.283,-0.366l0,-0.352l9.534,0l0,3.031l-0.417,-0.039c-0.31,-0.027 -0.458,-0.157 -0.593,-0.536c-0.309,-0.849 -0.834,-1.071 -2.733,-1.137l-1.67,-0.052l0,4.05l0.997,0c1.373,-0.013 2.046,-0.235 2.343,-0.81c0.175,-0.34 0.336,-0.457 0.633,-0.457l0.39,0l0,3.723l-0.404,0c-0.363,0 -0.444,-0.065 -0.444,-0.339c0,-0.64 -0.525,-0.876 -2.088,-0.928l-1.413,-0.052l0,2.012c0,2.43 0.026,2.469 1.844,2.469c1.791,0 2.721,-0.405 3.192,-1.398c0.229,-0.496 0.781,-0.64 0.956,-0.248c0.108,0.261 -0.337,1.947 -0.673,2.535l-0.243,0.418l-4.605,-0.026l-4.606,-0.026l0,-0.34l0.014,-0.052Zm-213.019,-13.106l-0.387,-0.271l0.946,-1.293c0.52,-0.719 1.046,-1.307 1.171,-1.307c0.536,0 2.249,0.327 2.206,0.431c-0.086,0.207 -3.224,2.731 -3.387,2.727c-0.087,0 -0.334,-0.123 -0.548,-0.274l-0.001,-0.013Zm-20.199,-9.914l242.174,0l0,1.287l-242.177,0l0,-1.291l0.003,0.004Zm92.169,-2.94c-1.272,-0.41 -1.988,-1.476 -1.756,-2.626c0.161,-0.771 0.646,-1.314 1.508,-1.672l0.754,-0.314l-0.458,-0.235c-0.256,-0.137 -0.458,-0.362 -0.458,-0.523c0,-0.261 1.172,-1.306 1.454,-1.306c0.068,0 -0.026,-0.239 -0.215,-0.531c-0.808,-1.246 -0.162,-3.047 1.36,-3.752c0.822,-0.383 1.104,-0.399 3.986,-0.233c1.656,0.097 1.724,0.113 1.629,0.405c-0.04,0.17 -0.08,0.356 -0.094,0.416c0,0.059 -0.269,0.107 -0.619,0.107l-0.62,0l0.081,0.834c0.189,1.82 -1.252,3.066 -3.568,3.1c-1.199,0.017 -1.778,0.248 -1.307,0.52c0.135,0.076 0.916,0.333 1.724,0.572c2.639,0.771 3.124,1.159 3.016,2.391c-0.107,1.287 -1.252,2.404 -2.908,2.855c-0.943,0.257 -2.653,0.255 -3.461,-0.005l-0.048,-0.003Zm3.541,-0.888c1.29,-0.579 1.849,-1.686 1.145,-2.261c-0.477,-0.388 -2.543,-0.985 -3.079,-0.888c-1.09,0.196 -2.114,1.398 -1.925,2.26c0.256,1.189 2.195,1.637 3.851,0.891l0.008,-0.002Zm0.426,-6.494c0.969,-0.53 1.346,-2.045 0.7,-2.792c-0.889,-1.024 -2.586,0.118 -2.599,1.751c0,0.507 0.081,0.686 0.444,0.967c0.539,0.418 0.835,0.431 1.482,0.078l-0.027,-0.004Zm6.032,3.332c-0.7,-0.131 -1.063,-0.549 -1.144,-1.294c-0.202,-1.907 1.575,-4.708 3.568,-5.611c1.037,-0.471 3.084,-0.518 4.444,-0.105c0.121,0.039 0.041,0.529 -0.283,1.538c-0.606,1.973 -0.969,3.948 -0.767,4.289c0.134,0.223 0.229,0.24 0.66,0.108c0.39,-0.131 0.525,-0.118 0.633,0.039c0.228,0.326 0.094,0.444 -0.822,0.731c-1.212,0.379 -1.777,0.301 -1.966,-0.261l-0.135,-0.444l-0.646,0.327c-1.091,0.561 -2.599,0.849 -3.501,0.679l-0.041,0.004Zm2.748,-1.29c0.471,-0.198 0.942,-0.503 1.077,-0.679c0.215,-0.291 0.862,-2.443 1.118,-3.698c0.107,-0.513 0.094,-0.531 -0.485,-0.675c-1.064,-0.272 -2.141,0.431 -2.99,1.96c-0.889,1.594 -1.117,3.02 -0.538,3.39c0.404,0.254 0.646,0.209 1.844,-0.3l-0.026,0.002Zm75.289,1.248c-0.714,-0.157 -0.957,-0.379 -1.159,-1.032c-0.296,-0.993 0.391,-2.871 1.563,-4.259c1.4,-1.66 2.949,-2.222 5.238,-1.895c0.606,0.086 1.144,0.203 1.198,0.257c0.068,0.053 -0.134,0.971 -0.444,2.039c-0.296,1.064 -0.566,2.355 -0.579,2.869l-0.027,0.938l0.673,-0.026c0.606,-0.026 0.674,0.013 0.674,0.3c0,0.275 -0.149,0.366 -0.916,0.575c-1.252,0.353 -1.845,0.275 -1.912,-0.235c-0.027,-0.209 -0.081,-0.392 -0.108,-0.392c-0.027,0 -0.444,0.157 -0.916,0.34c-0.754,0.3 -2.302,0.692 -2.612,0.653c-0.054,0 -0.337,-0.065 -0.62,-0.118l-0.053,-0.014Zm2.666,-1.228c0.39,-0.183 0.835,-0.444 0.983,-0.588c0.35,-0.366 0.983,-2.234 1.32,-3.88c0.094,-0.445 0.067,-0.471 -0.539,-0.615c-0.512,-0.13 -0.727,-0.117 -1.185,0.079c-1.01,0.431 -2.007,1.894 -2.532,3.697c-0.498,1.728 0.121,2.135 1.98,1.299l-0.027,0.008Zm-172.447,0.901c-0.041,-0.183 0.242,-1.515 0.633,-2.965c0.781,-2.862 0.781,-3.097 -0.081,-2.875c-0.417,0.105 -0.458,0.079 -0.458,-0.209c0,-0.274 0.148,-0.366 0.916,-0.572c0.498,-0.131 1.171,-0.256 1.468,-0.274c0.525,-0.031 0.565,-0.004 0.606,0.449c0.027,0.265 -0.243,1.577 -0.606,2.914c-0.364,1.34 -0.62,2.534 -0.566,2.657c0.081,0.176 0.242,0.201 0.821,0.123c0.687,-0.096 0.728,-0.084 0.674,0.228c-0.041,0.262 -0.243,0.379 -0.929,0.575c-0.472,0.131 -1.212,0.249 -1.63,0.249c-0.646,0 -0.754,-0.04 -0.835,-0.314l-0.013,0.014Zm6.113,0.066l-0.363,-0.275l1.239,-4.886c0.673,-2.688 1.212,-5.069 1.185,-5.297c-0.054,-0.422 -0.108,-0.444 -0.727,-0.274c-0.297,0.082 -0.35,0.044 -0.35,-0.261c0,-0.419 0.565,-0.621 2.114,-0.758c0.888,-0.079 0.915,-0.075 0.915,0.261c0,0.191 -0.242,1.372 -0.552,2.624c-0.309,1.254 -0.552,2.358 -0.552,2.46c0,0.144 0.175,0.117 0.687,-0.086c1.777,-0.706 3.313,-0.667 3.878,0.091c0.525,0.719 0.256,2.561 -0.592,4.076c-0.431,0.797 -1.737,2.026 -2.451,2.313c-0.929,0.379 -3.865,0.392 -4.39,0l-0.041,0.012Zm4.027,-0.915c0.808,-0.509 1.697,-2.234 1.939,-3.75c0.256,-1.528 -0.862,-1.829 -2.639,-0.718c-0.377,0.235 -0.674,0.575 -0.835,0.954c-0.283,0.705 -0.876,2.992 -0.876,3.399c0,0.601 1.549,0.672 2.424,0.105l-0.013,0.01Zm6.073,0.732c-0.431,-0.405 -0.458,-0.523 -0.458,-1.477c0.027,-2.425 1.549,-4.592 3.65,-5.187c1.05,-0.3 1.979,-0.195 2.598,0.281c0.364,0.277 0.431,0.45 0.431,1.036c0,1.477 -1.481,2.6 -3.635,2.731c-0.62,0.039 -1.185,0.144 -1.239,0.231c-0.175,0.246 -0.135,1.072 0.067,1.424c0.404,0.68 0.97,0.699 2.33,0.066c0.848,-0.392 1.023,-0.431 1.158,-0.248c0.283,0.401 0.148,0.527 -1.078,1.051c-1.023,0.434 -1.414,0.523 -2.275,0.523c-0.943,0 -1.078,-0.037 -1.509,-0.439l-0.04,0.008Zm2.855,-3.449c1.36,-0.34 2.249,-1.647 1.562,-2.274c-0.431,-0.394 -0.835,-0.381 -1.401,0.046c-0.444,0.34 -1.171,1.415 -1.387,2.056c-0.08,0.262 -0.04,0.314 0.27,0.314c0.202,0 0.646,-0.078 0.983,-0.157l-0.027,0.015Zm5.359,3.834c0,-0.021 0.283,-1.136 0.633,-2.469c0.35,-1.337 0.647,-2.712 0.647,-3.057l0,-0.628l-0.633,0.092c-0.566,0.078 -0.633,0.057 -0.633,-0.196c0,-0.314 0.512,-0.555 1.804,-0.847c0.889,-0.196 1.226,-0.061 1.226,0.497l0,0.337l0.565,-0.345c0.997,-0.601 1.603,-0.719 2.316,-0.418c0.351,0.144 0.606,0.326 0.58,0.418c-0.431,1.372 -0.674,1.803 -1.024,1.803c-0.31,0 -0.363,-0.065 -0.363,-0.483c0,-1.046 -0.997,-1.046 -1.738,-0.014c-0.444,0.654 -0.915,2.117 -1.292,4.064c-0.108,0.588 -0.283,1.071 -0.364,1.097c-0.283,0.079 -1.683,0.209 -1.683,0.17l-0.041,-0.021Zm7.986,-0.136c-0.175,-0.183 -0.081,-0.705 0.835,-4.442l0.377,-1.542l-0.539,0c-0.296,0 -0.539,-0.039 -0.539,-0.078c0,-0.222 0.364,-0.64 0.553,-0.64c0.39,0 1.131,-0.68 1.454,-1.32c0.35,-0.705 0.485,-0.823 1.01,-0.823c0.35,0 0.377,0.052 0.283,0.47c-0.054,0.262 -0.148,0.719 -0.202,1.007l-0.095,0.535l0.741,0c0.754,0 0.862,0.118 0.646,0.64c-0.067,0.17 -0.309,0.236 -0.848,0.236c-0.889,0 -0.741,-0.288 -1.441,2.861c-0.512,2.312 -0.485,2.521 0.377,2.299c0.727,-0.183 0.781,-0.169 0.727,0.196c-0.04,0.249 -0.242,0.379 -0.848,0.562c-0.97,0.301 -2.195,0.34 -2.437,0.079l-0.054,-0.04Zm6.423,-0.183c-1.158,-1.123 -0.323,-4.35 1.535,-5.853c0.754,-0.614 1.939,-1.084 2.707,-1.084c0.498,0 1.575,0.457 1.737,0.731c0.256,0.432 0.175,1.464 -0.148,1.947c-0.66,0.993 -2.114,1.633 -3.69,1.633l-0.929,0l0,0.758c0,1.476 0.687,1.725 2.464,0.941c0.566,-0.248 1.064,-0.431 1.105,-0.392c0.04,0.039 0.094,0.196 0.134,0.353c0.041,0.235 -0.175,0.392 -1.117,0.823c-1.024,0.47 -1.32,0.535 -2.276,0.535c-0.983,0 -1.145,-0.039 -1.481,-0.365l-0.041,-0.027Zm2.801,-3.514c0.848,-0.248 1.427,-0.693 1.683,-1.241c0.216,-0.458 0.216,-0.536 -0.067,-0.876c-0.431,-0.522 -0.862,-0.535 -1.522,-0.013c-0.511,0.405 -1.373,1.751 -1.373,2.143c0,0.209 0.606,0.196 1.279,-0.013l0,0Zm59.722,3.802c-0.215,-0.196 -0.081,-1.045 0.687,-3.972c1.037,-3.972 1.589,-6.324 1.589,-6.703c0,-0.274 -0.067,-0.3 -0.552,-0.222c-0.498,0.079 -0.552,0.053 -0.552,-0.261c0,-0.353 0.404,-0.523 1.979,-0.797c0.822,-0.131 1.051,-0.039 1.051,0.431c0,0.222 -0.525,2.483 -1.185,5.043c-0.66,2.561 -1.199,4.874 -1.199,5.135l0,0.484l0.727,-0.079c0.687,-0.078 0.728,-0.065 0.674,0.235c-0.041,0.249 -0.243,0.379 -0.916,0.562c-0.889,0.261 -2.087,0.34 -2.276,0.17l-0.027,-0.026Zm5.993,-0.079c-0.189,-0.287 -0.081,-0.901 0.592,-3.305c0.364,-1.241 0.62,-2.378 0.593,-2.509c-0.068,-0.248 -0.108,-0.261 -0.795,-0.117c-0.363,0.078 -0.444,0.052 -0.444,-0.196c0,-0.34 0.687,-0.64 1.925,-0.862c0.889,-0.144 1.266,-0.066 1.266,0.261c0,0.117 -0.323,1.437 -0.713,2.926c-0.391,1.49 -0.674,2.783 -0.606,2.862c0.067,0.091 0.377,0.117 0.808,0.065c0.673,-0.078 0.713,-0.065 0.659,0.235c-0.04,0.249 -0.242,0.379 -0.929,0.562c-1.023,0.301 -2.154,0.34 -2.316,0.092l-0.04,-0.014Zm5.871,-0.065c-0.054,-0.131 -0.014,-0.601 0.094,-1.032c0.364,-1.437 1.131,-4.756 1.131,-4.821c0,-0.039 -0.215,-0.065 -0.484,-0.065c-0.687,0 -0.553,-0.405 0.255,-0.784c0.485,-0.222 0.768,-0.51 1.158,-1.189c0.458,-0.771 0.593,-0.889 0.984,-0.889l0.444,0l-0.216,0.902c-0.121,0.496 -0.215,0.94 -0.215,1.006c0,0.052 0.35,0.104 0.794,0.104c0.835,0 0.862,0.013 0.701,0.536c-0.081,0.287 -0.202,0.327 -0.916,0.327l-0.821,0l-0.539,2.417c-0.296,1.332 -0.498,2.521 -0.444,2.652c0.08,0.183 0.202,0.209 0.619,0.091c0.727,-0.182 0.768,-0.169 0.768,0.209c0,0.288 -0.135,0.379 -0.93,0.575c-1.225,0.314 -2.222,0.314 -2.356,0l-0.027,-0.039Zm6.558,-0.078c-0.391,-0.301 -0.471,-0.471 -0.525,-1.281c-0.121,-1.803 0.794,-3.841 2.154,-4.782c1.508,-1.032 3.151,-1.162 4.067,-0.339c0.431,0.392 0.471,0.496 0.391,1.149c-0.149,1.425 -1.657,2.457 -3.731,2.548c-1.292,0.066 -1.427,0.209 -1.171,1.215c0.283,1.098 0.781,1.215 2.37,0.536c1.05,-0.444 1.293,-0.444 1.293,0c0,0.457 -1.899,1.202 -3.273,1.267c-1.01,0.053 -1.171,0.026 -1.575,-0.3l0,-0.013Zm3.366,-3.841c0.997,-0.458 1.428,-1.464 0.862,-2.026c-0.713,-0.705 -2.02,0.223 -2.68,1.895l-0.228,0.614l0.713,-0.091c0.391,-0.053 0.997,-0.223 1.347,-0.379l-0.014,-0.013Zm38.015,4.115c0,-0.026 0.283,-1.137 0.633,-2.469c0.35,-1.333 0.647,-2.705 0.647,-3.058l0,-0.627l-0.633,0.092c-0.566,0.078 -0.633,0.065 -0.633,-0.196c0,-0.34 0.282,-0.484 1.575,-0.784c1.118,-0.261 1.455,-0.157 1.455,0.444l0,0.34l0.565,-0.34c0.997,-0.601 1.603,-0.718 2.316,-0.431c0.35,0.144 0.62,0.3 0.62,0.34c0,0.052 -0.148,0.496 -0.35,0.98c-0.297,0.744 -0.418,0.901 -0.714,0.901c-0.296,0 -0.364,-0.078 -0.364,-0.483c0,-0.98 -0.929,-1.059 -1.629,-0.131c-0.525,0.706 -0.795,1.476 -1.239,3.488c-0.188,0.915 -0.39,1.699 -0.444,1.738c-0.095,0.092 -1.764,0.301 -1.764,0.222l-0.041,-0.026Zm18.341,-0.17c-0.121,-0.3 0.027,-1.189 0.633,-3.723l0.525,-2.156l-0.444,-0.039c-0.525,-0.053 -0.62,-0.523 -0.121,-0.667c0.565,-0.156 1.212,-0.744 1.521,-1.385c0.35,-0.705 0.485,-0.823 1.01,-0.823c0.35,0 0.377,0.053 0.283,0.471c-0.054,0.261 -0.148,0.718 -0.202,1.006l-0.094,0.535l0.74,0c0.754,0 0.862,0.118 0.647,0.641c-0.068,0.169 -0.31,0.235 -0.849,0.235c-0.875,0 -0.74,-0.288 -1.44,2.861c-0.512,2.313 -0.485,2.522 0.377,2.3c0.727,-0.183 0.781,-0.17 0.727,0.196c-0.041,0.248 -0.243,0.378 -0.849,0.561c-1.05,0.327 -2.275,0.34 -2.41,0.04l-0.054,-0.053Zm6.423,-0.143c-1.198,-1.085 -0.363,-4.338 1.509,-5.854c0.754,-0.614 1.939,-1.084 2.706,-1.084c0.499,0 1.576,0.457 1.737,0.732c0.256,0.431 0.175,1.463 -0.148,1.959c-0.673,1.006 -2.114,1.633 -3.703,1.633l-0.943,0l0.081,0.889c0.121,1.398 0.687,1.594 2.424,0.81c0.566,-0.248 1.064,-0.431 1.104,-0.392c0.041,0.039 0.095,0.196 0.135,0.353c0.054,0.235 -0.175,0.392 -1.118,0.823c-1.01,0.47 -1.319,0.536 -2.235,0.536c-0.929,0 -1.118,-0.04 -1.481,-0.366l-0.068,-0.039Zm3.34,-3.737c1.118,-0.497 1.616,-1.646 0.916,-2.13c-0.458,-0.313 -0.795,-0.261 -1.401,0.222c-0.511,0.405 -1.373,1.751 -1.373,2.156c0,0.235 1.09,0.092 1.845,-0.248l0.013,0Zm4.834,3.998c0,-0.065 0.297,-1.228 0.647,-2.587c0.363,-1.359 0.633,-2.678 0.606,-2.927c-0.041,-0.418 -0.081,-0.444 -0.633,-0.418c-0.445,0.013 -0.593,-0.039 -0.66,-0.248c-0.054,-0.222 0.081,-0.327 0.741,-0.549c0.457,-0.157 1.09,-0.313 1.414,-0.379c0.619,-0.104 0.605,-0.117 0.996,0.732c0.013,0.013 0.431,-0.17 0.943,-0.405c1.104,-0.497 1.279,-0.523 1.952,-0.144l0.512,0.275l-0.337,0.927c-0.283,0.784 -0.404,0.941 -0.7,0.941c-0.296,0 -0.364,-0.078 -0.364,-0.47c0,-1.255 -1.319,-1.006 -2.033,0.379c-0.175,0.339 -0.539,1.541 -0.794,2.665c-0.256,1.123 -0.499,2.051 -0.526,2.077c-0.134,0.105 -1.723,0.196 -1.723,0.105l-0.041,0.026Zm7.959,0c0,-0.065 0.256,-1.019 0.579,-2.117c0.337,-1.202 0.579,-2.391 0.592,-2.992l0.027,-1.006l-0.565,0.053c-0.445,0.039 -0.593,-0.014 -0.647,-0.223c-0.067,-0.222 0.068,-0.313 0.728,-0.496c1.44,-0.405 1.777,-0.431 2.06,-0.17c0.134,0.118 0.256,0.379 0.256,0.575c0,0.183 0.027,0.34 0.067,0.34c0.027,0 0.498,-0.196 1.05,-0.431c1.28,-0.549 2.976,-0.837 3.488,-0.588c0.323,0.156 0.35,0.235 0.256,0.901c-0.067,0.392 -0.323,1.503 -0.579,2.456c-0.256,0.954 -0.485,1.96 -0.512,2.235c-0.04,0.496 -0.04,0.496 0.62,0.483c0.457,-0.013 0.7,0.052 0.754,0.196c0.121,0.3 -0.027,0.392 -1.024,0.653c-1.131,0.301 -2.181,0.301 -2.302,0c-0.054,-0.13 0.188,-1.372 0.538,-2.783c0.7,-2.822 0.741,-3.148 0.404,-3.253c-0.35,-0.118 -1.562,0.418 -2.289,1.006c-0.606,0.483 -0.673,0.64 -1.05,2.051c-0.216,0.85 -0.445,1.843 -0.512,2.221c-0.067,0.379 -0.202,0.719 -0.296,0.745c-0.485,0.131 -1.697,0.196 -1.697,0.092l0.054,0.052Zm10.907,-0.105c-0.054,-0.13 0.229,-1.45 0.633,-2.952c0.404,-1.49 0.7,-2.796 0.647,-2.914c-0.054,-0.144 -0.202,-0.157 -0.606,-0.052c-0.283,0.078 -0.539,0.143 -0.566,0.143c-0.013,0 -0.04,-0.143 -0.04,-0.326c0,-0.275 0.148,-0.366 0.835,-0.549c1.885,-0.509 2.464,-0.418 2.275,0.34c-0.04,0.196 -0.377,1.437 -0.727,2.77c-0.35,1.332 -0.606,2.521 -0.552,2.639c0.067,0.157 0.269,0.196 0.822,0.117c0.673,-0.078 0.713,-0.065 0.673,0.236c-0.108,0.614 -3.151,1.149 -3.38,0.601l-0.014,-0.053Zm6.006,0c-0.107,-0.248 0.027,-0.927 0.647,-3.423c0.686,-2.757 0.686,-2.508 0.107,-2.508c-0.7,0 -0.579,-0.392 0.229,-0.771c0.472,-0.222 0.754,-0.51 1.131,-1.15c0.418,-0.692 0.593,-0.862 0.943,-0.901c0.485,-0.053 0.485,-0.013 0.148,1.528l-0.094,0.471l0.835,0c0.7,0 0.821,0.039 0.74,0.222c-0.053,0.13 -0.094,0.326 -0.094,0.431c0,0.157 -0.215,0.209 -0.848,0.209l-0.849,0l-0.525,2.417c-0.283,1.333 -0.471,2.522 -0.417,2.652c0.081,0.196 0.202,0.209 0.633,0.105c0.727,-0.183 0.767,-0.17 0.767,0.209c0,0.3 -0.134,0.379 -0.929,0.575c-1.212,0.313 -2.222,0.313 -2.356,0l-0.068,-0.066Zm6.545,-0.104c-0.445,-0.353 -0.458,-0.392 -0.458,-1.777c0,-1.346 0.027,-1.463 0.606,-2.509c0.714,-1.28 1.508,-1.972 2.814,-2.404c2.263,-0.757 3.879,0.536 2.882,2.3c-0.566,1.006 -2.06,1.724 -3.595,1.724c-0.916,0 -0.983,0.027 -1.078,0.379c-0.134,0.484 0.041,1.202 0.35,1.529c0.364,0.379 0.983,0.314 2.101,-0.209c0.835,-0.379 1.01,-0.418 1.131,-0.248c0.283,0.405 0.148,0.562 -0.915,1.019c-0.822,0.366 -1.347,0.483 -2.195,0.522c-1.024,0.053 -1.172,0.027 -1.589,-0.3l-0.054,-0.026Zm3.474,-3.868c1.077,-0.535 1.441,-1.607 0.687,-2.051c-0.283,-0.17 -0.498,-0.196 -0.835,-0.091c-0.552,0.157 -1.36,1.097 -1.683,1.973l-0.256,0.679l0.74,-0.091c0.404,-0.053 1.018,-0.236 1.367,-0.419l-0.02,0Zm-240.493,3.775c0.027,-0.14 0.192,-0.274 0.364,-0.304c0.471,-0.079 0.875,-0.458 1.199,-1.106c0.417,-0.862 1.737,-6.846 1.777,-8.087c0.027,-1.058 0.027,-1.071 -0.485,-1.359c-0.983,-0.562 -0.713,-0.653 2.034,-0.653c2.181,0 2.545,0.039 2.545,0.222c0,0.131 -0.202,0.261 -0.485,0.313c-1.01,0.183 -1.4,1.085 -2.357,5.527c-0.888,4.155 -0.888,4.077 -0.484,4.442c0.309,0.275 0.471,0.301 1.71,0.249c1.67,-0.079 2.276,-0.327 2.855,-1.202c0.457,-0.68 0.484,-0.693 0.808,-0.51c0.188,0.105 0.175,0.248 -0.041,0.823c-0.134,0.392 -0.417,0.967 -0.619,1.281l-0.364,0.574l-4.255,0.04c-3.986,0.026 -4.255,0.013 -4.202,-0.223l0,-0.027Zm80.425,0.043c0,-0.112 0.27,-0.321 0.606,-0.466c0.418,-0.183 0.701,-0.458 0.943,-0.91c0.458,-0.842 1.831,-6.953 1.858,-8.244c0.027,-0.974 0.014,-1.006 -0.484,-1.291c-1.064,-0.614 -0.822,-0.653 4.026,-0.653c4.444,0 4.538,0.008 4.444,0.284c-0.054,0.143 -0.189,0.718 -0.296,1.254c-0.162,0.823 -0.243,0.98 -0.539,1.019c-0.283,0.039 -0.35,-0.026 -0.35,-0.34c0,-0.954 -0.62,-1.228 -2.855,-1.228l-1.535,0l-0.431,1.829c-0.243,1.006 -0.471,1.934 -0.512,2.078c-0.067,0.222 0.068,0.248 1.333,0.248c1.589,0 2.061,-0.157 2.518,-0.823c0.418,-0.601 0.957,-0.64 0.835,-0.079l-0.363,1.712c-0.216,1.045 -0.337,1.32 -0.539,1.32c-0.161,0 -0.296,-0.157 -0.363,-0.432c-0.054,-0.235 -0.256,-0.509 -0.458,-0.601c-0.377,-0.183 -2.882,-0.274 -3.057,-0.104c-0.108,0.091 -0.579,2.156 -0.781,3.449c-0.094,0.614 -0.067,0.693 0.296,0.915c0.323,0.196 0.687,0.222 1.805,0.183c1.656,-0.079 2.248,-0.314 2.93,-1.189c0.296,-0.379 0.579,-0.601 0.704,-0.549c0.31,0.104 0.275,0.366 -0.194,1.372c-0.7,1.502 -0.31,1.398 -5.184,1.398c-3.569,0 -4.269,-0.039 -4.269,-0.209l-0.088,0.057Zm80.784,0.003c0,-0.114 0.242,-0.28 0.525,-0.366c1.01,-0.31 1.346,-1.128 2.343,-5.772c0.862,-3.998 0.848,-4.638 -0.162,-4.929c-0.175,-0.052 -0.296,-0.169 -0.256,-0.261c0.054,-0.117 1.293,-0.176 4.485,-0.204c4.336,-0.039 4.417,-0.039 4.309,0.236c-0.054,0.156 -0.189,0.718 -0.296,1.254c-0.162,0.823 -0.243,0.98 -0.539,1.019c-0.296,0.039 -0.35,-0.026 -0.35,-0.405c0,-0.915 -0.768,-1.202 -2.936,-1.137l-1.252,0.039l-0.445,1.856c-0.242,1.019 -0.444,1.946 -0.444,2.038c0,0.261 2.424,0.235 3.003,-0.039c0.242,-0.118 0.539,-0.405 0.646,-0.654c0.122,-0.274 0.324,-0.444 0.499,-0.444c0.377,0 0.377,-0.104 -0.041,1.829c-0.283,1.359 -0.39,1.62 -0.633,1.62c-0.175,0 -0.282,-0.104 -0.282,-0.261c0,-0.666 -1.482,-1.176 -2.855,-0.967l-0.606,0.092l-0.323,1.607c-0.566,2.822 -0.539,3.083 0.323,3.397c0.956,0.352 0.404,0.483 -2.141,0.522c-2.088,0.04 -2.492,0.013 -2.492,-0.17l-0.08,0.1Zm-93.28,-3.086c-0.714,-0.292 -1.333,-1.193 -1.333,-1.929c0,-1.14 1.117,-2.159 2.37,-2.155c1.495,0.005 2.41,0.825 2.41,2.147c0.014,1.686 -1.697,2.653 -3.434,1.947l-0.013,-0.01Zm80.945,0.068c-0.27,-0.109 -0.701,-0.437 -0.943,-0.732c-0.364,-0.435 -0.444,-0.672 -0.431,-1.28c0.027,-1.317 0.929,-2.13 2.384,-2.13c0.727,0 0.969,0.072 1.454,0.431c1.104,0.797 1.279,2.13 0.404,3.07c-0.727,0.79 -1.831,1.037 -2.841,0.641l-0.027,0Zm-95.076,-5.102c-0.31,-0.311 -0.337,-0.279 1.467,-2.135l0.609,-0.627l0.905,0.183c0.498,0.102 0.906,0.227 0.906,0.279c0,0.097 -3.407,2.585 -3.537,2.585c-0.041,0 -0.202,-0.127 -0.364,-0.284l0.014,-0.001Zm80.893,0l-0.354,-0.256l1.198,-1.236c0.66,-0.68 1.253,-1.236 1.334,-1.236c0.39,0 1.75,0.352 1.723,0.444c-0.04,0.094 -3.003,2.244 -3.38,2.456c-0.094,0.047 -0.323,-0.03 -0.511,-0.17l-0.01,-0.002Zm105.704,0.002l-0.384,-0.261l1.244,-1.235c0.683,-0.679 1.3,-1.234 1.37,-1.234c0.323,0 1.75,0.345 1.737,0.418c0,0.078 -3.003,2.264 -3.394,2.476c-0.094,0.052 -0.35,-0.02 -0.556,-0.164l-0.017,0Zm-226.931,-0.737c-0.646,-0.582 -0.016,-1.706 0.956,-1.706c0.679,0 1.031,0.32 1.031,0.934c0,0.958 -1.246,1.443 -1.988,0.771l0.001,0.001Zm107.309,0.102c-0.391,-0.266 -0.368,-1.153 0.04,-1.522c0.654,-0.588 1.907,-0.196 1.907,0.601c0,0.863 -1.199,1.437 -1.939,0.941l-0.008,-0.02Zm105.606,-0.102c-0.66,-0.593 -0.013,-1.706 0.983,-1.706c0.997,0 1.428,1.006 0.7,1.657c-0.494,0.441 -1.238,0.464 -1.696,0.049l0.013,0Zm-139.32,-4.102c-0.243,-0.243 -0.189,-0.331 0.961,-1.459l1.226,-1.203l0.909,0.196c0.498,0.105 0.902,0.223 0.902,0.275c-0.014,0.144 -3.205,2.352 -3.488,2.417c-0.148,0.039 -0.377,-0.052 -0.511,-0.196l0.001,-0.03Z" style="fill-rule:nonzero;"/><path d="M139.945,74.613l0.372,-0.864c0.629,-1.564 1.279,-2.757 2.222,-4.068c0.996,-1.387 3.191,-3.431 4.103,-3.821c1.122,-0.481 2.515,-0.65 4.242,-0.515c1.481,0.118 6.028,0.788 7.864,1.163c1.398,0.282 3.445,0.309 4.407,0.056c1.855,-0.486 2.953,-1.428 3.475,-2.976c0.401,-1.189 0.397,-2.274 -0.01,-2.992c-0.547,-0.967 -0.454,-1.228 0.875,-2.365c0.655,-0.575 1.192,-1.098 1.194,-1.163c0,-0.392 -0.916,-1.921 -1.145,-1.934c-0.148,0 -0.431,-0.13 -0.633,-0.274l-0.377,-0.274l0.781,-0.366c1.077,-0.497 1.872,-1.268 1.872,-1.816c0,-0.235 -0.229,-0.81 -0.512,-1.281c-0.539,-0.901 -0.673,-1.764 -0.377,-2.273c0.189,-0.34 0.539,-0.483 2.209,-0.915c1.4,-0.365 1.912,-0.744 2.114,-1.554c0.161,-0.693 0.08,-1.137 -0.377,-1.973c-0.377,-0.68 -2.828,-4.064 -3.528,-4.887c-0.957,-1.11 -2.128,-3.031 -2.465,-4.063c-0.336,-1.019 -0.35,-1.084 -0.094,-2.391c0.525,-2.783 0.215,-5.082 -1.279,-9.564c-1.118,-3.345 -1.414,-4.155 -1.751,-4.782c-0.633,-1.123 -0.552,-1.385 0.741,-2.338c0.619,-0.458 1.185,-0.941 1.266,-1.085c0.39,-0.653 -0.054,-1.92 -0.782,-2.273c-0.471,-0.222 -0.727,-0.066 -1.198,0.718c-0.364,0.601 -0.512,0.706 -0.889,0.706c-0.633,0 -0.74,-0.235 -0.336,-0.719c0.457,-0.575 0.431,-0.666 -0.31,-0.757c-0.552,-0.066 -0.835,-0.262 -2.034,-1.359c-1.589,-1.464 -2.666,-2.143 -4.793,-3.031c-0.983,-0.405 -1.32,-0.601 -0.97,-0.549c0.31,0.039 1.387,0.117 2.41,0.17c2.95,0.13 3.663,-0.222 4.35,-2.143c0.458,-1.307 0.687,-1.908 -0.391,-2.822l-3.849,-3.239l88.213,0l0,74.613l-104.61,0Z" style="fill:#e2011c;fill-rule:nonzero;"/><path d="M64.722,74.613c-0.639,-0.06 -1.194,-0.086 -1.233,-0.121c-0.068,-0.06 0.655,-0.48 3.967,-2.3c1.064,-0.585 1.5,-0.898 1.352,-0.97c-0.121,-0.058 -1.047,-0.149 -2.061,-0.204c-1.505,-0.079 -1.941,-0.058 -2.383,0.127c-0.3,0.124 -1.492,0.449 -2.65,0.723c-2.882,0.68 -3.838,1.148 -4.767,2.3l-0.35,0.444l-56.597,0l0,-74.612l112.315,0l-2.176,1.28c-1.198,0.539 -2.591,1.285 -3.094,1.66c-1.708,1.267 -4.009,4.157 -4.583,5.755c-0.215,0.588 -0.404,0.806 -1.05,1.206c-0.997,0.609 -2.182,1.769 -3.165,3.091c-1.333,1.795 -3.878,5.84 -4.376,6.961c-0.781,1.741 -0.714,3.067 0.431,8.268c0.498,2.29 1.037,4.617 1.198,5.17c0.162,0.553 0.337,1.49 0.391,2.081c0.094,1.059 0.175,1.287 0.862,2.585c0.188,0.355 0.336,0.757 0.336,0.896c0,0.138 0.135,0.331 0.31,0.431c0.175,0.101 0.31,0.333 0.31,0.54c0,0.248 0.363,0.721 1.158,1.509c1.818,1.803 3.137,3.493 3.137,4.028c0,0.439 -0.713,0.552 -1.871,0.296c-1.347,-0.3 -2.451,-0.946 -4.148,-2.435c-0.727,-0.634 -1.306,-1.058 -1.306,-0.946c0,0.112 0.485,0.702 1.091,1.307c1.198,1.209 1.387,1.539 1.131,1.976c-0.229,0.385 -0.781,0.497 -1.535,0.31c-0.876,-0.216 -1.374,0.085 -1.239,0.728c0.081,0.405 0.067,0.444 -0.189,0.366c-0.485,-0.17 -1.562,-0.366 -2.518,-0.458c-0.889,-0.078 -0.956,-0.117 -1.481,-0.784c-0.404,-0.509 -0.727,-0.744 -1.145,-0.849c-1.575,-0.392 -5.507,-1.019 -8.133,-1.28c-4.633,-0.458 -5.75,-0.497 -7.972,-0.248c-1.71,0.182 -2.168,0.3 -3.098,0.718c-1.656,0.758 -4.524,3.136 -4.524,3.75c0,0.287 0.633,0.196 1.346,-0.209c2.182,-1.215 9.683,-2.94 13.359,-3.071c1.818,-0.065 1.724,0.014 -0.471,0.379c-0.606,0.105 -2.034,0.432 -3.178,0.745c-1.145,0.314 -3.125,0.784 -4.39,1.058c-1.266,0.262 -2.707,0.614 -3.178,0.771l-0.876,0.288l1.347,0.013c6.895,0.065 14.732,2.038 17.937,4.507c1.373,1.059 1.872,1.189 3.891,0.993c2.774,-0.261 6.356,-1.45 7.932,-2.639c0.687,-0.51 1.239,-0.719 1.239,-0.444c0,0.47 -0.902,2.992 -1.293,3.606c-0.431,0.705 -0.458,0.797 -0.229,0.954c0.135,0.091 0.216,0.209 0.162,0.248c-0.054,0.052 0.054,0.131 0.242,0.183c0.525,0.157 0.391,0.3 -0.444,0.483c-0.808,0.196 -1.455,0.523 -1.455,0.745c0,0.078 0.108,0.144 0.243,0.144c0.404,0 0.108,0.261 -0.431,0.365c-0.364,0.079 -0.431,0.131 -0.269,0.223c0.161,0.091 0.161,0.13 0.013,0.13c-0.108,0 -0.202,0.144 -0.202,0.327c0,0.222 -0.161,0.379 -0.485,0.509c-0.794,0.327 -0.579,0.497 0.512,0.405c0.552,-0.052 0.889,-0.052 0.754,0c-0.135,0.04 -1.023,0.405 -1.979,0.81c-0.97,0.392 -2.222,0.876 -2.788,1.059c-0.646,0.209 -1.05,0.418 -1.091,0.575c-0.053,0.248 0.243,0.235 0.997,-0.026c0.135,-0.053 0.256,-0.027 0.256,0.039c0,0.065 -1.657,0.927 -3.677,1.92c-2.033,0.993 -3.918,2.012 -4.214,2.261c-0.297,0.261 -0.66,0.47 -0.835,0.47c-0.162,0 -0.377,0.17 -0.485,0.366c-0.31,0.614 -0.256,0.692 0.485,0.575c1.09,-0.17 1.602,-0.157 1.67,0.039c0.04,0.104 -0.068,0.183 -0.243,0.183c-0.175,0 -0.39,0.091 -0.498,0.209c-0.108,0.117 -0.377,0.235 -0.606,0.248c-0.283,0.039 -0.539,0.209 -0.754,0.51c-0.175,0.248 -0.458,0.496 -0.633,0.535c-0.175,0.039 0.071,0.053 0.552,0.013c7.15,-0.483 8.484,-0.718 11.369,-2.038c2.459,-1.123 5.01,-2.809 6.828,-4.481c0.525,-0.484 1.01,-0.876 1.077,-0.876c0.246,0 0.112,0.797 -0.252,1.516c-0.633,1.228 -1.952,2.352 -4.673,3.985c-1.373,0.823 -2.854,1.607 -3.293,1.725c-1.366,0.391 -3.569,0.81 -5.885,1.11c-7.532,0.98 -10.415,1.725 -13.27,3.436c-0.482,0.275 -0.983,0.497 -1.117,0.471c-0.135,-0.013 -0.498,0.156 -0.795,0.392c-0.848,0.666 -0.229,0.548 1.549,-0.275c1.831,-0.849 2.68,-0.98 1.239,-0.196c-1.764,0.967 -3.097,1.581 -4.417,1.581l-7.023,0l0.085,-0.148Zm-9.356,-8.322c0.285,-0.109 1.231,-0.588 2.101,-1.064c0.871,-0.475 1.904,-0.998 2.298,-1.159l2.465,-1.006c2.015,-0.82 4.975,-1.594 5.144,-1.345c0.06,0.086 0.502,0.183 0.983,0.213c0.669,0.041 0.786,0.081 0.511,0.169c-0.196,0.062 -0.358,0.17 -0.358,0.241c0,0.259 1.488,0.183 2.114,-0.111c0.247,-0.118 0.802,-0.248 1.234,-0.301c0.538,-0.065 0.786,-0.156 0.786,-0.3c0,-0.17 0.138,-0.196 0.622,-0.118c0.67,0.105 2.106,-0.143 5.979,-1.019c2.62,-0.601 4.606,-1.202 6.35,-1.92l1.261,-0.523l-1.261,-0.732c-3.077,-1.777 -6.168,-2.874 -12.951,-4.586c-1.181,-0.3 -2.218,-0.614 -2.305,-0.692c-0.105,-0.092 -0.054,-0.105 0.159,-0.039c0.677,0.222 1.193,0.261 1.193,0.091c0,-0.209 -0.512,-0.379 -1.519,-0.509c-0.92,-0.118 -1.514,-0.366 -0.875,-0.366c0.989,0 -0.711,-0.575 -2.616,-0.863c-1.409,-0.222 -1.49,-0.274 -0.902,-0.535c0.512,-0.222 1.064,-1.072 0.92,-1.411c-0.121,-0.301 -0.269,-0.262 -1.037,0.196c-1.468,0.888 -2.814,2.351 -3.568,3.867c-0.431,0.862 -0.283,0.941 1.939,1.032c1.831,0.066 1.858,0.079 1.387,0.301c-0.256,0.117 -0.781,0.274 -1.172,0.326c-1.293,0.17 -2.006,0.732 -1.36,1.059c0.189,0.091 0.121,0.169 -0.35,0.379c-0.525,0.222 -0.552,0.274 -0.31,0.391c0.162,0.079 0.62,0.118 1.024,0.092c0.565,-0.039 0.821,0.013 1.09,0.222l0.351,0.274l-0.701,0.392c-0.39,0.222 -0.821,0.614 -0.969,0.863c-0.148,0.248 -0.674,0.849 -1.185,1.332c-0.499,0.484 -0.916,0.98 -0.916,1.111c0,0.118 -0.727,0.758 -1.629,1.398c-2.411,1.738 -3.461,2.704 -3.461,3.162c0,0.248 -0.135,0.457 -0.377,0.601c-0.754,0.444 -1.145,0.953 -0.727,0.953c0.094,0 0.404,-0.091 0.686,-0.195l-0.048,0.129Zm18.601,-1.678c0.595,-0.072 1.286,-0.239 1.532,-0.371l0.45,-0.24l-0.768,-0.345l-0.767,-0.345l-0.765,0.28c-0.422,0.154 -1.005,0.361 -1.296,0.461c-1.174,0.401 -1.326,0.94 -0.226,0.792c0.418,-0.053 1.243,-0.157 1.84,-0.223l0,-0.009Zm-26.923,-6.53c3.541,-3.345 6.043,-5.33 9.217,-7.316c1.078,-0.675 1.84,-1.065 1.878,-0.963c0.102,0.274 0.565,0.196 1.317,-0.235c0.864,-0.497 1.296,-1.006 2.375,-2.757c1.118,-1.829 1.543,-2.287 3.158,-3.41c0.767,-0.523 1.872,-1.32 2.478,-1.751c0.875,-0.627 1.077,-0.732 1.01,-0.483c-0.054,0.182 -0.014,0.313 0.107,0.313c0.364,0 2.074,-0.666 2.128,-0.823c0.094,-0.261 -1.63,-0.523 -2.909,-0.444c-0.983,0.052 -1.319,0.157 -2.545,0.744c-2.855,1.398 -4.928,2.901 -8.874,6.468c-2.841,2.561 -5.077,4.285 -6.208,4.769c-0.364,0.156 -0.646,0.496 -1.091,1.306c-0.862,1.594 -2.424,3.881 -3.891,5.736c-1.387,1.751 -1.684,2.352 -0.606,1.228c0.377,-0.379 1.494,-1.476 2.504,-2.43l-0.048,0.048Zm35.459,15.71c4.255,-0.8 4.726,-0.86 7.712,-0.977c3.353,-0.134 3.781,-0.212 5.798,-1.068c0.647,-0.274 0.9,-0.324 0.99,-0.196c0.156,0.226 1.252,-0.313 3.39,-1.666c0.875,-0.552 2.11,-1.26 2.747,-1.571c0.96,-0.471 1.252,-0.549 1.715,-0.471c0.493,0.083 0.64,0.026 1.269,-0.47c1.745,-1.389 3.234,-2.03 4.722,-2.034c0.445,0 0.597,0.057 0.597,0.228c0,0.147 0.087,0.202 0.238,0.149c0.445,-0.156 0.243,0.013 -0.897,0.784c-1.319,0.876 -1.198,1.15 0.148,0.301c1.293,-0.81 1.307,-0.81 1.307,-0.484c0,0.183 -0.499,0.654 -1.401,1.333c-2.06,1.542 -3.514,2.822 -5.723,5.03l-1.979,1.921l-25.167,0l4.531,-0.823l0.003,0.014Zm0.04,-29.23c0.154,-0.036 0.404,-0.036 0.556,0c0.154,0.037 0.027,0.066 -0.277,0.066c-0.307,0 -0.431,-0.029 -0.279,-0.066l0,0Z" style="fill:#003189;fill-rule:nonzero;"/><path d="M156.719,39.105c-0.695,-0.097 -0.337,-0.33 0.505,-0.33c0.843,0 1.287,-0.292 1.287,-0.846c0,-0.262 -0.054,-0.303 -0.323,-0.226c-0.229,0.065 -0.391,0.01 -0.552,-0.187c-0.135,-0.183 -0.485,-0.314 -0.997,-0.375c-0.902,-0.109 -2.37,-0.899 -2.114,-1.137c0.094,-0.081 0.566,-0.178 1.037,-0.213c0.835,-0.063 0.889,-0.091 1.05,-0.551c0.135,-0.344 0.31,-0.51 0.606,-0.575c0.243,-0.05 0.606,-0.239 0.822,-0.422c0.229,-0.183 0.942,-0.653 1.589,-1.032c1.104,-0.654 1.791,-1.346 1.548,-1.568c-0.256,-0.235 -2.639,-0.484 -3.77,-0.405c-1.307,0.091 -3.555,0.523 -4.485,0.849c-0.956,0.327 -0.686,0.039 0.647,-0.666c1.791,-0.967 5.238,-1.855 7.137,-1.855c0.741,0 3.218,0.522 3.515,0.744c0.579,0.431 -0.054,1.947 -1.118,2.705l-0.445,0.313l0.728,0.706l-0.377,0.274c-0.202,0.144 -0.485,0.275 -0.62,0.275c-0.135,0 -0.485,0.196 -0.767,0.444c-0.431,0.379 -0.485,0.496 -0.364,0.797c0.094,0.222 0.094,0.444 -0.027,0.64c-0.108,0.183 -0.135,0.588 -0.067,1.058c0.134,0.954 -0.054,1.294 -0.835,1.49c-0.566,0.143 -2.666,0.17 -3.582,0.039l-0.028,0.054Z" style="fill:#7f7f7f;fill-rule:nonzero;"/><g><path d="M319.521,80.804l8.675,0l0,-43.32l-8.675,0l0,15.479c-3.131,-2.825 -6.719,-4.237 -10.894,-4.237c-8.999,0 -16.307,6.709 -16.307,16.48c0,9.594 7.698,16.424 16.504,16.424c4.371,0 7.632,-1.414 10.697,-4.123l0,3.297Zm-9.13,-24.897c5.478,0 9.521,3.707 9.521,9.182c0,5.709 -4.175,9.359 -9.521,9.359c-5.416,0 -9.329,-3.933 -9.329,-9.29c0,-5.122 3.587,-9.237 9.328,-9.237l0.001,-0.014Zm52.191,24.897l8.675,0l0,-31.255l-8.675,0l0,3.414c-3.131,-2.825 -6.72,-4.237 -10.894,-4.237c-9.001,0 -16.308,6.709 -16.308,16.48c0,9.594 7.699,16.424 16.504,16.424c4.377,0 7.635,-1.414 10.706,-4.123l0,3.297l-0.008,0Zm-9.13,-24.897c5.476,0 9.52,3.707 9.52,9.182c0,5.709 -4.174,9.359 -9.52,9.359c-5.416,0 -9.33,-3.933 -9.33,-9.29c0,-5.122 3.588,-9.237 9.328,-9.237l0.002,-0.014Zm27.598,-6.358l-4.434,0l0,6.71l4.436,0l0,24.545l8.685,0l0,-24.545l5.158,0l0,-6.71l-5.144,0l0,-11.537l-8.672,0l0,11.537l-0.029,0Zm44.21,31.255l8.676,0l0,-31.255l-8.676,0l0,3.414c-3.13,-2.825 -6.717,-4.237 -10.892,-4.237c-9.002,0 -16.307,6.709 -16.307,16.48c0,9.594 7.697,16.424 16.503,16.424c4.371,0 7.632,-1.414 10.697,-4.123l0,3.297l-0.001,0Zm-9.13,-24.897c5.48,0 9.523,3.707 9.523,9.182c0,5.709 -4.175,9.359 -9.523,9.359c-5.414,0 -9.328,-3.933 -9.328,-9.29c0,-5.122 3.587,-9.237 9.328,-9.237l0,-0.014Zm31.319,16.715c-2.74,0 -5.023,1.943 -5.023,4.474c0,2.472 2.283,4.534 5.023,4.534c2.805,0 4.956,-2.062 4.956,-4.534c0,-2.472 -2.217,-4.474 -4.956,-4.474Zm47.767,-23.073l-8.676,0l0,3.414c-3.262,-2.766 -6.652,-4.237 -10.959,-4.237c-8.807,0 -16.186,6.356 -16.186,16.009c0,9.358 7.299,16.07 16.631,16.07c4.497,0 7.621,-1.355 10.503,-3.886c0,2.943 -0.067,5.062 -2.154,6.828c-1.563,1.294 -4.175,2.052 -7.38,2.052c-3.663,0 -6.262,-0.823 -8.026,-2.705l-9.588,0c2.344,6.533 8.403,9.891 17.937,9.891c5.279,0 9.453,-1.124 12.578,-3.476c3.972,-3.057 5.278,-7.12 5.278,-13.183l0,-26.784l0.042,0.007Zm-17.681,6.358c5.741,0 9.459,3.884 9.459,8.945c0,5.298 -3.98,8.771 -9.328,8.771c-5.414,0 -9.525,-3.649 -9.525,-8.829c0,-4.827 3.653,-8.887 9.393,-8.887l0.001,0Zm42.737,-7.181c-9.458,0 -17.936,7.003 -17.936,16.48c0,9.183 7.958,16.424 18.001,16.424c10.567,0 18.327,-7.419 18.327,-16.482c0,-9.241 -8.281,-16.423 -18.392,-16.423l0,0.001Zm0.131,7.416c5.675,0 9.523,3.766 9.523,9.064c0,5.475 -4.174,9.005 -9.523,9.005c-5.61,0 -9.328,-3.767 -9.328,-9.063c0,-5.181 3.913,-9.006 9.328,-9.006l0,0Zm25.287,7.711c0,2.589 -0.131,4.061 0.326,6.591c1.369,7.299 6.523,11.125 14.872,11.125c4.826,0 8.413,-1.175 11.154,-3.945c3.662,-3.648 4.053,-7.885 4.053,-13.654l0,-14.421l-8.672,0l0,16.658c0,5.297 -1.886,8.182 -6.518,8.182c-4.565,0 -6.517,-2.944 -6.517,-8.536l0,-16.305l-8.673,0l0,14.306l-0.025,-0.001Zm50.261,16.951l5.61,0l14.741,-31.255l-8.807,0l-8.739,18.422l-8.74,-18.422l-8.874,0l14.799,31.255l0.01,0Z" style="fill:#373c42;fill-rule:nonzero;"/><path d="M623.575,74.61c1.1,0 2.02,0.345 2.761,1.037c0.767,0.662 1.151,1.481 1.151,2.456c0,0.967 -0.383,1.795 -1.15,2.483c-0.763,0.67 -1.683,1.006 -2.761,1.006c-1.068,0 -1.988,-0.336 -2.76,-1.006c-0.736,-0.697 -1.104,-1.529 -1.104,-2.496c0,-0.967 0.372,-1.785 1.117,-2.456c0.772,-0.697 1.693,-1.045 2.761,-1.045l-0.015,0.021Zm36.395,-24.295l-0.69,2.283l-5.599,0l-4.219,15.125c-1.867,6.667 -3.746,11.824 -5.638,15.469c-2.684,5.144 -5.573,8.697 -8.667,10.659c-2.352,1.5 -4.704,2.25 -7.056,2.25c-1.526,0 -2.828,-0.416 -3.905,-1.247c-0.79,-0.576 -1.185,-1.326 -1.185,-2.25c0,-0.737 0.332,-1.383 0.996,-1.937c0.638,-0.531 1.432,-0.797 2.384,-0.797c0.691,0 1.279,0.196 1.764,0.588c0.467,0.392 0.7,0.842 0.7,1.351c0,0.505 -0.269,0.975 -0.808,1.411c-0.404,0.322 -0.606,0.562 -0.606,0.718c0,0.209 0.09,0.371 0.269,0.484c0.234,0.157 0.593,0.235 1.078,0.235c1.104,0 2.267,-0.314 3.487,-0.941c1.203,-0.627 2.276,-1.563 3.219,-2.809c0.951,-1.228 1.845,-3.005 2.68,-5.33c0.359,-0.967 1.319,-4.164 2.881,-9.59l6.665,-23.412l-6.67,0l0.539,-2.287c2.118,0 3.6,-0.126 4.443,-0.378c0.844,-0.279 1.612,-0.787 2.303,-1.525c0.718,-0.763 1.639,-2.17 2.761,-4.22c1.508,-2.77 2.953,-4.917 4.336,-6.441c1.894,-2.053 3.876,-3.588 5.946,-4.603c2.092,-1.037 4.058,-1.555 5.899,-1.555c1.939,0 3.496,0.449 4.672,1.348c1.176,0.877 1.764,1.835 1.764,2.875c0,0.806 -0.291,1.486 -0.875,2.04c-0.592,0.552 -1.347,0.827 -2.262,0.827c-0.796,0 -1.449,-0.209 -1.961,-0.627c-0.485,-0.418 -0.727,-0.914 -0.727,-1.489c0,-0.366 0.166,-0.815 0.498,-1.346c0.332,-0.557 0.498,-0.928 0.498,-1.11c0,-0.323 -0.115,-0.564 -0.346,-0.726c-0.332,-0.233 -0.817,-0.35 -1.454,-0.35c-1.611,0 -3.057,0.462 -4.336,1.385c-1.715,1.224 -3.25,3.14 -4.605,5.749c-0.692,1.359 -1.958,4.738 -3.798,10.139l5.629,0l-0.004,0.034Z" style="fill:#373c42;fill-rule:nonzero;"/><path d="M662.578,51.423l13.232,-1.939l-5.521,16.82c4.472,-6.899 8.537,-11.721 12.194,-14.466c2.071,-1.57 3.758,-2.354 5.063,-2.354c0.844,0 1.508,0.23 1.993,0.692c0.486,0.438 0.73,1.085 0.73,1.939c0,1.523 -0.436,2.976 -1.307,4.36c-0.612,1.038 -1.493,1.557 -2.644,1.557c-0.588,0 -1.1,-0.173 -1.535,-0.518c-0.409,-0.347 -0.665,-0.878 -0.768,-1.594c-0.05,-0.438 -0.165,-0.725 -0.343,-0.863c-0.205,-0.185 -0.448,-0.278 -0.728,-0.278c-0.435,0 -0.844,0.092 -1.228,0.277c-0.664,0.322 -1.674,1.219 -3.03,2.691c-2.122,2.256 -4.423,5.187 -6.904,8.793c-1.077,1.525 -1.997,3.241 -2.76,5.148c-1.077,2.631 -1.692,4.212 -1.845,4.743l-1.225,4.351l-5.872,0l7.097,-21.493c0.817,-2.491 1.225,-4.268 1.225,-5.331c0,-0.418 -0.193,-0.766 -0.579,-1.045c-0.511,-0.374 -1.189,-0.562 -2.033,-0.562c-0.539,0 -1.526,0.101 -2.963,0.301l-0.269,-1.28l0.02,0.051Z" style="fill:#373c42;fill-rule:nonzero;"/></g></g></g></svg>