<svg version="1.1" id="Calque_1" xmlns="http://www.w3.org/2000/svg" xmlns:xlink="http://www.w3.org/1999/xlink" x="0px" y="0px" style="enable-background:new 0 0 136 134;" xml:space="preserve" viewBox="40.37 34.02 54.3 73.28"> <style type="text/css"> 	.st0{fill:#F3F6FB;} 	.st1{fill:none;stroke:#2B2E81;stroke-width:2;stroke-miterlimit:10;} 	.st2{fill:#E0E1E0;} 	.st3{fill:#F1F0F0;} 	.st4{fill:#273339;} 	.st5{fill:#EBEBEB;} 	.st6{fill:#2F3180;} 	.st7{fill:#FFFFFF;} 	.st8{opacity:0.3;fill:#010101;enable-background:new    ;} 	.st9{fill:#B97A65;} 	.st10{opacity:0.2;fill:#010101;enable-background:new    ;} 	.st11{fill:#A34F40;} 	.st12{fill:#DE5854;} 	.st13{fill:#9F5C54;} 	.st14{opacity:0.2;} 	.st15{fill:#010101;} 	.st16{fill:#E9B376;} 	.st17{opacity:0.8;fill:#FFFFFF;enable-background:new    ;} 	.st18{fill:#D58745;} 	.st19{opacity:0.4;fill:#FFFFFF;enable-background:new    ;} 	.st20{fill:#EEC1BB;} 	.st21{fill:#D9857D;} 	.st22{fill:none;} 	.st23{fill:#F5F6F6;} 	.st24{fill:#FAFBFC;} 	.st25{fill:#FCBF9E;} 	.st26{fill:#F8996E;} 	.st27{fill:#465B64;} 	.st28{opacity:0.3;} 	.st29{opacity:0.25;fill:#FFFFFF;enable-background:new    ;} 	.st30{opacity:0.1;fill:#010101;enable-background:new    ;} 	.st31{opacity:0.1;fill:#FFFFFF;enable-background:new    ;} 	.st32{opacity:5.000000e-02;fill:#010101;enable-background:new    ;} 	.st33{opacity:0.15;fill:#FFFFFF;enable-background:new    ;} 	.st34{opacity:0.4;fill:#010101;enable-background:new    ;} 	.st35{opacity:0.5;fill:#010101;enable-background:new    ;} 	.st36{opacity:0.25;fill:#010101;enable-background:new    ;} 	.st37{opacity:0.15;fill:#010101;enable-background:new    ;} 	.st38{opacity:0.45;fill:#010101;enable-background:new    ;} 	.st39{opacity:0.35;fill:#010101;enable-background:new    ;} 	.st40{fill:#F8A7A8;} 	.st41{fill:#384850;} 	.st42{opacity:0.6;fill:#FFFFFF;enable-background:new    ;} 	.st43{opacity:0.1;fill:#2F3180;enable-background:new    ;} 	.st44{opacity:0.2;fill:#2F3180;enable-background:new    ;} 	.st45{fill:#B26769;} 	.st46{fill:#F3908F;} 	.st47{opacity:0.7;fill:#FFFFFF;enable-background:new    ;} 	.st48{fill:#AF7562;} 	.st49{fill:#70453A;} 	.st50{opacity:0.5;fill:#FFFFFF;enable-background:new    ;} 	.st51{opacity:0.3;fill:#FFFFFF;enable-background:new    ;} 	.st52{opacity:0.6;} 	.st53{opacity:0.7;} 	.st54{fill:#884D4D;} 	.st55{fill:#C8856A;} 	.st56{fill:#B06252;} 	.st57{fill:none;stroke:#000000;stroke-miterlimit:10;} 	.st58{fill:#D51F26;} 	.st59{fill:#E6E6E5;} 	.st60{opacity:0.15;} 	.st61{opacity:0.2;fill:#FFFFFF;enable-background:new    ;} 	.st62{opacity:0.4;} 	.st63{clip-path:url(#SVGID_2_);} 	.st64{opacity:0.1;} 	.st65{clip-path:url(#SVGID_4_);} 	.st66{clip-path:url(#SVGID_6_);} 	.st67{fill:#FFFFFF;stroke:#000000;stroke-width:2;stroke-miterlimit:10;} 	.st68{opacity:0.5;} 	.st69{fill:#FBBD9D;} 	.st70{fill:#EB9A6F;} 	.st71{opacity:0.6;fill:#010101;enable-background:new    ;} 	.st72{fill:#FAC2BE;} 	.st73{fill:#EC847E;} 	.st74{opacity:0.9;} 	.st75{fill:#803F3C;} 	.st76{fill:#631112;} 	.st77{fill:#FCB574;} 	.st78{fill:#ED893F;} 	.st79{opacity:0.9;fill:#FFFFFF;enable-background:new    ;} 	.st80{fill:#C8C7C6;} 	.st81{opacity:0.6;fill:#2F3180;enable-background:new    ;} 	.st82{fill:#FDFEFF;} 	.st83{fill:#D4766B;} 	.st84{opacity:0.3;fill:#384850;enable-background:new    ;} 	.st85{fill:#F598B9;} </style> <path id="XMLID_3_" class="st6" d="M84.4,39c-2.3,1.5-4.1,2.7-6,3.8c-1.1,0.6-2.4,1.3-3.6-0.6c3.4-2.7,6.6-5.6,10.4-7.7 	c1.6-0.9,2.7-0.5,3.7,1c0.4,0.5,0.7,1.2,1,1.8c1.4,3.1,2.9,6.3,4.3,9.4c0.5,1,0.9,2.2-0.4,2.9c-1.2,0.6-2.2,0-2.9-0.9 	c-0.8-1.1-1.3-2.3-2-3.5c-0.4-0.8-0.8-1.7-1.7-2.5c0,0.4,0,0.9,0,1.3c0,4.7-1.1,6.3-5.4,8.1c-3.4,1.4-7,2.1-10.8,1.7 	c-0.9-0.1-1.8-0.2-2.7-0.2c-3.7-0.1-4.9,1.3-3.9,4.9c0.5,1.8,1.4,3.5,2.1,5.3c2.2,5.2,1.2,8.4-3.8,11.1c-3.7,2.1-7.8,3.3-12.1,3.6 	c-1.3,0.1-2.7,0.1-4,0.4c-2.1,0.5-2.6,1.5-1.7,3.4c1,2,2.3,3.8,3.5,5.7c0.9,1.3,1.9,2.5,2.6,3.8c1.6,2.8,1.7,5.8-0.3,8.5 	c-1.5,2-3.2,4-5,5.7c-1.2,1.2-2.8,1.8-4.9,0.8c0.6-0.6,1.1-1.1,1.5-1.7c1.8-2,3.6-3.9,5.3-5.9c1.6-2,1.3-4.2-0.1-6.2 	c-1.2-1.7-2.6-3.3-3.8-5.1c-1-1.6-2.1-3.2-2.8-4.9c-1.5-3.7,0.3-7,4.2-7.9c1.8-0.4,3.7-0.5,5.6-0.6c3.8-0.2,7.2-1.4,10.4-3.2 	c2.7-1.5,3-2.7,1.9-5.5c-0.9-2.3-2-4.5-2.6-6.8c-0.4-1.5-0.3-3.3,0.1-4.9c0.7-2.8,2.8-4.2,5.6-4.3c1.5,0,3.1,0.1,4.7,0.3 	c3.6,0.6,6.8-0.3,10.1-1.6c1.5-0.6,2.5-1.6,2.5-3.5C83.7,43.3,84.1,41.4,84.4,39z"></path> </svg>