<svg version="1.1" id="Calque_1" xmlns="http://www.w3.org/2000/svg" xmlns:xlink="http://www.w3.org/1999/xlink" x="0px" y="0px" style="enable-background:new 0 0 143 140;" xml:space="preserve" viewBox="51.75 42 39.86 57.51"> <style type="text/css"> 	.st0{fill:#F3F6FB;} 	.st1{fill:none;stroke:#2B2E81;stroke-width:2;stroke-miterlimit:10;} 	.st2{fill:#E0E1E0;} 	.st3{fill:#F1F0F0;} 	.st4{fill:#273339;} 	.st5{fill:#EBEBEB;} 	.st6{fill:#2F3180;} 	.st7{fill:#FFFFFF;} 	.st8{opacity:0.3;fill:#010101;enable-background:new    ;} 	.st9{fill:#B97A65;} 	.st10{opacity:0.2;fill:#010101;enable-background:new    ;} 	.st11{fill:#A34F40;} 	.st12{fill:#DE5854;} 	.st13{fill:#9F5C54;} 	.st14{opacity:0.2;} 	.st15{fill:#010101;} 	.st16{fill:#E9B376;} 	.st17{opacity:0.8;fill:#FFFFFF;enable-background:new    ;} 	.st18{fill:#D58745;} 	.st19{opacity:0.4;fill:#FFFFFF;enable-background:new    ;} 	.st20{fill:#EEC1BB;} 	.st21{fill:#D9857D;} 	.st22{fill:none;} 	.st23{fill:#F5F6F6;} 	.st24{fill:#FAFBFC;} 	.st25{fill:#FCBF9E;} 	.st26{fill:#F8996E;} 	.st27{fill:#465B64;} 	.st28{opacity:0.3;} 	.st29{opacity:0.25;fill:#FFFFFF;enable-background:new    ;} 	.st30{opacity:0.1;fill:#010101;enable-background:new    ;} 	.st31{opacity:0.1;fill:#FFFFFF;enable-background:new    ;} 	.st32{opacity:5.000000e-02;fill:#010101;enable-background:new    ;} 	.st33{opacity:0.15;fill:#FFFFFF;enable-background:new    ;} 	.st34{opacity:0.4;fill:#010101;enable-background:new    ;} 	.st35{opacity:0.5;fill:#010101;enable-background:new    ;} 	.st36{opacity:0.25;fill:#010101;enable-background:new    ;} 	.st37{opacity:0.15;fill:#010101;enable-background:new    ;} 	.st38{opacity:0.45;fill:#010101;enable-background:new    ;} 	.st39{opacity:0.35;fill:#010101;enable-background:new    ;} 	.st40{fill:#F8A7A8;} 	.st41{fill:#384850;} 	.st42{opacity:0.6;fill:#FFFFFF;enable-background:new    ;} 	.st43{opacity:0.1;fill:#2F3180;enable-background:new    ;} 	.st44{opacity:0.2;fill:#2F3180;enable-background:new    ;} 	.st45{fill:#B26769;} 	.st46{fill:#F3908F;} 	.st47{opacity:0.7;fill:#FFFFFF;enable-background:new    ;} 	.st48{fill:#AF7562;} 	.st49{fill:#70453A;} 	.st50{opacity:0.5;fill:#FFFFFF;enable-background:new    ;} 	.st51{opacity:0.3;fill:#FFFFFF;enable-background:new    ;} 	.st52{opacity:0.6;} 	.st53{opacity:0.7;} 	.st54{fill:#884D4D;} 	.st55{fill:#C8856A;} 	.st56{fill:#B06252;} 	.st57{fill:none;stroke:#000000;stroke-miterlimit:10;} 	.st58{fill:#D51F26;} 	.st59{fill:#E6E6E5;} 	.st60{opacity:0.15;} 	.st61{opacity:0.2;fill:#FFFFFF;enable-background:new    ;} 	.st62{opacity:0.4;} 	.st63{clip-path:url(#SVGID_2_);} 	.st64{opacity:0.1;} 	.st65{clip-path:url(#SVGID_4_);} 	.st66{clip-path:url(#SVGID_6_);} 	.st67{fill:#FFFFFF;stroke:#000000;stroke-width:2;stroke-miterlimit:10;} 	.st68{opacity:0.5;} 	.st69{fill:#FBBD9D;} 	.st70{fill:#EB9A6F;} 	.st71{opacity:0.6;fill:#010101;enable-background:new    ;} 	.st72{fill:#FAC2BE;} 	.st73{fill:#EC847E;} 	.st74{opacity:0.9;} 	.st75{fill:#803F3C;} 	.st76{fill:#631112;} 	.st77{fill:#FCB574;} 	.st78{fill:#ED893F;} 	.st79{opacity:0.9;fill:#FFFFFF;enable-background:new    ;} 	.st80{fill:#C8C7C6;} 	.st81{opacity:0.6;fill:#2F3180;enable-background:new    ;} 	.st82{fill:#FDFEFF;} 	.st83{fill:#D4766B;} 	.st84{opacity:0.3;fill:#384850;enable-background:new    ;} 	.st85{fill:#F598B9;} </style> <path id="XMLID_2_" class="st6" d="M51.8,70.5c-0.4-10.3,1.7-19.5,8.5-26.6c2.4-2.5,5.5-2.5,8.8-0.2c3.9,2.6,6.7,6.3,8.4,10.5 	c2,4.9,3.8,9.9,5.1,15c1.3,5.2,2,10.5,2.9,15.8c0.2,1.2,0.4,2.5,1,3.8c0.9-4.6,1.9-9.1,2-13.9c0-1.3-0.2-2.9,2-3.5 	c0.4,0.9,1,1.8,1,2.7c0.1,3.3,0.2,6.7,0,9.9c-0.2,3.9-0.7,7.8-1.3,11.7c-0.4,3.1-2.3,4.6-5.2,3.4c-3.4-1.5-6.5-3.8-9.7-5.9 	c-0.5-0.3-0.7-1.3-1.1-2.1c3.2-2.5,5.7,1.5,8.8,1.7c-2.8-11.5-3.8-23.1-8.1-34.3c-1.4-3.5-3-6.8-5.7-9.6c-3.4-3.6-5.1-3.7-8-0.4 	c-4.3,4.9-6.1,11.2-7.2,17.8c-0.3,1.5-0.8,3-1.2,4.4C52.6,70.7,52.2,70.6,51.8,70.5z"></path> </svg>