<svg xmlns="http://www.w3.org/2000/svg" viewBox="0 0 500 500"><g id="freepik--background-complete--inject-468"><rect x="363.66" y="444.75" width="112.33" height="28.32" style="fill:#e0e0e0"></rect><polygon points="408.25 444.75 410.11 473.07 425.96 473.07 426.79 444.75 408.25 444.75" style="fill:#e0e0e0"></polygon><rect x="336.4" y="444.75" width="112.33" height="28.32" style="fill:#f5f5f5"></rect><path d="M448.38,449.19c0,.36-25,.65-55.81.65s-55.82-.29-55.82-.65,25-.65,55.82-.65S448.38,448.83,448.38,449.19Z" style="fill:#ebebeb"></path><path d="M448.34,455.67c0,.36-25,.65-55.81.65s-55.82-.29-55.82-.65,25-.65,55.82-.65S448.34,455.31,448.34,455.67Z" style="fill:#ebebeb"></path><path d="M448.34,462.15c0,.36-25,.65-55.81.65s-55.82-.29-55.82-.65,25-.65,55.82-.65S448.34,461.79,448.34,462.15Z" style="fill:#ebebeb"></path><path d="M448.34,468.63c0,.36-25,.65-55.81.65s-55.82-.29-55.82-.65,25-.65,55.82-.65S448.34,468.27,448.34,468.63Z" style="fill:#ebebeb"></path><polygon points="381 444.75 382.85 473.07 398.71 473.07 399.53 444.75 381 444.75" style="fill:#ebebeb"></polygon><rect x="354.59" y="417.02" width="112.33" height="28.32" style="fill:#e0e0e0"></rect><polygon points="399.19 417.02 401.04 445.34 416.9 445.34 417.72 417.02 399.19 417.02" style="fill:#e0e0e0"></polygon><rect x="327.34" y="417.02" width="112.33" height="28.32" style="fill:#f5f5f5"></rect><path d="M439.31,421.46c0,.36-25,.65-55.81.65s-55.81-.29-55.81-.65,25-.65,55.81-.65S439.31,421.1,439.31,421.46Z" style="fill:#ebebeb"></path><path d="M439.28,427.94c0,.36-25,.65-55.81.65s-55.82-.29-55.82-.65,25-.65,55.82-.65S439.28,427.58,439.28,427.94Z" style="fill:#ebebeb"></path><path d="M439.28,434.42c0,.36-25,.65-55.81.65s-55.82-.29-55.82-.65,25-.65,55.82-.65S439.28,434.06,439.28,434.42Z" style="fill:#ebebeb"></path><path d="M439.28,440.9c0,.36-25,.65-55.81.65s-55.82-.29-55.82-.65,25-.65,55.82-.65S439.28,440.54,439.28,440.9Z" style="fill:#ebebeb"></path><polygon points="371.93 417.02 373.79 445.34 389.64 445.34 390.47 417.02 371.93 417.02" style="fill:#ebebeb"></polygon><rect x="58.07" y="44.96" width="17.4" height="69.49" style="fill:#f5f5f5"></rect><rect x="83.66" y="60.12" width="17.4" height="54.33" style="fill:#f5f5f5"></rect><rect x="109.63" y="72.53" width="17.4" height="41.92" style="fill:#f5f5f5"></rect><rect x="133.68" y="89.56" width="17.4" height="24.89" style="fill:#f5f5f5"></rect><rect x="69.1" y="425.57" width="112.33" height="24.3" style="fill:#e0e0e0"></rect><polygon points="113.7 425.57 115.55 449.87 131.41 449.87 132.23 425.57 113.7 425.57" style="fill:#e0e0e0"></polygon><rect x="41.84" y="425.57" width="112.33" height="24.3" style="fill:#f5f5f5"></rect><path d="M153.82,429.38c0,.31-25,.55-55.81.55s-55.82-.24-55.82-.55,25-.56,55.82-.56S153.82,429.07,153.82,429.38Z" style="fill:#ebebeb"></path><path d="M153.78,434.94c0,.31-25,.55-55.81.55s-55.81-.24-55.81-.55,25-.56,55.81-.56S153.78,434.63,153.78,434.94Z" style="fill:#ebebeb"></path><path d="M153.78,440.5c0,.31-25,.55-55.81.55s-55.81-.24-55.81-.55,25-.56,55.81-.56S153.78,440.19,153.78,440.5Z" style="fill:#ebebeb"></path><path d="M153.78,446.06c0,.31-25,.56-55.81.56s-55.81-.25-55.81-.56,25-.56,55.81-.56S153.78,445.75,153.78,446.06Z" style="fill:#ebebeb"></path><polygon points="86.44 425.57 88.29 449.87 104.15 449.87 104.97 425.57 86.44 425.57" style="fill:#ebebeb"></polygon><rect x="54.01" y="449.87" width="105.45" height="22.81" style="fill:#e0e0e0"></rect><polygon points="95.87 449.87 97.61 472.69 112.5 472.69 113.27 449.87 95.87 449.87" style="fill:#e0e0e0"></polygon><rect x="28.42" y="449.87" width="105.45" height="22.81" style="fill:#ebebeb"></rect><path d="M133.54,453.45c0,.29-23.46.52-52.39.52s-52.4-.23-52.4-.52,23.46-.52,52.4-.52S133.54,453.16,133.54,453.45Z" style="fill:#e0e0e0"></path><path d="M133.5,458.67c0,.29-23.45.52-52.39.52s-52.39-.23-52.39-.52,23.45-.52,52.39-.52S133.5,458.38,133.5,458.67Z" style="fill:#e0e0e0"></path><path d="M133.5,463.89c0,.29-23.45.52-52.39.52s-52.39-.23-52.39-.52,23.45-.52,52.39-.52S133.5,463.6,133.5,463.89Z" style="fill:#e0e0e0"></path><path d="M133.5,469.11c0,.29-23.45.52-52.39.52s-52.39-.23-52.39-.52,23.45-.52,52.39-.52S133.5,468.82,133.5,469.11Z" style="fill:#e0e0e0"></path><polygon points="70.29 449.87 72.03 472.69 86.91 472.69 87.69 449.87 70.29 449.87" style="fill:#e0e0e0"></polygon><path d="M117.61,197.24a36.11,36.11,0,1,1-43.33-26.91A36.07,36.07,0,0,1,117.61,197.24Z" style="fill:#f5f5f5"></path><path d="M109.24,199.19a27.52,27.52,0,1,1-33-20.51A27.49,27.49,0,0,1,109.24,199.19Z" style="fill:#ebebeb"></path><path d="M109,198.35c-.16.05-.55-1.11-1.46-3.06a29.11,29.11,0,0,0-5-7.49,27.25,27.25,0,0,0-11-7.25,25.19,25.19,0,0,0-3.68-1,26.82,26.82,0,0,0-4-.5,27.28,27.28,0,0,0-4.13.11,29,29,0,0,0-4.17.76,30.63,30.63,0,0,0-4,1.41,27.4,27.4,0,0,0-3.63,2,26.42,26.42,0,0,0-5.88,5.11,27.63,27.63,0,0,0-3.88,5.9,28.6,28.6,0,0,0-2,5.84,29.07,29.07,0,0,0-.62,9c.18,2.15.42,3.34.25,3.38s-.62-1.09-1.06-3.27a25.19,25.19,0,0,1,0-9.4,27.87,27.87,0,0,1,1.92-6.27,28.27,28.27,0,0,1,4-6.42,26.38,26.38,0,0,1,2.84-3,27,27,0,0,1,3.39-2.62,28.85,28.85,0,0,1,3.91-2.14,30.67,30.67,0,0,1,4.32-1.53,29.55,29.55,0,0,1,4.5-.81,27.66,27.66,0,0,1,8.7.5,26.9,26.9,0,0,1,3.94,1.17,28.27,28.27,0,0,1,6.65,3.6,27.71,27.71,0,0,1,4.79,4.48,25.71,25.71,0,0,1,4.64,8.18C109,197.1,109.16,198.32,109,198.35Z" style="fill:#e0e0e0"></path><path d="M89.18,220.7l1.16,4.66-4.16,1-1.12-4.53c-4.18.77-8.44.46-11.17-.76l1-5.64a17.23,17.23,0,0,0,8.79,1L82,209.48c-4.89,0-10.42-.24-11.89-6.18-1.09-4.41,1.17-9,7.55-11.35l-1.14-4.62,4.15-1,1.12,4.53a19.35,19.35,0,0,1,9.06.45L90,196.9a17.4,17.4,0,0,0-6.89-.58l1.75,7.06c4.88-.06,10.33.22,11.78,6.08C97.74,213.78,95.51,218.3,89.18,220.7Zm-8.7-17.33L79,197.47c-2.08,1.05-2.65,2.47-2.32,3.84S78.51,203.24,80.48,203.37Zm9.63,8.24c-.36-1.45-1.76-1.94-3.71-2.12l1.42,5.73C89.79,214.25,90.44,212.94,90.11,211.61Z" style="fill:#e0e0e0"></path><path d="M98.43,291.54A22.27,22.27,0,1,1,67,292.94,22.24,22.24,0,0,1,98.43,291.54Z" style="fill:#f5f5f5"></path><path d="M94.85,295.44a17,17,0,1,1-23.95,1.07A17,17,0,0,1,94.85,295.44Z" style="fill:#ebebeb"></path><path d="M94.46,295.09a9.49,9.49,0,0,1-1.81-1A17.93,17.93,0,0,0,87.49,292a17.09,17.09,0,0,0-3.79-.43,16.62,16.62,0,0,0-4.32.57,15.06,15.06,0,0,0-2.23.76A16.76,16.76,0,0,0,75,294a17.87,17.87,0,0,0-2.06,1.49A19.09,19.09,0,0,0,71,297.33a17.22,17.22,0,0,0-1.54,2.11,16.15,16.15,0,0,0-1.17,2.26,17.29,17.29,0,0,0-.79,2.33,16,16,0,0,0-.42,2.32,17,17,0,0,0,.08,4.36,17.32,17.32,0,0,0,1,3.68A18.07,18.07,0,0,0,71,319.18c.84,1,1.37,1.55,1.3,1.63s-.69-.34-1.68-1.29a15.74,15.74,0,0,1-3.29-4.77,17.67,17.67,0,0,1-1.2-3.86,17,17,0,0,1-.21-4.66,17.46,17.46,0,0,1,1.22-5,17.57,17.57,0,0,1,1.25-2.44,18.25,18.25,0,0,1,1.66-2.29,18.76,18.76,0,0,1,2-2,17,17,0,0,1,2.24-1.6,18,18,0,0,1,2.37-1.18,15.67,15.67,0,0,1,2.41-.77,17.15,17.15,0,0,1,4.63-.49,16.69,16.69,0,0,1,4,.62,15.52,15.52,0,0,1,5.21,2.54C94,294.45,94.51,295,94.46,295.09Z" style="fill:#e0e0e0"></path><path d="M92.14,313.38l2.21,2-1.76,2-2.15-1.91a12.36,12.36,0,0,1-5.94,3.5l-1.44-3.22a10.69,10.69,0,0,0,4.8-2.58l-3.29-2.93c-2.48,1.71-5.39,3.51-8.2,1-2.09-1.86-2.54-5-.12-8.41l-2.18-1.95,1.75-2L78,300.76a11.85,11.85,0,0,1,4.76-2.93L84.28,301a10.86,10.86,0,0,0-3.71,2.1l3.35,3c2.46-1.73,5.33-3.49,8.11-1C94.08,306.87,94.52,310,92.14,313.38Zm-10.47-5.79-2.8-2.49c-.69,1.25-.49,2.18.16,2.75S80.63,308.21,81.67,307.59Zm7.77.84c-.69-.61-1.57-.38-2.62.21l2.72,2.42C90.2,309.88,90.07,309,89.44,308.43Z" style="fill:#e0e0e0"></path><path d="M444.56,166.84a25.28,25.28,0,1,1-29.9-19.51A25.24,25.24,0,0,1,444.56,166.84Z" style="fill:#f5f5f5"></path><path d="M438.68,168.08a19.26,19.26,0,1,1-22.79-14.87A19.24,19.24,0,0,1,438.68,168.08Z" style="fill:#ebebeb"></path><path d="M438.55,167.49a11.13,11.13,0,0,1-1-2.17,20.31,20.31,0,0,0-3.39-5.32,19.47,19.47,0,0,0-3.21-2.91,19.21,19.21,0,0,0-4.36-2.33,17.66,17.66,0,0,0-2.56-.77,18.91,18.91,0,0,0-2.76-.42,19.93,19.93,0,0,0-2.89,0,21.5,21.5,0,0,0-2.93.47,21.8,21.8,0,0,0-2.83.93,18.78,18.78,0,0,0-4.84,2.94,17.75,17.75,0,0,0-1.92,1.85,19.73,19.73,0,0,0-2.81,4.08,19.34,19.34,0,0,0-1.53,4.05,20.47,20.47,0,0,0-.57,6.28,10.88,10.88,0,0,1,.12,2.37,5.7,5.7,0,0,1-.69-2.31,17.62,17.62,0,0,1,.12-6.57,19.29,19.29,0,0,1,4.34-8.79,18.6,18.6,0,0,1,2-2,21,21,0,0,1,2.42-1.78,20,20,0,0,1,2.76-1.43,21,21,0,0,1,3.05-1,22,22,0,0,1,3.17-.5,20.15,20.15,0,0,1,3.11,0,17.87,17.87,0,0,1,3,.48,18.25,18.25,0,0,1,2.74.87,19.93,19.93,0,0,1,4.59,2.62,19.31,19.31,0,0,1,3.28,3.22,17.85,17.85,0,0,1,3.12,5.79A5.75,5.75,0,0,1,438.55,167.49Z" style="fill:#e0e0e0"></path><path d="M424.31,182.82l.73,3.27-2.92.66-.72-3.19a14.19,14.19,0,0,1-7.8-.71l.81-3.92a12.09,12.09,0,0,0,6.13.8l-1.09-4.88c-3.42-.06-7.29-.33-8.23-4.51-.69-3.1,1-6.27,5.46-7.83l-.72-3.24,2.92-.66.71,3.19a13.56,13.56,0,0,1,6.34.45l-.66,3.93a12.17,12.17,0,0,0-4.81-.52l1.11,5c3.42,0,7.23.31,8.15,4.43C430.4,178.1,428.77,181.23,424.31,182.82Zm-5.82-12.27-.94-4.15c-1.47.7-1.89,1.68-1.67,2.65S417.11,170.43,418.49,170.55Zm6.6,5.92c-.23-1-1.2-1.39-2.55-1.55l.9,4C424.83,178.31,425.3,177.41,425.09,176.47Z" style="fill:#e0e0e0"></path><path d="M299.67,100a17.76,17.76,0,1,1-24.74-4.13A17.73,17.73,0,0,1,299.67,100Z" style="fill:#f5f5f5"></path><path d="M296.23,102.44a13.53,13.53,0,1,1-18.85-3.14A13.52,13.52,0,0,1,296.23,102.44Z" style="fill:#ebebeb"></path><path d="M296,102.1c-.06.05-.45-.4-1.23-1.12a14.23,14.23,0,0,0-3.68-2.47,13.79,13.79,0,0,0-2.89-1,13.39,13.39,0,0,0-3.46-.27,12.24,12.24,0,0,0-1.87.23A12,12,0,0,0,281,98a13.73,13.73,0,0,0-1.85.82,15.88,15.88,0,0,0-1.76,1.13,14.86,14.86,0,0,0-1.56,1.39,13.51,13.51,0,0,0-1.28,1.57,12.6,12.6,0,0,0-1,1.68,14.23,14.23,0,0,0-.72,1.74,13.76,13.76,0,0,0-.5,6.45A14.41,14.41,0,0,0,273.7,117a8.85,8.85,0,0,1,.75,1.49c-.05,0-.49-.38-1.1-1.29a12.45,12.45,0,0,1-1.78-4.27,14,14,0,0,1-.29-3.21,13.67,13.67,0,0,1,.61-3.67,13.24,13.24,0,0,1,.73-1.88,13.47,13.47,0,0,1,1.05-1.83,13.69,13.69,0,0,1,1.38-1.7,14.48,14.48,0,0,1,3.57-2.72,14.7,14.7,0,0,1,2-.87,14.26,14.26,0,0,1,2-.53,14.1,14.1,0,0,1,2-.2,13.31,13.31,0,0,1,3.7.39,13.56,13.56,0,0,1,3,1.14A12.52,12.52,0,0,1,295,100.7C295.75,101.52,296,102.06,296,102.1Z" style="fill:#e0e0e0"></path><path d="M291.14,116l1.4,1.9-1.7,1.24-1.36-1.85a9.93,9.93,0,0,1-5.22,1.75l-.58-2.75a8.53,8.53,0,0,0,4.17-1.22l-2.08-2.83c-2.22.93-4.78,1.84-6.56-.58-1.32-1.8-1.15-4.3,1.3-6.58l-1.38-1.88,1.7-1.25,1.36,1.85a9.48,9.48,0,0,1,4.2-1.49l.68,2.71a8.57,8.57,0,0,0-3.24,1L286,108.9c2.2-.94,4.73-1.83,6.49.56C293.74,111.23,293.57,113.7,291.14,116Zm-7.2-6.25-1.77-2.41a1.65,1.65,0,0,0-.33,2.18C282.27,110.09,283,110,283.94,109.73Zm5.92,1.94c-.44-.59-1.16-.55-2.08-.27l1.72,2.34C290.21,112.93,290.26,112.21,289.86,111.67Z" style="fill:#e0e0e0"></path><path d="M433.43,56.79A33,33,0,1,1,394.37,31.3,33,33,0,0,1,433.43,56.79Z" style="fill:#f5f5f5"></path><path d="M425.74,58.39A25.16,25.16,0,1,1,396,39,25.14,25.14,0,0,1,425.74,58.39Z" style="fill:#ebebeb"></path><path d="M425.57,57.62c-.15,0-.48-1-1.27-2.82a26.79,26.79,0,0,0-4.42-7A25.08,25.08,0,0,0,410,41a22.45,22.45,0,0,0-3.35-1,23.3,23.3,0,0,0-3.6-.54,23.75,23.75,0,0,0-3.77,0,26.75,26.75,0,0,0-3.83.61,26.12,26.12,0,0,0-3.69,1.21A23.54,23.54,0,0,0,388.39,43a22.26,22.26,0,0,0-3,2.12,23.26,23.26,0,0,0-2.52,2.43,25.49,25.49,0,0,0-3.67,5.32,25.83,25.83,0,0,0-2,5.29,26.73,26.73,0,0,0-.75,8.21c.12,2,.31,3,.16,3.09s-.55-1-.91-3a23.43,23.43,0,0,1,.17-8.59,25.12,25.12,0,0,1,1.89-5.69,25.58,25.58,0,0,1,3.77-5.79,24.95,24.95,0,0,1,5.81-5A26.23,26.23,0,0,1,391,39.52a28.09,28.09,0,0,1,4-1.31,27.17,27.17,0,0,1,4.14-.65,26.32,26.32,0,0,1,4.07,0,24.23,24.23,0,0,1,3.87.63,23.77,23.77,0,0,1,3.58,1.15A25.21,25.21,0,0,1,420.93,47,23.2,23.2,0,0,1,425,54.53C425.6,56.47,425.68,57.6,425.57,57.62Z" style="fill:#e0e0e0"></path><path d="M407,77.65l1,4.27-3.82.86-.94-4.16c-3.83.62-7.72.25-10.19-.92L394,72.57a15.83,15.83,0,0,0,8,1.05l-1.43-6.38c-4.47-.08-9.52-.43-10.74-5.89-.91-4.05,1.25-8.18,7.13-10.22l-.95-4.24,3.82-.86.93,4.17a17.52,17.52,0,0,1,8.27.59l-.85,5.12a16.22,16.22,0,0,0-6.29-.68l1.46,6.5c4.46,0,9.43.41,10.64,5.79C414.93,71.49,412.8,75.58,407,77.65Zm-7.6-16-1.22-5.42c-1.92.91-2.47,2.19-2.19,3.45S397.57,61.47,399.37,61.63ZM408,69.36c-.3-1.34-1.57-1.82-3.34-2l1.18,5.27C407.65,71.76,408.27,70.58,408,69.36Z" style="fill:#e0e0e0"></path></g><g id="freepik--Money--inject-468"><rect x="275.93" y="444.18" width="130.79" height="28.3" style="fill:#e0e0e0"></rect><polygon points="327.85 444.18 330.01 472.48 348.47 472.48 349.43 444.18 327.85 444.18" style="fill:#e0e0e0"></polygon><rect x="243.82" y="444.1" width="130.79" height="28.3" style="fill:#ebebeb"></rect><path d="M374.57,448.62c0,.35-29.1.64-65,.64s-65-.29-65-.64,29.09-.65,65-.65S374.57,448.26,374.57,448.62Z" style="fill:#e0e0e0"></path><path d="M374.53,455.09c0,.36-29.1.65-65,.65s-65-.29-65-.65,29.09-.65,65-.65S374.53,454.73,374.53,455.09Z" style="fill:#e0e0e0"></path><path d="M374.53,461.56c0,.36-29.1.65-65,.65s-65-.29-65-.65,29.09-.64,65-.64S374.53,461.21,374.53,461.56Z" style="fill:#e0e0e0"></path><path d="M374.53,468c0,.36-29.1.65-65,.65s-65-.29-65-.65,29.09-.65,65-.65S374.53,467.68,374.53,468Z" style="fill:#e0e0e0"></path><polygon points="296.12 444.18 298.27 472.48 316.74 472.48 317.7 444.18 296.12 444.18" style="fill:#e0e0e0"></polygon><path d="M268.33,472.48l.7,0,2.06,0,7.93-.05,29.36-.08,98.34-.08-.26.26v-28.3l.26.26-98.31-.14-29.34-.1-7.93-.05-2.06,0c-.46,0-.7,0-.7,0l.7,0,2.06,0,7.93,0,29.34-.06,98.31,0H407v28.82h-.26l-98.34-.08L279,472.57l-7.93,0-2.06,0Z" style="fill:#263238"></path><path d="M375.14,472.3c-.14,0-.26-6.17-.26-13.78s.12-13.77.26-13.77.26,6.16.26,13.77S375.29,472.3,375.14,472.3Z" style="fill:#263238"></path><rect x="281.82" y="391.1" width="123.46" height="26.71" style="fill:#e0e0e0"></rect><polygon points="330.83 391.1 332.87 417.81 350.3 417.81 351.2 391.1 330.83 391.1" style="fill:#e0e0e0"></polygon><rect x="251.86" y="391.09" width="123.46" height="26.71" style="fill:#ebebeb"></rect><path d="M374.93,395.28c0,.34-27.46.62-61.34.62s-61.35-.28-61.35-.62,27.47-.61,61.35-.61S374.93,395,374.93,395.28Z" style="fill:#e0e0e0"></path><path d="M374.89,401.4c0,.33-27.46.61-61.34.61s-61.35-.28-61.35-.61,27.47-.61,61.35-.61S374.89,401.06,374.89,401.4Z" style="fill:#e0e0e0"></path><path d="M374.89,407.51c0,.33-27.46.61-61.34.61s-61.35-.28-61.35-.61,27.47-.61,61.35-.61S374.89,407.17,374.89,407.51Z" style="fill:#e0e0e0"></path><path d="M374.89,413.62c0,.34-27.46.61-61.34.61s-61.35-.27-61.35-.61,27.47-.61,61.35-.61S374.89,413.28,374.89,413.62Z" style="fill:#e0e0e0"></path><polygon points="300.88 391.1 302.91 417.81 320.34 417.81 321.25 391.1 300.88 391.1" style="fill:#e0e0e0"></polygon><path d="M274.64,417.73s.23,0,.66,0l1.95,0,7.48,0,27.71-.08,92.84-.09-.26.26V391l.26.26-93.47.32-27.91,0h-7.55l-2,0c-.44,0-.67,0-.67,0l.67,0,2,0,7.55-.08,27.91-.2,93.47-.49h.26V418h-.26l-92.84-.08-27.71-.08-7.48-.05-1.95,0Z" style="fill:#263238"></path><rect x="295.03" y="417.81" width="123.46" height="26.71" style="fill:#e0e0e0"></rect><polygon points="344.04 417.81 346.08 444.52 363.51 444.52 364.42 417.81 344.04 417.81" style="fill:#e0e0e0"></polygon><rect x="264.72" y="417.73" width="123.46" height="26.71" style="fill:#ebebeb"></rect><path d="M388.14,422c0,.33-27.46.61-61.34.61s-61.34-.28-61.34-.61,27.46-.61,61.34-.61S388.14,421.66,388.14,422Z" style="fill:#e0e0e0"></path><path d="M388.1,428.11c0,.33-27.46.61-61.34.61s-61.35-.28-61.35-.61,27.47-.61,61.35-.61S388.1,427.77,388.1,428.11Z" style="fill:#e0e0e0"></path><path d="M388.1,434.22c0,.34-27.46.61-61.34.61s-61.35-.27-61.35-.61,27.47-.61,61.35-.61S388.1,433.88,388.1,434.22Z" style="fill:#e0e0e0"></path><path d="M388.1,440.33c0,.34-27.46.61-61.34.61s-61.35-.27-61.35-.61,27.47-.61,61.35-.61S388.1,440,388.1,440.33Z" style="fill:#e0e0e0"></path><polygon points="314.09 417.81 316.12 444.52 333.55 444.52 334.46 417.81 314.09 417.81" style="fill:#e0e0e0"></polygon><path d="M287.85,444.52l.67,0,1.94,0,7.49-.05,27.71-.08,92.83-.08-.26.26V417.81l.26.26-92.8-.14-27.7-.1-7.48-.05-1.94,0-.66,0s.22,0,.66,0l1.94,0,7.48,0,27.7-.06,92.8,0h.26v27.23h-.26l-92.83-.09L298,444.61l-7.49,0-1.94,0C288.08,444.54,287.85,444.52,287.85,444.52Z" style="fill:#263238"></path><path d="M375.44,418c-.14,0-.26-6-.26-13.32s.12-13.32.26-13.32.26,6,.26,13.32S375.59,418,375.44,418Z" style="fill:#263238"></path><path d="M388.69,444.35c-.15,0-.26-5.82-.26-13s.11-13,.26-13,.26,5.82.26,13S388.83,444.35,388.69,444.35Z" style="fill:#263238"></path></g><g id="freepik--Plant--inject-468"><path d="M224,103.05a6.83,6.83,0,1,1,6.31,7.3A6.82,6.82,0,0,1,224,103.05Z" style="fill:#2B2E81"></path><g style="opacity:0.30000000000000004"><path d="M230.42,100.41l.05-.9.81,0-.05.88a3.81,3.81,0,0,1,2,.76l-.5,1a3.32,3.32,0,0,0-1.54-.66l-.08,1.34c.89.28,1.87.64,1.8,1.79,0,.86-.72,1.55-2,1.62l0,.9-.81-.05,0-.88a3.62,3.62,0,0,1-1.61-.59l.46-1a3.46,3.46,0,0,0,1.21.5l.09-1.38c-.89-.26-1.86-.62-1.79-1.76C228.48,101.18,229.14,100.49,230.42,100.41ZM231,104l-.07,1.15c.44-.07.62-.3.64-.56S231.36,104.17,231,104Zm-1.27-2c0,.28.21.45.55.59l.06-1.11C229.94,101.54,229.75,101.74,229.74,102Z"></path></g><g style="opacity:0.30000000000000004"><path d="M225.59,103.75a2.9,2.9,0,0,1,.09.64,5.61,5.61,0,0,0,.48,1.63,5.79,5.79,0,0,0,.62,1,5.32,5.32,0,0,0,1,.93,5.16,5.16,0,0,0,.6.39,4.28,4.28,0,0,0,.69.31,4.63,4.63,0,0,0,.75.22,5.15,5.15,0,0,0,.8.09,5.3,5.3,0,0,0,.8,0,4.64,4.64,0,0,0,.76-.14,5,5,0,0,0,.71-.26,3.55,3.55,0,0,0,.64-.34,5.16,5.16,0,0,0,1-.84,6.35,6.35,0,0,0,.7-.94,5.51,5.51,0,0,0,.61-1.59,3,3,0,0,1,.15-.62,1.64,1.64,0,0,1,0,.65,5,5,0,0,1-.53,1.69,4.82,4.82,0,0,1-.7,1,5.22,5.22,0,0,1-1.08.93,5,5,0,0,1-.68.38,4.57,4.57,0,0,1-.76.28,4.52,4.52,0,0,1-.83.17,6.13,6.13,0,0,1-.86,0,4.94,4.94,0,0,1-.86-.11,5.39,5.39,0,0,1-.81-.23,5.47,5.47,0,0,1-.73-.35,6.1,6.1,0,0,1-.65-.43,5.65,5.65,0,0,1-1-1,6,6,0,0,1-.61-1.08,4.93,4.93,0,0,1-.38-1.74A1.72,1.72,0,0,1,225.59,103.75Z"></path></g><path d="M225.58,103.26a9.3,9.3,0,0,0,.1,1.29,5.29,5.29,0,0,0,1.67,3,5.07,5.07,0,0,0,4.8,1.1,5.22,5.22,0,0,0,.73-9.72,5.07,5.07,0,0,0-4.92.38,5.28,5.28,0,0,0-2.09,2.71,9.71,9.71,0,0,0-.29,1.25,4,4,0,0,1,.21-1.27,5.33,5.33,0,0,1,2.09-2.82,5.24,5.24,0,0,1,5.08-.43,5.41,5.41,0,0,1-.75,10.08,5.18,5.18,0,0,1-5-1.17,5.3,5.3,0,0,1-1.65-3.09A4.08,4.08,0,0,1,225.58,103.26Z" style="fill:#263238"></path><path d="M233,97.45a1.83,1.83,0,0,1,.75.23,5.48,5.48,0,0,1,1.57,1.06,5.59,5.59,0,0,1,1.15,1.51,2.29,2.29,0,0,1,.28.73,10.08,10.08,0,0,0-1.57-2.09A9.65,9.65,0,0,0,233,97.45Z" style="fill:#fff"></path><path d="M231.9,97.08s.16-.06.32,0,.27.12.26.18-.16.06-.32,0S231.88,97.14,231.9,97.08Z" style="fill:#fff"></path><path d="M302,281V269.92h2.83a3.3,3.3,0,1,0,0-6.6H302v-3.81h2.83a3.31,3.31,0,0,0,0-6.61H302v-5.53H141.22v5.53h-2.83a3.31,3.31,0,0,0,0,6.61h2.83v3.81h-2.83a3.3,3.3,0,1,0,0,6.6h2.83v9.52h0a20.93,20.93,0,0,0-20.93,20.93V444A28.73,28.73,0,0,0,149,472.68H294.19A28.73,28.73,0,0,0,322.93,444v-142A20.93,20.93,0,0,0,302,281Z" style="fill:#fafafa"></path><path d="M302,281s.76,0,2.2.09a22.12,22.12,0,0,1,6.22,1.63,20.68,20.68,0,0,1,4.11,2.39,20,20,0,0,1,4.09,4A21.11,21.11,0,0,1,323,302.49c0,21.54.05,52.69.08,91.18q0,14.44,0,30.22,0,7.88,0,16.07c0,1.36,0,2.74,0,4.11a32.41,32.41,0,0,1-.34,4.17,29.73,29.73,0,0,1-.9,4.12c-.2.67-.47,1.33-.71,2a14,14,0,0,1-.84,1.95,32,32,0,0,1-2.09,3.75,32.42,32.42,0,0,1-2.69,3.38,27.65,27.65,0,0,1-6.79,5.5,28.83,28.83,0,0,1-8.25,3.26,38.46,38.46,0,0,1-9,.71H254.36l-79.86,0H153.55c-3.5,0-7.1.13-10.61-.65a28.42,28.42,0,0,1-9.88-4.15,29.07,29.07,0,0,1-12.21-17.44c-.9-3.56-.83-7.28-.82-10.91v-11c0-28.64,0-56.63,0-83.62V300.63c0-.81.08-1.62.11-2.43s.22-1.62.4-2.4a21.56,21.56,0,0,1,4.14-8.65,21.33,21.33,0,0,1,16.53-7.95l-.24.24c0-3.24,0-6.39,0-9.52l.23.24h-2a5,5,0,0,1-2.08-.25,3.53,3.53,0,0,1,.11-6.62,5.77,5.77,0,0,1,2-.21h2l-.23.24v-3.81l.23.23h-2a5,5,0,0,1-2.09-.26,3.53,3.53,0,0,1,.13-6.61,5.76,5.76,0,0,1,2-.2h2l-.22.23v-5.75h.22l160.78.1h.12v5.65l-.12-.12h2.38a3.72,3.72,0,0,1,2.22.5,3.41,3.41,0,0,1-1.11,6.25,10.74,10.74,0,0,1-1.78.06H302l.1-.09c0,1.67,0,2.75,0,3.81l-.09-.09h2.57a3.5,3.5,0,0,1,2.29.69,3.37,3.37,0,0,1-1.7,6.05c-1.14,0-2.18,0-3.16,0l.06-.06c0,7.41-.06,10.68-.06,11.07,0-.39,0-3.66-.06-11.07v-.05H302c1,0,2,0,3.15,0a3.23,3.23,0,0,0,1.61-5.79,3.29,3.29,0,0,0-2.19-.65h-2.66v-4h1.8a11.16,11.16,0,0,0,1.74-.07,3.19,3.19,0,0,0,1-5.86,3.54,3.54,0,0,0-2.1-.47h-2.49v-.11c0-1.62,0-3.28,0-5.53l.12.12-160.78.11.23-.23v5.76h-2.19a5.48,5.48,0,0,0-1.88.17,3.11,3.11,0,0,0-2.06,2.82,3.06,3.06,0,0,0,1.94,2.93,4.62,4.62,0,0,0,1.92.22h2.28v4.28h-2.21a5.24,5.24,0,0,0-1.88.18,3.06,3.06,0,0,0-.1,5.74,4.77,4.77,0,0,0,1.91.22h2.28v.24c0,3.13,0,6.28,0,9.52v.25h-.25A20.71,20.71,0,0,0,121,295.9c-.18.77-.26,1.56-.39,2.35s-.1,1.58-.11,2.38v4.85q0,19.44,0,39.71v94.6a43.55,43.55,0,0,0,.81,10.79,28.53,28.53,0,0,0,12,17.12,27.72,27.72,0,0,0,9.71,4.08c3.44.77,7,.63,10.5.65H254.36l37.19,0a37.89,37.89,0,0,0,8.87-.71,28.18,28.18,0,0,0,8.13-3.19,27.4,27.4,0,0,0,6.68-5.41,31.3,31.3,0,0,0,2.66-3.33,31.8,31.8,0,0,0,2.06-3.69,13.69,13.69,0,0,0,.83-1.93c.23-.66.5-1.3.7-2a28.58,28.58,0,0,0,.89-4.06,51.24,51.24,0,0,0,.35-8.21q0-8.19,0-16.07,0-15.76,0-30.22c0-38.49.06-69.64.08-91.18a21,21,0,0,0-4.33-13.29,20.1,20.1,0,0,0-4.05-4,21,21,0,0,0-4.07-2.4,22.53,22.53,0,0,0-6.19-1.67Z" style="fill:#263238"></path><path d="M282.64,398.11a27.14,27.14,0,1,1,15-35.28A27.11,27.11,0,0,1,282.64,398.11Z" style="fill:#2B2E81"></path><g style="opacity:0.30000000000000004"><path d="M261.93,379.72l-3.32,1.39-1.24-3,3.23-1.36a15.2,15.2,0,0,1-.73-8.38l4.3.11a13,13,0,0,0,.31,6.64l5-2.08c-.59-3.63-1-7.76,3.21-9.54,3.14-1.32,6.8-.17,9.3,4.29l3.29-1.38,1.24,3-3.23,1.36a14.54,14.54,0,0,1,.72,6.78l-4.27.05a13.36,13.36,0,0,0-.36-5.19l-5,2.12c.61,3.61,1,7.69-3.15,9.45C268.06,385.27,264.45,384.14,261.93,379.72Zm11.86-8.47,4.21-1.77c-1-1.42-2.13-1.68-3.11-1.27S273.66,369.77,273.79,371.25Zm-5,8.1c1-.43,1.24-1.53,1.15-3l-4.09,1.72C266.79,379.42,267.84,379.75,268.79,379.35Z"></path></g><g style="opacity:0.30000000000000004"><path d="M282.3,391.08c-.05-.12.76-.54,2.11-1.44a21.65,21.65,0,0,0,5-4.58,21.06,21.06,0,0,0,2.47-3.94,20.78,20.78,0,0,0,1.64-5.05,20.26,20.26,0,0,0,.24-5.85,20.23,20.23,0,0,0-.55-3,21.2,21.2,0,0,0-1.05-3,22.9,22.9,0,0,0-1.51-2.81,20,20,0,0,0-1.87-2.47,20.3,20.3,0,0,0-4.47-3.77,20.77,20.77,0,0,0-4.84-2.2,21.26,21.26,0,0,0-11.32-.27,12,12,0,0,1-2.47.58,6.07,6.07,0,0,1,2.3-1.17,19,19,0,0,1,7-1.11A20.83,20.83,0,0,1,285,353.86a19,19,0,0,1,2.53,1.77,19.42,19.42,0,0,1,2.34,2.21,20.79,20.79,0,0,1,2,2.66,23.11,23.11,0,0,1,1.64,3,22.7,22.7,0,0,1,1.12,3.25,21.22,21.22,0,0,1,.58,3.29,20.57,20.57,0,0,1,0,3.23,19.11,19.11,0,0,1-.41,3.06,20.61,20.61,0,0,1-4.68,9.42,18.94,18.94,0,0,1-5.53,4.39A6.24,6.24,0,0,1,282.3,391.08Z"></path></g><path d="M280.58,392l.3-.16.89-.44a9.83,9.83,0,0,0,1.41-.77,15.3,15.3,0,0,0,1.83-1.2,20.25,20.25,0,0,0,4.28-4.18,20.66,20.66,0,0,0,3.54-7A20.11,20.11,0,0,0,288.32,359a21.46,21.46,0,0,0-2.11-2,22.49,22.49,0,0,0-2.47-1.7,19.63,19.63,0,0,0-5.72-2.34,20.5,20.5,0,0,0-6.37-.54,22.71,22.71,0,0,0-6.42,1.46,22.47,22.47,0,0,0-5.64,3.4,20.48,20.48,0,0,0-4.22,4.81,19.55,19.55,0,0,0-2.5,5.64,21.9,21.9,0,0,0-.6,2.94,24.26,24.26,0,0,0-.12,2.94,20.13,20.13,0,0,0,10,16.94,21.06,21.06,0,0,0,13.41,2.67,18.53,18.53,0,0,0,2.15-.4,11,11,0,0,0,1.55-.43l.95-.3.32-.09a1.08,1.08,0,0,1-.31.14l-.93.35a9.83,9.83,0,0,1-1.54.48,15.93,15.93,0,0,1-2.16.45,20.14,20.14,0,0,1-6.05,0,20.73,20.73,0,0,1-7.57-2.59,20.45,20.45,0,0,1-7-6.65,20.68,20.68,0,0,1-3.3-10.6,21.83,21.83,0,0,1,.12-3,22.89,22.89,0,0,1,.6-3,20,20,0,0,1,2.55-5.79,21.2,21.2,0,0,1,4.31-4.93,21.39,21.39,0,0,1,12.37-5,20.86,20.86,0,0,1,6.52.57,20.14,20.14,0,0,1,5.85,2.4,23.74,23.74,0,0,1,2.53,1.76,22.4,22.4,0,0,1,2.16,2.08,20.69,20.69,0,0,1,.84,26.72,20.09,20.09,0,0,1-4.39,4.16,15.93,15.93,0,0,1-1.87,1.18,9.64,9.64,0,0,1-1.45.72l-.91.4A1.29,1.29,0,0,1,280.58,392Z" style="fill:#263238"></path><path d="M246.83,375.72s-.1-.28-.19-.81a17.75,17.75,0,0,1-.19-2.27,23.71,23.71,0,0,1,4.37-14.16,17.41,17.41,0,0,1,1.43-1.77,3,3,0,0,1,.61-.57c.07.06-.7,1-1.74,2.54a26.78,26.78,0,0,0-4.3,14C246.78,374.53,246.92,375.71,246.83,375.72Z" style="fill:#fff"></path><path d="M247.46,380.27c-.15,0-.36-.47-.49-1.12s-.11-1.19,0-1.21.36.47.48,1.11S247.6,380.24,247.46,380.27Z" style="fill:#fff"></path><path d="M265.29,379.55c-12.16,5.53-23.85,12.89-37.09,14.76-18.38,2.6-36.41-5-53.22-13.47-24.84-12.44-47.85-13.75-54.67-8.84v71.74A28.73,28.73,0,0,0,149,472.48H294.2a28.74,28.74,0,0,0,28.74-28.74V367.09C304.38,368.06,281.22,372.3,265.29,379.55Z" style="fill:#455a64"></path><path d="M301.56,279.37c0,.14-36.64.26-81.82.26s-81.83-.12-81.83-.26,36.63-.26,81.83-.26S301.56,279.22,301.56,279.37Z" style="fill:#263238"></path><path d="M321.35,367.09l-.54,0-1.59.07c-1.39.05-3.44.17-6.08.38a144,144,0,0,0-53.21,15c-5.62,2.75-11.45,5.83-17.8,8.35a67.24,67.24,0,0,1-9.94,3.12c-.87.19-1.73.38-2.62.51l-1.31.22-1.34.15c-.89.07-1.78.22-2.69.24l-2.71.1a65.07,65.07,0,0,1-10.69-.95,90.65,90.65,0,0,1-10.12-2.5,168.37,168.37,0,0,1-18.32-7.14c-5.73-2.55-11.1-5.1-16.24-7.23a132.46,132.46,0,0,0-14.55-5.22,64,64,0,0,0-22.1-2.75,33.7,33.7,0,0,0-3.49.36c-.5.07-1,.11-1.39.19l-1.15.24-1.55.31c-.35.07-.54.09-.54.09s.18-.06.53-.14l1.54-.36,1.14-.27c.42-.08.89-.13,1.4-.21a30.21,30.21,0,0,1,3.5-.41,62.89,62.89,0,0,1,22.21,2.6A127,127,0,0,1,166.31,377c5.16,2.11,10.55,4.66,16.27,7.19a170,170,0,0,0,18.28,7.09,89.57,89.57,0,0,0,10.06,2.48,65.07,65.07,0,0,0,10.6.94l2.68-.1c.9,0,1.78-.16,2.66-.24l1.32-.14,1.31-.22c.87-.13,1.73-.31,2.58-.51a65.48,65.48,0,0,0,9.87-3.09c6.32-2.49,12.14-5.56,17.77-8.3A143.3,143.3,0,0,1,291,370.77a138.29,138.29,0,0,1,22.17-3.39c2.65-.18,4.7-.27,6.1-.28l1.59,0A4.51,4.51,0,0,1,321.35,367.09Z" style="fill:#263238"></path><path d="M166.72,405.63c3.55.82,6.91,2.3,10.4,3.32a18.7,18.7,0,0,0,1.43-2.56,17.95,17.95,0,1,0-31.77,1.88A29.6,29.6,0,0,1,166.72,405.63Z" style="fill:#2B2E81"></path><path d="M145.17,400.87a5.53,5.53,0,0,1-.31-2,15,15,0,0,1,.67-4.95,15.2,15.2,0,0,1,2.23-4.47,5.9,5.9,0,0,1,1.41-1.52,19.93,19.93,0,0,0-4,13Z" style="fill:#fff"></path><path d="M145.58,403.89c-.14,0-.32-.3-.4-.73s0-.79.1-.82.32.3.41.72S145.73,403.86,145.58,403.89Z" style="fill:#fff"></path><path d="M150.7,406.6l.29-.09a13.78,13.78,0,0,1-1.88-4.35,13.49,13.49,0,0,1,0-6.26,13.31,13.31,0,0,1,3.5-6.25,12.38,12.38,0,0,1,3.12-2.34,12.83,12.83,0,0,1,3.82-1.38,13.79,13.79,0,0,1,14.67,6.6A13.53,13.53,0,0,1,176,400.2a13.34,13.34,0,0,1-2.36,6.75c-.16.25-.36.46-.54.69l.43.14c.15-.19.32-.37.47-.58a13.78,13.78,0,0,0,2.48-7,13.13,13.13,0,0,0-.31-4,13.31,13.31,0,0,0-1.55-3.93,14.28,14.28,0,0,0-15.21-6.84,13.15,13.15,0,0,0-4,1.45,12.81,12.81,0,0,0-3.22,2.43,13.68,13.68,0,0,0-3.51,12.94A13.83,13.83,0,0,0,150.7,406.6Z" style="fill:#263238"></path><g style="opacity:0.30000000000000004"><path d="M169.89,387.62a14.71,14.71,0,0,1,3.37,3,14,14,0,0,1,1.69,2.58,13.28,13.28,0,0,1,1.17,3.32,11.63,11.63,0,0,1,.26,1.89,11.92,11.92,0,0,1,0,2,13.16,13.16,0,0,1-.32,2,13.47,13.47,0,0,1-1.61,3.9,12.69,12.69,0,0,1-1,1.45l1,.36a12.65,12.65,0,0,0,.9-1.27,15.5,15.5,0,0,0,1-2,14.37,14.37,0,0,0,.69-2.17,14,14,0,0,0,.34-2.19,13.85,13.85,0,0,0,0-2.14,12,12,0,0,0-.32-2,13.77,13.77,0,0,0-1.34-3.52,14.27,14.27,0,0,0-1.9-2.66,12.71,12.71,0,0,0-3.73-2.82,4.32,4.32,0,0,0-1.62-.57C168.44,386.78,169,387.05,169.89,387.62Z"></path></g><g style="opacity:0.30000000000000004"><path d="M156.29,403.45c2.75,1.19,4.51-.88,6-2.83l3.33,1.44a8.79,8.79,0,0,1-2.32,2.55l.52.53a24.18,24.18,0,0,1,2.66.44,11.46,11.46,0,0,0,1.72-2.4l2.13.92.85-2L169,401.2c1-3.24-.15-5.52-2.22-6.42-2.8-1.21-4.57.91-6,2.85l-3.27-1.41a8.75,8.75,0,0,1,3-3.2l-1.92-2.11a10.16,10.16,0,0,0-3.67,4.2l-2.13-.93-.85,2,2.19.95C153.13,400.32,154.25,402.57,156.29,403.45Zm9.25-5.45c.65.28,1,.94.82,2.08l-2.77-1.21C164.23,398.13,164.86,397.71,165.54,398Zm-8.87.21,2.7,1.16c-.65.72-1.27,1.12-2,.83S156.47,399.28,156.67,398.21Z"></path></g><path d="M188.14,411.29a2.53,2.53,0,0,1-.48,0c-.32,0-.79,0-1.39,0a32.62,32.62,0,0,1-5.09-.53,58.81,58.81,0,0,1-7.34-1.94c-2.72-.86-5.66-2-8.83-2.74a19.92,19.92,0,0,0-9.07.08,43.4,43.4,0,0,0-7.18,2.25c-2,.79-3.58,1.52-4.67,2a14.82,14.82,0,0,1-1.72.76,2,2,0,0,1,.41-.27c.28-.16.68-.39,1.22-.67,1.07-.56,2.63-1.34,4.62-2.19a42.16,42.16,0,0,1,7.22-2.37,20,20,0,0,1,9.29-.12c3.22.79,6.15,1.92,8.86,2.8a63.43,63.43,0,0,0,7.26,2,37.92,37.92,0,0,0,5,.7A13.43,13.43,0,0,1,188.14,411.29Z" style="fill:#263238"></path><path d="M212,88.1l-.71.43c-.46.28-1.15.7-2,1.3-1.76,1.18-4.28,3-7.4,5.58-1.55,1.28-3.31,2.7-5.1,4.34a14.81,14.81,0,0,0-3.25,7.1c-1.13,5.61,0,12.23,2.29,19A102.3,102.3,0,0,0,200,136.32c1.65,3.56,3.6,7.17,5.32,11.05.9,1.92,1.7,3.93,2.56,5.94s1.63,4.11,2.37,6.25c1.53,4.26,2.91,8.71,4.09,13.33a149.12,149.12,0,0,1,4.6,29.55c.3,5.19.24,10.48.13,15.83s-.32,10.79-.59,16.29c-.53,11-1.23,21.71-1.63,32.07s-.6,20.37-.61,29.9c0,19.06.76,36.21,1.76,50.59s2.2,26,3.11,34c.45,4,.84,7.12,1.1,9.22.12,1.05.22,1.84.28,2.4s.08.82.08.82,0-.27-.13-.81-.19-1.35-.33-2.39c-.29-2.11-.72-5.21-1.2-9.21-1-8-2.23-19.61-3.28-34s-1.82-31.55-1.87-50.62c0-9.54.17-19.55.58-29.92s1.09-21.09,1.62-32.08c.27-5.49.48-10.92.6-16.27s.17-10.62-.13-15.79A149.08,149.08,0,0,0,213.91,173c-1.17-4.61-2.55-9-4.06-13.29-.73-2.14-1.57-4.2-2.35-6.24s-1.65-4-2.55-5.93c-1.7-3.87-3.63-7.48-5.28-11.06A100.63,100.63,0,0,1,195.42,126c-2.28-6.82-3.4-13.5-2.23-19.19a15.1,15.1,0,0,1,3.36-7.21c1.83-1.66,3.58-3,5.15-4.33,3.15-2.52,5.69-4.35,7.47-5.51A26.34,26.34,0,0,1,212,88.1Z" style="fill:#263238"></path><path d="M127.89,326.93c.14,0,.26,23.23.26,51.87s-.12,51.87-.26,51.87-.26-23.22-.26-51.87S127.74,326.93,127.89,326.93Z" style="fill:#263238"></path><path d="M313.61,436.14c-.15,0-.26-10.17-.26-22.71s.11-22.71.26-22.71.26,10.17.26,22.71S313.75,436.14,313.61,436.14Z" style="fill:#fff"></path><path d="M313.61,373.82a10.53,10.53,0,0,1,0,4.65,10.53,10.53,0,0,1,0-4.65Z" style="fill:#fff"></path><path d="M246.2,301.09c11.32-5.47,24-7.27,36.48-8.91a46.09,46.09,0,0,1-61.07,37.42C224.07,317.26,234.87,306.55,246.2,301.09Z" style="fill:#455a64"></path><path d="M216.44,333s.13-.14.41-.37a12.19,12.19,0,0,1,1.26-.93c1.11-.79,2.79-1.81,4.88-3.06,4.18-2.48,10-5.74,16.53-9.31l16.61-9.18,5-2.82,1.37-.76a2.12,2.12,0,0,1,.49-.23,2,2,0,0,1-.44.32l-1.32.84c-1.15.73-2.84,1.74-4.93,3-4.19,2.46-10.05,5.74-16.54,9.31s-12.38,6.78-16.6,9.18c-2.11,1.2-3.81,2.18-4.95,2.91S216.47,333,216.44,333Z" style="fill:#263238"></path><path d="M245.87,172.63c10.5-5.06,22.26-6.73,33.82-8.25a42.73,42.73,0,0,1-56.61,34.68C225.36,187.63,235.37,177.7,245.87,172.63Z" style="fill:#455a64"></path><path d="M218.92,201.85a1.8,1.8,0,0,1,.37-.34,12.88,12.88,0,0,1,1.14-.85c1-.72,2.55-1.66,4.46-2.81,3.81-2.26,9.17-5.24,15.1-8.51L255.16,181l4.58-2.57,1.25-.69a2.26,2.26,0,0,1,.46-.21,1.85,1.85,0,0,1-.41.3l-1.2.78c-1,.66-2.59,1.58-4.5,2.71-3.82,2.25-9.17,5.25-15.1,8.51s-11.31,6.19-15.17,8.37c-1.92,1.1-3.48,2-4.52,2.66S219,201.89,218.92,201.85Z" style="fill:#263238"></path><path d="M196.08,225.36c-8.41-4.31-17.91-5.9-27.25-7.36A34.64,34.64,0,0,0,214,247.23C212.41,237.92,204.49,229.67,196.08,225.36Z" style="fill:#455a64"></path><path d="M217.35,249.57a15.53,15.53,0,0,1-1.31-.85c-.83-.55-2.08-1.3-3.62-2.22l-12.14-7.07c-4.74-2.77-9-5.31-12.07-7.21-1.52-1-2.75-1.74-3.58-2.3a8.38,8.38,0,0,1-1.27-.92,9.32,9.32,0,0,1,1.37.74l3.67,2.16L200.55,239c4.74,2.76,9,5.28,12.06,7.2,1.52,1,2.74,1.76,3.55,2.37a9.73,9.73,0,0,1,.91.73C217.27,249.46,217.37,249.56,217.35,249.57Z" style="fill:#263238"></path><path d="M185.9,139.8c-11.19-5.73-23.83-7.85-36.25-9.78a46.08,46.08,0,0,0,60.14,38.88C207.63,156.51,197.09,145.54,185.9,139.8Z" style="fill:#455a64"></path><path d="M214.21,172s-.6-.44-1.73-1.16-2.76-1.75-4.8-3c-4.11-2.46-9.83-5.76-16.14-9.43s-12-7-16.07-9.57c-2-1.26-3.67-2.3-4.79-3L169.4,145a2,2,0,0,1-.42-.33,2,2,0,0,1,.48.24l1.33.78,4.87,2.89L191.8,158c6.31,3.67,12,7,16.07,9.56,2,1.28,3.65,2.33,4.73,3.13a14.21,14.21,0,0,1,1.22,1C214.09,171.88,214.22,172,214.21,172Z" style="fill:#263238"></path><path d="M188.88,327.74c-11.32-5.46-24-7.27-36.48-8.91a46.09,46.09,0,0,0,61.07,37.42C211,343.92,200.21,333.2,188.88,327.74Z" style="fill:#455a64"></path><path d="M218.84,359.76c0,.05-.62-.42-1.79-1.13s-2.86-1.71-5-2.92c-4.24-2.41-10.16-5.63-16.67-9.22s-12.4-6.88-16.61-9.35c-2.1-1.24-3.8-2.25-5-3l-1.33-.84c-.3-.2-.45-.31-.44-.33a2.8,2.8,0,0,1,.5.24L174,334l5,2.83L195.66,346c6.51,3.59,12.4,6.86,16.6,9.35,2.1,1.25,3.78,2.28,4.9,3.07a15.65,15.65,0,0,1,1.27.94A2.87,2.87,0,0,1,218.84,359.76Z" style="fill:#263238"></path><path d="M303.44,252.92c0,.14-36.63.26-81.81.26s-81.83-.12-81.83-.26,36.63-.26,81.83-.26S303.44,252.77,303.44,252.92Z" style="fill:#263238"></path><path d="M303.1,259.62c0,.14-36.63.26-81.82.26s-81.82-.12-81.82-.26,36.63-.27,81.82-.27S303.1,259.47,303.1,259.62Z" style="fill:#263238"></path><path d="M303.1,263.22c0,.15-36.63.26-81.82.26s-81.82-.11-81.82-.26,36.63-.26,81.82-.26S303.1,263.08,303.1,263.22Z" style="fill:#263238"></path><path d="M302.93,269.92c0,.14-36.64.26-81.82.26s-81.82-.12-81.82-.26,36.63-.26,81.82-.26S302.93,269.78,302.93,269.92Z" style="fill:#263238"></path><path d="M213.32,292a4.46,4.46,0,0,0-1.11-2,29.1,29.1,0,0,0-23.29-8.42,1.33,1.33,0,0,0-1,.39c-.35.47,0,1.13.44,1.57A27.35,27.35,0,0,0,213.32,292Z" style="fill:#455a64"></path><path d="M216,293.84c0,.06-1-.62-2.68-1.62a46.16,46.16,0,0,0-6.7-3.34,49.88,49.88,0,0,0-7.16-2.2,25.29,25.29,0,0,1-3-.71,2.57,2.57,0,0,1,.84,0c.54,0,1.32.15,2.27.32a38.88,38.88,0,0,1,7.28,2.08,36.19,36.19,0,0,1,6.71,3.51c.81.54,1.44,1,1.86,1.35S216.06,293.81,216,293.84Z" style="fill:#263238"></path><path d="M213.43,159a4.55,4.55,0,0,1,.69-2.18,29.1,29.1,0,0,1,21.12-12.93,1.32,1.32,0,0,1,1,.19c.44.39.19,1.11-.11,1.62A27.37,27.37,0,0,1,213.43,159Z" style="fill:#455a64"></path><path d="M210.71,161.87a3.38,3.38,0,0,1,.51-.7c.35-.44.9-1,1.6-1.75a39.85,39.85,0,0,1,6-5,39.4,39.4,0,0,1,6.87-3.69c.92-.38,1.68-.66,2.21-.82a2.68,2.68,0,0,1,.85-.2c0,.08-1.12.52-2.91,1.36a50,50,0,0,0-6.73,3.78,50.81,50.81,0,0,0-6,4.8A29.56,29.56,0,0,1,210.71,161.87Z" style="fill:#263238"></path><polygon points="256.42 393.74 234.89 399.56 234.93 399.7 246.24 454.85 292.22 442.43 283.26 409.24 256.42 393.74" style="fill:#2B2E81"></polygon><g style="opacity:0.30000000000000004"><polygon points="256.42 393.74 234.89 399.56 234.93 399.7 246.24 454.85 292.22 442.43 283.26 409.24 256.42 393.74"></polygon></g><polygon points="234.89 399.56 218.8 425.51 228.05 459.76 271.11 448.13 262.06 414.61 234.89 399.56" style="fill:#2B2E81"></polygon><path d="M242.35,455.9a7.2,7.2,0,0,1-.43-1.25c-.26-.9-.6-2.07-1-3.5-.85-3.08-2-7.26-3.34-12l-.07-.25.24-.06,5.33-1.45,5.34-1.43.25-.07.06.24,3.17,12.09c.36,1.45.66,2.64.88,3.54A7,7,0,0,1,253,453a7.2,7.2,0,0,1-.43-1.25c-.26-.9-.6-2.07-1-3.5-.86-3.08-2-7.26-3.35-12l.31.17-5.33,1.45-5.33,1.44L238,439l3.17,12.08c.36,1.45.66,2.64.88,3.54A7.15,7.15,0,0,1,242.35,455.9Z" style="fill:#263238"></path><g style="opacity:0.30000000000000004"><rect x="248.41" y="420.47" width="9.5" height="9.5" transform="matrix(0.97, -0.26, 0.26, 0.97, -102.11, 80.72)" style="fill:#fff"></rect></g><g style="opacity:0.30000000000000004"><rect x="226.02" y="426.51" width="9.5" height="9.5" transform="translate(-104.46 75.08) rotate(-15.11)" style="fill:#fff"></rect></g><rect x="221.23" y="406.79" width="4.75" height="14.1" transform="translate(-100.17 72.62) rotate(-15.11)" style="fill:#2B2E81"></rect><path d="M234.89,399.56a1.72,1.72,0,0,1,.38-.13l1.11-.33,4.28-1.21,15.71-4.33.08,0,.07,0L283.42,409l.54.31-.61.16-14.63,3.75-6.6,1.68-.1,0-.09-.05-27.14-15.09.29-.08c-4.88,7.79-8.92,14.26-11.77,18.8l-3.3,5.22-.89,1.37a2.49,2.49,0,0,1-.32.45,3.75,3.75,0,0,1,.27-.49l.83-1.39c.75-1.25,1.83-3,3.2-5.29l11.61-18.9.11-.17.18.1,27.18,15-.19,0,6.6-1.68,14.64-3.74-.06.46-26.84-15.49.14,0-15.76,4.16-4.3,1.11-1.13.28Z" style="fill:#263238"></path><g style="opacity:0.30000000000000004"><polyline points="253.02 453.02 248.47 436.16 237.8 439.04 242.35 455.9"></polyline></g><path d="M304.44,448.81a31.25,31.25,0,0,0-32-7.21c-7.61,2.74-14.58,8.57-22.64,7.89-4.43-.38-8.42-2.72-12.66-4a28.24,28.24,0,0,0-27,6.16l-3.77,12.12s102.84,3.85,102.84,0S304.44,448.81,304.44,448.81Z" style="fill:#455a64"></path><path d="M299.81,444.56a6.21,6.21,0,0,1-.78-.39c-.5-.27-1.24-.67-2.22-1.11a33.84,33.84,0,0,0-8.7-2.64,29,29,0,0,0-13.34.87c-4.89,1.42-9.88,4.06-15.28,6.45-2.68,1.2-5.46,2.32-8.33,2.36s-5.45-1.15-7.76-2.17a34.18,34.18,0,0,0-13-3.21,34.74,34.74,0,0,0-9.05.79c-1,.25-1.86.46-2.41.63a4.17,4.17,0,0,1-.84.21,7.64,7.64,0,0,1,.81-.31c.54-.2,1.34-.45,2.39-.72a33.06,33.06,0,0,1,9.12-1,34.1,34.1,0,0,1,13.2,3.14c2.33,1,4.82,2.16,7.57,2.1s5.45-1.13,8.12-2.33c5.38-2.37,10.39-5,15.36-6.43a28.84,28.84,0,0,1,13.53-.77,32.53,32.53,0,0,1,8.72,2.82,22.26,22.26,0,0,1,2.19,1.2A5.54,5.54,0,0,1,299.81,444.56Z" style="fill:#263238"></path><rect x="156.11" y="432.43" width="37.72" height="15.66" transform="translate(74.8 -22.78) rotate(9.47)" style="fill:#2B2E81"></rect><rect x="148.64" y="431.56" width="57.67" height="3.1" transform="translate(73.65 -23.29) rotate(9.47)" style="fill:#2B2E81"></rect><g style="opacity:0.30000000000000004"><rect x="188.91" y="434.89" width="17.12" height="3.08" transform="translate(74.47 -26.54) rotate(9.47)"></rect></g><g style="opacity:0.30000000000000004"><rect x="175.97" y="435.97" width="17.57" height="13.76" transform="matrix(0.99, 0.16, -0.16, 0.99, 75.36, -24.36)"></rect></g><path d="M205.72,439.38c0,.14-12.73-1.86-28.38-4.47s-28.32-4.84-28.3-5,12.73,1.86,28.38,4.47S205.75,439.23,205.72,439.38Z" style="fill:#263238"></path><path d="M149.89,443.46c5.58-.83,11.45-1.64,16.74.34,3.22,1.21,6.1,3.43,9.5,4,4,.67,8.14-1.1,12.24-.79a12.25,12.25,0,0,1,9,5.2,4.87,4.87,0,0,1-3.44,2.66,14.37,14.37,0,0,1-4.49.12c-9.09-.7-18.19-1.4-27.17-2.92a24.69,24.69,0,0,1-7.8-2.32,9.24,9.24,0,0,1-4.88-6.21" style="fill:#455a64"></path><path d="M146.75,442s.32-.33.8-1,1.13-1.72,1.9-3c1.53-2.57,3.5-6.36,6.91-9.59a11.79,11.79,0,0,1,5.8-3,7.32,7.32,0,0,1,5.26.9,5.93,5.93,0,0,1,2.42,2.68,3.76,3.76,0,0,1,.3.94c0,.22.05.34,0,.34s-.13-.46-.51-1.2a6.18,6.18,0,0,0-2.42-2.45,7.13,7.13,0,0,0-5-.74,11.64,11.64,0,0,0-5.54,3,30.24,30.24,0,0,0-4.12,4.94c-1.12,1.62-2,3.2-2.83,4.47a30.11,30.11,0,0,1-2,2.95A2.88,2.88,0,0,1,146.75,442Z" style="fill:#263238"></path><path d="M203.62,451.76a7.29,7.29,0,0,1-2.48-.05,24.07,24.07,0,0,1-6.33-2.35,26.87,26.87,0,0,0-4.28-1.71,11.88,11.88,0,0,0-2.5-.43,13.09,13.09,0,0,0-2.69.2c-1.83.29-3.72.9-5.77,1.22a11.24,11.24,0,0,1-3.18.09,8.81,8.81,0,0,1-3.11-1.05c-1.95-1.05-3.57-2.48-5.35-3.39a15.54,15.54,0,0,0-5.58-1.48c-3.72-.32-7.11.14-10,0a24.41,24.41,0,0,1-6.69-1,16.39,16.39,0,0,1-1.72-.64,3,3,0,0,1-.57-.3c0-.05.82.33,2.35.75a26.19,26.19,0,0,0,6.64.78c2.82.07,6.2-.44,10-.13a15.53,15.53,0,0,1,5.77,1.5c1.87,1,3.48,2.37,5.36,3.38a8.62,8.62,0,0,0,2.94,1,11,11,0,0,0,3-.09c2-.3,3.9-.9,5.78-1.19a14.59,14.59,0,0,1,2.78-.18,12.6,12.6,0,0,1,2.6.47A26.37,26.37,0,0,1,195,449a25.94,25.94,0,0,0,6.21,2.48A19.16,19.16,0,0,0,203.62,451.76Z" style="fill:#263238"></path><path d="M224.46,106.4a9.59,9.59,0,0,1-1.35,1c-.45.31-1,.68-1.6,1.15s-1.34,1-2.06,1.61-1.57,1.28-2.39,2.07-1.69,1.62-2.58,2.54a49.87,49.87,0,0,0-5.13,6.51,48.68,48.68,0,0,0-3.87,7.32c-.47,1.19-.92,2.32-1.24,3.41s-.63,2.09-.87,3-.4,1.8-.56,2.55-.26,1.4-.34,1.94a10.16,10.16,0,0,1-.3,1.66,11.15,11.15,0,0,1,.1-1.69c0-.54.11-1.2.25-2s.24-1.64.49-2.58.45-2,.81-3.08.76-2.25,1.22-3.46a45.71,45.71,0,0,1,3.87-7.43,47.94,47.94,0,0,1,5.22-6.55c.91-.92,1.77-1.79,2.64-2.53s1.68-1.44,2.45-2,1.49-1.1,2.12-1.55,1.19-.81,1.65-1.09A11,11,0,0,1,224.46,106.4Z" style="fill:#263238"></path><path d="M187,201.23a12.78,12.78,0,1,1,7-16.61A12.77,12.77,0,0,1,187,201.23Z" style="fill:#2B2E81"></path><g style="opacity:0.30000000000000004"><path d="M177.26,192.57l-1.56.66-.59-1.4,1.52-.64a7.2,7.2,0,0,1-.34-3.94l2,.05a6.19,6.19,0,0,0,.15,3.12l2.33-1c-.27-1.7-.48-3.65,1.51-4.49,1.48-.62,3.2-.08,4.38,2l1.55-.65.59,1.4-1.53.64a6.73,6.73,0,0,1,.34,3.19l-2,0a6.1,6.1,0,0,0-.17-2.44l-2.37,1c.29,1.7.48,3.62-1.48,4.44C180.15,195.18,178.44,194.65,177.26,192.57Zm5.58-4,2-.83c-.47-.67-1-.79-1.46-.6S182.78,187.89,182.84,188.58Zm-2.35,3.82c.49-.21.58-.72.54-1.41l-1.93.81C179.55,192.43,180,192.58,180.49,192.4Z"></path></g><g style="opacity:0.30000000000000004"><path d="M186.85,197.92c0-.06.36-.26,1-.68a10.42,10.42,0,0,0,2.35-2.16,9.91,9.91,0,0,0,1.15-1.85,9.5,9.5,0,0,0,.78-2.38,9,9,0,0,0,.11-2.75,9.08,9.08,0,0,0-.26-1.44,10.71,10.71,0,0,0-.49-1.41,11.21,11.21,0,0,0-.71-1.33,10.38,10.38,0,0,0-.88-1.16,9.29,9.29,0,0,0-1-1,8.24,8.24,0,0,0-1.1-.79,9.56,9.56,0,0,0-2.27-1,10,10,0,0,0-2.16-.4,10.41,10.41,0,0,0-3.17.27,6.5,6.5,0,0,1-1.17.28,2.83,2.83,0,0,1,1.09-.55,9,9,0,0,1,3.28-.53,10,10,0,0,1,4.76,1.38,9.12,9.12,0,0,1,1.19.83,9.76,9.76,0,0,1,1.1,1,10.88,10.88,0,0,1,1,1.25,10.32,10.32,0,0,1,.77,1.43,10.65,10.65,0,0,1,.53,1.53A9.32,9.32,0,0,1,193,188a11.05,11.05,0,0,1,0,1.52,9.79,9.79,0,0,1-.2,1.44,10.14,10.14,0,0,1-.89,2.52,9.7,9.7,0,0,1-1.31,1.91,9.1,9.1,0,0,1-2.6,2.07A2.88,2.88,0,0,1,186.85,197.92Z"></path></g><path d="M186,198.34a23.81,23.81,0,0,0,2.05-1.26,9.89,9.89,0,0,0,3.62-5.26,9.38,9.38,0,0,0-2.12-8.91,9.06,9.06,0,0,0-2.13-1.74,9.41,9.41,0,0,0-2.66-1.08,9.72,9.72,0,0,0-10.51,4.24,9.16,9.16,0,0,0-1.17,2.62,8.79,8.79,0,0,0-.34,2.72,9.43,9.43,0,0,0,4.65,7.9,10,10,0,0,0,6.26,1.29,23.82,23.82,0,0,0,2.35-.52,7.92,7.92,0,0,1-2.32.72,9.88,9.88,0,0,1-6.47-1.17,9.72,9.72,0,0,1-3.36-3.15,9.83,9.83,0,0,1-1.59-5.05,9.4,9.4,0,0,1,.34-2.87,9.57,9.57,0,0,1,1.21-2.77,10.31,10.31,0,0,1,4.82-4,10.2,10.2,0,0,1,6.25-.44,9.28,9.28,0,0,1,2.79,1.15,9.06,9.06,0,0,1,2.23,1.83,9.74,9.74,0,0,1,2.12,9.34,9.87,9.87,0,0,1-3.85,5.33A7.65,7.65,0,0,1,186,198.34Z" style="fill:#263238"></path><path d="M170.15,190.69a9.62,9.62,0,0,1,2.84-9.22,23.39,23.39,0,0,0-2.16,4.38A22.57,22.57,0,0,0,170.15,190.69Z" style="fill:#fff"></path><path d="M170.45,192.83c-.15,0-.31-.2-.37-.5s0-.57.15-.6.3.2.36.5S170.59,192.8,170.45,192.83Z" style="fill:#fff"></path><path d="M173.48,200.88c8,3.21,18,2.78,25-2.16h0c-3.67-2.95-8.58-5.59-13.25-4.95A17.56,17.56,0,0,0,173.48,200.88Z" style="fill:#455a64"></path><path d="M187,176.5a26.32,26.32,0,0,1,11.62,21.77l-.2.74A17.34,17.34,0,0,1,187,176.5Z" style="fill:#455a64"></path><path d="M218.71,216.61a7.29,7.29,0,0,1-.75-1.25,35.93,35.93,0,0,0-2.17-3.27,33.32,33.32,0,0,0-3.91-4.3c-1.6-1.5-3.49-3-5.48-4.59a50.81,50.81,0,0,0-10.88-7c-1.51-.68-2.77-1.16-3.65-1.46a10,10,0,0,1-1.36-.5,7,7,0,0,1,1.42.3,30,30,0,0,1,3.73,1.33,45.9,45.9,0,0,1,11.06,6.92c2,1.59,3.89,3.12,5.49,4.65a31.86,31.86,0,0,1,3.88,4.43,28.09,28.09,0,0,1,2,3.4A7.7,7.7,0,0,1,218.71,216.61Z" style="fill:#263238"></path><path d="M238.65,248.08a6.83,6.83,0,1,1,6.31,7.3A6.82,6.82,0,0,1,238.65,248.08Z" style="fill:#2B2E81"></path><g style="opacity:0.30000000000000004"><path d="M245.1,245.45l.06-.91.8.05-.05.88a3.86,3.86,0,0,1,2,.77l-.51,1a3.15,3.15,0,0,0-1.53-.67l-.08,1.35c.88.27,1.87.63,1.8,1.78,0,.86-.72,1.56-2,1.63l-.06.89-.81,0,.06-.88a3.66,3.66,0,0,1-1.61-.6l.46-1a3.28,3.28,0,0,0,1.21.5l.08-1.37c-.88-.27-1.85-.63-1.78-1.77C243.17,246.21,243.83,245.52,245.1,245.45Zm.6,3.62-.07,1.14c.43-.07.62-.29.63-.56S246.05,249.2,245.7,249.07Zm-1.28-2c0,.28.21.45.55.59l.07-1.12C244.63,246.58,244.44,246.78,244.42,247Z"></path></g><g style="opacity:0.30000000000000004"><path d="M240.27,248.79s0,.23.1.63a5.44,5.44,0,0,0,.48,1.64,5.11,5.11,0,0,0,.61,1,5.31,5.31,0,0,0,1,.93,4.22,4.22,0,0,0,.61.39,5.29,5.29,0,0,0,.68.32,5.9,5.9,0,0,0,.75.21,7,7,0,0,0,.8.1,5.3,5.3,0,0,0,.8,0,4.77,4.77,0,0,0,.77-.15,5.41,5.41,0,0,0,.71-.25,5.12,5.12,0,0,0,1.67-1.19,5.2,5.2,0,0,0,.7-.94,5.3,5.3,0,0,0,.62-1.59,3.87,3.87,0,0,1,.14-.62s.06.23,0,.65a4.78,4.78,0,0,1-.52,1.7,6,6,0,0,1-.7,1,5.53,5.53,0,0,1-1.08.94,7.37,7.37,0,0,1-.68.37,4.93,4.93,0,0,1-.76.28,4.7,4.7,0,0,1-.83.17,6.22,6.22,0,0,1-.87,0,6.12,6.12,0,0,1-.86-.1,5.29,5.29,0,0,1-.8-.24,3.86,3.86,0,0,1-.74-.35,4,4,0,0,1-.64-.43,5.34,5.34,0,0,1-1-1,5.65,5.65,0,0,1-.61-1.08,4.89,4.89,0,0,1-.38-1.74A1.5,1.5,0,0,1,240.27,248.79Z"></path></g><path d="M240.26,248.3a10.73,10.73,0,0,0,.11,1.28,5.28,5.28,0,0,0,1.67,3,5.06,5.06,0,0,0,4.8,1.09,5.22,5.22,0,0,0,.72-9.72,5.05,5.05,0,0,0-4.91.38,5.23,5.23,0,0,0-2.09,2.71,10.62,10.62,0,0,0-.3,1.26,4.36,4.36,0,0,1,.22-1.28,5.26,5.26,0,0,1,2.09-2.81,5.17,5.17,0,0,1,5.07-.43,5.4,5.4,0,0,1-.75,10.08,5.25,5.25,0,0,1-6.6-4.27A4.25,4.25,0,0,1,240.26,248.3Z" style="fill:#263238"></path><path d="M247.68,242.48a2.21,2.21,0,0,1,.75.23,5.8,5.8,0,0,1,2.73,2.57,2.29,2.29,0,0,1,.28.74,9.7,9.7,0,0,0-1.57-2.1A9.82,9.82,0,0,0,247.68,242.48Z" style="fill:#fff"></path><path d="M246.59,242.12c0-.06.15-.07.31,0s.28.13.26.18-.15.07-.31,0S246.57,242.17,246.59,242.12Z" style="fill:#fff"></path><path d="M243.66,240.09A16.24,16.24,0,0,0,236,253.25l.11.46a10.72,10.72,0,0,0,7.57-13.62Z" style="fill:#455a64"></path><path d="M251.41,254.57a16.26,16.26,0,0,1-15.22-.8l-.33-.35a10.72,10.72,0,0,1,15.55,1.15Z" style="fill:#455a64"></path><path d="M239.15,251.44a11.77,11.77,0,0,1-1.4,1c-.47.32-1,.71-1.65,1.21s-1.36,1-2.11,1.68-1.59,1.35-2.43,2.18-1.71,1.72-2.62,2.67a50.32,50.32,0,0,0-9.19,14.41c-.47,1.23-1,2.39-1.3,3.51-.18.56-.37,1.1-.52,1.62l-.4,1.52c-.28,1-.42,1.85-.59,2.63s-.28,1.45-.36,2a10,10,0,0,1-.31,1.72,13.15,13.15,0,0,1,.11-1.74,19.81,19.81,0,0,1,.27-2c.14-.79.26-1.7.52-2.67.12-.49.25-1,.38-1.54s.32-1.07.49-1.64c.32-1.14.8-2.31,1.27-3.56a52,52,0,0,1,4-7.7,52.54,52.54,0,0,1,5.3-6.85c.92-1,1.78-1.89,2.68-2.67s1.7-1.52,2.49-2.15,1.52-1.16,2.17-1.63a18.68,18.68,0,0,1,1.71-1.14A9.88,9.88,0,0,1,239.15,251.44Z" style="fill:#263238"></path><path d="M202,101.82A27.13,27.13,0,1,1,222.5,69.44,27.1,27.1,0,0,1,202,101.82Z" style="fill:#2B2E81"></path><g style="opacity:0.30000000000000004"><path d="M184.55,80.31l-3.5.83L180.3,78l3.41-.81a15.18,15.18,0,0,1,.65-8.38l4.22.81a13,13,0,0,0-.77,6.59L193,75c0-3.68.25-7.83,4.73-8.9,3.31-.79,6.73.94,8.47,5.75l3.48-.83.74,3.13-3.41.81a14.65,14.65,0,0,1-.39,6.81l-4.22-.65a13.16,13.16,0,0,0,.48-5.17L197.6,77.2c0,3.66-.24,7.75-4.65,8.81C189.7,86.78,186.32,85.08,184.55,80.31Zm13.08-6.43,4.44-1.06c-.77-1.57-1.83-2-2.86-1.76S197.74,72.4,197.63,73.88Zm-6.25,7.18c1.09-.26,1.47-1.31,1.62-2.77l-4.32,1C189.4,80.8,190.38,81.3,191.38,81.06Z"></path></g><g style="opacity:0.30000000000000004"><path d="M202.81,94.83c0-.13.83-.41,2.3-1.08A21.64,21.64,0,0,0,210.78,90a21.31,21.31,0,0,0,3.07-3.49,20.51,20.51,0,0,0,2.44-4.71,18.86,18.86,0,0,0,.8-2.77,21.75,21.75,0,0,0,.4-3,20.13,20.13,0,0,0-.06-3.1,21.49,21.49,0,0,0-.54-3.14,22.37,22.37,0,0,0-1-3,20.32,20.32,0,0,0-1.44-2.74,19,19,0,0,0-1.78-2.41,19.48,19.48,0,0,0-2-2,20.7,20.7,0,0,0-4.42-3,21.28,21.28,0,0,0-4.37-1.58,21.94,21.94,0,0,0-6.75-.52,12.62,12.62,0,0,1-2.54.17A6,6,0,0,1,195,54a18.83,18.83,0,0,1,7.06,0,20.5,20.5,0,0,1,9.5,4.52,21.35,21.35,0,0,1,2.22,2.15,21.22,21.22,0,0,1,3.52,5.52A20.82,20.82,0,0,1,219,72.87a20.73,20.73,0,0,1,0,3.34,21.07,21.07,0,0,1-1.37,6.14,20.81,20.81,0,0,1-6.15,8.54,19.28,19.28,0,0,1-6.17,3.44A6.07,6.07,0,0,1,202.81,94.83Z"></path></g><path d="M201,95.43a1.41,1.41,0,0,1,.32-.11l.95-.29a10.79,10.79,0,0,0,1.52-.53,15.54,15.54,0,0,0,2-.89,20.2,20.2,0,0,0,4.9-3.43,20.62,20.62,0,0,0,6.58-15.67A20.34,20.34,0,0,0,214,64.16a21.79,21.79,0,0,0-1.76-2.35A22.4,22.4,0,0,0,210,59.73a19.46,19.46,0,0,0-5.26-3.24,20.5,20.5,0,0,0-6.19-1.57,20.85,20.85,0,0,0-12.7,2.83A20.53,20.53,0,0,0,181,61.81,19.65,19.65,0,0,0,177.56,67a18.24,18.24,0,0,0-1.66,5.68A20.14,20.14,0,0,0,183.06,91,20.69,20.69,0,0,0,190,94.8a20.12,20.12,0,0,0,5.89,1,17.1,17.1,0,0,0,2.19,0,12.09,12.09,0,0,0,1.6-.17l1-.15a1.38,1.38,0,0,1,.33,0,1.13,1.13,0,0,1-.32.09l-1,.19a9.81,9.81,0,0,1-1.6.22,15,15,0,0,1-2.21.09,20,20,0,0,1-6-.94,20.58,20.58,0,0,1-14.45-22.49,23.54,23.54,0,0,1,.59-2.94,23.93,23.93,0,0,1,1.09-2.88,20.07,20.07,0,0,1,3.46-5.3,20.87,20.87,0,0,1,5.06-4.16,22.7,22.7,0,0,1,6.27-2.49,23.2,23.2,0,0,1,6.73-.42A20.84,20.84,0,0,1,205,56a19.81,19.81,0,0,1,5.38,3.32,22.37,22.37,0,0,1,2.21,2.14A20.54,20.54,0,0,1,215.62,84a20.85,20.85,0,0,1-4.77,6.43,19.93,19.93,0,0,1-5,3.39,15.85,15.85,0,0,1-2,.86,10.44,10.44,0,0,1-1.55.48l-1,.24A1.37,1.37,0,0,1,201,95.43Z" style="fill:#263238"></path><path d="M170.3,73.91a2.55,2.55,0,0,1-.05-.84,15.83,15.83,0,0,1,.18-2.26A23.65,23.65,0,0,1,177,57.54a17.69,17.69,0,0,1,1.7-1.51c.43-.32.67-.49.7-.46s-.86.83-2.14,2.23a27.2,27.2,0,0,0-4.17,6.08,27.57,27.57,0,0,0-2.34,7C170.45,72.73,170.39,73.91,170.3,73.91Z" style="fill:#fff"></path><path d="M170.18,78.5c-.14,0-.28-.52-.3-1.18s.08-1.19.23-1.2.27.53.29,1.18S170.32,78.49,170.18,78.5Z" style="fill:#fff"></path></g><g id="freepik--Character--inject-468"><path d="M386.27,152.45c-1-2.08-2.38-4-2.81-6.31-.5-2.57.24-5.44-1.08-7.7-1.55-2.69-5.14-3.2-7.78-4.82-4.32-2.65-2.9-16.4-13.35-20.91l-3.62,20.48q-.09,20.24-1,40.46a196.84,196.84,0,0,0,20.18.74,14,14,0,0,0,5.27-.79c3.1-1.3,4.93-4.59,5.69-7.87A20.28,20.28,0,0,0,386.27,152.45Z" style="fill:#263238"></path><path d="M363.1,145.93l-12.26,26.69-3.1-17.47-2.14,3.54s-3.63,23.77-2.76,28c1.13,5.51,5.36,9.94,5.36,9.94l4.31,20.57c.32,2.19,2.31,3.74,3.22,3.45L386.05,206c1.7-1.27,1.67-2.87.74-5l-1.73-3.88-.55-24.76c0-1.51-.52-13.56-1.59-18.17a11.36,11.36,0,0,0-7-8.1C373.48,145.19,366.4,144.05,363.1,145.93Z" style="fill:#2B2E81"></path><path d="M356.79,130.21l-28.5-17.91c-3.69,9.14-.59,19.91.61,22.88s2.68,6.08,2.06,9.22c-.43,2.23-1.86,4.12-2.7,6.22a12.31,12.31,0,0,0,.28,9.62c.95,2,2.5,4,2.39,6.2s-2.05,4.27-2.41,6.6c-.39,2.53,1.17,5,3,6.79a7.36,7.36,0,0,0,4.61,2.61c2,.1,3.78-1.16,5.1-2.63,3-3.33,4.29-7.82,5-12.23s1-8.92,2.39-13.19c1.31-4.1,3.56-7.83,5.39-11.73S357.27,134.49,356.79,130.21Z" style="fill:#263238"></path><polygon points="435.4 286.33 455.79 263.65 446.45 254.28 422.33 274.86 435.4 286.33" style="fill:#ffbe9d"></polygon><path d="M453.18,266.72l.64-.62s14.7,6.5,16.84,4.64l-20.79-21.1-6.74,7.2A17,17,0,0,1,453.18,266.72Z" style="fill:#2B2E81"></path><g style="opacity:0.6000000000000001"><path d="M447.48,256.77a1.22,1.22,0,0,1,.4-1.57,1.16,1.16,0,0,1,1.55.38,1.28,1.28,0,0,1-.43,1.66,1.21,1.21,0,0,1-1.57-.58" style="fill:#fff"></path></g><g style="opacity:0.6000000000000001"><path d="M449.87,249.64l-1.62,1.73L468.76,271s1.34.54,1.9-.22Z" style="fill:#fff"></path></g><path d="M454,266.12c.1-.11-.36-.67-.53-1.5s0-1.53-.14-1.58-.58.68-.35,1.69S453.87,266.24,454,266.12Z" style="fill:#263238"></path><path d="M457,267.43c.13-.07-.14-.69-.05-1.47s.45-1.34.35-1.43-.75.41-.85,1.38S456.94,267.53,457,267.43Z" style="fill:#263238"></path><path d="M460.93,266.08c-.07-.12-.73.25-1,1.07s0,1.52.08,1.48.13-.64.39-1.31S461,266.19,460.93,266.08Z" style="fill:#263238"></path><path d="M370.18,158.62c.07,0-.19-.82-.39-2.14a15.2,15.2,0,0,1,.17-5.18,8.18,8.18,0,0,1,2.28-4.54,4.89,4.89,0,0,1,1.88-1,1.22,1.22,0,0,0-.6,0,3.66,3.66,0,0,0-1.47.71,8,8,0,0,0-2.49,4.68,13.36,13.36,0,0,0-.05,5.31A6.47,6.47,0,0,0,370.18,158.62Z" style="fill:#263238"></path><polygon points="375.07 354.74 378.32 385.67 391.79 385 392.69 352.68 375.07 354.74" style="fill:#ffbe9d"></polygon><path d="M377.78,381.6l0,.9s-15,6.69-15,9.58L393,390.76l-.85-10A17.28,17.28,0,0,1,377.78,381.6Z" style="fill:#2B2E81"></path><path d="M373.19,387.4c.12,0,.27-.64-.1-1.33s-1-1-1-.85.34.48.63,1S373.06,387.39,373.19,387.4Z" style="fill:#263238"></path><g style="opacity:0.6000000000000001"><path d="M389.21,384.08a1.23,1.23,0,0,1,.91,1.37,1.19,1.19,0,0,1-1.35.92,1.31,1.31,0,0,1-1-1.46,1.23,1.23,0,0,1,1.51-.8" style="fill:#fff"></path></g><g style="opacity:0.6000000000000001"><path d="M393,390.76l-.2-2.41-28.85,2.15s-1.32.64-1.13,1.58Z" style="fill:#fff"></path></g><path d="M377.71,382.59c0,.15.75.18,1.49.62s1.16,1.05,1.3,1-.13-.9-1-1.42S377.67,382.45,377.71,382.59Z" style="fill:#263238"></path><path d="M374.6,384c0,.14.62.36,1.15,1s.7,1.25.85,1.24.2-.85-.47-1.59S374.6,383.9,374.6,384Z" style="fill:#263238"></path><path d="M435.33,263.68,413.09,280.3s-7.18-21.89-9.2-34.57c0,0,2.59-11.09-1.57-19.09-5.32-9.14-11.26-13-11.26-13l-5-7.68-30.32,14.72,7.43,24,1.33,70.45,12.2,59.7,16-.06S394.17,340,390,327s-2.91-19.33-2.91-19.33l2.89-30c9.89,38,25.32,28.74,30.55,25.06,8.3-5.83,26-28.39,26-28.39Z" style="fill:#263238"></path><path d="M361.24,218.58a3.75,3.75,0,0,0,.68.66,9.81,9.81,0,0,0,.87.69,12.26,12.26,0,0,0,1.22.82,14.2,14.2,0,0,0,1.57.86,17.39,17.39,0,0,0,1.88.82,20.46,20.46,0,0,0,9.26,1.19,19.08,19.08,0,0,0,2-.31,15.52,15.52,0,0,0,1.73-.44,13.71,13.71,0,0,0,1.39-.49,8.69,8.69,0,0,0,1-.45,4.13,4.13,0,0,0,.83-.46c0-.08-1.24.55-3.31,1.12a17,17,0,0,1-1.72.39c-.62.13-1.29.19-2,.27a24,24,0,0,1-4.61-.1,23.72,23.72,0,0,1-4.48-1.07c-.67-.26-1.3-.48-1.87-.77a15,15,0,0,1-1.56-.81C362.29,219.43,361.29,218.52,361.24,218.58Z" style="fill:#455a64"></path><path d="M363.16,115.6c-2.91-4.81-6.82-9.42-12.15-11.19-4.75-1.58-10.7-.84-15.34,1a17.77,17.77,0,0,0-6.13,4.81c-2.2,2.56-2.23,6.16-2.53,9.53-.6,6.74,2.56,14.45,5.15,16l28.76,4.08c3.47-3.77,7-8.48,6.49-13.57C367,122.82,365,118.58,363.16,115.6Z" style="fill:#263238"></path><path d="M350.77,109.4l-16.83,1c-5.15,1.05-6.53,8.24-5.27,13.35,1.41,5.67,3.35,12.54,5.32,16.48,3.95,7.93,10.69,7,10.69,7s.06.12.89,2.58l2,6.4,2.7,19.15L363,148.16l-8.71-36.61A3.08,3.08,0,0,0,350.77,109.4Z" style="fill:#ffbe9d"></path><path d="M332.08,129.6a1.13,1.13,0,0,0,1.38.75,1.07,1.07,0,0,0,.79-1.31,1.12,1.12,0,0,0-1.37-.76A1.08,1.08,0,0,0,332.08,129.6Z" style="fill:#263238"></path><path d="M331.27,126.8c.17.1.79-.76,2-1.12s2.18-.05,2.26-.23-.18-.29-.63-.44a3,3,0,0,0-1.86,0,2.93,2.93,0,0,0-1.5,1.06C331.22,126.47,331.18,126.76,331.27,126.8Z" style="fill:#263238"></path><path d="M343.27,126.15a1.13,1.13,0,0,0,1.38.75,1.08,1.08,0,0,0,.8-1.31,1.14,1.14,0,0,0-1.38-.76A1.09,1.09,0,0,0,343.27,126.15Z" style="fill:#263238"></path><path d="M342.66,123.44c.17.1.8-.76,1.95-1.12s2.18,0,2.26-.23-.17-.29-.63-.44a3.08,3.08,0,0,0-1.86,0,2.94,2.94,0,0,0-1.5,1.07C342.61,123.11,342.57,123.4,342.66,123.44Z" style="fill:#263238"></path><path d="M341.17,133.3a8.66,8.66,0,0,0-2,.26c-.3.06-.6.09-.71-.1a1.56,1.56,0,0,1-.08-.93c.05-.8.11-1.64.17-2.51a40.83,40.83,0,0,0,.1-6.48A41.78,41.78,0,0,0,338,130q-.06,1.32-.12,2.52a1.8,1.8,0,0,0,.21,1.2.77.77,0,0,0,.62.28,1.8,1.8,0,0,0,.52-.09A7.72,7.72,0,0,0,341.17,133.3Z" style="fill:#263238"></path><path d="M344.68,147.19a22.28,22.28,0,0,0,10.24-6.51s-.93,6.71-9.53,8.57Z" style="fill:#eb996e"></path><path d="M345.66,134.25a2,2,0,0,0-1.81-.35,2.54,2.54,0,0,0-1.85,1.78,1.57,1.57,0,0,0,.25,1.11c.13.16,0,.09.23.17a4.39,4.39,0,0,0,2,.52,1.89,1.89,0,0,0,1.69-1.3A2,2,0,0,0,345.66,134.25Z" style="fill:#eb996e"></path><path d="M344.81,133c-.19.05.2,1.3-.59,2.53s-2.16,1.5-2.11,1.68.37.15.94,0a3.34,3.34,0,0,0,1.79-1.34,2.83,2.83,0,0,0,.41-2.09C345.13,133.26,344.9,133,344.81,133Z" style="fill:#263238"></path><path d="M341.3,121c.21.28,1.31-.23,2.72-.5s2.61-.24,2.7-.57c0-.16-.25-.4-.78-.56a4.77,4.77,0,0,0-4.13.82C341.37,120.49,341.2,120.82,341.3,121Z" style="fill:#263238"></path><path d="M330.43,122.69c.28.19,1-.33,1.94-.64s1.82-.38,1.92-.71c0-.16-.17-.39-.6-.52a3,3,0,0,0-3.11,1.09C330.32,122.28,330.3,122.59,330.43,122.69Z" style="fill:#263238"></path><path d="M355.37,122.41c.09-.09,4.15-3,5.61,1.68s-3.52,5.17-3.57,5S355.37,122.41,355.37,122.41Z" style="fill:#ffbe9d"></path><path d="M358.28,126.91s.1,0,.26,0a.83.83,0,0,0,.61-.18,2.06,2.06,0,0,0,.36-2.09,2.73,2.73,0,0,0-.59-1.09,1,1,0,0,0-.8-.43.42.42,0,0,0-.41.37c0,.15,0,.23,0,.25s-.12-.05-.15-.25a.5.5,0,0,1,.1-.35.59.59,0,0,1,.41-.26,1.17,1.17,0,0,1,1.07.46,2.83,2.83,0,0,1,.69,1.21,2.19,2.19,0,0,1-.55,2.38.89.89,0,0,1-.78.11C358.33,127,358.27,126.92,358.28,126.91Z" style="fill:#eb996e"></path><path d="M330.51,110.45a11.92,11.92,0,0,0-3.35,7.22,18.59,18.59,0,0,0,1,8l.55-.49a7.69,7.69,0,0,1,2.15-4.08c1.06-1.16,2.28-2.14,3.33-3.31a14.69,14.69,0,0,0,3.72-9.83A8.8,8.8,0,0,0,330.51,110.45Z" style="fill:#263238"></path><path d="M351.79,107.7c-4.49-2.16-11.57-1.86-15.56,1.12,1.93,3.69,6.31,7.14,9.87,9.3s6.88,7,12,3.32c.35-.25.92,0,1.2-.36a1.49,1.49,0,0,0,.27-1A14,14,0,0,0,351.79,107.7Z" style="fill:#263238"></path><path d="M346,179.87a57.75,57.75,0,0,1-7.35,1.46,58,58,0,0,1-7.43,1,58.89,58.89,0,0,1,7.35-1.45A59.27,59.27,0,0,1,346,179.87Z" style="fill:#fff"></path><path d="M366.16,148.45c.11.1-6.29,7.46-14.29,16.44S337.3,181.08,337.19,181s6.29-7.45,14.29-16.44S366.05,148.36,366.16,148.45Z" style="fill:#263238"></path><path d="M404.71,236.42a1.49,1.49,0,0,1,.07.46,10,10,0,0,1,.08,1.32,22.37,22.37,0,0,1-.55,4.85,48.51,48.51,0,0,1-6.23,14.79c-.84,1.33-1.76,2.56-2.57,3.78a25.2,25.2,0,0,0-2.08,3.66,33.5,33.5,0,0,0-2.2,6.81c-.43,2-.69,3.63-.86,4.77a10.51,10.51,0,0,1-.32,1.75,13,13,0,0,1,.12-1.78c.11-1.14.32-2.8.7-4.82a32.56,32.56,0,0,1,2.12-6.92,24.57,24.57,0,0,1,2.09-3.75c.82-1.24,1.73-2.47,2.56-3.78A51.48,51.48,0,0,0,404,243a24.31,24.31,0,0,0,.7-4.77C404.71,237.06,404.66,236.42,404.71,236.42Z" style="fill:#455a64"></path><polygon points="349.46 172.7 307.93 236.96 318.93 243.14 371.98 174.5 349.46 172.7" style="fill:#2B2E81"></polygon><path d="M345.07,160.6a2.09,2.09,0,0,0-.14.37c-.08.29-.19.64-.31,1.07-.27.93-.64,2.29-1.05,4a55.19,55.19,0,0,0-1.85,13.42A27,27,0,0,0,345,192.51a18.18,18.18,0,0,0,2.41,3.34c.31.37.61.61.79.8a1.35,1.35,0,0,0,.3.25s-.35-.41-1-1.15a20.58,20.58,0,0,1-2.28-3.38,27.61,27.61,0,0,1-3.12-12.94,59.6,59.6,0,0,1,1.72-13.35c.38-1.64.69-3,.92-4,.1-.43.18-.79.24-1.09A1.78,1.78,0,0,0,345.07,160.6Z" style="fill:#263238"></path><path d="M351.42,184.76s.1.22.35.57a5.92,5.92,0,0,0,.48.61,7.94,7.94,0,0,0,.71.76,13.51,13.51,0,0,0,2.1,1.68,14.93,14.93,0,0,0,3,1.46,15.17,15.17,0,0,0,3.23.73,13.61,13.61,0,0,0,2.7,0,10.57,10.57,0,0,0,1.78-.32,2.39,2.39,0,0,0,.63-.22c0-.08-.93.17-2.43.25a14.43,14.43,0,0,1-2.64-.1,17.19,17.19,0,0,1-3.13-.74,16.73,16.73,0,0,1-2.91-1.39,15.22,15.22,0,0,1-2.11-1.58C352,185.48,351.48,184.71,351.42,184.76Z" style="fill:#263238"></path><path d="M296.78,203.6c4.42-.79,45.69-6.67,45.69-6.67a14.74,14.74,0,0,0,3.67-2.09c9.27-7,35.14-27.58,36.71-32.76,1.82-6-.2-12.49-5-15.08-3.66-2-7.39-3.39-15.21,5.62S337.19,181,337.19,181l-40.78,10Z" style="fill:#2B2E81"></path><path d="M355.73,220.67s-.13.06-.38.1a2,2,0,0,1-1.09-.15c-1-.39-1.72-1.73-1.95-3.38v0c-.48-2.11-1.05-4.77-1.66-7.65-.75-3.57-1.4-6.8-1.84-9.15-.22-1.17-.39-2.12-.5-2.78a3.48,3.48,0,0,1-.11-1,4.33,4.33,0,0,1,.31,1c.17.65.39,1.58.66,2.75.54,2.32,1.24,5.54,2,9.11.61,2.88,1.15,5.55,1.56,7.68h0a4.11,4.11,0,0,0,1.64,3.21A3.84,3.84,0,0,0,355.73,220.67Z" style="fill:#263238"></path><path d="M413,293a3.88,3.88,0,0,1-.4-1.59,17,17,0,0,1,.05-3.94c.34-3.08,1.38-5.41,1.54-5.34s-.69,2.38-1,5.4a26.79,26.79,0,0,0-.2,3.85A7.61,7.61,0,0,1,413,293Z" style="fill:#455a64"></path><path d="M358.76,128.88c-1.05,1.3-.74,1.79-.26,3.39s1.21,3.19,1.09,4.86c-.19,2.62-2.45,4.79-2.45,7.42,0,1.94,1.24,3.74,1.13,5.67-.13,2.26-2,4-3.5,5.65s-4,6.63-2.83,8.55c4-4.17,9.43-9.5,12.87-13.65s6-9.45,5.25-14.78Z" style="fill:#263238"></path><path d="M382.32,150.71a9.38,9.38,0,0,1,.11-1.21,9.47,9.47,0,0,0-.28-3.25,6.72,6.72,0,0,0-.92-2,7.12,7.12,0,0,0-1.8-1.79,18.88,18.88,0,0,0-5.52-2.17,16.82,16.82,0,0,1-5.64-2.34,7.62,7.62,0,0,1-2.83-4.09,11.9,11.9,0,0,1-.48-3.32,4.25,4.25,0,0,1,.08-1.23,8.34,8.34,0,0,1,.12,1.22,13.62,13.62,0,0,0,.63,3.22,7.44,7.44,0,0,0,2.77,3.82,16.85,16.85,0,0,0,5.49,2.22,18.46,18.46,0,0,1,5.66,2.28,7.34,7.34,0,0,1,1.88,1.94,7.18,7.18,0,0,1,.92,2.17,8.52,8.52,0,0,1,.12,3.36A4.06,4.06,0,0,1,382.32,150.71Z" style="fill:#455a64"></path><path d="M364.28,115.08a9,9,0,0,1-1-.5,17.94,17.94,0,0,0-3-1,35.83,35.83,0,0,0-4.61-.75,51.19,51.19,0,0,1-5.73-.64,27.1,27.1,0,0,1-9.7-4,23.51,23.51,0,0,1-2.53-1.93c-.56-.51-.85-.8-.82-.83s1.28,1.06,3.55,2.45a29.17,29.17,0,0,0,9.6,3.76c2,.43,3.91.45,5.69.67a31.8,31.8,0,0,1,4.64.88,13.5,13.5,0,0,1,3,1.14,5.42,5.42,0,0,1,.73.48C364.21,115,364.29,115.07,364.28,115.08Z" style="fill:#455a64"></path><path d="M262.88,230.79a21.58,21.58,0,0,0-2.84-1.2,21.93,21.93,0,0,1-4.68-2.56v.59a12.24,12.24,0,0,0,4.86,7.65,5.45,5.45,0,0,0,2,1A2.32,2.32,0,0,0,265,233,4.45,4.45,0,0,0,262.88,230.79Z" style="fill:#f5f5f5"></path><path d="M272.37,196.5s12.07-10.73,17.72.35c0,0,1.74,2-.76,8s-7.67,16.44-7.67,16.44l-1.59-3.6s6.83-12.81,7.59-15.41.63-4.77.07-5.92c-.68-1.38-2.51-3.56-6.21-2.37-7.4,2.4-7.68,6.35-7.68,6.35Z" style="fill:#2B2E81"></path><path d="M287.16,233.18s-11.44,11.19-27.77,8.48L251.59,203l20.69-7.38Z" style="fill:#2B2E81"></path><path d="M260.24,236l-21.61-11.19a10.87,10.87,0,0,1-4.31,2.45l5.14-10.52a10.2,10.2,0,0,1,.43,4.92l17.9,7.63Z" style="fill:#2B2E81"></path><path d="M296.23,193.46,288,190l-9-.69s-.75,2.22,2.5,2.4l3.9.53.75,1.86s4,5.62,8.88,5.06Z" style="fill:#ffbe9d"></path><path d="M296.45,192.44l-6.7-.33-4.25.14c-1.58.45-2.87,1.41-4.84,2a6.81,6.81,0,0,0-1.72.77,1.73,1.73,0,0,0-.85,1.55,1.07,1.07,0,0,0,1.34.91,2.23,2.23,0,0,0,1.73,2.65,1.19,1.19,0,0,0,.74,1.79c.24,0,.51,0,.71.15s.22.58.31.89c.23.8,1.27,1,2.09.86a7.94,7.94,0,0,1,2.43-.44c.87.12,1.58.78,2.43,1a4,4,0,0,0,3.35-1.3,10.5,10.5,0,0,1,3.48-2.15Z" style="fill:#ffbe9d"></path><path d="M259.46,241.56a9.48,9.48,0,0,1-.41-1.5c-.23-1.06-.55-2.44-.92-4.11-.76-3.48-1.77-8.29-2.86-13.61s-2-10.14-2.71-13.64c-.3-1.68-.56-3.07-.76-4.14a9.43,9.43,0,0,1-.21-1.54,8.3,8.3,0,0,1,.41,1.49c.24,1.07.55,2.45.93,4.12.75,3.47,1.77,8.29,2.85,13.61s2,10.14,2.71,13.64c.31,1.68.57,3.07.76,4.15A8.05,8.05,0,0,1,259.46,241.56Z" style="fill:#263238"></path><path d="M287.16,233.18c-.13,0-3.57-8.31-7.68-18.67s-7.33-18.81-7.2-18.87,3.57,8.31,7.68,18.68S287.29,233.13,287.16,233.18Z" style="fill:#263238"></path><path d="M272.51,195.93a3.27,3.27,0,0,1-.56.72,17.17,17.17,0,0,1-1.8,1.74,20.9,20.9,0,0,1-3,2.16,24.71,24.71,0,0,1-4.13,1.92,24.36,24.36,0,0,1-4.44,1.07,21.76,21.76,0,0,1-3.72.2,16.21,16.21,0,0,1-2.49-.25,3.19,3.19,0,0,1-.89-.21c0-.1,1.3.11,3.39.09a25.61,25.61,0,0,0,3.64-.3A28,28,0,0,0,262.8,202a27.48,27.48,0,0,0,4.07-1.84,25.16,25.16,0,0,0,3.05-2C271.56,196.82,272.44,195.86,272.51,195.93Z" style="fill:#263238"></path><path d="M239.46,216.78a4.37,4.37,0,0,1,.18,1.82,10.78,10.78,0,0,1-1.14,4.27,11.73,11.73,0,0,1-2.68,3.51,4.44,4.44,0,0,1-1.52,1,19.84,19.84,0,0,0,3.73-4.77,12.7,12.7,0,0,0,1.24-4.07A13.15,13.15,0,0,1,239.46,216.78Z" style="fill:#263238"></path><path d="M230.78,222.24a2.4,2.4,0,0,0-1.9.53,1.21,1.21,0,0,0,0,1.78c.55.39,1.31.08,1.89-.27a19.14,19.14,0,0,0,2.31-1.71A14.12,14.12,0,0,0,230.78,222.24Z" style="fill:#455a64"></path><path d="M226.72,220.27a1.85,1.85,0,0,0-1.46.4.93.93,0,0,0,0,1.37c.42.3,1,.06,1.45-.21a15,15,0,0,0,1.77-1.31A10.32,10.32,0,0,0,226.72,220.27Z" style="fill:#455a64"></path><path d="M234.21,217.4a3.41,3.41,0,0,0-2.28-1.58,1.71,1.71,0,0,0-1.92,1.62c.08.94,1.1,1.48,2,1.79a27.68,27.68,0,0,0,3.92,1A18.86,18.86,0,0,0,234.21,217.4Z" style="fill:#455a64"></path><path d="M368.06,176.48a28.94,28.94,0,0,1-1.6-2.42,36.24,36.24,0,0,0-9.62-9.92,28.56,28.56,0,0,1-2.36-1.67,11.75,11.75,0,0,1,2.57,1.37,30.17,30.17,0,0,1,9.73,10A11,11,0,0,1,368.06,176.48Z" style="fill:#fff"></path><path d="M380.13,165.09c-.07,0-.66-1-1.76-2.58a37,37,0,0,0-4.88-5.68,34.15,34.15,0,0,0-6-4.5c-1.66-1-2.75-1.47-2.71-1.56a2.82,2.82,0,0,1,.81.26,19,19,0,0,1,2.08,1,28.84,28.84,0,0,1,6.15,4.44,30.72,30.72,0,0,1,4.82,5.85,20.72,20.72,0,0,1,1.14,2A2.57,2.57,0,0,1,380.13,165.09Z" style="fill:#fff"></path><path d="M353.17,189a67.58,67.58,0,0,0-5.12-7c-3.2-3.58-6.44-5.82-6.33-6a10.55,10.55,0,0,1,2.15,1.41,31.7,31.7,0,0,1,4.57,4.21,29.27,29.27,0,0,1,3.63,5A9.16,9.16,0,0,1,353.17,189Z" style="fill:#fff"></path><path d="M329.36,198.54a10.8,10.8,0,0,1-.23-2.21c-.11-1.58-.23-3.37-.36-5.35s-.32-3.77-.45-5.34a10.62,10.62,0,0,1-.11-2.22,8.65,8.65,0,0,1,.47,2.18c.22,1.36.45,3.25.61,5.34s.21,4,.21,5.37A9,9,0,0,1,329.36,198.54Z" style="fill:#fff"></path><path d="M308.14,202.41a7.4,7.4,0,0,1-.43-2.06,43.48,43.48,0,0,1-.4-5,41.86,41.86,0,0,1,.17-5.07,8,8,0,0,1,.33-2.07c.16,0-.08,3.2,0,7.12S308.29,202.39,308.14,202.41Z" style="fill:#fff"></path><path d="M327.23,232a43.85,43.85,0,0,1-6.09-3,43.32,43.32,0,0,1-5.85-3.46,44.61,44.61,0,0,1,6.09,3A45.94,45.94,0,0,1,327.23,232Z" style="fill:#fff"></path><path d="M338.23,217.5a48.49,48.49,0,0,1-6-3.74,48.33,48.33,0,0,1-5.72-4.18,94.06,94.06,0,0,1,11.72,7.92Z" style="fill:#fff"></path><path d="M348.14,204.09c-.11.1-1.76-1.57-4-3.4s-4.16-3.14-4.08-3.27a23.08,23.08,0,0,1,8.06,6.67Z" style="fill:#fff"></path><path d="M385.12,198a6.6,6.6,0,0,1-1.31.55l-3.62,1.34c-3.06,1.12-7.28,2.67-11.92,4.44s-8.83,3.44-11.86,4.64l-3.59,1.42a6.43,6.43,0,0,1-1.34.46,8.08,8.08,0,0,1,1.26-.64c.83-.39,2-.93,3.53-1.58,3-1.29,7.16-3,11.81-4.79s8.9-3.27,12-4.3c1.55-.51,2.8-.92,3.68-1.18A8.34,8.34,0,0,1,385.12,198Z" style="fill:#fff"></path><path d="M384.59,186.11a8.72,8.72,0,0,1-1.36.59c-.89.35-2.19.83-3.8,1.4-3.22,1.13-7.71,2.57-12.72,4s-9.57,2.61-12.88,3.42c-1.66.41-3,.72-3.94.92a9.65,9.65,0,0,1-1.46.27,7.84,7.84,0,0,1,1.41-.47l3.89-1.08c3.29-.89,7.84-2.13,12.84-3.56s9.5-2.81,12.75-3.85l3.84-1.24A8.61,8.61,0,0,1,384.59,186.11Z" style="fill:#fff"></path><path d="M383.89,175.6a13.69,13.69,0,0,1-2.73,1.16,51.94,51.94,0,0,1-6.88,1.94,53.05,53.05,0,0,1-7.08,1,13,13,0,0,1-3,0,25.05,25.05,0,0,1,2.93-.39c1.8-.21,4.29-.57,7-1.14s5.14-1.24,6.88-1.78A19.52,19.52,0,0,1,383.89,175.6Z" style="fill:#fff"></path><path d="M377.61,168.42a.86.86,0,0,1-.17.18l-.51.46-2,1.76-7.43,6.38-11.07,9.41c-2.09,1.76-4.27,3.62-6.54,5.54l-1.72,1.45a17.45,17.45,0,0,1-1.83,1.42,17,17,0,0,1-4.33,1.92,67.81,67.81,0,0,1-9.09,1.64l-8.49,1.22-14.38,2-9.7,1.33-2.64.34-.69.07a1.08,1.08,0,0,1-.24,0l.23-.06.68-.13,2.63-.43,9.68-1.5,14.36-2.15,8.49-1.26a67.53,67.53,0,0,0,9-1.63,17.24,17.24,0,0,0,4.2-1.85,19.29,19.29,0,0,0,1.78-1.38l1.72-1.45,6.56-5.52,11.14-9.32,7.54-6.26c.87-.7,1.56-1.26,2.06-1.68l.55-.42A.84.84,0,0,1,377.61,168.42Z" style="fill:#263238"></path><g style="opacity:0.30000000000000004"><path d="M349.08,199.94c-.23-2-.84-4.34-2.71-5.14a69.14,69.14,0,0,1-13.78,3.65l-.12.15a7.31,7.31,0,0,0,7.22,2.8,6.5,6.5,0,0,1,2.74-.35,4,4,0,0,1,2.4,2.52,8.62,8.62,0,0,0,2.19,3.22l2.47-3.19C349.81,202.37,349.23,201.19,349.08,199.94Z"></path></g><g style="opacity:0.30000000000000004"><path d="M347.31,193.83a49.91,49.91,0,0,0,29.07-24.53Z"></path></g><path d="M306.93,242l-10.29-2.29-7.35,1.72s-.54,1.2,1.25,1.58l3.9-.27-3.71,2s.25,1.4,2,1.08a8.91,8.91,0,0,0,3.11-1.25l6.1,1.62s-6,2.79-5.54,4.2,1.06,1.36,1.85,1.17,1.64-1.5,3.28-1.46,4.57-.52,7.65-.87c2.66-.3,7.62-7.24,7.62-7.24l-7.11-4.09Z" style="fill:#ffbe9d"></path><path d="M301.17,242.73a13,13,0,0,1-3.58-.68,4.52,4.52,0,0,0-1.28-.27,2.51,2.51,0,0,0-1,.38c-.53.34-.83.62-.89.57s.15-.42.68-.87a2.45,2.45,0,0,1,1.12-.55,1.61,1.61,0,0,1,.76.05l.71.18A13,13,0,0,1,301.17,242.73Z" style="fill:#eb996e"></path></g><g id="freepik--Floor--inject-468"><path d="M478.55,472.48c0,.14-102.33.26-228.54.26s-228.56-.12-228.56-.26,102.31-.26,228.56-.26S478.55,472.33,478.55,472.48Z" style="fill:#263238"></path></g></svg>