<svg xmlns="http://www.w3.org/2000/svg" xmlns:xlink="http://www.w3.org/1999/xlink" version="1.1" id="Calque_1" x="0px" y="0px" style="enable-background:new 0 0 2000 2100;" xml:space="preserve" viewBox="37.3 13 1929.7 2070.2">
<style type="text/css">
	.st0{fill:#E30613;}
	.st1{fill:#000091;}
</style>
<polygon class="st0" points="1604.4,1720.6 1583,1893.4 1604.4,2061.8 1775,2083.2 1945.7,2061.8 1967,1892.3 1945.7,1720.6   1775,1699.2 "/>
<polygon class="st0" points="1219.4,1720.6 1198,1893.4 1219.4,2061.8 1390,2083.2 1560.6,2061.8 1582,1892.3 1560.6,1720.6   1390,1699.2 "/>
<polygon class="st1" points="643.9,1720.6 622.5,1893.4 643.9,2061.8 814.5,2083.2 985.2,2061.8 1006.5,1892.3 985.2,1720.6   814.5,1699.2 "/>
<polygon class="st1" points="58.6,1319.3 37.3,1492.1 58.6,1660.6 229.3,1681.9 399.9,1660.6 421.3,1491 399.9,1319.3 229.3,1298   "/>
<polygon class="st0" points="1604.4,1165.7 1583,1338.5 1604.4,1506.9 1775,1528.3 1945.7,1506.9 1967,1337.4 1945.7,1165.7   1775,1144.3 "/>
<polygon class="st0" points="1219.4,1336.6 1198,1509.5 1219.4,1677.9 1390,1699.2 1560.6,1677.9 1582,1508.4 1560.6,1336.6   1390,1315.3 "/>
<polygon class="st1" points="836.5,1336.6 815.2,1509.5 836.5,1677.9 1007.1,1699.2 1177.8,1677.9 1199.1,1508.4 1177.8,1336.6   1007.2,1315.3 "/>
<polygon class="st1" points="451.5,1152.2 430.1,1325.1 451.5,1493.5 622.1,1514.8 792.8,1493.5 814.1,1324 792.8,1152.2   622.1,1130.9 "/>
<polygon class="st0" points="1604.4,781.7 1583,954.6 1604.4,1123 1775,1144.3 1945.7,1123 1967,953.5 1945.7,781.7 1775,760.4 "/>
<polygon class="st0" points="1219.4,952.7 1198,1125.5 1219.4,1293.9 1390,1315.3 1560.6,1293.9 1582,1124.4 1560.6,952.7   1390,931.3 "/>
<polygon class="st1" points="820.5,872.5 799.1,1045.4 820.5,1213.8 991.1,1235.1 1161.8,1213.8 1183.1,1044.3 1161.8,872.5   991.1,851.2 "/>
<polygon class="st1" points="269.8,760.4 308.9,930.1 386.5,1081.1 554.2,1042.7 707.2,964.3 669.3,797.7 590.5,643.6 422.9,681.9   "/>
<polygon class="st0" points="1453.6,253.5 1432.2,426.3 1453.6,594.8 1624.2,616.1 1794.9,594.8 1816.2,425.2 1794.9,253.5   1624.2,232.2 "/>
<polygon class="st0" points="1047.4,556.4 1086.5,726.2 1164.2,877.1 1331.8,838.8 1484.9,760.4 1446.9,593.8 1368.1,439.7   1200.5,478 "/>
<polygon class="st1" points="666.3,445.4 645,618.3 666.3,786.7 837,808.1 1007.6,786.7 1028.9,617.2 1007.6,445.4 837,424.1 "/>
<polygon class="st1" points="297.6,129.7 336.7,299.4 414.3,450.4 581.9,412.1 735,333.7 697.1,167.1 618.3,13 450.6,51.3 "/>
</svg>