<svg xmlns="http://www.w3.org/2000/svg" viewBox="0 0 500 500"><g id="freepik--background-complete--inject-527"><rect x="416.78" y="398.49" width="33.12" height="0.25" style="fill:#ebebeb"></rect><rect x="322.53" y="401.21" width="8.69" height="0.25" style="fill:#ebebeb"></rect><rect x="396.59" y="389.21" width="19.19" height="0.25" style="fill:#ebebeb"></rect><rect x="52.46" y="390.89" width="43.19" height="0.25" style="fill:#ebebeb"></rect><rect x="104.56" y="390.89" width="6.33" height="0.25" style="fill:#ebebeb"></rect><rect x="131.47" y="395.11" width="93.68" height="0.25" style="fill:#ebebeb"></rect><path d="M237,337.8H43.92a5.71,5.71,0,0,1-5.71-5.71V60.66A5.71,5.71,0,0,1,43.92,55H237a5.71,5.71,0,0,1,5.71,5.71V332.09A5.71,5.71,0,0,1,237,337.8ZM43.92,55.2a5.47,5.47,0,0,0-5.46,5.46V332.09a5.47,5.47,0,0,0,5.46,5.46H237a5.47,5.47,0,0,0,5.46-5.46V60.66A5.47,5.47,0,0,0,237,55.2Z" style="fill:#ebebeb"></path><path d="M453.31,337.8H260.21a5.72,5.72,0,0,1-5.71-5.71V60.66A5.72,5.72,0,0,1,260.21,55h193.1A5.71,5.71,0,0,1,459,60.66V332.09A5.71,5.71,0,0,1,453.31,337.8ZM260.21,55.2a5.47,5.47,0,0,0-5.46,5.46V332.09a5.47,5.47,0,0,0,5.46,5.46h193.1a5.47,5.47,0,0,0,5.46-5.46V60.66a5.47,5.47,0,0,0-5.46-5.46Z" style="fill:#ebebeb"></path><rect y="382.4" width="500" height="0.25" style="fill:#ebebeb"></rect><path d="M131.66,330c.12.13-.56,1.07,2.18.66,4.31-.65,12-4.82,17-7.76a3.82,3.82,0,0,0,.55-6.17c-2.58-2.27-5.34-5.38-5.07-8.12.29-2.9,6.36-6.28,11.52-8.64a3.83,3.83,0,0,0,.66-6.58c-1.65-1.2-3-2.57-3-3.91-.08-2,4.4-4.55,8.53-6.52a3.85,3.85,0,0,0,1.24-6,2.39,2.39,0,0,1-.55-2.35c.43-1.25,1.39-4.42,2.43-7.88a3.82,3.82,0,0,0-6.09-4.06,111,111,0,0,1-10,7.7,2.18,2.18,0,0,1-2.39-.12,3.84,3.84,0,0,0-6,2.39c-1.28,7-3.44,15.23-6.68,17.23a7.49,7.49,0,0,1-5.13,1,3.84,3.84,0,0,0-4.41,3.33C125.41,303.06,124.3,321.8,131.66,330Z" style="fill:#f5f5f5"></path><path d="M152.48,289.55a22.86,22.86,0,0,0-5.83,1.2,45.27,45.27,0,0,1,4.15-5.34.49.49,0,0,0,0-.7.5.5,0,0,0-.71,0,58.8,58.8,0,0,0-8.31,12.06c-2.12-12.79,3.23-24,3.29-24.08a.38.38,0,0,0-.17-.5.37.37,0,0,0-.5.17c-.06.12-5.78,12.05-3.19,25.47q-1,2-2.07,4.23a94.05,94.05,0,0,0-5.7,16.72,34.41,34.41,0,0,1-4-15.27.36.36,0,0,0-.38-.36.39.39,0,0,0-.37.39,34.53,34.53,0,0,0,4.48,16.29,116.39,116.39,0,0,0-2.54,34.45.5.5,0,0,0,.53.47h.06a.51.51,0,0,0,.41-.53c-1.24-18,1.45-32.41,5.17-43.35a13.73,13.73,0,0,1,8-4.55.4.4,0,0,0,.32-.43.37.37,0,0,0-.43-.31,14.11,14.11,0,0,0-7.28,3.61,83.81,83.81,0,0,1,8.53-17.33,20.42,20.42,0,0,1,6.63-1.55.39.39,0,0,0,.34-.41A.37.37,0,0,0,152.48,289.55Z" style="fill:#e0e0e0"></path><path d="M123,333.86c-3.54.06-10.17-4-14.57-7a3.28,3.28,0,0,1-.13-5.29,3.64,3.64,0,0,0,1.57-3.85c-.56-2-5.32-2.74-9.92-2.94a3.32,3.32,0,0,1-2.44-5.41,4.37,4.37,0,0,0,1.31-2.89c-.23-1.74-5.87-5.41-10.48-8.14a3.32,3.32,0,0,1,.1-5.77c1.53-.86,2.62-1.87,2.09-2.85s-1.58-3.08-2.79-5.53a3.32,3.32,0,0,1,4.63-4.36,86.47,86.47,0,0,0,8.67,4.57c1.35.49,3-.31,4.47-1.45a3.31,3.31,0,0,1,5.24,2.08c1.32,7.21,3.86,18.12,7.34,19.53a4.89,4.89,0,0,0,3.39.07,3.28,3.28,0,0,1,4.19,3.3C125.39,317.29,124.64,333.83,123,333.86Z" style="fill:#e6e6e6"></path><path d="M121.16,327.13a.41.41,0,0,0,.2-.17,29.53,29.53,0,0,0,2.51-15,.38.38,0,0,0-.4-.35.39.39,0,0,0-.35.41,30,30,0,0,1-2.27,14.29,115,115,0,0,0-8.54-18.07c1-12-5.18-21.9-5.24-22a.37.37,0,0,0-.52-.12.38.38,0,0,0-.11.52,39,39,0,0,1,5.2,20.44,105.07,105.07,0,0,0-14.35-19.17.5.5,0,0,0-.7.71,97.48,97.48,0,0,1,11,13.84,29.53,29.53,0,0,0-10.6-1.87.38.38,0,0,0-.37.39.37.37,0,0,0,.37.36h0a28.77,28.77,0,0,1,11.31,2.21,117.49,117.49,0,0,1,6.1,10.49,12.67,12.67,0,0,0-10.46-1.84.38.38,0,0,0-.27.46.37.37,0,0,0,.46.26,12.08,12.08,0,0,1,11.06,2.68A101.55,101.55,0,0,1,126,356.68a.5.5,0,0,0,.5.48h0a.5.5,0,0,0,.48-.52A99,99,0,0,0,121.16,327.13Z" style="fill:#f5f5f5"></path><path d="M128.77,348.84h-19l4.48,29.74a4.11,4.11,0,0,0,4.07,3.51h18.92a4.13,4.13,0,0,0,4.08-3.51l4.47-29.74Z" style="fill:#f0f0f0"></path><polygon points="144.9 354.75 145.79 348.84 128.77 348.84 126.79 348.84 109.77 348.84 110.66 354.75 144.9 354.75" style="fill:#e0e0e0"></polygon><path d="M148.77,351.34h-42a1.42,1.42,0,0,1-1.32-1.94l.87-2.17a1.42,1.42,0,0,1,1.32-.89H147.9a1.4,1.4,0,0,1,1.31.89l.87,2.17A1.41,1.41,0,0,1,148.77,351.34Z" style="fill:#f0f0f0"></path><path d="M101.57,206.81l-15.72-2.33c-9.24-1-14.73,3-17.92,8.74A37.72,37.72,0,0,0,115,220.29C113.2,206.59,101.57,206.81,101.57,206.81Z" style="fill:#e0e0e0"></path><path d="M90,187c.24,5.21-.14,14.62-4.18,17.47,0,0,5.09,10.11,12.61,13.48,4.62-3.14,3.11-11.15,3.11-11.15-5.44-2.18-4.67-6.35-3.11-10.16Z" style="fill:#f5f5f5"></path><path d="M93.46,191l5,5.72a15.55,15.55,0,0,0-.92,2.72c-2.11-.63-4.72-3.43-4.62-5.72A7.71,7.71,0,0,1,93.46,191Z" style="fill:#e6e6e6;isolation:isolate"></path><path d="M86.19,177.48c.67,8.52.77,12.15,5.16,16.45,6.6,6.47,16.93,3.79,18.82-4.77,1.7-7.7.31-20.31-8.11-23.61a11.67,11.67,0,0,0-15.87,11.93Z" style="fill:#f5f5f5"></path><path d="M104.54,180.48a18.54,18.54,0,0,0,2.56,4.39,3,3,0,0,1-2.47.52Z" style="fill:#e0e0e0"></path><path d="M101.59,188.05a6.42,6.42,0,0,0,1.16-.11.2.2,0,0,0,.17-.23h0a.2.2,0,0,0-.23-.16,5.55,5.55,0,0,1-4.79-1.34.2.2,0,0,0-.29,0,.21.21,0,0,0,0,.29A5.76,5.76,0,0,0,101.59,188.05Z" style="fill:#e0e0e0"></path><path d="M96.73,177.13a.4.4,0,0,0,.32,0,3.25,3.25,0,0,1,2.93-.41.41.41,0,0,0,.32-.75,4,4,0,0,0-3.68.44.41.41,0,0,0-.12.56A.37.37,0,0,0,96.73,177.13Z" style="fill:#e0e0e0"></path><path d="M108.13,177.1a.34.34,0,0,0,.23-.15.35.35,0,0,0-.07-.5h0a3.6,3.6,0,0,0-3.25-.59.38.38,0,0,0-.21.47.36.36,0,0,0,.46.21,2.83,2.83,0,0,1,2.57.5A.33.33,0,0,0,108.13,177.1Z" style="fill:#e0e0e0"></path><path d="M95.33,226.19a37.95,37.95,0,1,1,38-37.95A38,38,0,0,1,95.33,226.19Zm0-74.67a36.72,36.72,0,1,0,36.73,36.72A36.76,36.76,0,0,0,95.33,151.52Z" style="fill:#e0e0e0"></path><path d="M98.47,180c0,.57.31,1,.68,1s.66-.47.65-1-.31-1-.68-1S98.46,179.45,98.47,180Z" style="fill:#e0e0e0"></path><path d="M105.69,180c0,.57.31,1,.68,1s.66-.47.65-1-.32-1-.69-1S105.68,179.45,105.69,180Z" style="fill:#e0e0e0"></path><path d="M87.77,184.24a5.25,5.25,0,0,0,3-6s5.19-1.87,4.59-6.12c0,0,8,1.87,8.53-1.25,0,0,7.25,3.25,7.75,0s-3.18-4.38-3.18-4.38.4-7.37-6.62-4.87c0,0-4.09-4.25-8.89.62,0,0-4.84-2.12-7.07,4.5,0,0-4.61,2.25-3.24,7.13,0,0-3.2,3.07-.87,6.1C81.74,180,81.06,188.58,87.77,184.24Z" style="fill:#e0e0e0"></path><path d="M84.62,185.14A6.59,6.59,0,0,0,88.76,188c2.27.46,3.24-1.6,2.47-3.65-.69-1.84-2.7-4.3-4.9-3.84A2.94,2.94,0,0,0,84.62,185.14Z" style="fill:#f5f5f5"></path><path d="M383.52,259.05s-24.76-4.89-24.22,0c0,0-2.13-5,.11-14.69s3-11.66,3-11.66l13.72-1.32,10.52,6.19.62,10.25-.93,6.31Z" style="fill:#e0e0e0"></path><path d="M368.54,270.68l15.73-2.32c9.23-1,14.72,2.95,17.91,8.74a37.76,37.76,0,0,1-47.11,7.07C356.92,270.47,368.54,270.68,368.54,270.68Z" style="fill:#e0e0e0"></path><path d="M380.08,250.89c-.24,5.21.14,14.61,4.19,17.47,0,0-4.41,9.2-12.62,8.48-5.56-.49-3.11-6.16-3.11-6.16,5.44-2.17,4.67-6.34,3.11-10.15Z" style="fill:#f5f5f5"></path><path d="M376.65,254.83l-5,5.72a16.16,16.16,0,0,1,.93,2.72c2.1-.63,4.71-3.44,4.61-5.72A7.62,7.62,0,0,0,376.65,254.83Z" style="fill:#e6e6e6;isolation:isolate"></path><path d="M383.92,241.36c-.67,8.52-.77,12.15-5.16,16.45-6.6,6.47-16.93,3.79-18.82-4.77-1.69-7.7-.31-20.31,8.11-23.61a11.67,11.67,0,0,1,15.87,11.93Z" style="fill:#f5f5f5"></path><path d="M365.57,244.36a18.54,18.54,0,0,1-2.56,4.39,3,3,0,0,0,2.47.52Z" style="fill:#e0e0e0"></path><path d="M368.52,251.92a5.62,5.62,0,0,1-1.16-.1.2.2,0,0,1-.17-.23h0a.2.2,0,0,1,.23-.16,5.58,5.58,0,0,0,4.8-1.34.2.2,0,1,1,.3.27A5.67,5.67,0,0,1,368.52,251.92Z" style="fill:#e0e0e0"></path><path d="M373.38,241a.4.4,0,0,1-.32,0,3.24,3.24,0,0,0-2.92-.41.41.41,0,0,1-.51-.3.4.4,0,0,1,.19-.45,4,4,0,0,1,3.67.44.4.4,0,0,1,.12.56A.37.37,0,0,1,373.38,241Z" style="fill:#e0e0e0"></path><path d="M362,241a.3.3,0,0,1-.23-.14.35.35,0,0,1,.07-.5h0a3.61,3.61,0,0,1,3.25-.59.36.36,0,0,1,.21.46.36.36,0,0,1-.46.22,2.83,2.83,0,0,0-2.57.49A.3.3,0,0,1,362,241Z" style="fill:#e0e0e0"></path><path d="M336.83,252.12a37.95,37.95,0,1,1,37.95,37.95A38,38,0,0,1,336.83,252.12Zm1.23,0a36.72,36.72,0,1,0,36.72-36.72A36.76,36.76,0,0,0,338.06,252.12Z" style="fill:#e0e0e0"></path><path d="M371.64,243.88c0,.57-.31,1-.68,1s-.66-.46-.65-1,.31-1,.68-1S371.65,243.32,371.64,243.88Z" style="fill:#e0e0e0"></path><path d="M364.42,243.88c0,.57-.31,1-.68,1s-.65-.46-.64-1,.31-1,.68-1S364.44,243.32,364.42,243.88Z" style="fill:#e0e0e0"></path><path d="M371,242.86a1.76,1.76,0,0,1-1.37-.23s.09.78,1.36.63Z" style="fill:#e0e0e0"></path><path d="M363.78,242.86a1.76,1.76,0,0,1-1.37-.23s.09.78,1.36.63Z" style="fill:#e0e0e0"></path><path d="M382,247.76s-5.81,1-5.31-6.74-4.25-3.39-5.31-7.26c0,0-2.1-.25-1.46,2.25,0,0-10.29,2.87-10.57-.13s4.53-10.68,13.78-8.37c0,0,11-1.69,13.93,8.75s.69,16.94,4.57,20.06-9.88,3.44-9.88,3.44Z" style="fill:#e0e0e0"></path><path d="M385.49,249a6.56,6.56,0,0,1-4.14,2.84c-2.27.45-3.23-1.6-2.47-3.65.69-1.84,2.7-4.3,4.9-3.84S386.64,247.21,385.49,249Z" style="fill:#f5f5f5"></path><path d="M374.17,134.15a20.45,20.45,0,1,1,20.45-20.45A20.47,20.47,0,0,1,374.17,134.15Zm0-39.4a19,19,0,1,0,18.95,19A19,19,0,0,0,374.17,94.75Z" style="fill:#e6e6e6"></path><path d="M374.17,133.4a19.64,19.64,0,0,0,10-2.75c-.14-2.21-.31-4.81-.39-6.09a5.48,5.48,0,0,0-5.47-5.09H370a5.47,5.47,0,0,0-5.46,5.09c-.09,1.28-.26,3.88-.4,6.09A19.67,19.67,0,0,0,374.17,133.4Z" style="fill:#e6e6e6"></path><path d="M379.17,109.72c0,2.77-2.24,6-5,6s-5-3.23-5-6a5,5,0,1,1,10,0Z" style="fill:#e6e6e6"></path></g><g id="freepik--Shadow--inject-527"><ellipse id="freepik--path--inject-527" cx="245.18" cy="412.39" rx="193.89" ry="11.32" style="fill:#f5f5f5"></ellipse></g><g id="freepik--Table--inject-527"><path d="M293.72,319.43h75a0,0,0,0,1,0,0V326a4.47,4.47,0,0,1-4.47,4.47H298.19a4.47,4.47,0,0,1-4.47-4.47v-6.58A0,0,0,0,1,293.72,319.43Z" style="fill:#2B2E81"></path><path d="M293.72,319.43h75a0,0,0,0,1,0,0V326a4.47,4.47,0,0,1-4.47,4.47H298.19a4.47,4.47,0,0,1-4.47-4.47v-6.58A0,0,0,0,1,293.72,319.43Z" style="fill:#fff;opacity:0.30000000000000004"></path><path d="M358.25,329.58H304.19a1.92,1.92,0,0,0-1.92,1.78l-5.86,78.83a1.5,1.5,0,0,0,1.39,1.61h0a1.51,1.51,0,0,0,1.61-1.39l5.71-76.89a1,1,0,0,1,1-.94H356.3a1,1,0,0,1,1,.94L363,410.41a1.51,1.51,0,0,0,1.61,1.39h0a1.5,1.5,0,0,0,1.39-1.61l-5.86-78.83A1.92,1.92,0,0,0,358.25,329.58Z" style="fill:#263238"></path><path d="M331.22,411.8h0a1.5,1.5,0,0,1-1.5-1.5v-79h3v79A1.5,1.5,0,0,1,331.22,411.8Z" style="fill:#263238"></path><path d="M316.67,331.3h0a1.5,1.5,0,0,0,1.5-1.5v-7.34a1.5,1.5,0,0,0-1.5-1.5h0a1.5,1.5,0,0,0-1.5,1.5v7.34A1.5,1.5,0,0,0,316.67,331.3Z" style="fill:#263238"></path><path d="M345.77,331.3h0a1.5,1.5,0,0,0,1.5-1.5v-7.34a1.5,1.5,0,0,0-1.5-1.5h0a1.5,1.5,0,0,0-1.5,1.5v7.34A1.5,1.5,0,0,0,345.77,331.3Z" style="fill:#263238"></path><path d="M335.26,298.78h-.21V298a2,2,0,0,0-1.95-2H321.83a2,2,0,0,0-2,2v12.11a6.88,6.88,0,0,0,6.88,6.88h1.42a6.87,6.87,0,0,0,6.72-5.42l.37,0c4.18,0,6.75-3.69,6.75-7.23S339.44,298.78,335.26,298.78Zm-.15,10.59h-.06V301h.06c2.73,0,4.41,1.34,4.41,3.64A4.56,4.56,0,0,1,335.11,309.37Z" style="fill:#2B2E81"></path><path d="M335.26,298.78h-.21V298a2,2,0,0,0-1.95-2H321.83a2,2,0,0,0-2,2v12.11a6.88,6.88,0,0,0,6.88,6.88h1.42a6.87,6.87,0,0,0,6.72-5.42l.37,0c4.18,0,6.75-3.69,6.75-7.23S339.44,298.78,335.26,298.78Zm-.15,10.59h-.06V301h.06c2.73,0,4.41,1.34,4.41,3.64A4.56,4.56,0,0,1,335.11,309.37Z" style="fill:#fff;opacity:0.7000000000000001"></path><path d="M335.11,309.37h-.06v.76a7,7,0,0,1-.16,1.46l.37,0a6.65,6.65,0,0,0,1.7-.23V309A4.1,4.1,0,0,1,335.11,309.37Z" style="opacity:0.1"></path><path d="M320.29,312.45a6.86,6.86,0,0,0,6.46,4.55h1.42a6.89,6.89,0,0,0,6.47-4.55Z" style="opacity:0.1"></path><path d="M335.26,298.78h-.21V301h.06a6.18,6.18,0,0,1,1.85.25v-2.35A11.39,11.39,0,0,0,335.26,298.78Z" style="opacity:0.1"></path><path d="M339.35,313.62H315.24a1,1,0,0,0-.41,1.85l5.3,2.45v1.51h14.33v-1.51l5.3-2.45A1,1,0,0,0,339.35,313.62Z" style="fill:#2B2E81"></path><path d="M339.35,313.62H315.24a1,1,0,0,0-.41,1.85l5.3,2.45v1.51h14.33v-1.51l5.3-2.45A1,1,0,0,0,339.35,313.62Z" style="fill:#fff;opacity:0.6000000000000001"></path></g><g id="freepik--speech-bubble--inject-527"><path d="M281.86,137.79a20.56,20.56,0,0,1-10.22-2.73l-9.42,1.82,1.82-9.43a20.52,20.52,0,1,1,32.32,4.33h0A20.49,20.49,0,0,1,281.86,137.79Zm-9.94-4.31.24.15a19,19,0,0,0,23.14-2.91h0a19,19,0,1,0-29.83-3.78l.15.24L264.11,135Z" style="fill:#2B2E81"></path><g style="opacity:0.5"><path d="M281.86,137.79a20.56,20.56,0,0,1-10.22-2.73l-9.42,1.82,1.82-9.43a20.52,20.52,0,1,1,32.32,4.33h0A20.49,20.49,0,0,1,281.86,137.79Zm-9.94-4.31.24.15a19,19,0,0,0,23.14-2.91h0a19,19,0,1,0-29.83-3.78l.15.24L264.11,135Z" style="fill:#fff"></path></g><path d="M280.62,127.82l-11.08-12.14a2.31,2.31,0,0,1,.29-3.24h0a2.28,2.28,0,0,1,3.24,0l8.12,8.9L300,104.05a2.3,2.3,0,0,1,3.24,0h0a2.31,2.31,0,0,1-.29,3.24Z" style="fill:#2B2E81"></path></g><g id="freepik--character-4--inject-527"><circle cx="331.21" cy="176.81" r="33.41" transform="translate(-28.01 285.98) rotate(-45)" style="fill:#2B2E81"></circle><circle cx="331.21" cy="176.81" r="33.41" transform="translate(-28.01 285.98) rotate(-45)" style="fill:#fff;opacity:0.5"></circle><path d="M293.26,176.81a38,38,0,1,1,37.95,37.95A38,38,0,0,1,293.26,176.81Zm1.23,0a36.72,36.72,0,1,0,36.72-36.73A36.76,36.76,0,0,0,294.49,176.81Z" style="fill:#2B2E81"></path><g style="opacity:0.5"><path d="M293.26,176.81a38,38,0,1,1,37.95,37.95A38,38,0,0,1,293.26,176.81Zm1.23,0a36.72,36.72,0,1,0,36.72-36.73A36.76,36.76,0,0,0,294.49,176.81Z" style="fill:#fff"></path></g><path d="M310.71,198.93c2.78-3.27,14.84-2.18,14.84-2.18l11.79-1.13c9.67-2,14.74.67,17.83,4.35l.05.06a33.38,33.38,0,0,1-46,2A9.19,9.19,0,0,1,310.71,198.93Z" style="fill:#263238"></path><path d="M319.45,155.83s-7,.64-2.74,10.22l4.82-2.78.78-5.81Z" style="fill:#263238"></path><path d="M319.45,155.83s-7,.64-2.74,10.22l4.82-2.78.78-5.81Z" style="opacity:0.6000000000000001"></path><path d="M338.87,195.7c-1.14,2.3-4.29,6.31-12.63,6.31-5.05,0-5.41-2.08-3.91-4.43,4.9-2.38,4.93-7.2,3.62-11.37l10.91-10.48c-.72,5.37-1.22,14.65,1.72,19.34A3,3,0,0,1,338.87,195.7Z" style="fill:#ffc3bd"></path><path d="M332.42,180,326,186.2a20.44,20.44,0,0,1,.68,3.29c2.54-.52,5.71-2.88,6.55-5.75C333.73,182,333.09,180.19,332.42,180Z" style="opacity:0.2;isolation:isolate"></path><path d="M338.6,166.9c-.57,8.17-1.59,13-5.76,17.12-6.26,6.25-15.23,2.39-17.09-5.76-1.68-7.4-.44-19.48,7.58-22.65a11.16,11.16,0,0,1,14.51,6.21A11,11,0,0,1,338.6,166.9Z" style="fill:#ffc3bd"></path><path d="M325.8,169.14c0,.67-.36,1.2-.8,1.2s-.78-.55-.77-1.22.36-1.19.8-1.19S325.81,168.48,325.8,169.14Z" style="fill:#263238"></path><path d="M318.28,169.07c0,.66-.36,1.19-.8,1.19s-.78-.55-.77-1.21.36-1.2.8-1.2S318.29,168.4,318.28,169.07Z" style="fill:#263238"></path><path d="M321.07,169.35a24.21,24.21,0,0,1-3.24,5.65,3.9,3.9,0,0,0,3.18.63Z" style="fill:#ed847e"></path><path d="M328.41,166.05a.65.65,0,0,0,.2,0,.42.42,0,0,0,.08-.55,3.92,3.92,0,0,0-3.17-1.65.4.4,0,0,0,.05.79h0a3.13,3.13,0,0,1,2.49,1.32A.39.39,0,0,0,328.41,166.05Z" style="fill:#263238"></path><path d="M315.39,166a.35.35,0,0,0,.3-.21,3.11,3.11,0,0,1,2.2-1.74.39.39,0,0,0-.09-.78,3.9,3.9,0,0,0-2.83,2.18.37.37,0,0,0,.16.51h0A.36.36,0,0,0,315.39,166Z" style="fill:#263238"></path><path d="M336.89,173.52s-3.73.58-3.5-1,2.17-6.95,1.75-9.27c-.2-1.08-1.35-3.23-2.33-3.72-3.58-1.8-31,2.54-8.58-13.52v2.09s4.48-3.09,5.44-2c.71.8-1.94,3.81-1.94,3.81s5.87-3.23,6.75-1.72c.57,1-3.12,3.26-3.12,3.26S357.76,158.91,336.89,173.52Z" style="fill:#263238"></path><path d="M321,176.2s8-1.44,7.69,1.42-1.64,10.62-4.53,10.62c-1.21,0-.49-1.12-.49-1.12a5,5,0,0,1-2.67,1.12c-1.18,0-.12-1.7-.12-1.7s-1.44,1.34-2.64,1c-.5-.13.13-.94-.24-2.07-.88-2.68-2.39-7.16-2-8.54C316.64,175,321,176.2,321,176.2Z" style="fill:#263238"></path><path d="M321,176.2s8-1.44,7.69,1.42-1.64,10.62-4.53,10.62c-1.21,0-.49-1.12-.49-1.12a5,5,0,0,1-2.67,1.12c-1.18,0-.12-1.7-.12-1.7s-1.44,1.34-2.64,1c-.5-.13.13-.94-.24-2.07-.88-2.68-2.39-7.16-2-8.54C316.64,175,321,176.2,321,176.2Z" style="fill:#fff;opacity:0.5"></path><path d="M318.23,177.66a47.8,47.8,0,0,1,8.18.4c-.9,1.53-2.38,2.7-5.43,2.36S318.23,177.66,318.23,177.66Z" style="fill:#fff"></path><path d="M344.51,165.13a13.12,13.12,0,0,1-3.14,4.68,12.69,12.69,0,0,1-7-1.2,25.88,25.88,0,0,0,.76-3.83C340.37,165.74,343.14,165.49,344.51,165.13Z" style="fill:#fff;opacity:0.5"></path><path d="M342.52,174.56a7.84,7.84,0,0,1-4.88,3.39c-2.67.55-3.83-1.88-2.93-4.31.8-2.17,3.16-5.1,5.76-4.57S343.87,172.42,342.52,174.56Z" style="fill:#ffc3bd"></path><polygon points="361.8 149.26 364.4 151.77 367.97 151.26 368.6 154.82 371.79 156.51 370.2 159.75 371.79 163 368.6 164.69 367.97 168.25 364.4 167.74 361.8 170.25 359.21 167.74 355.63 168.25 355.01 164.69 351.82 163 353.41 159.75 351.82 156.51 355.01 154.82 355.63 151.26 359.21 151.77 361.8 149.26" style="fill:#2B2E81"></polygon><g style="opacity:0.9"><path d="M359.87,163.86l-3.72-4.08a.78.78,0,0,1,.1-1.09h0a.76.76,0,0,1,1.08,0l2.73,3,6.31-5.8a.77.77,0,0,1,1.09,0h0a.78.78,0,0,1-.1,1.09Z" style="fill:#fff"></path></g></g><g id="freepik--character-3--inject-527"><circle cx="167.29" cy="143.9" r="33.41" transform="translate(-11.2 273.65) rotate(-76.72)" style="fill:#2B2E81"></circle><circle cx="167.29" cy="143.9" r="33.41" transform="translate(-11.2 273.65) rotate(-76.72)" style="fill:#fff;opacity:0.5"></circle><path d="M167.29,181.85a37.95,37.95,0,1,1,38-37.95A38,38,0,0,1,167.29,181.85Zm0-74.67A36.73,36.73,0,1,0,204,143.9,36.76,36.76,0,0,0,167.29,107.18Z" style="fill:#2B2E81"></path><g style="opacity:0.5"><path d="M167.29,181.85a37.95,37.95,0,1,1,38-37.95A38,38,0,0,1,167.29,181.85Zm0-74.67A36.73,36.73,0,1,0,204,143.9,36.76,36.76,0,0,0,167.29,107.18Z" style="fill:#fff"></path></g><path d="M167.29,177.31a33.24,33.24,0,0,0,19.22-6.09c-1.44-4.25-3.24-9.37-4.37-11.79-2.58-5.58-5.55-7.36-27.85-7.54-10.42-.09-13.73,5.39-14.3,11.26A33.35,33.35,0,0,0,167.29,177.31Z" style="fill:#2B2E81"></path><path d="M167.29,177.31a33.24,33.24,0,0,0,19.22-6.09c-1.44-4.25-3.24-9.37-4.37-11.79-2.58-5.58-5.55-7.36-27.85-7.54-10.42-.09-13.73,5.39-14.3,11.26A33.35,33.35,0,0,0,167.29,177.31Z" style="fill:#fff;opacity:0.8"></path><path d="M178.58,120.49s5.72-.77,3.66-4.06a.45.45,0,0,0-.83.19A4.87,4.87,0,0,1,178.58,120.49Z" style="fill:#263238"></path><path d="M159.21,111.9s-8,1.12-6.5-4.11a.64.64,0,0,1,1.2-.05A6.86,6.86,0,0,0,159.21,111.9Z" style="fill:#263238"></path><path d="M157.76,132.25s-3,7.55-6.77,3.65a.64.64,0,0,1,.54-1.08A6.85,6.85,0,0,0,157.76,132.25Z" style="fill:#263238"></path><path d="M166.55,110.44s6.29-.8,4.71-5.48-3.19-7.36-2.61-10.26c0,0-1.52.15-1.36,2.68,0,0-1.7-5.65-6.53-5.21s-3.12,4.76-7.14,4.17c0,0,1.64,1.85,3.35.29,0,0-.45,3.35-4.83,1.49a7,7,0,0,1,2.69,5.28c.07,5.8,0,9.38,4,8Z" style="fill:#263238"></path><path d="M158,113.5s-2.19-3.23,4.72-4.11,6.1,2.13,6.1,2.13Z" style="fill:#2B2E81"></path><path d="M156.89,135.43c.73,5.35,1.31,13.14-2.6,16.46a50.15,50.15,0,0,1,12.59,11.72,1.53,1.53,0,0,0,2.15.27,1.27,1.27,0,0,0,.35-.38c4.53-7.14,1.37-10.64,1.37-10.64-3.45-.77-3-3.84-1.78-7.89Z" style="fill:#7f3e3b"></path><path d="M160.23,139.56l6.7,3.77L169,145a13,13,0,0,0-.89,5.27C163.73,149,158.71,143.16,160.23,139.56Z" style="opacity:0.2;isolation:isolate"></path><path d="M157.07,122.9c-1.41,8.77-2.19,12.49,1.18,17.84,5.07,8.15,16.15,8,20.14-.21,3.57-7.35,5.35-20.45-2.39-25.8a12.1,12.1,0,0,0-18.93,8.17Z" style="fill:#7f3e3b"></path><path d="M170.35,128.29c-.15.7.09,1.35.55,1.46s1-.38,1.12-1.09-.08-1.35-.55-1.46S170.51,127.58,170.35,128.29Z" style="fill:#263238"></path><path d="M178.31,130.07c-.16.71.09,1.37.55,1.47s1-.39,1.12-1.09-.09-1.36-.54-1.47S178.47,129.37,178.31,130.07Z" style="fill:#263238"></path><path d="M179.22,129l1.78-.11S179.85,130,179.22,129Z" style="fill:#263238"></path><path d="M173.52,138.94a7.49,7.49,0,0,0,1.06.13.22.22,0,0,0,.17-.25.23.23,0,0,0-.17-.17A5.78,5.78,0,0,1,170,136.2a.2.2,0,0,0-.28-.08.22.22,0,0,0-.08.29A5.92,5.92,0,0,0,173.52,138.94Z" style="fill:#263238"></path><path d="M169.82,122.31a.42.42,0,0,0,.5,0c1.62-1.11,4-.26,4-.25a.43.43,0,0,0,.3-.8c-.12,0-2.82-1-4.79.35a.43.43,0,0,0-.11.59A.31.31,0,0,0,169.82,122.31Z" style="fill:#263238"></path><path d="M181.6,126.92a.42.42,0,0,0,.75-.31,4.19,4.19,0,0,0-2.13-3.23.42.42,0,1,0-.37.76,3.36,3.36,0,0,1,1.65,2.58A.54.54,0,0,0,181.6,126.92Z" style="fill:#263238"></path><path d="M171.26,127.19l1.78-.1S171.9,128.22,171.26,127.19Z" style="fill:#263238"></path><path d="M175.36,130.41a20,20,0,0,0,1.71,5.42,3.72,3.72,0,0,1-3-.09Z" style="fill:#630f0f"></path><path d="M174.33,129.66a3.14,3.14,0,0,1-6.19-1.1Z" style="fill:#2B2E81"></path><path d="M182,131a3.14,3.14,0,1,1-6.19-1.1Z" style="fill:#2B2E81"></path><path d="M179.27,134a4.32,4.32,0,0,1-.62,0,3.5,3.5,0,0,1-2.86-3.7l-.87-.16a3.48,3.48,0,0,1-1.36,1.92,3.42,3.42,0,0,1-2.6.57,3.47,3.47,0,0,1-2.86-3.7l-1.6-.28-10.15-1.13.08-.67,10.16,1.13,2.27.41,0,.24a2.88,2.88,0,0,0,.17,1.69,2.82,2.82,0,0,0,2.36,1.69,2.91,2.91,0,0,0,3-2.46v0a.16.16,0,0,1,.18-.12l1.86.33a.15.15,0,0,1,.13.17h0a3,3,0,0,0,2.32,3.45A2.8,2.8,0,0,0,182,131l.66.12a3.45,3.45,0,0,1-1.43,2.24A3.4,3.4,0,0,1,179.27,134Z" style="fill:#263238"></path><path d="M155.86,129.65s-7.93-17.52,8.47-18.93c2.19-.19,6.65-.52,8.79,0,2.76.66,9.57,4.86,6.91,9,0,0-2.42-3.43-10.51-2.65S162.45,131.3,155.86,129.65Z" style="fill:#263238"></path><path d="M153.28,129.28a6.48,6.48,0,0,0,2.59,4.23c1.85,1.32,3.57-.15,3.69-2.3.11-1.93-.7-5-2.87-5.43a2.92,2.92,0,0,0-3.41,3.5Z" style="fill:#7f3e3b"></path><path d="M157.44,139.27a3.53,3.53,0,0,1-2.17-6.62l.32.59a2.87,2.87,0,1,0,1.49-.32l0-.67a3.53,3.53,0,0,1,.32,7Z" style="fill:#2B2E81"></path><polygon points="196.5 112.84 199.09 115.35 202.66 114.84 203.29 118.4 206.48 120.09 204.89 123.33 206.48 126.58 203.29 128.27 202.66 131.82 199.09 131.32 196.5 133.83 193.9 131.32 190.33 131.82 189.7 128.27 186.51 126.58 188.1 123.33 186.51 120.09 189.7 118.4 190.33 114.84 193.9 115.35 196.5 112.84" style="fill:#2B2E81"></polygon><g style="opacity:0.9"><path d="M194.56,127.44l-3.72-4.08a.78.78,0,0,1,.1-1.09h0a.76.76,0,0,1,1.08,0l2.73,3,6.31-5.8a.77.77,0,0,1,1.09,0h0a.77.77,0,0,1-.1,1.08Z" style="fill:#fff"></path></g></g><g id="freepik--character-2--inject-527"><circle cx="140.06" cy="246.76" r="33.41" transform="translate(-133.46 171.31) rotate(-45)" style="fill:#2B2E81"></circle><circle cx="140.06" cy="246.76" r="33.41" transform="translate(-133.46 171.31) rotate(-45)" style="fill:#fff;opacity:0.5"></circle><path d="M152.64,260.75c4.77-5.07,3.72-11.67,1.82-19.89-1-4.24,4.46-7.29.65-13.52-3.56-6-24.49-11.79-25-1-7.36,2.12-7.55,8.73-6.83,19.27.27,4-.88,6-2.39,7.4A6.52,6.52,0,0,0,124,264.23C133.11,265.94,146.66,267.12,152.64,260.75Z" style="fill:#263238"></path><path d="M145.13,263.58l-13.91-2.05c-8.17-.86-13,2.61-15.85,7.73a33.38,33.38,0,0,0,41.68,6.26C155.42,263.39,145.13,263.58,145.13,263.58Z" style="fill:#2B2E81"></path><path d="M134.92,246.07c.21,4.6-.12,12.93-3.7,15.46,0,0,4.51,8.94,11.16,11.92,4.09-2.77,2.75-9.87,2.75-9.87-4.81-1.92-4.13-5.61-2.75-9Z" style="fill:#ffb573"></path><path d="M138,249.56l4.42,5.05a14.88,14.88,0,0,0-.82,2.41c-1.86-.55-4.17-3-4.08-5.06A6.54,6.54,0,0,1,138,249.56Z" style="opacity:0.2;isolation:isolate"></path><path d="M131.52,237.63c.6,7.55.69,10.76,4.57,14.56,5.84,5.72,15,3.35,16.65-4.22,1.5-6.81.28-18-7.17-20.89a10.33,10.33,0,0,0-14,10.55Z" style="fill:#ffb573"></path><path d="M136.73,226.35c9.8,3.22-8.47,17.4-8.26,25.7C124.53,242.31,126,222.83,136.73,226.35Z" style="fill:#263238"></path><path d="M147.77,239.41a15.88,15.88,0,0,0,2.26,3.88,2.68,2.68,0,0,1-2.19.46Z" style="fill:#ed893e"></path><path d="M145.15,246.1a5.89,5.89,0,0,0,1-.09.19.19,0,0,0,.15-.21h0a.19.19,0,0,0-.21-.15,4.91,4.91,0,0,1-4.24-1.18.18.18,0,0,0-.25,0,.19.19,0,0,0,0,.26A5.13,5.13,0,0,0,145.15,246.1Z" style="fill:#263238"></path><path d="M132.73,226.34c-3,5.55,5.72,2.4,12.76,4.69,6.54,2.12,9.85,6.36,9.13.21C153.74,223.65,137.49,217.6,132.73,226.34Z" style="fill:#263238"></path><path d="M140.9,236.35a.37.37,0,0,0,.25-.15,2.87,2.87,0,0,1,2.24-1.34.37.37,0,0,0,0-.73,3.61,3.61,0,0,0-2.85,1.63.37.37,0,0,0,.1.5A.32.32,0,0,0,140.9,236.35Z" style="fill:#263238"></path><path d="M144,238.31a.17.17,0,0,0-.15.05,1.71,1.71,0,0,1-1.51.43.22.22,0,0,0-.26.15.23.23,0,0,0,.14.27h0a2.13,2.13,0,0,0,1.9-.52.21.21,0,0,0,0-.3h0A.18.18,0,0,0,144,238.31Z" style="fill:#263238"></path><path d="M150.87,238a.24.24,0,0,0-.16.05,1.68,1.68,0,0,1-1.49.46.22.22,0,0,0-.26.16.21.21,0,0,0,.15.26h0a2.12,2.12,0,0,0,1.89-.56.21.21,0,0,0,0-.3h0A.21.21,0,0,0,150.87,238Z" style="fill:#263238"></path><path d="M151.48,235.18a.29.29,0,0,0,.24-.13.34.34,0,0,0-.05-.5h0a3.59,3.59,0,0,0-3.21-.76.38.38,0,0,0-.24.46.36.36,0,0,0,.45.23,2.85,2.85,0,0,1,2.55.63A.31.31,0,0,0,151.48,235.18Z" style="fill:#263238"></path><path d="M140.06,284.7A37.95,37.95,0,1,1,178,246.76,38,38,0,0,1,140.06,284.7Zm0-74.67a36.73,36.73,0,1,0,36.72,36.73A36.77,36.77,0,0,0,140.06,210Z" style="fill:#2B2E81"></path><g style="opacity:0.5"><path d="M140.06,284.7A37.95,37.95,0,1,1,178,246.76,38,38,0,0,1,140.06,284.7Zm0-74.67a36.73,36.73,0,1,0,36.72,36.73A36.77,36.77,0,0,0,140.06,210Z" style="fill:#fff"></path></g></g><g id="freepik--character-1--inject-527"><path d="M222.49,281.71l-8.75,127.74,7.16,1.81s13.77-44.29,14.32-69.2-.06-30.17,7.82-44.24Z" style="fill:#ffb573"></path><path d="M247.5,283.44l9.86,127.82,7.49-.05s8-45.75,4.91-70.45-7.28-29.58-1.42-44.77Z" style="fill:#ffb573"></path><path d="M257.94,409.76l7.79.17a.72.72,0,0,1,.7.58l1.5,7.36a1.2,1.2,0,0,1-.93,1.42,1.15,1.15,0,0,1-.26,0c-3.25-.12-6.13-.35-10.17-.41-4.78-.09-3.58.5-9.19.48-3.38,0-3.93-3.87-2.49-4,6.57-.71,8.5-2.68,11.08-5A2.92,2.92,0,0,1,257.94,409.76Z" style="fill:#263238"></path><path d="M213.65,408.64l7.69,1.3a.71.71,0,0,1,.61.67l.41,7.5a1.21,1.21,0,0,1-1.13,1.28H221c-3.2-.59-6-1.23-10-1.89-4.71-.77-3.61,0-9.16-.85-3.34-.51-3.32-4.4-1.88-4.35,6.61.25,8.8-1.41,11.68-3.32A3,3,0,0,1,213.65,408.64Z" style="fill:#263238"></path><path d="M247.5,283.44l3.7,48c5-.64,10.6-1.55,16.75-2.77-1.71-10.06-3.11-15.85-2.34-22.39a36.88,36.88,0,0,1,1.5-11Z" style="opacity:0.2;isolation:isolate"></path><path d="M235.43,332c.36-16.61.93-22.22,7.61-34.15l-20.55-16.11L219.11,331A99.35,99.35,0,0,0,235.43,332Z" style="opacity:0.2;isolation:isolate"></path><path d="M224.87,241.28s-5.27,44-6.74,85.55c0,0,14.36,4.1,52.16-1.76a63.52,63.52,0,0,1-.81-16.46c1.1-15.05,5.54-31.39.81-47.12-5.24-17.38-10.84-22.26-10.84-22.26l-32.82-1.47Z" style="fill:#263238"></path><path d="M236.39,182.15l27.39.72a3,3,0,0,1,2.8,3.95c-2.84,8.74-8.77,31.21-4.21,55.63H224l-.58-36s-3-7.62,9.4-22.62A4.53,4.53,0,0,1,236.39,182.15Z" style="fill:#2B2E81"></path><path d="M236.39,182.15l27.39.72a3,3,0,0,1,2.8,3.95c-2.84,8.74-8.77,31.21-4.21,55.63H224l-.58-36s-3-7.62,9.4-22.62A4.53,4.53,0,0,1,236.39,182.15Z" style="fill:#fff;opacity:0.9"></path><path d="M201.15,208.89,193.53,206,191,200.22a1.93,1.93,0,0,0-.31-.49l-6.38-7.67a1.08,1.08,0,0,0-1.4-.21h0a1.06,1.06,0,0,0-.26,1.54l3.4,4.36-1.28,6a3.25,3.25,0,0,0,.73,2.8l.58.66a3.28,3.28,0,0,0,.95.75l4.29,2.21,7.33,3.66Z" style="fill:#ffb573"></path><path d="M233.35,182.15s-11,3.54-15.76,27.72a2.63,2.63,0,0,1-3.34,2l-16.77-5.26-2.2,6.14s16.77,11.91,24.61,10.17S233.35,182.15,233.35,182.15Z" style="fill:#2B2E81"></path><path d="M219.65,201.67a34.44,34.44,0,0,0-.49,8.81,89.3,89.3,0,0,1,.21,12.54,4.34,4.34,0,0,0,.52-.08c7.84-1.74,13.46-40.79,13.46-40.79S224.93,184.86,219.65,201.67Z" style="opacity:0.1"></path><path d="M263.27,159.05c-.7-2.44,0-4.94-1.8-7.2a7.46,7.46,0,0,1-1.48-4.29c-.46-8-10.29-10.52-17.49-10.56-7.95,0-4.81,3.23-11.52,4.81s-3.06,9.86-1.24,12.22.15,6.44-3.57,12.74c0,0-4,7.41,16.83,4.09C243,170.86,268.56,177.32,263.27,159.05Z" style="fill:#263238"></path><path d="M253.65,165.7c-1.36,4.73-3.05,13.48,0,17a55.43,55.43,0,0,1-13,6.24c-5-4.88-2.06-6.78-2.06-6.78,5.48-.86,5.8-5.56,5.23-9.38Z" style="fill:#ffb573"></path><path d="M250.18,170.83a9.65,9.65,0,0,0,0-2.63l-6.34,4.57a17.55,17.55,0,0,1,.2,2.32C246.34,174.85,249.75,173.14,250.18,170.83Z" style="opacity:0.2;isolation:isolate"></path><path d="M256.21,157.21c-2.17,7.8-2.92,11.15-7.77,14.35-7.3,4.82-16.4.46-16.61-7.83-.19-7.46,3.38-19,11.78-20.46a11,11,0,0,1,12.6,13.94Z" style="fill:#ffb573"></path><path d="M256.75,163.86a5.92,5.92,0,0,1-3.52,2.83c-2,.56-3-1.21-2.46-3.1.49-1.7,2.12-4,4.13-3.78a2.68,2.68,0,0,1,2.22,3.06A2.89,2.89,0,0,1,256.75,163.86Z" style="fill:#ffb573"></path><path d="M252.76,141.43c1.37,2.42-2.2,6.83-9.53,6.28-5.53-.4-12.56,5.43-11.9-1C231.89,140.89,245.84,138.31,252.76,141.43Z" style="fill:#263238"></path><path d="M248.72,143.13c-3.88,2.87-1.41,8.26.39,10.7s4.62,4.73,2.36,8.26-3.16,7.94,3.89,6.32,6.15-7.95,4.2-13.39S253.33,139.72,248.72,143.13Z" style="fill:#263238"></path><path d="M238.19,156.83a17.39,17.39,0,0,1-3.17,3.62,2.83,2.83,0,0,0,2.2.93Z" style="fill:#ed893e"></path><path d="M247.38,154.3a.29.29,0,0,0,.16,0,.33.33,0,0,0,.12-.44h0a3.74,3.74,0,0,0-2.87-1.93.34.34,0,0,0-.34.31.33.33,0,0,0,.3.33,3.17,3.17,0,0,1,2.37,1.62A.32.32,0,0,0,247.38,154.3Z" style="fill:#263238"></path><path d="M233.72,151.51a.49.49,0,0,0,.16,0,3.13,3.13,0,0,1,2.84-.14.32.32,0,0,0,.44-.12h0a.34.34,0,0,0-.13-.44,3.78,3.78,0,0,0-3.46.15.32.32,0,0,0-.15.43.34.34,0,0,0,.3.18Z" style="fill:#263238"></path><path d="M243,156.74c-.14.64-.59,1.08-1,1s-.65-.68-.5-1.33.59-1.09,1-1S243.09,156.09,243,156.74Z" style="fill:#263238"></path><path d="M235.68,155.19c-.13.64-.58,1.09-1,1s-.65-.68-.52-1.33.59-1.08,1-1S235.83,154.54,235.68,155.19Z" style="fill:#263238"></path><path d="M235.35,153.94l-1.45-.77S234.44,154.54,235.35,153.94Z" style="fill:#263238"></path><path d="M242.62,155.48l-1.45-.77S241.71,156.08,242.62,155.48Z" style="fill:#263238"></path><path d="M253.94,181a2.55,2.55,0,0,0-2.13.88c-2.48,2.89-9.26,12.43-9.26,30.38,0,14.32.83,27.85,1.41,35.54a5.46,5.46,0,0,0,6.85,4.88l15.76-4.19s-6.22-15.65-4.78-32.27c1-11.57,4.3-23.57,6.21-29.79a3.61,3.61,0,0,0-3.2-4.67Z" style="fill:#2B2E81"></path><path d="M239.38,180.92a.69.69,0,0,1,.49,1.18c-2.82,2.79-9,11.12-10,31.34-.86,17.38-1.61,29.62-2,36a3.46,3.46,0,0,1-4.87,2.93l-1.32-.59s2-9.44,1.44-30.09-3.7-21.64,4.71-33c.82-1.1,2.62-3.37,4.06-5.17a7,7,0,0,1,5.42-2.6Z" style="fill:#2B2E81"></path><path d="M254.19,182.62l-17.52-.46c-1.2,4.71-3.08,14.19-.52,19.86C236.15,202,245.73,191.37,254.19,182.62Z" style="fill:#ffb573"></path><path d="M247.14,237.76l12.16-1.9.5,1a2.13,2.13,0,0,1-1.62,3l-8,1.12a2.11,2.11,0,0,1-2.28-1.36Z" style="fill:#2B2E81"></path><path d="M247.14,237.76l12.16-1.9.5,1a2.13,2.13,0,0,1-1.62,3l-8,1.12a2.11,2.11,0,0,1-2.28-1.36Z" style="opacity:0.2"></path><path d="M222.24,237.76h3.07l-.25,2.05a2.75,2.75,0,0,1-3.17,2.38l-1.12-.18Z" style="fill:#2B2E81"></path><path d="M222.24,237.76h3.07l-.25,2.05a2.75,2.75,0,0,1-3.17,2.38l-1.12-.18Z" style="opacity:0.2"></path><path d="M270.14,233.08l-2.88,6.45-6,4.25a2.27,2.27,0,0,0-.88,2.45h0a2.3,2.3,0,0,0,1.2,1.47l3.23,1.58a2.28,2.28,0,0,0,2.91-.78l2.24-3.36a4.93,4.93,0,0,0,.73-1.81l.29-1.66,4-6.54Z" style="fill:#ffb573"></path><path d="M264.43,189.42l-2.84,1.32s-3.13,8.23,1,19.18a160.6,160.6,0,0,1,4.07-18.72Z" style="opacity:0.1"></path><path d="M247.22,192.09c5-1.6,8.14.41,8.14.41,2-6,.65-8.77.31-11.37l-1.73-.12a2.55,2.55,0,0,0-2.13.88c-2.48,2.89-9.26,12.43-9.26,30.38,0,4.55.08,9,.22,13.25,2.47-19.56,8.79-26.87,8.79-26.87A8.72,8.72,0,0,0,247.22,192.09Z" style="fill:#2B2E81"></path><path d="M239.38,180.92h-1.6c-2.86,1.66-6.76,4.56-7.93,8.5a2.9,2.9,0,0,1,3.5.73,12.75,12.75,0,0,0-5.25,5,163,163,0,0,0,1.46,24c.1-1.84.2-3.73.29-5.71,1-20.22,7.2-28.55,10-31.34A.69.69,0,0,0,239.38,180.92Z" style="fill:#2B2E81"></path><path d="M247.22,192.09c5-1.6,8.14.41,8.14.41,2-6,.65-8.77.31-11.37l-1.73-.12a2.55,2.55,0,0,0-2.13.88c-2.48,2.89-9.26,12.43-9.26,30.38,0,4.55.08,9,.22,13.25,2.47-19.56,8.79-26.87,8.79-26.87A8.72,8.72,0,0,0,247.22,192.09Z" style="opacity:0.2"></path><path d="M239.38,180.92h-1.6c-2.86,1.66-6.76,4.56-7.93,8.5a2.9,2.9,0,0,1,3.5.73,12.75,12.75,0,0,0-5.25,5,163,163,0,0,0,1.46,24c.1-1.84.2-3.73.29-5.71,1-20.22,7.2-28.55,10-31.34A.69.69,0,0,0,239.38,180.92Z" style="opacity:0.2"></path><path d="M266.73,182.5s3.7.18,10.29,14.68,9.23,24.55-3.37,41.28l-5.49-2.6s5.64-13.33,5.35-20.07-6.55-13.45-9.69-17.73C261.65,195.1,259.07,190.08,266.73,182.5Z" style="fill:#2B2E81"></path><path d="M242.79,274.08c2.18,32.9.11,47.84-1.41,54,2.37-.1,4.94-.26,7.73-.48-.73-19.07-4.53-44.36-6-53.52Z" style="opacity:0.4"></path><path d="M239.13,165a5.75,5.75,0,0,1-1-.09.17.17,0,0,1-.14-.2h0a.19.19,0,0,1,.2-.14,4.8,4.8,0,0,0,4.15-1.16.18.18,0,0,1,.27.24A5,5,0,0,1,239.13,165Z" style="fill:#263238"></path></g></svg>