<svg xmlns="http://www.w3.org/2000/svg" viewBox="0 0 500 500"><g id="freepik--background-complete--inject-107"><polygon points="6.4703 490.29 6.4703 461.9337 493.52969 325.7345 493.52969 486.917 6.4703 490.29" style="fill:#f0f0f0;"></polygon><g><g><g><path d="M443.92039,345.0618h-180.7461c-3.2324,0-5.86229-2.6298-5.86229-5.8623V75.9261c0-3.2324,2.62989-5.8618,5.86229-5.8618h180.7461c3.2324,0,5.8623,2.6294,5.8623,5.8618V339.1995c0,3.2325-2.6299,5.8623-5.8623,5.8623ZM263.17429,70.3143c-3.0947,0-5.61229,2.5176-5.61229,5.6118V339.1995c0,3.0948,2.51759,5.6123,5.61229,5.6123h180.7461c3.0947,0,5.6123-2.5175,5.6123-5.6123V75.9261c0-3.0942-2.5176-5.6118-5.6123-5.6118h-180.7461Z" style="fill:#e0e0e0;"></path><path d="M235.49269,345.0618H54.7461c-3.2324,0-5.8618-2.6298-5.8618-5.8623V75.9261c0-3.2324,2.6294-5.8618,5.8618-5.8618H235.49269c3.2324,0,5.86231,2.6294,5.86231,5.8618V339.1995c0,3.2325-2.62991,5.8623-5.86231,5.8623ZM54.7461,70.3143c-3.0942,0-5.6118,2.5176-5.6118,5.6118V339.1995c0,3.0948,2.5176,5.6123,5.6118,5.6123H235.49269c3.0947,0,5.61231-2.5175,5.61231-5.6123V75.9261c0-3.0942-2.51761-5.6118-5.61231-5.6118H54.7461Z" style="fill:#e0e0e0;"></path></g><rect x="0" y="406.1312" width="500" height=".25" style="fill:#e0e0e0;"></rect></g><rect x="51.6724" y="420.3957" width="16.06" height=".25" style="fill:#e0e0e0;"></rect><rect x="170.3524" y="417.6857" width="53.53" height=".25" style="fill:#e0e0e0;"></rect><rect x="68.7324" y="429.6857" width="36.25" height=".25" style="fill:#e0e0e0;"></rect><rect x="378.35239" y="417.5557" width="43.19" height=".25" style="fill:#e0e0e0;"></rect><rect x="430.45239" y="417.5557" width="6.33" height=".25" style="fill:#e0e0e0;"></rect><rect x="316.21239" y="423.7857" width="53.89" height=".25" style="fill:#e0e0e0;"></rect></g><path d="M312.45729,170.269c-1.0857-.8203-2.6698-.9132-3.8439-.2256-1.55839-3.1492-5.9015-4.5391-8.9988-2.8798-.808-3.3936-4.15159-6.002-7.64-5.9601-3.4882,.042-6.768,2.7301-7.4942,6.1422-.11539,.5422-.1918,1.1363-.5796,1.5324-.63,.6436-1.6819,.4276-2.57979,.3576-2.825-.2204-5.66761,1.7629-6.43581,4.4902l38.9033-.1415c.3408-1.3172-.2457-2.4953-1.3312-3.3154Z" style="fill:#f0f0f0;"></path><path d="M369.83059,284.1303c-1.7725-1.3392-4.3588-1.4909-6.2757-.3683-2.5443-5.1415-9.635-7.4107-14.6918-4.7017-1.3192-5.5405-6.77809-9.7991-12.4734-9.7307-5.6949,.0686-11.04969,4.4573-12.2353,10.028-.18839,.8853-.3131,1.8552-.9463,2.5019-1.0286,1.0508-2.7459,.6981-4.2119,.5838-4.61219-.3598-9.2531,2.8782-10.5073,7.3309l63.51511-.231c.55639-2.1505-.40111-4.0739-2.17341-5.4129Z" style="fill:#f0f0f0;"></path><path d="M185.9808,234.8737c-1.0857-.8203-2.6698-.9132-3.8439-.2256-1.5584-3.1492-5.9015-4.5391-8.9988-2.8798-.808-3.3936-4.1516-6.002-7.64-5.9601-3.4882,.042-6.768,2.7301-7.4942,6.1422-.1154,.5422-.1918,1.1363-.5796,1.5324-.63,.6436-1.6819,.4276-2.5798,.3576-2.825-.2204-5.6676,1.7629-6.4358,4.4902l38.9033-.1415c.3408-1.3172-.2457-2.4953-1.3312-3.3154Z" style="fill:#f0f0f0;"></path><path d="M319.17509,45.9801c-1.0857-.8203-2.6698-.9132-3.8439-.2256-1.5584-3.1492-5.9015-4.5391-8.9988-2.8798-.808-3.3936-4.1516-6.002-7.64-5.9601-3.4882,.042-6.768,2.7301-7.4942,6.1422-.1154,.5422-.1918,1.1363-.5796,1.5324-.63,.6436-1.6819,.4276-2.5798,.3576-2.825-.2204-5.6676,1.7629-6.43579,4.4902l38.90329-.1415c.3408-1.3172-.2457-2.4953-1.3312-3.3154Z" style="fill:#f0f0f0;"></path><path d="M193.3573,40.0195c-1.0857-.8203-2.6698-.9132-3.8439-.2256-1.5584-3.1492-5.9014-4.5391-8.9988-2.8798-.808-3.3936-4.1516-6.002-7.64-5.9601-3.4882,.042-6.768,2.7301-7.4942,6.1422-.1154,.5422-.1918,1.1363-.5796,1.5324-.63,.6436-1.6818,.4276-2.5798,.3576-2.825-.2204-5.6676,1.7629-6.4358,4.4902l38.9033-.1415c.3408-1.3172-.2457-2.4953-1.3312-3.3154Z" style="fill:#f0f0f0;"></path><path d="M450.42889,133.6195c-1.0857-.8203-2.6698-.9132-3.84389-.2256-1.55841-3.1492-5.90151-4.5391-8.99881-2.8798-.808-3.3936-4.1516-6.002-7.64-5.9601-3.48819,.042-6.768,2.7301-7.49419,6.1422-.11541,.5422-.19181,1.1363-.57961,1.5324-.63,.6436-1.6819,.4276-2.5798,.3576-2.825-.2204-5.66759,1.7629-6.4358,4.4902l38.9033-.1415c.3408-1.3172-.2457-2.4953-1.3312-3.3154Z" style="fill:#f0f0f0;"></path><path d="M473.95449,46.0808c-1.0857-.8203-2.6698-.9132-3.8439-.2256-1.5584-3.1492-5.9015-4.5391-8.9988-2.8798-.808-3.3936-4.1516-6.002-7.64-5.9601-3.4882,.042-6.768,2.7301-7.4942,6.1422-.1154,.5422-.1918,1.1363-.57959,1.5324-.63,.6436-1.68191,.4276-2.57981,.3576-2.825-.2204-5.6676,1.7629-6.4358,4.4902l38.9033-.1415c.3408-1.3172-.24569-2.4953-1.3312-3.3154Z" style="fill:#f0f0f0;"></path><path d="M471.80089,230.0593c-1.4453-1.092-3.554-1.2156-5.11689-.3003-2.07461-4.1922-7.856-6.0424-11.97911-3.8336-1.0756-4.5175-5.5265-7.9897-10.1702-7.9339-4.6435,.0559-9.0095,3.6342-9.9762,8.1764-.1536,.7217-.2553,1.5126-.77149,2.0399-.83871,.8567-2.23891,.5692-3.43421,.476-3.7606-.2934-7.5446,2.3467-8.5673,5.9773l51.78751-.1884c.45359-1.7534-.32711-3.3217-1.77211-4.4134Z" style="fill:#f0f0f0;"></path><path d="M216.66359,356.9118c-1.4452-1.092-3.554-1.2156-5.1169-.3003-2.0745-4.1922-7.856-6.0424-11.9791-3.8335-1.07559-4.5175-5.5265-7.9898-10.1702-7.934-4.6434,.0559-9.0094,3.6342-9.9761,8.1764-.1537,.7217-.2554,1.5126-.7716,2.0399-.8386,.8567-2.2389,.5692-3.4342,.476-3.7606-.2934-7.5446,2.3467-8.5672,5.9773l51.7874-.1884c.4537-1.7534-.3271-3.3217-1.7721-4.4134Z" style="fill:#f0f0f0;"></path><path d="M168.7847,153.3972c-1.9775-1.4941-4.8627-1.6633-7.0012-.4109-2.8384-5.7359-10.7488-8.2674-16.3902-5.2452-1.4717-6.181-7.5616-10.9319-13.9153-10.8556-6.3533,.0765-12.327,4.9726-13.6497,11.1873-.2102,.9875-.3494,2.0696-1.0557,2.791-1.1474,1.1723-3.0633,.7789-4.6988,.6514-5.1453-.4015-10.3228,3.2109-11.722,8.1783l70.8575-.2577c.6207-2.3991-.4475-4.5449-2.4246-6.0386Z" style="fill:#f0f0f0;"></path><path d="M96.9531,345.1011c-1.9775-1.494-4.8627-1.6632-7.0012-.4109-2.8384-5.7358-10.7488-8.2674-16.3902-5.2452-1.4716-6.181-7.5616-10.9318-13.9153-10.8555-6.3533,.0765-12.327,4.9725-13.6497,11.1872-.2102,.9876-.3493,2.0696-1.0557,2.7911-1.1474,1.1722-3.0633,.7788-4.6988,.6513-5.1453-.4014-10.3228,3.2109-11.7219,8.1783l70.8574-.2577c.6207-2.3991-.4475-4.5449-2.4246-6.0386Z" style="fill:#f0f0f0;"></path><path d="M406.55859,70.6151c-1.9775-1.4941-4.8627-1.6633-7.0012-.4109-2.83839-5.7359-10.7488-8.2674-16.3902-5.2452-1.4716-6.181-7.5616-10.9319-13.9153-10.8555-6.3533,.0765-12.327,4.9725-13.6497,11.1872-.21019,.9875-.3493,2.0696-1.0557,2.7911-1.1474,1.1722-3.0633,.7788-4.6988,.6513-5.1453-.4014-10.3228,3.2109-11.7219,8.1783l70.8574-.2577c.6207-2.3991-.4475-4.5449-2.4246-6.0386Z" style="fill:#f0f0f0;"></path><path d="M82.1487,110.7622c-1.3485-1.0189-3.316-1.1343-4.7743-.2802-1.9356-3.9115-7.3299-5.6378-11.1769-3.5769-1.0036-4.215-5.1565-7.4547-9.4892-7.4027-4.3325,.0522-8.4062,3.3909-9.3081,7.6289-.1434,.6734-.2382,1.4113-.7199,1.9033-.7825,.7994-2.089,.5311-3.2042,.4442-3.5088-.2738-7.0394,2.1896-7.9936,5.577l48.3196-.1758c.4233-1.636-.3052-3.0992-1.6534-4.1178Z" style="fill:#f0f0f0;"></path><path d="M261.68279,90.7068c-2.7097-2.0473-6.6634-2.2792-9.5937-.563-3.8896-7.8599-14.7292-11.3289-22.4596-7.1875-2.0167-8.4699-10.3618-14.9801-19.0683-14.8755-8.706,.1048-16.8919,6.8139-18.7043,15.3299-.2881,1.3533-.4787,2.8361-1.4466,3.8247-1.5724,1.6063-4.1978,1.0672-6.4388,.8925-7.0508-.5501-14.1455,4.3999-16.0628,11.2068l97.0966-.3531c.8506-3.2876-.6132-6.2279-3.3225-8.2748Z" style="fill:#f0f0f0;"></path></g><g id="freepik--Floor--inject-107"><path d="M8.04199,462.30859c-.16406,0-.31445-.1084-.36084-.27344-.05615-.19922,.06006-.40625,.25928-.46289l486.14355-136.56836c.20312-.05176,.40625,.06152,.46289,.25977,.05566,.19922-.06055,.40625-.25977,.46289L8.14355,462.29492c-.03418,.00879-.06836,.01367-.10156,.01367Z" style="fill:#263238;"></path></g><g id="freepik--Shadow--inject-107"><path d="M481.45609,342.4673c.9136,3.2612-95.217,33.0421-214.71379,66.5177-119.4968,33.4755-217.10869,57.969-218.02229,54.7079-.9136-3.2613,95.2171-33.0423,214.71389-66.5178s217.10869-57.969,218.02219-54.7078Z" style="fill:#ebebeb;"></path></g><g id="freepik--Speech_Bubble_2--inject-107"><g><g><path d="M427.71559,100.2124c4.3717-7.5235,1.8168-17.1665-5.70659-21.5381-7.52361-4.3718-17.16671-1.8169-21.53831,5.7067-3.375,5.8082-2.6073,12.87,1.3734,17.8041l-.76809,4.6693,4.88239-1.0777c.0752,.0453,.1429,.0982,.2191,.1425,7.5233,4.3718,17.1664,1.8166,21.5381-5.7068Z" style="fill:#2B2E81;"></path><path d="M431.7666,92.29248l-.01758-.00049c-.1377-.01025-.24219-.12988-.23145-.26758,.36133-5.00586-2.00586-10.17822-6.03125-13.17676-.11035-.08252-.13379-.23926-.05078-.3501,.08301-.10986,.24023-.1333,.34961-.05127,4.15918,3.09863,6.60449,8.44238,6.23047,13.61426-.00879,.13135-.11914,.23193-.24902,.23193Z" style="fill:#2B2E81;"></path><path d="M431.04297,96.90869c-.0332,0-.06738-.00684-.09961-.02051-.12695-.05518-.18457-.20264-.12988-.3291,.29688-.68262,.45312-1.43604,.45117-2.1792,0-.1377,.11133-.25,.24902-.25049h.00098c.1377,0,.25,.11133,.25,.24951,.00195,.81104-.16797,1.63428-.49219,2.37939-.04102,.09424-.13281,.15039-.22949,.15039Z" style="fill:#2B2E81;"></path></g><g><rect x="405.97639" y="90.7003" width="14.7173" height="3.6793" style="fill:#fff;"></rect><polygon points="419.333 88.6978 419.333 96.1315 422.95789 92.4146 419.333 88.6978" style="fill:#fff;"></polygon></g></g></g><g id="freepik--Speech_Bubble_1--inject-107"><g><g><path d="M133.5438,165.9456c7.9022-4.5185,17.971-1.7756,22.4894,6.1265,4.5185,7.9022,1.7756,17.9711-6.1266,22.4896-6.1006,3.4882-13.4822,2.6337-18.6148-1.5665l-4.8901,.7694,1.163-5.0995c-.047-.0789-.1018-.1502-.1476-.2302-4.5185-7.902-1.7753-17.9709,6.1267-22.4893Z" style="fill:#2B2E81;"></path><path d="M124.60156,172.37061c-.03076,0-.06201-.00586-.09229-.01758-.12842-.05078-.19092-.19629-.14014-.32471,2.00049-5.03809,6.73291-8.95654,12.05566-9.98193,.13379-.02295,.26709,.06201,.29297,.19824,.02588,.13574-.0625,.2666-.19824,.29297-5.15967,.99365-9.74658,4.7915-11.68555,9.67529-.03906,.09814-.13281,.15771-.23242,.15771Z" style="fill:#2B2E81;"></path><path d="M123.18311,177.04834h-.00977c-.13818-.00586-.24561-.12207-.24023-.25977,.03369-.84717,.24707-1.69824,.61719-2.46094,.06055-.12402,.20996-.17578,.33447-.11572,.12402,.06055,.17578,.20996,.11572,.33447-.34082,.70068-.53662,1.48291-.56738,2.26172-.00537,.13477-.11621,.24023-.25,.24023Z" style="fill:#2B2E81;"></path></g><polygon points="139.793 186.4828 132.8358 180.1339 135.0514 177.7062 139.7166 181.9635 147.4682 174.394 149.7643 176.7454 139.793 186.4828" style="fill:#fff;"></polygon></g></g><g id="freepik--Character_3--inject-107"><g><g><path d="M375.86839,87.2722c-4.2171,.03-9.1668,.446-11.4071,4.019-2.0542,3.2763-.7819,7.7357-2.4082,11.2441-1.6642,3.5903-5.9534,5.2329-9.9079,5.3798-3.9546,.1469-7.8719-.8395-11.829-.8805-3.957-.041-8.3033,1.139-10.4606,4.4566-.8438,1.2977-1.2781,2.8102-1.8202,4.26-1.275,3.4102-3.30039,6.6751-6.3613,8.6463-4.38609,2.8247-10.0074,2.538-15.0676,3.8073,6.84451,5.5698,16.5618,5.5138,25.35151,4.7324,1.79409-.1595,3.65109-.358,5.20409-1.2703,1.2263-.7204,2.1688-1.8332,3.3034-2.6908,2.646-2.0002,6.37651-2.4601,9.4291-1.1626,1.6739,.7114,3.1152,1.8911,4.7852,2.6116,3.5863,1.5471,7.7239,.7968,11.4723-.3004,2.5448-.7449,5.1047-1.6707,7.1464-3.3625,2.0416-1.6919,3.4986-4.2903,3.2084-6.9259-.1216-1.1045-.5374-2.2228-.2552-3.2975,.2138-.8142,.8017-1.4746,1.4185-2.0476,2.732-2.5377,6.4452-3.991,10.174-3.982" style="fill:#2B2E81;"></path><path d="M356.36029,130.9669c-.3909-.1195-3.1101-11.3647,5.86571-15.0338,0,0,2.99369-1.4741,6.10329-1.2588,0,0,2.988-8.083,10.9916-9.7427s7.1352,.5463,7.1352,.5463c0,0,3.514,7.3005,3.021,7.9412s-31.35009,17.8764-31.35009,17.8764l-1.76671-.3286Z" style="opacity:.3;"></path><path d="M416.11549,185.1727l5.3221-6.9247s2.036-.4187,3.3969-1.0552c1.3611-.6365,3.0463-1.532,4.01551-3.833,.96929-2.3011-.81271-1.8115-.81271-1.8115,.6558-2.4381-1.4787-2.8491-1.4787-2.8491,.6265-2.1151-1.5962-2.7513-1.5962-2.7513,0,0-2.3991-1.0867-3.6033-.979-1.2044,.1078-4.0045,3.437-4.0045,3.437l-.9683,4.2645-7.318,6.6685c.127,.117,7.0472,5.8338,7.0472,5.8338Z" style="fill:#b97964;"></path><path d="M438.66699,203.5415c-.13281,0-.26172-.07129-.33008-.19629l-64.68555-119.45947c-.09863-.18213-.03027-.40967,.15137-.5083,.18262-.09717,.41016-.03076,.50879,.15088l64.68555,119.45947c.09863,.18213,.03027,.40967-.15137,.5083-.05664,.03076-.11816,.04541-.17871,.04541Z" style="fill:#263238;"></path><path d="M418.46509,168.3057s4.3738-.6527,5.516,0c.7112,.4064,1.5701,1.5721,2.11691,2.3938,.30809,.463,.02429,1.0886-.52821,1.1521-.7725,.0888-1.8745-.0038-3.0142-.8264,0,0,.5678,2.5445-2.6641,3.1358" style="opacity:.3;"></path><path d="M418.13849,167.9791s4.3738-.6526,5.516,0c.7112,.4064,1.5701,1.5721,2.1169,2.3938,.3081,.4631,.0243,1.0887-.5282,1.1522-.7725,.0887-1.8745-.0039-3.01419-.8265,0,0,1.02939,1.2509-2.607,3.6441" style="fill:#b97964;"></path></g><path d="M392.26719,151.5068c4.10481,2.6036,6.97881,6.7492,8.0057,11.5004,1.8419,8.522,1.9479,18.5248,1.9479,18.5248l11.2349-7.9864,6.9988,6.5014s-11.6813,14.0703-19.07,19.2442c-6.1357,4.2968-11.42849-5.931-11.42849-5.931l1.85119-42.145,.46,.2916Z" style="fill:#2B2E81;"></path><g><path d="M370.06739,116.2438c-1.8223-.87-4.03439-.6888-5.85539,.1837-1.82111,.8725-3.28241,2.3724-4.41371,4.045-.5539,.819-1.0392,1.6879-1.3971,2.6098-2.1071,5.4279,.4379,11.7969-1.5431,17.2721-.31909,.8821-.75809,1.7318-1.385,2.4295-2.0825,2.3176-5.5818,2.4406-8.6093,3.1765-.315,.0765-.6576,.1823-.8295,.4571-.2504,.4004-.00529,.927,.3006,1.2867,1.321,1.5534,3.5519,1.8826,5.5784,2.1079-1.558,1.3533-3.3701,2.4133-5.31329,3.1081-.20251,.0724-.43021,.163-.50681,.3639-.0788,.2067,.04081,.4339,.1757,.6092,.7943,1.0321,2.1586,1.4215,3.442,1.643,2.4908,.4298,5.0503,.459,7.5502,.0859-1.3712,1.7525-2.6642,3.566-3.874,5.4336,3.497,.6965,7.1515,.0711,10.4984-1.1583,3.9367-1.4461,7.6868-3.854,9.818-7.4659,2.9331-4.9709,2.322-11.1503,2.6392-16.9133,.185-3.3593,.7156-6.6887,1.2455-10.0112l-7.5208-9.2633Z" style="fill:#263238;"></path><path d="M392.78949,110.5548c4.5646,3.8318,5.4519,8.7142,5.0114,12.1302-1.1197,4.5551-3.0831,7.6507-4.8253,12.0059l-9.2802-28.4022c2.80161,.8836,4.1549,.4377,9.0941,4.2661Z" style="fill:#263238;"></path><path d="M386.90669,107.4888c-4.5553-2.7615-9.5571-.6452-12.5054,.8837-3.2864,2.2194-5.4669,5.7384-5.9914,9.6693-.4056,3.6846-.8972,8.1507,1.1245,10.317,1.1289,1.2499,2.7313,1.9677,4.41561,1.9777l20.07279-14.8094c-1.6501-3.2408-4.0992-6.0075-7.1161-8.0383Z" style="fill:#263238;"></path><path d="M381.36249,155.8675c-1.56,1.2913-1.5651,.9706-3.3506,0-10.6866-5.2263-7.6507-9.0735-7.6507-9.0735,2.3837-2.2444,2.8022-5.1969,2.52981-9.7977-.00051-.1333,.00839-.2665,.02659-.3986,.0738-.6018,.3319-1.166,.7389-1.6154,1.0794-1.2576,2.974-1.4021,4.2318-.3226l.0034,.003,4.8246,1.9717h0c.006,.0699,.0122,.1399,.0191,.2185-.2582,2.4717-.5396,4.3816-.6886,5.892,.01621,.1836-.0376,.3733-.0485,.5504h0c.0162,.1836-.0194,.3806-.039,.5584-.0312,.6019-.1,2.236-.1,2.236,.724,1.6057,2.7171,2.8596,3.6733,3.4829,.80941,.5895,1.1203,1.945-4.1701,6.2949Z" style="fill:#b97964;"></path><path d="M371.01929,119.42c-.7465,8.5397-1.25029,12.1252,2.2876,17.1963,5.3297,7.6177,15.7392,6.8873,19.0083-1.2137,2.8815-7.3005,3.65781-20.0094-3.9429-24.8024-7.6008-4.793-16.5985,.2706-17.353,8.8198Z" style="fill:#b97964;"></path><g><path d="M366.44429,126.301c.6592,1.9338,2.07071,3.3439,3.4878,4.0107,2.1317,1.0027,3.9977-2.3746,3.6738-4.7713-.29189-2.1575-2.232-3.9289-4.5007-3.9166-2.2351,.0121-3.4147,2.4662-2.6609,4.6772Z" style="fill:#b97964;"></path><path d="M371.27148,127.03027c-.00977,0-.02051-.00049-.03125-.00195-.1377-.01758-.23438-.14258-.2168-.27979,.0957-.75195-.11426-1.52734-.57715-2.12793s-1.15918-1.00146-1.91016-1.09961c-.13672-.01807-.2334-.14355-.21582-.28076,.01855-.13672,.14453-.23242,.28027-.21533,.88184,.11572,1.69922,.58594,2.24219,1.29102,.54199,.7041,.78906,1.61377,.67676,2.49609-.0166,.12598-.12402,.21826-.24805,.21826Z" style="opacity:.2;"></path></g><path d="M380.22129,124.187c-.1346,.9045,.2064,1.7357,.7613,1.8565,.5547,.1209,1.1132-.514,1.2475-1.4184,.1346-.9043-.2062-1.7355-.761-1.8565-.5547-.121-1.1133,.5139-1.2478,1.4184Z" style="fill:#263238;"></path><path d="M389.03749,125.6255c-.1284,.8767,.2159,1.6854,.7689,1.8061,.553,.1205,1.1055-.4922,1.2342-1.3692,.1283-.8765-.2159-1.6852-.7691-1.8058-.5529-.1209-1.1054,.4922-1.234,1.3689Z" style="fill:#263238;"></path><path d="M380.55969,120.84c.1056,.0332,.2212,.0233,.3202-.0374,1.5422-.952,2.9282-.2391,2.9442-.2307,.2054,.1061,.4498,.0263,.5434-.1861,.0929-.2123,.0003-.4726-.207-.5827-.0724-.0377-1.8114-.9344-3.7253,.2476-.1906,.1177-.2459,.3818-.1235,.5895,.0594,.0999,.1492,.1687,.248,.1998Z" style="fill:#263238;"></path><path d="M393.71659,122.2258c.0909-.0118,.17441-.0614,.2301-.1468,.1149-.1768,.0684-.439-.1032-.5854-1.7223-1.4686-3.3199-.9233-3.3876-.8985-.1903,.0678-.2786,.3002-.1971,.5195,.0809,.219,.3007,.3414,.4907,.2748,.0623-.0224,1.3083-.4245,2.6776,.7436,.0886,.0754,.1934,.1056,.2895,.0928Z" style="fill:#263238;"></path><path d="M387.881,125.0652s.70209,3.431,1.80889,5.7011c.1934,.3968-.0675,.8693-.5032,.9391-1.1216,.1794-2.2772-.4094-2.2772-.4094l.97151-6.2308Z" style="fill:#a24e3f;"></path><path d="M381.14289,122.7429l2.0342-.0774s-1.348,1.2409-2.0342,.0774Z" style="fill:#263238;"></path><path d="M390.06769,124.2373l2.03431-.0773s-1.34791,1.2407-2.03431,.0773Z" style="fill:#263238;"></path><g><path d="M386.09569,133.5737c-.7938,.7145-1.9185,2.2099-1.9185,2.2099-.1541-.0774-.3078-.1549-.4573-.2403-2.0601-1.1032-2.6514-2.2956-2.68189-3.283-.01481-.5401,.14559-1.0219,.32409-1.3893,.202-.4269,.4434-.6852,.4434-.6852,.7426,1.2372,2.5839,2.4137,3.5938,3.0008,.4202,.2502,.6964,.3871,.6964,.3871Z" style="fill:#263238;"></path><path d="M385.39929,133.1866l-.5827,.6369c-1.9378-1.0437-3.1621-2.0387-3.4545-2.9525,.202-.4269,.4434-.6852,.4434-.6852,.7426,1.2372,2.5839,2.4137,3.5938,3.0008Z" style="fill:#fff;"></path><path d="M383.71989,135.5433c-2.0601-1.1032-2.6514-2.2956-2.68189-3.283,.68739,.403,1.47159,.9655,2.04469,1.6784,.4404,.5434,.6,1.1038,.6372,1.6046Z" style="fill:#de5753;"></path></g><path d="M373.74059,121.821s5.4795-5.0245,6.1536-9.7644c0,0,17.8377-1.9466,14.5777,12.9053,0,0,5.19411-12.5822-8.7985-16.2696-13.9925-3.6873-18.9731,14.5688-13.2379,21.7545,.03251-.0643-2.0892-5.4735,1.3051-8.6258Z" style="fill:#263238;"></path><path d="M391.93709,111.2649c1.6746,2.0029,2.6677,4.4871,2.8354,7.0925-.204,1.8534-2.8748,2.9155-2.8748,2.9155l-2.6368-4.381-.3908,3.5505c-4.9857-1.1093-7.6085-4.1098-8.9099-8.1679l3.3667-4.7148s7.09511,2.0694,8.6102,3.7052Z" style="fill:#263238;"></path></g><g><path d="M356.87039,203.4661c.192-8.8364-1.1501-25.216-4.6471-42.6484-1.1379-5.6687,5.7486-11.0398,5.7486-11.0398,0,0,4.0495,.1255,4.7945,.124,.8165-.0057,1.655,.0033,2.49261,.0239,6.30749,.1697,11.46639,.3562,17.00439,1.2876,1.393,.237,2.817,.5127,4.2179,.7862,.4504,.0973,3.4034,.4677,3.8421,.5637,0,0,6.9813,10.2585,6.685,16.9258-.17339,3.7241,1.4383,5.5125,.2661,14.3364-.6963,6.0032-6.0196,14.2749-7.3464,22.6766l-33.0577-3.036Z" style="fill:#fff;"></path><path d="M385.37089,152.2293l-3.5116-6.1396-2.3426,3.1663-7.6262-5.8191-1.2376,1.9167,1.9642,8.8315s6.9245,3.7662,7.309,3.8085,5.4448-5.7643,5.4448-5.7643Z" style="fill:#fff;"></path><polygon points="385.53259 152.5163 383.37819 156.518 379.62949 151.8665 376.22349 156.469 372.17619 153.9028 376.33919 158.0156 379.57059 152.9174 383.89729 157.9954 385.53259 152.5163" style="opacity:.3;"></polygon><path d="M382.58496,205.79248l-.02051-.00098c-.1377-.01123-.24023-.13184-.22852-.26904,.13574-1.6792,.28516-3.38721,.43652-5.11768,1.34668-15.43262,2.87305-32.92432-3.43164-47.38721-.05469-.12695,.00293-.27393,.12988-.3291,.12695-.05566,.27441,.00342,.3291,.12891,6.35547,14.57959,4.82227,32.13867,3.4707,47.63086-.15137,1.72949-.2998,3.43604-.43652,5.11426-.01074,.13086-.12012,.22998-.24902,.22998Z" style="opacity:.2;"></path></g><path d="M393.45039,204.962s6.819-24.6698,6.4324-31.0738c-.3867-6.4039-8.0756-22.673-8.0756-22.673l-4.2428-.7651-4.834-2.6087s10.1283,15.3793,11.8777,25.864c1.1504,6.8944-4.9376,27.6158-5.065,32.7613l-3.0203,31.2983,10.9819-1.9851-4.0543-30.8179Z" style="fill:#2B2E81;"></path><path d="M393.62339,185.1504s2.5883-5.5391,2.81561-10.8888c.22729-5.3495,.58029-9.3203,.58029-9.3203l-5.5355-5.1161,1.3906-5.3418s-2.709-2.1038-5.207-4.2287c-1.7068-1.4518-5.117-3.7392-5.6086-3.6456,0,0,13.244,21.1662,12.4445,29.1421-.771,7.6924-.8799,9.3992-.8799,9.3992Z" style="fill:#2B2E81;"></path><path d="M393.62339,185.1504s2.5883-5.5391,2.81561-10.8888c.22729-5.3495,.58029-9.3203,.58029-9.3203l-5.5355-5.1161,1.3906-5.3418s-2.709-2.1038-5.207-4.2287c-1.7068-1.4518-5.117-3.7392-5.6086-3.6456,0,0,13.244,21.1662,12.4445,29.1421-.771,7.6924-.8799,9.3992-.8799,9.3992Z" style="opacity:.3;"></path><path d="M394.97119,199.2341s5.1249-20.1023,4.9274-23.4538-1.00959-6.7218-1.00959-6.7218c0,0,2.11769,4.088,1.89649,8.0701-.2212,3.982-3.7662,23.0506-3.7662,23.0506l-2.0481-.9451Z" style="opacity:.2;"></path><g><polygon points="342.386 359.4041 351.04069 358.0542 353.50719 341.7383 341.56769 343.6967 342.386 359.4041" style="fill:#9f5b53;"></polygon><path d="M351.30229,354.0115l-3.0139,.7771c-.6819,.1758-1.2239,.6833-1.4849,1.3375-1.1261,2.8217-2.66349,2.2612-5.1293,.5172-1.2379,.1697-1.2059,1.6323-1.2083,2.0282l-.14,8.7764c-.0192,.7349,.5607,1.3462,1.2957,1.3655,.1307,.0034,.2612-.0125,.3873-.047,3.6599-.9436,5.3915-1.3901,9.9468-2.5645l13.93131-3.5919c3.79789-.9792,3.59809-5.0094,1.94249-4.9601-7.4354,.2591-12.9504-.5266-15.6523-2.0125-.4955-.2543-.1506-.6291-.8749-1.6259Z" style="fill:#263238;"></path><path d="M358.44309,354.6557c.2583-.31,.354-.724,.25791-1.1159-.02731-.2164-.17611-.3982-.383-.4679-1.117-.4254-4.431,2.3073-4.80081,2.6229-.0426,.029-.0701,.0756-.075,.1269-.0087,.095,.0611,.1791,.1561,.1879,.9825-.0196,1.9604-.1415,2.9175-.3639,.7315-.1162,1.4068-.4631,1.9273-.99Zm-.2876-1.2375c.0891,.0278,.15151,.1077,.1568,.2009,.0569,.2861-.0118,.5828-.1887,.8146-.691,.8602-2.8283,1.1174-3.9932,1.1974,1.3867-1.092,3.4098-2.4424,4.0251-2.2129Z" style="fill:#2B2E81;"></path><path d="M353.73639,356.016c1.0097-.7639,2.9014-3.2347,2.5198-4.1856-.0729-.2015-.2839-.4095-.8133-.3464-2.127,.2966-2.0561,4.234-2.0156,4.3914-.004,.0689,.0332,.1334,.0949,.1643,.0414,.0016,.0825-.009,.118-.0304l.0962,.0067Zm1.7163-4.2093c.3938-.0596,.42931,.0782,.442,.1273,.2629,.5723-1.0605,2.5608-2.1229,3.5273,.0326-.9317,.2321-3.2916,1.5406-3.6289l.1403-.0257Z" style="fill:#2B2E81;"></path><path d="M351.85938,358.35645c-.02539,0-.05078-.00391-.07617-.01172-.13184-.04199-.2041-.18262-.16211-.31445,.35352-1.10449,1.20605-2.02539,2.27832-2.46387,.12891-.05469,.27344,.00879,.32617,.13672,.05176,.12793-.00879,.27344-.13672,.32617-.9375,.38281-1.68262,1.18848-1.99121,2.15332-.03418,.10645-.13281,.17383-.23828,.17383Z" style="fill:#2B2E81;"></path><path d="M354.09668,359.2832c-.02539,0-.05078-.00391-.07617-.01172-.13184-.04199-.2041-.18262-.16211-.31445,.35254-1.10352,1.2041-2.02539,2.27734-2.46387,.12891-.05371,.27344,.00879,.32617,.13672,.05176,.12793-.00879,.27344-.13672,.32617-.93848,.38379-1.68262,1.18848-1.99023,2.15332-.03418,.10645-.13281,.17383-.23828,.17383Z" style="fill:#2B2E81;"></path><path d="M356.73242,359.86816c-.02539,0-.05078-.00391-.07617-.01172-.13184-.04199-.2041-.18262-.16211-.31445,.35352-1.10449,1.20508-2.02539,2.27832-2.46387,.12891-.05371,.27344,.00879,.32617,.13672,.05176,.12793-.00879,.27441-.13672,.32617-.93848,.38281-1.68262,1.1875-1.99121,2.15332-.03418,.10645-.13281,.17383-.23828,.17383Z" style="fill:#2B2E81;"></path></g><g><polygon points="428.163 334.4911 436.86 333.4481 435.99379 310.7696 423.88449 320.2323 428.163 334.4911" style="fill:#9f5b53;"></polygon><path d="M437.26449,329.4172l-3.0396,.67c-.6877,.1516-1.2472,.6397-1.5312,1.2842-1.2252,2.7801-2.7418,2.1656-5.1444,.3355-1.2431,.1259-1.2628,1.5887-1.27929,1.9843l-.45011,8.766c-.0453,.7336,.5128,1.3651,1.2465,1.4103,.13061,.0081,.2615-.0032,.3888-.0332,3.6909-.8136,5.4373-1.1986,10.0312-2.2113l14.0497-3.097c3.83-.8443,3.77291-4.8791,2.1166-4.8884-7.4399-.0039-12.92369-.9841-15.5714-2.5646-.4861-.2717-.12829-.6341-.8168-1.6558Z" style="fill:#263238;"></path><path d="M444.378,330.3134c.26909-.3006,.37939-.711,.29719-1.106-.0196-.2173-.1619-.4042-.36619-.4811-1.10131-.4647-4.50991,2.1491-4.89061,2.4515-.0436,.0274-.0727,.073-.07939,.1241-.01211,.0946,.05479,.1812,.14939,.1934,.9825,.0151,1.9641-.0722,2.9285-.2606,.7352-.0903,1.4223-.413,1.96111-.9213Zm-.24371-1.2468c.0881,.0309,.14771,.113,.1496,.2063,.0467,.2879-.0323,.582-.2174,.8074-.721,.8353-2.8659,1.0167-4.033,1.0555,1.42451-1.0423,3.494-2.3204,4.1008-2.0692Z" style="fill:#2B2E81;"></path><path d="M439.62619,331.5065c1.0361-.7277,3.0139-3.1301,2.6661-4.0939-.0657-.204-.2692-.4193-.8005-.3749-2.1361,.2212-2.2045,4.1586-2.1695,4.3174-.0065,.0687,.0284,.1345,.0889,.1676,.0414,.003,.08281-.0061,.1191-.0263l.0959,.0101Zm1.864-4.146c.3957-.0456,.4263,.0933,.4372,.1429,.2425,.5812-1.1503,2.5217-2.2463,3.45,.0655-.93,.3484-3.2813,1.668-3.5722l.1411-.0207Z" style="fill:#2B2E81;"></path><path d="M437.67676,333.7793c-.02832,0-.05664-.00488-.08496-.01465-.12988-.04688-.19727-.19043-.15039-.32031,.39258-1.0918,1.27637-1.98145,2.36426-2.38086,.12891-.04883,.27246,.01855,.32031,.14844,.04785,.12891-.01855,.27344-.14844,.32031-.9502,.34961-1.72266,1.12793-2.06543,2.08203-.03711,.10156-.13281,.16504-.23535,.16504Z" style="fill:#2B2E81;"></path><path d="M439.87891,334.78516c-.02832,0-.05664-.00488-.08496-.01465-.12988-.04688-.19727-.19043-.15039-.32031,.39258-1.09082,1.27637-1.98145,2.36426-2.38184,.13086-.04883,.27246,.01855,.32031,.14844,.04785,.12891-.01855,.27246-.14844,.32031-.9502,.35059-1.72266,1.12891-2.06543,2.08301-.03711,.10156-.13281,.16504-.23535,.16504Z" style="fill:#2B2E81;"></path><path d="M442.49316,335.46191c-.02832,0-.05664-.00488-.08496-.01465-.12988-.04688-.19727-.19043-.15039-.32031,.39258-1.08984,1.27539-1.98047,2.36426-2.38086,.12988-.0498,.27344,.01855,.32031,.14844,.04785,.12891-.01855,.27246-.14844,.32031-.9502,.35059-1.72266,1.12891-2.06543,2.08203-.03711,.10156-.13281,.16504-.23535,.16504Z" style="fill:#2B2E81;"></path></g><g><path d="M380.06519,252.4016l-23.48419-15.7701s-4.14411,30.5408-8.414,44.0807c-4.26981,13.5397-9.61031,70.5756-9.61031,70.5756h16.662s8.02631-45.782,11.7624-52.2881c3.7361-6.5061,13.2098-45.1913,13.6101-46.2464l-.526-.3517Z" style="fill:#263238;"></path><polygon points="355.82139 241.9199 378.17739 261.9914 380.33079 253.6712 356.42349 237.765 355.82139 241.9199" style="opacity:.2;"></polygon><path d="M381.89889,215.4937c.10811,.1578,45.3067,37.799,48.4734,46.3189,3.16671,8.5199,7.6608,66.6881,7.6608,66.6881l-13.4343,2.6053-11.7506-58.8321s-31.1203-17.7595-44.9853-24.5938c-12.47389-6.1484-18.6607-20.6162-18.3247-22.5628,.3302-1.9136,6.58281-11.6754,6.58281-11.6754l25.77789,2.0518Z" style="fill:#263238;"></path><polygon points="388.79119 227.5214 389.92809 206.5021 356.87039 203.4661 349.53819 225.1173 388.79119 227.5214" style="fill:#263238;"></polygon><polygon points="389.05849 222.5793 382.73039 215.4937 384.01869 205.9594 389.92809 206.5021 389.05849 222.5793" style="opacity:.2;"></polygon></g><g><path d="M324.55129,213.1714l-.30829,9.2686s-1.49781,1.621-2.27851,3.0123-1.6809,3.2068-1.0936,5.7922,1.82211,1.0603,1.82211,1.0603c.94259,2.5097,3.03889,1.5437,3.03889,1.5437,.7679,2.2129,3.0797,1.3867,3.0797,1.3867,0,0,2.7427-.5465,3.7152-1.3846,.9726-.8382,1.3291-5.4436,1.3291-5.4436l-1.80289-4.2792,2.18909-10.2823c-.1819-.0224-9.6908-.6741-9.6908-.6741Z" style="fill:#b97964;"></path><path d="M323.09809,218.7679l5.9538-36.4649c.2738-1.6769,1.0122-3.2428,2.1319-4.5208,5.3698-6.1292,21.5308-24.5998,21.7129-25.0965,.50731-1.3839,7.7687-6.4913,12.1399-1.6987,4.3712,4.7925-1.5895,16.7709-1.5895,16.7709l-21.856,18.7297-7.1677,34.676-11.3253-2.3957Z" style="fill:#2B2E81;"></path><path d="M371.12229,149.1661c-.0915-.897-.8087-1.568-1.65729-1.5563l-5.10711,.5335c-5.0321,.8129-5.0231-.3019-10.0354,3.0719-.7582,.5103-2.3028,6.6174-2.3453,7.4107-.0801,1.421,.3939,5.8636,1.0834,11.2373,.4707,3.727,1.0488,7.9193,1.6072,11.871,.7203,5.0378,.6509,12.5892,.8838,14.2037l-11.6763,33.1043,16.9095,4.2678c1.7411-7.9546,9.10221-42.2098,10.282-58.0495,1.0266-13.7806,.4039-22.6799,.0555-26.0944Z" style="fill:#2B2E81;"></path><path d="M370.75589,145.5761s4.1123,10.9472-.747,36.8212l-6.6641-19.7179,3.7237-4.7776-3.2704-8.8393s4.8025-2.3909,6.8548-3.7089l.103,.2225Z" style="fill:#2B2E81;"></path><g style="opacity:.2;"><path d="M370.75589,145.5761s4.1123,10.9472-.747,36.8212l-6.6641-19.7179,3.7237-4.7776-3.2704-8.8393s4.8025-2.3909,6.8548-3.7089l.103,.2225Z"></path></g><polygon points="353.862 175.9698 359.33479 170.442 354.54219 180.843 353.862 175.9698" style="opacity:.2;"></polygon></g></g></g><g id="freepik--Character_2--inject-107"><g><g><path d="M281.23369,214.2593l8.8259-3.0564s2.0649,.823,3.6548,1.0547c1.5901,.2317,3.622,.4226,5.8408-1.063,2.21881-1.4856,.339-2.096,.339-2.096,2.0195-1.7923,.3544-3.4146,.3544-3.4146,1.8033-1.521,.1918-3.3962,.1918-3.3962,0,0-1.5041-2.3814-2.6432-2.9932-1.13919-.6118-5.598,.7157-5.598,.7157l-3.3724,3.2401-10.4581,1.6541c.0447,.1791,2.865,9.3548,2.865,9.3548Z" style="fill:#e9b376;"></path><path d="M297.64941,208.61084c-.25,0-.4873-.1084-.65332-.30371-.4502-.52832-.9707-1.40381-1.02344-2.66357-.0791,.07178-.18164,.14453-.31641,.20752-.56641,.26855-1.73535,.38037-4.08691-.60742-.06348-.02686-.09277-.1001-.06641-.16357,.02832-.06396,.09863-.09375,.16406-.06689,2.24902,.94531,3.34375,.85693,3.86816,.61865,.35938-.16406,.43945-.39648,.44238-.40625,.01855-.05859,.0791-.09326,.14062-.08545,.06152,.01123,.10547,.06445,.10352,.12695-.04785,1.38818,.49805,2.33105,.96387,2.87793,.13965,.16406,.35449,.24414,.56152,.20801,.21582-.03369,.39551-.17529,.47949-.37842,.55762-1.35107,.8418-2.42871,.79785-3.03516-.08984-1.25391-3.01172-4.47217-3.04199-4.50488-.0459-.05078-.04199-.12988,.00879-.17627,.0498-.04688,.12891-.04346,.17676,.0083,.12207,.13428,3.00977,3.31543,3.10645,4.65527,.05859,.8252-.41211,2.16748-.81738,3.14844-.11719,.28418-.36816,.48193-.6709,.52979-.0459,.00732-.09082,.01074-.13672,.01074Z" style="fill:#263238;"></path></g><g><path d="M246.758,177.5117s3.20669,2.1563,5.99519,6.1372c2.7885,3.9808,5.8093,24.143,5.8093,24.143l26.1902-5.1445,2.2987,13.1798s-25.9328,7.7958-32.06739,8.1276c-6.13471,.3317-11.01451-10.2839-10.73561-10.9473,.2788-.6635,2.50961-35.4958,2.50961-35.4958Z" style="fill:#263238;"></path><path d="M284.89319,203.4525s2.0227-.5576,2.1582-.5136,1.6754,11.5716,1.7634,11.6156-1.96079,.484-1.96079,.484l-1.96081-11.586Z" style="fill:#2B2E81;"></path><path d="M284.89319,203.4525s2.0227-.5576,2.1582-.5136,1.6754,11.5716,1.7634,11.6156-1.96079,.484-1.96079,.484l-1.96081-11.586Z" style="fill:#fff; opacity:.8;"></path></g><g><polygon points="194.3954 398.607 203.03679 400.0395 208.55179 378.0247 196.158 384.1187 194.3954 398.607" style="fill:#263238;"></polygon><path d="M204.70349,394.9454l-3.01649,.767c-.68261,.1735-1.22621,.6792-1.48941,1.3325-1.13559,2.8179-2.6711,2.2522-5.1311,.5-1.2384,.1656-1.2113,1.6283-1.215,2.0242l-.1695,8.7759c-.0217,.7347,.5563,1.3481,1.2911,1.3698,.1307,.0038,.2612-.0116,.3875-.0457,3.663-.9314,5.3962-1.372,9.9553-2.5312l13.9434-3.5451c3.801-.9664,3.6148-4.9973,1.959-4.9536-7.4361,.2343-12.9485-.57-15.6454-2.0649-.4946-.256-.1485-.6297-.8694-1.6289Z" style="fill:#263238;"></path><path d="M211.842,395.6136c.25929-.3091,.35649-.7229,.26169-1.115-.0266-.2165-.1748-.3988-.3814-.4692-1.1156-.4292-4.4388,2.2924-4.8096,2.6068-.04269,.0288-.0704,.0753-.0754,.1266-.0091,.095,.0605,.1793,.1555,.1885,.9825-.0163,1.9608-.135,2.9187-.3542,.7319-.1138,1.4083-.4583,1.93051-.9835Zm-.28341-1.2385c.089,.0281,.1512,.1083,.1561,.2015,.0559,.2862-.01369,.5827-.1914,.8139-.6939,.8579-2.832,1.1079-3.99729,1.1841,1.39049-1.0874,3.41809-2.4311,4.03259-2.1995Z" style="fill:#2B2E81;"></path><path d="M207.13089,396.9581c1.0122-.7605,2.91211-3.225,2.5337-4.1771-.0722-.2018-.2825-.4105-.8121-.3491-2.128,.2894-2.0703,4.227-2.0303,4.3846-.0043,.0688,.03281,.1335,.0943,.1646,.04151,.0017,.08251-.0087,.1181-.03l.0963,.007Zm1.7303-4.2036c.394-.0582,.4291,.0797,.4416,.1289,.261,.5732-1.0691,2.5572-2.13479,3.5201,.03579-.9316,.24319-3.2907,1.55279-3.6237l.1404-.0253Z" style="fill:#2B2E81;"></path><path d="M205.24707,399.29199c-.02539,0-.05127-.00391-.07715-.01172-.13135-.04297-.20312-.18359-.16064-.31543,.35742-1.10352,1.2124-2.02148,2.28613-2.45508,.12598-.05469,.27295,.00879,.32568,.1377,.05176,.12793-.01025,.27344-.13818,.3252-.93848,.37988-1.68555,1.18164-1.99805,2.14648-.03418,.10547-.13232,.17285-.23779,.17285Z" style="fill:#2B2E81;"></path><path d="M207.48047,400.22656c-.02539,0-.05127-.00391-.07715-.01172-.13135-.04297-.20312-.18359-.16064-.31543,.35742-1.10352,1.2124-2.02148,2.28613-2.45508,.12695-.05273,.27344,.00879,.32568,.1377,.05176,.12793-.01025,.27344-.13818,.3252-.93848,.37988-1.68555,1.18164-1.99805,2.14648-.03418,.10547-.13232,.17285-.23779,.17285Z" style="fill:#2B2E81;"></path><path d="M210.11475,400.82031c-.02539,0-.05127-.00391-.07666-.01172-.13184-.04297-.20361-.18359-.16113-.31543,.35645-1.10254,1.21094-2.02051,2.28613-2.45605,.12695-.05371,.27344,.00879,.32568,.1377,.05176,.12793-.01025,.27344-.13818,.3252-.93945,.38086-1.68652,1.18359-1.99805,2.14746-.03418,.10547-.13232,.17285-.23779,.17285Z" style="fill:#2B2E81;"></path></g><g><g><g><g><path d="M233.57829,172.4566s1.9698-5.4448,.7443-15.8657c.0023-.0106,.5643-.1556,.5666-.1662-.1654-1.4563-.3743-2.8116-.58719-3.9917-.00381-.0338-.00151-.0444-.00151-.0444l12.1967,10.6696c-.8491,3.1256-.7319,9.4583-.4836,12.1656,0,0,.9337,4.9841-5.3495,4.148-4.59109-.611-7.0858-6.9152-7.0858-6.9152Z" style="fill:#e9b376;"></path><path d="M245.98569,167.5665l-7.53169-3.0683c.30459,2.5521,1.97749,5.7956,7.38409,6.9386,0,0-.089-2.8142,.1476-3.8703Z" style="opacity:.2;"></path></g><g><path d="M235.29609,145.7656c-.5197,8.7732-.9897,13.7108,2.8806,18.6738,5.8219,7.4655,16.8085,4.8489,19.9474-3.6172,2.8253-7.6203,3.2007-20.6872-4.9308-25.1055-8.0112-4.3532-17.3775,1.2756-17.8972,10.0489Z" style="fill:#e9b376;"></path><path d="M237.79079,133.3012c3.6963-4.9931,11.4798-1.3902,14.54221,1.4687,.45759,.4273-7.09951,3.1431-6.64851,3.0379l-2.2944,2.189c-.3235-.1141-.7649,2.9197-1.1336,5.5469-.3388,2.4128-1.3208,4.6812-2.85449,6.5743-1.28511,1.5861-3.02131,3.5001-5.00971,5.0931-2.8608-1.851-2.39729-7.1644-2.9746-10.4316-.86-4.8677-1.3869-14.0564,6.3731-13.4783Z" style="fill:#263238;"></path><path d="M230.97769,152.6085c.4246,2.3265,1.8898,4.2305,3.5135,5.2977,2.4423,1.6058,3.7554-1.1183,3.8414-3.8919,.0773-2.4963-.279-5.5919-3.0983-6.0839-2.7775-.4846-4.7419,2.0182-4.2566,4.6781Z" style="fill:#e9b376;"></path><path d="M247.45639,149.7894c-.1079,.8912,.2781,1.6663,.8622,1.7312,.584,.065,1.1452-.6049,1.2531-1.4962,.1079-.891-.2781-1.6661-.862-1.731-.5841-.065-1.1451,.6049-1.2533,1.496Z" style="fill:#263238;"></path><path d="M256.17559,151.022c-.1082,.8911,.2778,1.666,.8618,1.7311,.5841,.0649,1.1451-.6049,1.2532-1.4961,.108-.8912-.2779-1.6661-.862-1.7311-.5841-.0648-1.1452,.6049-1.253,1.4961Z" style="fill:#263238;"></path><path d="M253.39169,150.1835s2.2847,4.7695,2.9706,6.6821c-1.376,.9701-3.4502,.1948-3.4502,.1948l.4796-6.8769Z" style="fill:#d58745;"></path><path d="M245.78679,145.3253c.1279,.0712,.2901,.0738,.4257-.0081,1.612-.9703,3.0174-.322,3.03151-.3154,.20939,.0995,.462,.0114,.56359-.1968,.10141-.2082,.0128-.4581-.1953-.5577-.0737-.0356-1.8345-.8488-3.8345,.3559-.1997,.12-.2641,.3775-.1443,.5747,.0389,.0641,.092,.1133,.1533,.1474Z" style="fill:#263238;"></path><path d="M249.64795,159.9209c-.01416,0-.02832-.00098-.04248-.00244-1.7334-.1958-2.85254-1.30713-3.71826-2.36816-.13086-.16064-.10693-.39697,.05322-.52783,.16016-.13037,.39697-.10791,.52783,.05322,1.0918,1.33838,2.05518,1.96582,3.22119,2.09766,.20605,.02344,.354,.20898,.33057,.41455-.02148,.19141-.18408,.33301-.37207,.33301Z" style="fill:#263238;"></path></g><path d="M236.91895,153.78174h-.00195c-.13818-.00098-.24902-.11377-.24805-.25195,.00537-.71777-.17773-1.42773-.53076-2.05322-.22754-.40381-.62451-.93262-1.22461-1.15967-.52979-.2002-1.14746-.0791-1.46631,.28809-.09082,.10547-.24902,.11523-.35254,.02539-.10449-.09033-.11572-.24854-.02539-.35254,.45898-.52979,1.29004-.70557,2.021-.42871,.74072,.28027,1.21533,.90625,1.4834,1.38184,.39551,.70117,.60156,1.49756,.59521,2.30273-.00098,.13721-.11279,.24805-.25,.24805Z" style="opacity:.2;"></path></g><path d="M260.48749,147.7276c.0794-.0073,.1578-.0374,.225-.0915,.1814-.1461,.2124-.4111,.06851-.5917-1.44331-1.8131-3.36571-1.6231-3.45281-1.6258-.2305,.0241-.4004,.2306-.379,.4615,.0214,.2303,.2239,.3976,.453,.3761,.07981-.0111,1.5625-.1382,2.721,1.3169,.0905,.1139,.2292,.1672,.3643,.1545Z" style="fill:#263238;"></path></g><path d="M237.79079,133.3012s4.8907-6.988,14.3009-5.452c7.569,1.2354,11.8335,6.4119,12.3415,11.6137,.2184,2.2354-.1624,3.9362-.6677,5.1491-.3818,.9163-1.6639,.8724-2.0151-.0563-.0997-.2635-.2153-.5217-.3466-.7728-.0262,.061-.0542,.1209-.084,.1798-.47879,.947-1.945,.7133-2.0413-.3435-.0306-.3336-.0919-.6653-.1843-.9903l-.0128,.0244c-.4409,.8321-1.7015,.6772-1.9639-.2272-1.1583-3.9899-6.3076-6.6883-10.6421-4.5656l-3.0853,2.1363c-3.8395-1.8987-5.5993-6.6956-5.5993-6.6956Z" style="fill:#263238;"></path></g><path d="M255.92079,199.5c-.5577,.6635-3.0673,78.6214-5.7164,81.1094-2.649,2.4881-14.8729,1.8246-15.1745,1.327-.3015-.4976,4.16011-45.6137,4.0207-45.1161-.1395,.4976,10.7356-46.9406,10.7356-46.9406l6.1346,9.6203Z" style="fill:#263238;"></path><g><path d="M245.98569,174.4905l.389,2.9551,3.5611,4.1759s2.3893,21.949,2.3893,35.5694-5.4086,41.3435-8.08809,47.4292c-2.67961,6.0857-26.50221-2.8007-26.50221-2.8007l2.1924-79.1142,7.7949-9.4374,6.3335-7.0809,11.9301,8.3036Z" style="fill:#2B2E81;"></path><path d="M245.98569,174.4905l.389,2.9551,3.5611,4.1759s2.3893,21.949,2.3893,35.5694-5.4086,41.3435-8.08809,47.4292c-2.67961,6.0857-26.50221-2.8007-26.50221-2.8007l2.1924-79.1142,7.7949-9.4374,6.3335-7.0809,11.9301,8.3036Z" style="fill:#fff; opacity:.8;"></path></g><g><polygon points="278.576 376.3481 287.23 374.9935 285.55019 352.3607 275.69809 362.0395 278.576 376.3481" style="fill:#263238;"></polygon><path d="M287.48949,370.9507l-3.0136,.7787c-.6818,.1762-1.2235,.684-1.4841,1.3383-1.1246,2.8223-2.6623,2.2626-5.1291,.52-1.23769,.1704-1.2049,1.633-1.2071,2.0289l-.1352,8.7765c-.0189,.7348,.5614,1.3459,1.2964,1.3647,.1307,.0034,.26121-.0126,.3873-.0472,3.6594-.9456,5.3907-1.393,9.9454-2.5699l13.9294-3.5995c3.7972-.9812,3.5953-5.0114,1.9397-4.9612-7.4352,.2632-12.95059-.5195-15.6534-2.0039-.4956-.2541-.1509-.6291-.8757-1.6254Z" style="fill:#263238;"></path><path d="M294.63049,371.5909c.2582-.31,.3537-.7242,.2574-1.116-.0274-.2164-.1764-.3981-.3833-.4676-1.1172-.4249-4.4298,2.3096-4.7994,2.6255-.0426,.029-.07,.0756-.0749,.1269-.0086,.095,.0613,.1791,.1563,.1878,.98241-.0201,1.9602-.1426,2.9173-.3655,.7314-.1166,1.4065-.4638,1.9266-.9911Zm-.2882-1.2373c.0891,.0277,.1516,.1077,.1569,.2008,.057,.2861-.0114,.5828-.1883,.8148-.6905,.8605-2.8276,1.1188-3.9925,1.1996,1.3861-1.0928,3.4085-2.4444,4.0239-2.2152Z" style="fill:#2B2E81;"></path><path d="M289.92469,372.9538c1.00931-.7644,2.8995-3.2363,2.5174-4.187-.073-.2014-.28409-.4093-.8135-.3459-2.1268,.2978-2.0538,4.2351-2.0131,4.3925-.004,.0689,.0332,.1334,.0949,.1643,.0415,.0015,.0825-.0091,.118-.0305l.0963,.0066Zm1.7139-4.2102c.3938-.0598,.42941,.0779,.4421,.1271,.2632,.5721-1.0591,2.5613-2.121,3.5284,.0321-.9318,.23031-3.2917,1.5386-3.6298l.1403-.0257Z" style="fill:#2B2E81;"></path><path d="M288.04883,375.29492c-.02539,0-.05078-.00391-.07617-.01172-.13184-.04199-.2041-.18262-.16211-.31445,.35254-1.10352,1.2041-2.02539,2.27734-2.46484,.12988-.05469,.27344,.00879,.32617,.13672,.05176,.12793-.00879,.27344-.13672,.32617-.93848,.38379-1.68262,1.18945-1.99023,2.1543-.03418,.10645-.13281,.17383-.23828,.17383Z" style="fill:#2B2E81;"></path><path d="M290.28613,376.2207c-.02539,0-.05078-.00391-.07617-.01172-.13184-.04199-.2041-.18262-.16211-.31445,.35254-1.10352,1.2041-2.02539,2.27637-2.46484,.12988-.05469,.27344,.00977,.32617,.13672,.05176,.12793-.00879,.27344-.13672,.32617-.9375,.38379-1.68164,1.18945-1.98926,2.1543-.03418,.10645-.13281,.17383-.23828,.17383Z" style="fill:#2B2E81;"></path><path d="M292.92285,376.80469c-.02539,0-.05078-.00391-.07617-.01172-.13184-.04199-.2041-.18262-.16211-.31445,.35254-1.10449,1.20312-2.02637,2.27637-2.46582,.12891-.05371,.27344,.00879,.32617,.13672,.05176,.12793-.00879,.27344-.13672,.32617-.9375,.38379-1.68164,1.18945-1.98926,2.15527-.03418,.10645-.13281,.17383-.23828,.17383Z" style="fill:#2B2E81;"></path></g><g><path d="M237.33809,294.7589c-.4182,.9952-10.3173,37.4862-14.2212,43.6233-3.9038,6.1371-15.63589,54.2971-15.63589,54.2971l-17.3809,2.9978s8.8966-61.7734,13.3581-74.5452c4.4616-12.7718,8.79181-41.5804,8.79181-41.5804l24.53849,14.8757" style="fill:#263238;"></path><path d="M237.33809,294.7589c-.4182,.9952-10.3173,37.4862-14.2212,43.6233-3.9038,6.1371-15.63589,54.2971-15.63589,54.2971l-17.3809,2.9978s8.8966-61.7734,13.3581-74.5452c4.4616-12.7718,8.79181-41.5804,8.79181-41.5804l24.53849,14.8757" style="fill:#fff; opacity:.4;"></path><path d="M243.22869,262.2488c.1047,.1659,46.4192,25.2492,49.4865,34.2061,3.0673,8.9568-2.3965,69.3286-2.3965,69.3286l-16.60469,3.276,.17119-60.1084s-39.7019-14.6925-53.3654-21.1614c-13.6636-6.4688-10.927-20.5649-10.5087-22.5553s6.3762-12.2742,6.3762-12.2742l26.8414,9.2886Z" style="fill:#263238;"></path><path d="M243.22869,262.2488c.1047,.1659,46.4192,25.2492,49.4865,34.2061,3.0673,8.9568-2.3965,69.3286-2.3965,69.3286l-16.60469,3.276,.17119-60.1084s-39.7019-14.6925-53.3654-21.1614c-13.6636-6.4688-10.927-20.5649-10.5087-22.5553s6.3762-12.2742,6.3762-12.2742l26.8414,9.2886Z" style="fill:#fff; opacity:.4;"></path><g><path d="M245.17029,263.7078s3.0406-12.9285,2.9111-12.4223c-.1296,.5061-25.281-5.2476-25.281-5.2476l-7.5186,11.9505,29.8885,5.7194Z" style="fill:#263238;"></path><path d="M245.17029,263.7078s3.0406-12.9285,2.9111-12.4223c-.1296,.5061-25.281-5.2476-25.281-5.2476l-7.5186,11.9505,29.8885,5.7194Z" style="fill:#fff; opacity:.4;"></path></g><polygon points="217.73479 286.6927 234.85319 303.3439 237.33809 294.7589 217.73479 286.6927" style="opacity:.2;"></polygon><path d="M211.38379,279c-.1999-.4334,13.6486,4.2003,13.6486,4.2003,0,0,9.661-7.6118,12.3057-53.641l-26.6179,47.5943,.6636,1.8464Z" style="opacity:.2;"></path></g><polygon points="244.72449 176.8348 243.76489 179.264 244.996 182.098 247.80149 182.098 248.20639 179.4664 245.98569 176.8348 244.72449 176.8348" style="fill:#2B2E81;"></polygon><g><path d="M210.67059,200.6726c0,1.1591-1.7051,34.1958-1.7051,34.1958l-16.5989,45.3517,28.2655,6.591s13.1194-30.0329,15.8594-54.261c1.3323-11.7805,3.3943-36.2946,4.2431-46.5852,.2537-3.0753-.3845-6.1514-1.8368-8.874l-5.8166-10.904-3.8975,4.9265-15.3464,4.9266-3.1667,24.6326Z" style="fill:#263238;"></path><path d="M210.02379,212.3059l11.7463-13.1725c.3284,0-12.1595,21.3214-12.1595,21.3214l.4132-8.1489Z" style="opacity:.2;"></path><path d="M229.18369,171.1134l6.7681,11.7515,.96721,10.1251,1.535,1.766-2.73761,4.5916,2.0048,21.097,2.9567-34.0933c.2884-3.3251-.3943-6.6625-1.9651-9.6073l-5.6316-10.5571-3.8975,4.9265Z" style="opacity:.2;"></path><polygon points="209.51069 244.9289 222.42359 247.78 221.01439 253.5806 206.10819 250.0234 209.51069 244.9289" style="opacity:.2;"></polygon></g><g><path d="M178.7545,257.3917l-.3105,9.335s-1.5086,1.6326-2.2948,3.0338c-.7863,1.4013-1.6929,3.2298-1.1014,5.8336,.5914,2.6039,1.8351,1.0679,1.8351,1.0679,.9493,2.5278,3.0606,1.5549,3.0606,1.5549,.7735,2.2287,3.1018,1.3966,3.1018,1.3966,0,0,2.7623-.5505,3.7418-1.3946,.9795-.8442,1.3386-5.4825,1.3386-5.4825l-1.8158-4.3098,2.2048-10.3559c-.1832-.0226-9.7602-.679-9.7602-.679Z" style="fill:#e9b376;"></path><path d="M174.8624,263.5582l10.4745-49.2653s27.7696-38.5427,28.5004-38.2529c0,0,11.9682-4.2317,15.1028-.0017,4.9594,6.6927-4.7487,20.3939-4.7487,20.3939l-23.9953,26.8444-11.0905,42.1086-14.2432-1.827Z" style="fill:#263238;"></path><g><polygon points="176.0286 263.7078 175.6176 265.8859 187.8192 267.4502 188.1603 265.264 176.0286 263.7078" style="fill:#2B2E81;"></polygon><polygon points="176.0286 263.7078 175.6176 265.8859 187.8192 267.4502 188.1603 265.264 176.0286 263.7078" style="fill:#fff; opacity:.8;"></polygon></g></g><path d="M238.92959,252.9602c11.5361-21.5744,8.872-70.8622,8.872-70.8622h-2.80559s-5.00181,45.1685-8.82641,52.9884c-4.486,9.172-6.9859,11.4629-6.9859,11.4629l.6101,8.3235,9.1358-1.9126Z" style="fill:#2B2E81;"></path></g></g><g id="freepik--Character_1--inject-107"><g><g><path d="M71.7219,221.7141c-.8787-8.1864,5.0871-6.172,4.3071-16.6389-.8588-11.5242,10.0971-14.4096,10.0971-14.4096,0,0,3.7866-5.0619,9.0413-6.4798,6.73-1.8162,23.914,2.6164,19.9684,17.1823-2.3524,8.684-.9121,8.3293,.3918,11.9595,1.8456,5.1386-2.5948,12.1896,2.3014,15.3062,0,0-18.8017-.3858-38.905,.7766,0,0-6.6656-2.6977-7.2021-7.6963Z" style="fill:#263238;"></path><path d="M86.7479,229.0278s3.3539,1.6499,7.4893,5.2136c.8615,.7424,1.8101,1.3845,2.8144,1.9181,2.7098,1.4392,5.1802,2.2628,5.849,.9562,.1489-.2871,.2634-.5984,.348-.9247,.568-2.1877,.335-5.2635-1.4335-6.6709-1.9939-1.5872-2.9553-2.9451-2.5957-5.0935,.1885-1.2179,.6294-2.4752,1.1446-3.6965l-2.3026-1.3824-8.2065-8.2823c.9387,5.0782,1.2157,14.9605-3.107,17.9624Z" style="fill:#eec1bb;"></path><path d="M99.1525,224.8984c-2.257-1.3399-4.7334-3.6637-4.4365-6.3189,.1323-1.1181,.3734-2.1775,.6412-2.8565l4.5844,6.0695c-.3763,.9783-.5138,1.6251-.7891,3.1059Z" style="opacity:.2;"></path><path d="M88.135,201.728c.7723,8.432,.9213,12.0078,5.2725,16.4291,6.5449,6.6504,16.6142,4.4134,18.3477-3.9446,1.5603-7.5225,.0349-20.0477-8.243-23.5914-8.1554-3.4913-16.1495,2.6749-15.3772,11.1069Z" style="fill:#eec1bb;"></path><path d="M99.1866,204.473c.0415,.8922,.5246,1.6246,1.0793,1.6361,.5543,.0114,.9702-.7024,.9287-1.5944-.0414-.8921-.5246-1.6247-1.0791-1.6361-.5544-.0116-.9702,.7022-.9289,1.5944Z" style="fill:#263238;"></path><path d="M107.502,204.4478c.042,.8645,.5242,1.5747,1.077,1.5864,.5528,.0113,.9669-.6801,.925-1.5447-.0419-.8644-.5241-1.5747-1.0769-1.5861-.5529-.0117-.967,.6799-.9251,1.5444Z" style="fill:#263238;"></path><path d="M97.4272,201.3656c.1075,.0119,.2164-.0193,.2998-.0962,1.2989-1.2028,2.7617-.7805,2.7785-.7755,.2168,.0631,.4362-.0595,.4858-.2807,.0491-.2209-.0885-.453-.3082-.5196-.0764-.0224-1.9121-.5544-3.5239,.9388-.1606,.1489-.1639,.4124-.0074,.5884,.0758,.0845,.1748,.1337,.2754,.1448Z" style="fill:#263238;"></path><path d="M110.2987,200.2165c.0849-.0285,.1557-.0918,.1928-.1842,.0768-.191-.017-.4336-.2091-.5416-1.9272-1.0833-3.3559-.2598-3.4161-.2234-.1696,.1009-.2104,.3403-.0911,.5351,.1188,.1946,.3525,.2706,.5221,.1709,.0554-.0331,1.1741-.6531,2.7064,.2087,.0992,.0555,.2052,.0648,.295,.0345Z" style="fill:#263238;"></path><path d="M105.24,204.0367s1.3191,3.1563,2.8073,5.1238c.2601,.3439,.0992,.8458-.3054,.9947-1.0413,.3832-2.2598,.0365-2.2598,.0365l-.2421-6.155Z" style="fill:#d8847c;"></path><path d="M99.798,202.9153l1.9353-.4572s-1.0583,1.4432-1.9353,.4572Z" style="fill:#263238;"></path><path d="M108.2279,202.9232l1.9353-.4572s-1.0582,1.4432-1.9353,.4572Z" style="fill:#263238;"></path><path d="M91.1919,204.6408s4.3495-6.5473,4.1253-11.8491c0,0,8.3253-2.1706,14.9652,6.699,1.0576,1.4127,1.6885,3.7693,2.6354,5.8013,0,0,1.5892-16.0435-12.6473-17.3586-14.2138-1.3134-17.0075,18.6699-10.0729,25.3942,0,0-1.6991-4.59,.9943-8.6868Z" style="fill:#263238;"></path><path d="M85.7141,208.6001c.996,1.7293,2.6143,2.8153,4.0982,3.1875,2.232,.5596,3.3845-3.0288,2.6227-5.2649-.686-2.0131-2.8791-3.3454-5.0512-2.9065-2.1399,.4325-2.8085,3.0067-1.6697,4.9839Z" style="fill:#eec1bb;"></path><path d="M91.3335,208.40088c-.13037,0-.24023-.10107-.24902-.2334-.04883-.7373-.39551-1.43945-.95117-1.92676-.55566-.48779-1.28955-.74463-2.03467-.69336-.1333,.02002-.25635-.09521-.26514-.23389-.00879-.1377,.0957-.25635,.23389-.26514,.86523-.05273,1.74121,.24219,2.396,.81641,.65381,.57373,1.06201,1.40137,1.12012,2.26953,.00928,.1377-.09521,.25684-.23291,.26611l-.01709,.00049Z" style="opacity:.2;"></path><path d="M105.5143,212.5594c-.6854,1.0548-1.5092,3.0986-1.5092,3.0986-.1987-.0413-.3973-.0825-.5931-.134-2.6798-.6271-3.7159-1.8035-4.0516-2.9173-.1813-.6099-.1457-1.207-.0546-1.6791,.0997-.5473,.2954-.9148,.2954-.9148,1.222,1.1812,3.6752,1.9583,5.0029,2.3186,.5542,.1566,.9102,.228,.9102,.228Z" style="fill:#263238;"></path><path d="M104.9314,212.3444l-.4959,.9545c-2.6695-.6317-4.4642-1.4345-5.111-2.44,.1055-.5792,.3127-.9681,.3127-.9681,1.2931,1.25,3.8892,2.0724,5.2942,2.4536Z" style="fill:#fff;"></path><path d="M103.6698,215.5863c-2.8358-.6637-3.9323-1.7719-4.2875-2.9506,.9576,.2636,2.083,.6876,3.0028,1.3611,.7055,.5121,1.0782,.9985,1.2847,1.5895Z" style="fill:#de5753;"></path></g><g><polygon points="59.9212 438.3515 68.6432 437.5438 68.39 414.8502 57.9488 423.8903 59.9212 438.3515" style="fill:#2B2E81;"></polygon><path d="M69.1564,433.5253l-3.0565,.5877c-.6916,.1329-1.2641,.6057-1.5654,1.2423-1.2999,2.746-2.7993,2.0907-5.1516,.1964-1.246,.0923-1.3053,1.554-1.3324,1.949l-.6868,8.7506c-.0651,.7322,.4757,1.3786,1.208,1.4436,.1302,.0115,.2614,.0038,.3895-.0228,3.7116-.7136,5.4677-1.0512,10.0873-1.9394l14.1282-2.7164c3.8515-.7405,3.9033-4.7753,2.2479-4.8294-7.4371-.2048-12.8924-1.3329-15.4964-2.9843-.4786-.2847-.1111-.6373-.7718-1.6773Z" style="fill:#263238;"></path><path d="M76.2431,434.6134c.2771-.2932,.3985-.7005,.327-1.0976-.0138-.2177-.151-.4084-.3531-.4909-1.0883-.4942-4.5663,2.0266-4.955,2.3185-.0443,.0263-.0747,.0711-.0827,.122-.0147,.0942,.0498,.1826,.1441,.1973,.9817,.0417,1.9653-.0191,2.9345-.1813,.7373-.0705,1.4329-.3745,1.9852-.868Zm-.2099-1.253c.0872,.0333,.1446,.117,.144,.2103,.0389,.289-.0481,.5809-.2392,.8013-.7433,.8154-2.8923,.9388-4.0601,.9461,1.4522-1.0034,3.5555-2.2251,4.1553-1.9577Z" style="fill:#2B2E81;"></path><path d="M71.4608,435.6777c1.0554-.6995,3.0974-3.0476,2.7758-4.0204-.0602-.2057-.2579-.4264-.7902-.3964-2.1413,.1634-2.316,4.0975-2.2853,4.2572-.0084,.0685,.0248,.1352,.0844,.1699,.0412,.0041,.0829-.0039,.1197-.023l.0956,.0127Zm1.9753-4.0942c.3968-.0349,.4237,.1048,.4333,.1547,.2266,.5876-1.2181,2.4896-2.3388,3.3881,.0907-.928,.4369-3.2708,1.7639-3.5259l.1416-.0169Z" style="fill:#2B2E81;"></path><path d="M69.45752,437.89648c-.03027,0-.06104-.00586-.09082-.01758-.12891-.0498-.19238-.19434-.14209-.32324,.42139-1.0791,1.3291-1.94531,2.42725-2.31738,.13184-.04297,.27344,.02637,.31689,.15723,.04443,.13086-.02588,.27246-.15674,.31738-.95996,.32422-1.75342,1.08105-2.12158,2.02441-.03857,.09863-.13281,.15918-.23291,.15918Z" style="fill:#2B2E81;"></path><path d="M71.63184,438.96191c-.03027,0-.06104-.00586-.09082-.01758-.12891-.0498-.19238-.19434-.14209-.32324,.42139-1.08008,1.3291-1.94629,2.42725-2.31738,.13379-.04297,.27295,.02637,.31689,.15723,.04443,.13086-.02588,.27246-.15674,.31738-.95996,.32324-1.75342,1.08008-2.12158,2.02441-.03857,.09863-.13281,.15918-.23291,.15918Z" style="fill:#2B2E81;"></path><path d="M74.22656,439.70898c-.03027,0-.06104-.00586-.09082-.0166-.12842-.05078-.19238-.19531-.14209-.32422,.4209-1.0791,1.32812-1.94531,2.42676-2.31738,.13232-.04297,.27295,.02637,.31689,.15723,.04443,.13086-.02588,.27246-.15674,.31738-.96045,.32422-1.75342,1.08105-2.12109,2.02441-.03857,.09863-.13281,.15918-.23291,.15918Z" style="fill:#2B2E81;"></path></g><g><polygon points="146.2101 414.6093 154.8826 413.3784 153.5261 390.724 141.6242 400.4463 146.2101 414.6093" style="fill:#2B2E81;"></polygon><path d="M155.1997,409.3397l-3.0243,.7356c-.6843,.1664-1.2332,.6665-1.5031,1.317-1.1648,2.8059-2.6943,2.2244-5.136,.4467-1.24,.1527-1.2281,1.6156-1.236,2.0114l-.2605,8.7737c-.0294,.7345,.5422,1.3538,1.2768,1.3831,.1306,.0052,.2613-.0088,.3879-.0416,3.6725-.8933,5.4101-1.3159,9.9811-2.4277l13.9794-3.4002c3.8109-.9269,3.6665-4.9595,2.0104-4.933-7.4383,.157-12.9419-.7044-15.6232-2.2272-.4919-.2611-.142-.6312-.8525-1.6378Z" style="fill:#263238;"></path><path d="M162.3309,410.0819c.2626-.3064,.364-.7191,.2733-1.1122-.0243-.2168-.1706-.4006-.3765-.4731-1.1111-.4407-4.4624,2.2462-4.8365,2.5567-.043,.0284-.0711,.0746-.0767,.1258-.01,.0949,.0587,.18,.1536,.1901,.9826-.0061,1.9621-.1146,2.9222-.3238,.733-.1062,1.413-.4437,1.9406-.9635Zm-.2705-1.2413c.0887,.029,.1501,.1098,.154,.203,.0529,.2868-.0198,.5826-.1999,.812-.7027,.8506-2.8433,1.0784-4.0093,1.1424,1.4017-1.0728,3.4431-2.3954,4.0552-2.1574Z" style="fill:#2B2E81;"></path><path d="M157.6061,411.3774c1.0201-.7499,2.9455-3.1945,2.5769-4.1506-.0701-.2025-.2782-.4133-.8084-.3574-2.1308,.2673-2.1141,4.2053-2.0757,4.3632-.005,.0688,.0314,.1339,.0926,.1656,.0414,.0022,.0826-.0078,.1184-.0288l.0962,.008Zm1.7739-4.1853c.3946-.0542,.4282,.0841,.4402,.1334,.255,.5759-1.0956,2.546-2.1712,3.4978,.0454-.9312,.2773-3.2881,1.5903-3.6074l.1407-.0238Z" style="fill:#2B2E81;"></path><path d="M155.70068,413.69141c-.02637,0-.05322-.00391-.07959-.0127-.13086-.04395-.20117-.18555-.15723-.31641,.36865-1.09961,1.23291-2.00781,2.31152-2.43164,.12793-.05078,.27295,.0127,.32422,.14062,.05029,.12891-.01318,.27441-.1416,.32422-.94238,.37012-1.69775,1.16504-2.02051,2.125-.03467,.10449-.13232,.1709-.23682,.1709Z" style="fill:#2B2E81;"></path><path d="M157.9248,414.64941c-.02637,0-.05322-.00391-.07959-.0127-.13086-.04395-.20117-.18555-.15771-.31641,.36865-1.09961,1.23242-2.00879,2.31152-2.43262,.12695-.05078,.27344,.01367,.32422,.14062,.05029,.12891-.01318,.27441-.1416,.32422-.94287,.37109-1.69775,1.16504-2.02002,2.12598-.03467,.10449-.13232,.1709-.23682,.1709Z" style="fill:#2B2E81;"></path><path d="M160.55225,415.27051c-.02637,0-.05322-.00391-.07959-.0127-.13086-.04395-.20117-.18555-.15771-.31641,.36865-1.09961,1.23242-2.00879,2.31201-2.43262,.12793-.0498,.27344,.01367,.32422,.14062,.05029,.12891-.01318,.27441-.1416,.32422-.94336,.37109-1.69824,1.16504-2.02051,2.12598-.03467,.10449-.13232,.1709-.23682,.1709Z" style="fill:#2B2E81;"></path></g><g><path d="M42.5647,293.8999l-.2943,8.8471s-1.4297,1.5473-2.1749,2.8753c-.7452,1.3281-1.6044,3.061-1.0439,5.5288,.5606,2.4678,1.7393,1.0121,1.7393,1.0121,.8997,2.3956,2.9006,1.4735,2.9006,1.4735,.7331,2.1122,2.9397,1.3236,2.9397,1.3236,0,0,2.6179-.5217,3.5462-1.3216,.9284-.8001,1.2687-5.1961,1.2687-5.1961l-1.7209-4.0845,2.0896-9.8147c-.1737-.0214-9.2501-.6435-9.2501-.6435Z" style="fill:#eec1bb;"></path><path d="M40.9007,299.494l5.9538-36.4649c.2738-1.6769,1.0123-3.2429,2.1319-4.5209,5.3698-6.1292,21.4082-24.664,21.713-25.0965,1.5858-2.25,7.7686-6.4912,12.1398-1.6987,4.3712,4.7926-1.5895,16.7709-1.5895,16.7709l-21.8559,18.7298-7.1677,34.6759-11.3254-2.3956Z" style="fill:#2B2E81;"></path></g><g><path d="M97.8678,333.1277l-23.4841-15.7701s-4.1442,30.5408-8.414,44.0806c-4.2699,13.5398-9.6103,70.5757-9.6103,70.5757l14.2352-.4359s10.453-45.3461,14.1891-51.8523c3.7361-6.5061,13.2098-45.1913,13.6101-46.2463l-.526-.3517Z" style="fill:#263238;"></path><polygon points="73.6241 322.646 95.9801 342.7174 98.1335 334.3972 74.2262 318.491 73.6241 322.646" style="opacity:.2;"></polygon><path d="M99.7016,296.2198c.1081,.1578,45.3066,37.7989,48.4733,46.3189,3.1667,8.5199,7.526,65.4735,7.526,65.4735l-13.2995,3.8198-11.7505-58.832s-31.1203-17.7596-44.9854-24.5938c-12.4739-6.1485-18.2277-19.0812-17.8918-21.0278,.3302-1.9136,6.1499-13.2105,6.1499-13.2105l25.778,2.0519Z" style="fill:#263238;"></path><path d="M74.6731,284.1921l-5.8784,13.2637c-1.6204,3.6564-1.952,7.8563-.7066,11.6442l.7734,.3853,37.7323-1.2379,1.137-21.0192-33.0577-3.0361Z" style="fill:#263238;"></path><polygon points="106.8611 303.3054 100.533 296.2198 101.8214 286.6854 107.7308 287.2282 106.8611 303.3054" style="opacity:.2;"></polygon></g><g><g><path d="M133.9181,265.8988l5.3222-6.9247s2.0359-.4188,3.3969-1.0552c1.361-.6365,3.0462-1.5321,4.0155-3.8331,.9692-2.301-.8128-1.8114-.8128-1.8114,.6559-2.4381-1.4787-2.8491-1.4787-2.8491,.6266-2.1151-1.5961-2.7514-1.5961-2.7514,0,0-2.3991-1.0867-3.6034-.979-1.2043,.1079-4.0044,3.4371-4.0044,3.4371l-.9683,4.2644-7.318,6.6686c.1269,.1169,7.0471,5.8338,7.0471,5.8338Z" style="fill:#eec1bb;"></path><path d="M137.69629,255.29785c-.04053,0-.08057-.01953-.10449-.05664-.03809-.05762-.02197-.13477,.03564-.17285,2.05273-1.35059,2.58643-2.31348,2.67236-2.88379,.05762-.38184-.09131-.5752-.09277-.57715-.03955-.04785-.0376-.11914,.00537-.16504,.04297-.04492,.11426-.05176,.16455-.01562,1.12549,.81348,2.20947,.88672,2.92676,.80469,.21338-.02441,.39502-.15625,.48584-.35059,.0918-.19824,.07422-.42578-.04736-.6084-.80957-1.21631-1.54639-2.05225-2.0752-2.35498-1.09229-.62354-5.39307,.00781-5.43555,.01514-.07324,.00977-.13232-.03662-.14209-.10498-.01025-.06836,.03662-.13184,.10498-.14209,.18018-.02686,4.43115-.65088,5.59668,.01514,.72021,.41162,1.57178,1.55029,2.15918,2.43311,.17041,.25586,.19482,.57422,.06592,.85156-.12744,.27539-.3833,.45996-.68408,.49414-.68896,.08301-1.70654,.02246-2.78125-.63574,.01562,.10547,.01855,.23145-.00391,.37793-.09375,.62012-.65234,1.6543-2.78174,3.05566-.02148,.01367-.04492,.02051-.06885,.02051Z" style="fill:#263238;"></path></g><path d="M110.0699,232.2329c4.1047,2.6036,6.9787,6.7492,8.0056,11.5003,1.8419,8.522,1.948,18.5248,1.948,18.5248l11.2349-7.9864,6.9988,6.5015s-11.6814,14.0702-19.07,19.2442c-6.1357,4.2968-11.4285-5.931-11.4285-5.931l1.8511-42.1451,.4601,.2917Z" style="fill:#2B2E81;"></path><path d="M109.871,277.2372l2.5573-34.8576s6.1089,9.5152,5.4007,18.4736c-.7082,8.9584-5.4007,18.8712-5.4007,18.8712-.9346-.6695-1.7786-1.5151-2.5573-2.4872Z" style="opacity:.2;"></path><path d="M113.8786,247.3118c-2.1441-6.32-4.2688-15.3706-4.2688-15.3706-.4387-.0959-7.3661-2.9946-7.8166-3.0919-1.4009-.2735-.3342,3.3271-1.7272,3.0902-4.2291-.7113-7.1432-5.4469-11.6105-5.6136l-13.8673,4.2076s-5.7001,5.3415-4.5623,11.0102c3.497,17.4325,4.8391,33.812,4.6472,42.6484l33.0576,3.0361c1.3268-8.4018,3.7881-15.463,5.24-21.3294,1.9912-8.0453,2.5628-13.7088,.9079-18.587Z" style="fill:#2B2E81;"></path><path d="M104.4583,230.3512l-4.7886-4.0253-2.5776,3.0845-7.5655-5.8068-3.8393,3.6345,4.7324,7.673s6.9245,3.7662,7.309,3.8085c.3845,.0424,6.7296-8.3684,6.7296-8.3684Z" style="fill:#2B2E81;"></path><polygon points="72.4729 255.9799 77.9457 250.4522 73.1531 260.8532 72.4729 255.9799" style="opacity:.2;"></polygon><polygon points="85.4491 227.2381 93.1031 234.5698 96.9668 229.7218 100.5562 233.7542 103.4994 229.5234 100.5562 235.968 97.0272 230.8572 93.1031 236.9001 85.4491 227.2381" style="opacity:.2;"></polygon><path d="M98.15723,287.03027l-.49512-.07227c2.52539-17.11523,2.2124-37.0249-.88135-56.06055l.49316-.08008c3.10205,19.08496,3.41553,39.04883,.8833,56.21289Z" style="opacity:.2;"></path></g></g></g><g id="freepik--Sun--inject-107"><g id="freepik--freepik--Sun--inject-5--inject-107"><g><path d="M155.0779,78.6501c0,2.0763-3.0028,3.7255-3.5153,5.6375-.5124,1.912,1.2288,4.9082,.23,6.6363-.9987,1.728-4.4417,1.6951-5.8675,3.1144-1.4258,1.4192-1.3601,4.8556-3.1144,5.8675-1.7544,1.0118-4.6585-.7556-6.6363-.23-1.9777,.5257-3.5677,3.5153-5.6375,3.5153s-3.7255-3.0028-5.6375-3.5153-4.9016,1.2353-6.6363,.23c-1.7345-1.0053-1.6886-4.4417-3.1144-5.8675-1.4257-1.4258-4.8491-1.3535-5.8674-3.1144-1.0185-1.7609,.7555-4.6782,.2299-6.6494-.5257-1.9712-3.5153-3.5612-3.5153-5.6375s3.0028-3.719,3.5153-5.631c.5125-1.9121-1.2287-4.9082-.23-6.6362,.9987-1.7281,4.4417-1.6952,5.8675-3.1211,1.4258-1.4258,1.3601-4.849,3.1144-5.8675,1.7544-1.0183,4.6585,.7623,6.6362,.23,1.9778-.5322,3.5679-3.5086,5.6376-3.5086s3.7255,3.0027,5.6375,3.5086c1.912,.506,4.9016-1.2287,6.6362-.23,1.7347,.9988,1.6887,4.4417,3.1145,5.8675,1.4258,1.4259,4.8491,1.3602,5.8675,3.1211,1.0184,1.7609-.7556,4.6585-.23,6.6362,.5256,1.9777,3.5153,3.5744,3.5153,5.6441Z" style="fill:#2B2E81;"></path><path d="M155.0779,78.6501c0,2.0763-3.0028,3.7255-3.5153,5.6375-.5124,1.912,1.2288,4.9082,.23,6.6363-.9987,1.728-4.4417,1.6951-5.8675,3.1144-1.4258,1.4192-1.3601,4.8556-3.1144,5.8675-1.7544,1.0118-4.6585-.7556-6.6363-.23-1.9777,.5257-3.5677,3.5153-5.6375,3.5153s-3.7255-3.0028-5.6375-3.5153-4.9016,1.2353-6.6363,.23c-1.7345-1.0053-1.6886-4.4417-3.1144-5.8675-1.4257-1.4258-4.8491-1.3535-5.8674-3.1144-1.0185-1.7609,.7555-4.6782,.2299-6.6494-.5257-1.9712-3.5153-3.5612-3.5153-5.6375s3.0028-3.719,3.5153-5.631c.5125-1.9121-1.2287-4.9082-.23-6.6362,.9987-1.7281,4.4417-1.6952,5.8675-3.1211,1.4258-1.4258,1.3601-4.849,3.1144-5.8675,1.7544-1.0183,4.6585,.7623,6.6362,.23,1.9778-.5322,3.5679-3.5086,5.6376-3.5086s3.7255,3.0027,5.6375,3.5086c1.912,.506,4.9016-1.2287,6.6362-.23,1.7347,.9988,1.6887,4.4417,3.1145,5.8675,1.4258,1.4259,4.8491,1.3602,5.8675,3.1211,1.0184,1.7609-.7556,4.6585-.23,6.6362,.5256,1.9777,3.5153,3.5744,3.5153,5.6441Z" style="fill:#fff;"></path></g><path d="M123.8247,62.4454c8.9481-3.7064,19.2065,.5427,22.9129,9.4907,3.7065,8.9481-.5427,19.2066-9.4908,22.913-8.948,3.7064-19.2065-.5428-22.9129-9.4909-3.7064-8.948,.5428-19.2065,9.4908-22.9128Z" style="fill:#2B2E81;"></path></g></g></svg>
