<svg xmlns="http://www.w3.org/2000/svg" viewBox="0 0 500 500"><g id="freepik--Mountains--inject-293"><g id="freepik--mountains--inject-293"><polygon points="479.84 358.77 471.79 240.07 461.64 228.63 447.55 174.87 435.55 163.44 433.48 143.54 422.46 134.82 417.06 94.62 408.12 97.6 405.7 114.34 395.88 118.04 384.35 157.57 369.96 165.62 358.09 204.09 342.49 214.59 295.56 360.3 479.84 358.77" style="fill:#e0e0e0"></polygon><polygon points="475.66 297.16 452.61 280.2 442.47 243.46 429.79 241.34 421.32 210.69 411.85 212.81 404.04 228.63 389.27 231.48 376.94 193.47 365.67 194.48 357.34 170.23 350.51 177.7 345.23 192.37 333.6 196.6 324.8 215.88 307.18 219.13 271.5 360.3 479.84 358.77 475.66 297.16" style="fill:#f0f0f0"></polygon></g></g><g id="freepik--Floor--inject-293"><path id="freepik--floor--inject-293" d="M87.53,455.09c-89.74-51.8-89.74-135.8,0-187.6s235.21-51.81,324.94,0,89.74,135.8,0,187.6S177.26,506.9,87.53,455.09Z" style="fill:#fafafa"></path></g><g id="freepik--Shadows--inject-293"><polyline points="330.34 482.06 223.29 315.07 143.1 361.53 119.01 373.04 40.42 419.58 330.34 482.06" style="fill:#e0e0e0"></polyline><polyline points="457.77 457.73 382.53 340.34 326.16 373 309.23 381.09 253.98 413.81 457.77 457.73" style="fill:#e0e0e0"></polyline></g><g id="freepik--Clouds--inject-293"><path id="freepik--Cloud--inject-293" d="M104.55,95.51a9.72,9.72,0,0,0-3.28-.61c-1.06-.08-1.4-.3-1.6-.52a7.84,7.84,0,0,0-9.41-2.78,6,6,0,0,0-7.09-4c.12-3.31-4.1-6.86-7.89-7.66s-6.81-.45-8.88,1.94c-2.23-4.34-10.93-5.56-15.64-3.27-2.71,1.32-5,2.68-6.13,5.16a10.22,10.22,0,0,0-1,4.94c-1.84-1.62-5.52-2.06-8-1.11-2.64,1-2.84,3-3,5a9.37,9.37,0,0,0-4.82-.09c-1.66.5-2.62,1.8-2.4,2.86-1.31-.07-4.45,1-4.09,2.39.4,1.56,4,1.4,5.33,1.35a25,25,0,0,0,3.75-.59,5.64,5.64,0,0,0,1.95.37c2.28,0,3.25-1,3.61-1.84,1.12,2.34,5.08,4.13,7.89,4.85,5.28,1.35,12.75.53,16-3.42a5.94,5.94,0,0,0,1.57,1.92,9.2,9.2,0,0,0,4.88,2c2.17.2,8,.48,9.63-3,1.16,2.29,6.34,3.34,10.28,2.78a16,16,0,0,0,4.41-1.34,25.66,25.66,0,0,0,2.53-1.52,2.11,2.11,0,0,1,2.16-.14,13,13,0,0,0,8.6,0C106.15,98.28,106.61,96.44,104.55,95.51Z" style="fill:#f0f0f0"></path><path id="freepik--cloud--inject-293" d="M372,110.34a9.44,9.44,0,0,0-3.16-.58c-1-.08-1.35-.29-1.55-.51a7.55,7.55,0,0,0-9.06-2.68,5.8,5.8,0,0,0-6.84-3.86c.11-3.19-4-6.61-7.61-7.39s-6.56-.43-8.56,1.87c-2.14-4.18-10.54-5.36-15.08-3.14-2.61,1.27-4.83,2.57-5.91,5a9.88,9.88,0,0,0-1,4.76c-1.77-1.56-5.32-2-7.68-1.07-2.55,1-2.75,2.91-2.87,4.86a8.87,8.87,0,0,0-4.64-.08c-1.61.47-2.53,1.73-2.31,2.75-1.27-.07-4.3,1-3.95,2.3.39,1.51,3.84,1.35,5.14,1.31a24.49,24.49,0,0,0,3.61-.57,5.53,5.53,0,0,0,1.88.35c2.2,0,3.13-.95,3.49-1.77,1.07,2.26,4.89,4,7.6,4.67,5.09,1.31,12.29.51,15.42-3.29a5.77,5.77,0,0,0,1.52,1.85,8.75,8.75,0,0,0,4.71,1.9c2.09.2,7.69.47,9.27-2.86,1.12,2.21,6.12,3.22,9.91,2.68a15.48,15.48,0,0,0,4.26-1.28,27.17,27.17,0,0,0,2.44-1.47,2,2,0,0,1,2.08-.14,12.44,12.44,0,0,0,8.3,0C373.56,113,374,111.24,372,110.34Z" style="fill:#f5f5f5"></path><path id="freepik--cloud--inject-293" d="M152.12,228.8a14.2,14.2,0,0,0-4.8-.74c-1.54-.08-2-.37-2.35-.7a11.37,11.37,0,0,0-13.77-3.64c-1-3.67-5.57-6.75-10.46-5.53,0-4.81-6.25-9.79-11.79-10.81-5.31-1-9.9-.37-12.82,3.19-3.4-6.21-16.1-7.62-22.85-4.09-3.88,2-7.16,4.09-8.69,7.74a15,15,0,0,0-1.28,7.21c-2.73-2.27-8.09-2.75-11.61-1.28-3.8,1.6-4,4.5-4.11,7.45a13.42,13.42,0,0,0-7,.08c-2.4.78-3.74,2.72-3.36,4.25-1.92-.06-6.44,1.62-5.85,3.63.65,2.25,5.85,1.87,7.79,1.75a35.93,35.93,0,0,0,5.42-1,8.37,8.37,0,0,0,2.85.46c3.32-.12,4.68-1.58,5.18-2.83,1.71,3.36,7.55,5.8,11.65,6.72,7.72,1.75,18.54.24,23.1-5.62a8.51,8.51,0,0,0,2.36,2.71,13.32,13.32,0,0,0,7.18,2.68c3.15.2,11.62.36,13.85-4.71,1.79,3.28,9.35,4.58,15,3.61a23.73,23.73,0,0,0,6.35-2.12,39.46,39.46,0,0,0,3.62-2.31c1.11-.71,1.62-.72,3.13-.31,4,1.07,8.53,1.43,12.49-.37C154.56,232.77,155.15,230.07,152.12,228.8Z" style="fill:#ebebeb"></path><path id="freepik--cloud--inject-293" d="M359.42,283.88a11.41,11.41,0,0,0-3.84-.63c-1.25-.07-1.65-.31-1.89-.58a9.15,9.15,0,0,0-11.05-3,7,7,0,0,0-8.37-4.52c.06-3.87-5-7.92-9.4-8.78-4.27-.82-8-.37-10.34,2.48-2.69-5-12.89-6.25-18.34-3.46-3.14,1.6-5.79,3.23-7.05,6.16a12,12,0,0,0-1.08,5.79c-2.18-1.85-6.49-2.28-9.33-1.11-3.07,1.25-3.26,3.59-3.36,6a10.72,10.72,0,0,0-5.63,0c-1.94.61-3,2.16-2.74,3.39-1.54-.06-5.18,1.26-4.73,2.88.51,1.81,4.7,1.55,6.26,1.46a29.14,29.14,0,0,0,4.37-.77,7,7,0,0,0,2.28.39c2.67-.08,3.78-1.24,4.19-2.24,1.35,2.71,6,4.71,9.32,5.49,6.2,1.46,14.91.32,18.61-4.36a6.9,6.9,0,0,0,1.89,2.2,10.67,10.67,0,0,0,5.75,2.2c2.54.19,9.34.38,11.18-3.68,1.41,2.65,7.48,3.75,12.07,3a18.63,18.63,0,0,0,5.12-1.66,30.53,30.53,0,0,0,2.93-1.83,2.47,2.47,0,0,1,2.52-.22c3.18.89,6.85,1.21,10.05-.21C361.36,287.09,361.86,284.93,359.42,283.88Z" style="fill:#ebebeb"></path><path id="freepik--cloud--inject-293" d="M156.16,58.68a6.28,6.28,0,0,0-2.08-.39c-.67,0-.88-.18-1-.33a5,5,0,0,0-6-1.76,3.8,3.8,0,0,0-4.49-2.54c.08-2.09-2.6-4.34-5-4.85S133.31,48.53,132,50c-1.4-2.75-6.92-3.52-9.9-2.07-1.72.84-3.17,1.7-3.88,3.27a6.57,6.57,0,0,0-.65,3.12,5.53,5.53,0,0,0-5-.7c-1.67.65-1.8,1.91-1.88,3.2a5.83,5.83,0,0,0-3-.06c-1,.32-1.66,1.14-1.52,1.81-.83,0-2.82.63-2.59,1.51s2.52.89,3.37.86a16.23,16.23,0,0,0,2.38-.37,3.59,3.59,0,0,0,1.23.23c1.45,0,2.06-.63,2.29-1.17.71,1.49,3.22,2.62,5,3.08,3.34.85,8.07.33,10.13-2.17a3.84,3.84,0,0,0,1,1.22A5.78,5.78,0,0,0,132,63.05c1.37.13,5.06.3,6.1-1.88.73,1.45,4,2.11,6.51,1.76a10.38,10.38,0,0,0,2.79-.84,17.59,17.59,0,0,0,1.61-1,1.34,1.34,0,0,1,1.37-.09,8.09,8.09,0,0,0,5.45,0C157.18,60.44,157.47,59.27,156.16,58.68Z" style="fill:#f5f5f5"></path><path id="freepik--cloud--inject-293" d="M318,144.68a5.74,5.74,0,0,0-1.95-.36c-.63,0-.83-.18-.95-.31a4.65,4.65,0,0,0-5.59-1.65,3.57,3.57,0,0,0-4.21-2.38c.07-2-2.44-4.07-4.69-4.55s-4-.27-5.27,1.15c-1.32-2.58-6.49-3.3-9.29-1.94-1.61.78-3,1.59-3.64,3.06a6.19,6.19,0,0,0-.61,2.93,5.14,5.14,0,0,0-4.73-.65c-1.57.6-1.69,1.79-1.77,3a5.37,5.37,0,0,0-2.85-.05c-1,.29-1.56,1.07-1.43,1.7-.78-.05-2.65.59-2.43,1.41s2.37.84,3.16.81a15.34,15.34,0,0,0,2.23-.35,3.47,3.47,0,0,0,1.16.22c1.36,0,1.93-.59,2.15-1.1.66,1.4,3,2.46,4.68,2.88,3.13.81,7.57.32,9.5-2a3.29,3.29,0,0,0,.94,1.14,5.47,5.47,0,0,0,2.9,1.18c1.28.12,4.74.28,5.71-1.76.69,1.36,3.77,2,6.11,1.64a9.26,9.26,0,0,0,2.62-.79,14.52,14.52,0,0,0,1.5-.9,1.27,1.27,0,0,1,1.29-.09,7.63,7.63,0,0,0,5.1,0C319,146.33,319.23,145.23,318,144.68Z" style="fill:#f5f5f5"></path></g><g id="freepik--Symbols--inject-293"><g id="freepik--money-icon--inject-293"><path d="M63.77,178.87l-1.32-4.45c-3.83.41-8.7-.31-11.49-5.57l-.34-.64,8.3-5,.36.76a3.76,3.76,0,0,0,4.76,2,3.43,3.43,0,0,0,1.78-1,1.54,1.54,0,0,0,.21-1.49c-.47-1.6-2.15-1.59-5.32-1.42-.71,0-1.46.07-2.24.09-4.48,0-9.3-.77-11.15-7-1.48-5,.48-9.33,5.4-11.85l-1.32-4.46,7.39-2.18L60.11,141c4.77-.44,8.52,1.28,10.85,5l.41.65-8,4.9-.38-.73c-1-2-3-1.84-4.48-1.4-1.74.52-2.45,1.34-2.12,2.46.45,1.52,1.83,1.53,6.12,1.35s10.88-.34,13,6.79c1.5,5.1-.59,9.5-5.76,12.18l1.32,4.47Zm-.23-6.15L64.8,177l4.4-1.31L68,171.43l.59-.28c2.84-1.34,7.34-4.51,5.53-10.65s-7.15-5.84-11.46-5.71-6.84.3-7.65-2.44c-.22-.74-.63-3.23,3.16-4.35,2.51-.75,4.59-.21,5.83,1.46l5.28-3.25c-2.13-2.93-5.35-4.13-9.57-3.58l-.65.08-1.25-4.24-4.46,1.32L54.55,144l-.6.27c-3.29,1.52-6.86,4.55-5.16,10.32,1.47,5,4.92,5.94,9.66,5.9.75,0,1.48-.05,2.18-.09,3.1-.17,6-.32,6.87,2.51a3.12,3.12,0,0,1-.46,2.86,4.92,4.92,0,0,1-2.57,1.57,5.26,5.26,0,0,1-6.14-2l-5.66,3.43c2.6,4.19,6.95,4.53,10.22,4.06Z" style="fill:#f0f0f0"></path></g><g id="freepik--money-icon--inject-293"><path d="M442.21,356.31,440.49,352c-3.79.77-8.72.49-12-4.5l-.39-.61,7.82-5.78.44.72a3.77,3.77,0,0,0,4.93,1.54,3.51,3.51,0,0,0,1.68-1.2,1.57,1.57,0,0,0,.07-1.51c-.62-1.56-2.29-1.39-5.44-.93-.71.1-1.46.21-2.23.3-4.47.44-9.36.09-11.77-6-1.95-4.9-.38-9.36,4.3-12.33l-1.73-4.33,7.18-2.86,1.73,4.34c4.73-.87,8.63.5,11.3,4l.47.62-7.51,5.62-.44-.7c-1.2-1.85-3.16-1.55-4.6-1-1.69.67-2.33,1.56-1.9,2.64.59,1.48,2,1.37,6.24.79s10.83-1.33,13.59,5.6c2,4.95.28,9.54-4.63,12.69l1.73,4.34Zm-.79-6.12,1.65,4.13,4.28-1.7-1.64-4.13.56-.33c2.72-1.6,6.92-5.18,4.55-11.14s-7.68-5.18-12-4.65-6.81.92-7.86-1.74c-.29-.72-.93-3.17,2.75-4.64,2.44-1,4.57-.62,6,.93l5-3.73c-2.4-2.72-5.73-3.63-9.9-2.7l-.63.15-1.64-4.13-4.34,1.73,1.65,4.13-.58.33c-3.15,1.82-6.44,5.17-4.21,10.77,1.92,4.82,5.46,5.48,10.19,5,.75-.08,1.48-.19,2.17-.29,3.08-.45,6-.87,7.09,1.88a3.11,3.11,0,0,1-.2,2.9,4.91,4.91,0,0,1-2.42,1.8,5.3,5.3,0,0,1-6.32-1.48l-5.34,3.94c3,3.95,7.36,3.89,10.58,3.12Z" style="fill:#e0e0e0"></path></g><g id="freepik--money-icon--inject-293"><path d="M100.13,300.35l-.86,3-4-1.16.85-3c-2.63-1.18-4.93-3.36-4.63-7.05l5.52.13a3.07,3.07,0,0,0,2.37,3.43c1.31.38,2.36.1,2.7-1.07.55-1.89-1.7-2.66-4.06-4.11-2.51-1.58-4.71-3.61-3.58-7.49,1-3.49,3.73-4.86,7.29-4.37l.86-3,4,1.16-.86,3c3,1.4,4.5,3.66,4.47,6.54l-5.26-.09c.13-1.36-.63-2.46-2.41-3s-2.5.09-2.76,1c-.42,1.46.73,2.14,3.24,3.6s6,3.62,4.7,8C106.71,299.48,103.74,300.82,100.13,300.35Z" style="fill:#e0e0e0"></path></g><g id="freepik--money-icon--inject-293"><path d="M263.76,200l1.19,3.25-4.37,1.61-1.2-3.24c-3.17.68-6.71.25-8.9-3.29l5.08-3.56a3.45,3.45,0,0,0,4.42,1.52c1.45-.54,2.21-1.49,1.74-2.77-.77-2.08-3.31-1.27-6.42-1-3.33.25-6.66-.12-8.23-4.38-1.42-3.83.12-6.89,3.67-8.82l-1.2-3.24,4.42-1.63,1.2,3.24c3.64-.72,6.51.3,8.41,2.93L258.75,184c-.79-1.31-2.22-1.8-4.18-1.08s-2.19,1.74-1.83,2.72c.59,1.6,2.09,1.45,5.33,1.09,3.43-.33,7.82-.71,9.61,4.14C269.13,194.79,267.33,198,263.76,200Z" style="fill:#f0f0f0"></path></g></g><g id="freepik--Coin--inject-293"><g id="freepik--coin--inject-293"><g id="freepik--Lines--inject-293" style="opacity:0.2"><path d="M416.12,45.25a.37.37,0,0,1-.37-.38v-13a.37.37,0,0,1,.37-.37.38.38,0,0,1,.37.37v13A.38.38,0,0,1,416.12,45.25Z" style="fill:#2B2E81"></path><path d="M409.36,102.32A.36.36,0,0,1,409,102V89a.37.37,0,0,1,.37-.37.38.38,0,0,1,.37.37v13A.37.37,0,0,1,409.36,102.32Z" style="fill:#2B2E81"></path><path d="M423.63,52.27a.41.41,0,0,1-.18-.05.38.38,0,0,1-.14-.51l4.86-8.42a.37.37,0,0,1,.65.37L424,52.08A.36.36,0,0,1,423.63,52.27Z" style="fill:#2B2E81"></path><path d="M397,90.76a.41.41,0,0,1-.18-.05.38.38,0,0,1-.14-.51l4.86-8.43a.39.39,0,0,1,.51-.13.37.37,0,0,1,.14.51l-4.86,8.42A.39.39,0,0,1,397,90.76Z" style="fill:#2B2E81"></path><path d="M429.13,62.77a.37.37,0,0,1-.07-.73l8.43-1.62a.36.36,0,0,1,.43.29.38.38,0,0,1-.29.44l-8.43,1.62Z" style="fill:#2B2E81"></path><path d="M387.92,73.45a.37.37,0,0,1-.36-.31.36.36,0,0,1,.29-.43l8.43-1.62a.36.36,0,0,1,.43.29.38.38,0,0,1-.29.44L388,73.44Z" style="fill:#2B2E81"></path><path d="M440.87,79.57a.37.37,0,0,1-.18,0L431,73.9a.37.37,0,0,1-.14-.5.38.38,0,0,1,.51-.14l9.73,5.62a.35.35,0,0,1,.13.5A.37.37,0,0,1,440.87,79.57Z" style="fill:#2B2E81"></path><path d="M394.34,60.65a.41.41,0,0,1-.19,0L384.42,55a.37.37,0,0,1,.37-.64L394.52,60a.37.37,0,0,1,.14.51A.38.38,0,0,1,394.34,60.65Z" style="fill:#2B2E81"></path><path d="M435.72,95.16a.36.36,0,0,1-.3-.15L427,83.66a.37.37,0,1,1,.59-.44L436,94.57a.38.38,0,0,1-.08.52A.44.44,0,0,1,435.72,95.16Z" style="fill:#2B2E81"></path><path d="M399.08,49.48a.37.37,0,0,1-.3-.15L390.36,38a.37.37,0,1,1,.59-.44l8.43,11.34a.38.38,0,0,1-.3.6Z" style="fill:#2B2E81"></path><path d="M424.47,102.73a.35.35,0,0,1-.35-.25l-4.87-14a.37.37,0,0,1,.71-.24l4.86,14a.37.37,0,0,1-.23.47A.25.25,0,0,1,424.47,102.73Z" style="fill:#2B2E81"></path><path d="M406.77,44.59a.36.36,0,0,1-.35-.25l-4.87-14a.37.37,0,0,1,.71-.24l4.86,14a.36.36,0,0,1-.23.47A.25.25,0,0,1,406.77,44.59Z" style="fill:#2B2E81"></path></g><g id="freepik--coin--inject-293"><path d="M403,51.39l-1-2,4.17-2.4h0a6.45,6.45,0,0,1,1.58-.66l.58-.13a7.87,7.87,0,0,1,2.93.08c.35.08.7.17,1.06.29a8.81,8.81,0,0,1,1.1.42,13.33,13.33,0,0,1,1.4.72c.49.29,1,.61,1.46,1s.72.54,1.07.84c5.18,4.37,9.25,12.16,10.29,19.65.07.51.12,1,.16,1.52a19.43,19.43,0,0,1,.09,2.15c0,.58,0,1.15-.07,1.69s-.09.93-.15,1.37-.15.86-.25,1.26h0a12.47,12.47,0,0,1-1.21,3.22c-.11.2-.23.39-.35.57A7.75,7.75,0,0,1,424,83a8,8,0,0,1-.68.45h0l-3.94,2.27-.87-1.82c-.23,0-.47-.11-.7-.18a12.83,12.83,0,0,1-2.75-1.22,17.27,17.27,0,0,1-1.61-1.07,20.41,20.41,0,0,1-2-1.69,33.44,33.44,0,0,1-9-17.13,25.92,25.92,0,0,1-.41-2.88c-.07-.79-.11-1.58-.11-2.36a20.5,20.5,0,0,1,.28-3.34A14.61,14.61,0,0,1,403,51.39Z" style="fill:#2B2E81"></path><path d="M426.68,64.74l-8.45,4.88-1.12-3.21,8.47-4.89A33,33,0,0,1,426.68,64.74Z" style="fill:#fff;opacity:0.25"></path><path d="M406.17,47h0a6.45,6.45,0,0,1,1.58-.66l.58-.13a7.87,7.87,0,0,1,2.93.08l.39.1-8.7,5v0l-1-2Z" style="fill:#fff;opacity:0.25"></path><path d="M407.08,59.35,406,58l12.69-7.3c.4.4.8.82,1.18,1.25Z" style="fill:#fff;opacity:0.25"></path><path d="M422.53,55.55l-11,6.35-1.21-3.16,10.23-5.91A31,31,0,0,1,422.53,55.55Z" style="fill:#fff;opacity:0.25"></path><path d="M406.17,47h0a6.45,6.45,0,0,1,1.58-.66l.58-.13a7.87,7.87,0,0,1,2.93.08c.35.08.7.17,1.06.29a8.81,8.81,0,0,1,1.1.42,13.33,13.33,0,0,1,1.4.72c.49.29,1,.61,1.46,1s.72.54,1.07.84c4.83,4.07,8.69,11.11,10,18.1l-17.65,10.2a34.51,34.51,0,0,1-7.21-15.26,25.92,25.92,0,0,1-.41-2.88c-.07-.79-.11-1.58-.11-2.36a20.5,20.5,0,0,1,.28-3.34,14.61,14.61,0,0,1,.68-2.59l-1-2Z" style="fill:#fff;opacity:0.4"></path><path d="M419.39,85.67l-.87-1.82c-.23,0-.47-.11-.7-.18a12.83,12.83,0,0,1-2.75-1.22,17.27,17.27,0,0,1-1.61-1.07,20.41,20.41,0,0,1-2-1.69c-.6-.58-1.18-1.21-1.75-1.87l17.65-10.2c.1.52.19,1,.26,1.55s.12,1,.16,1.52a19.43,19.43,0,0,1,.09,2.15c0,.58,0,1.15-.07,1.69s-.09.93-.15,1.37-.15.86-.25,1.26h0a12.47,12.47,0,0,1-1.21,3.22c-.11.2-.23.39-.35.57A7.75,7.75,0,0,1,424,83a8,8,0,0,1-.68.45h0Z" style="opacity:0.1"></path><path d="M426.21,80.38c-.11.2-.23.39-.35.57A7.75,7.75,0,0,1,424,83a8,8,0,0,1-.68.45h0l-3.94,2.27-.87-1.82h0l-.06-.74L427.19,78A11.68,11.68,0,0,1,426.21,80.38Z" style="opacity:0.1"></path><path d="M397.54,59.9c0,.77,0,1.56.11,2.36a26.09,26.09,0,0,0,.41,2.87,33.48,33.48,0,0,0,9,17.14A20.19,20.19,0,0,0,409,84,16.28,16.28,0,0,0,410.62,85a12.7,12.7,0,0,0,2.74,1.21,8.43,8.43,0,0,0,2.91.38,6.55,6.55,0,0,0,3.65-1.31,7.86,7.86,0,0,0,1.85-2c.12-.19.24-.38.35-.58a12.77,12.77,0,0,0,1.21-3.21h0c.09-.41.18-.83.24-1.27s.12-.9.16-1.37.07-1.1.07-1.68,0-1.43-.09-2.16c0-.5-.09-1-.17-1.52-1-7.49-5.1-15.28-10.28-19.64-.35-.3-.71-.58-1.07-.85s-1-.67-1.46-1a13.45,13.45,0,0,0-1.41-.72c-.37-.16-.73-.3-1.09-.42a8.76,8.76,0,0,0-1.06-.28,7.67,7.67,0,0,0-2.93-.08,5.6,5.6,0,0,0-.59.12,6.65,6.65,0,0,0-2.29,1.14,8.48,8.48,0,0,0-2.56,3.39,13.48,13.48,0,0,0-1,3.32A20.53,20.53,0,0,0,397.54,59.9Z" style="fill:#2B2E81"></path><path d="M397.54,59.9c0,.77,0,1.56.11,2.36a26.09,26.09,0,0,0,.41,2.87,33.48,33.48,0,0,0,9,17.14A20.19,20.19,0,0,0,409,84,16.28,16.28,0,0,0,410.62,85a12.7,12.7,0,0,0,2.74,1.21,8.43,8.43,0,0,0,2.91.38,6.55,6.55,0,0,0,3.65-1.31,7.86,7.86,0,0,0,1.85-2c.12-.19.24-.38.35-.58a12.77,12.77,0,0,0,1.21-3.21h0c.09-.41.18-.83.24-1.27s.12-.9.16-1.37.07-1.1.07-1.68,0-1.43-.09-2.16c0-.5-.09-1-.17-1.52-1-7.49-5.1-15.28-10.28-19.64-.35-.3-.71-.58-1.07-.85s-1-.67-1.46-1a13.45,13.45,0,0,0-1.41-.72c-.37-.16-.73-.3-1.09-.42a8.76,8.76,0,0,0-1.06-.28,7.67,7.67,0,0,0-2.93-.08,5.6,5.6,0,0,0-.59.12,6.65,6.65,0,0,0-2.29,1.14,8.48,8.48,0,0,0-2.56,3.39,13.48,13.48,0,0,0-1,3.32A20.53,20.53,0,0,0,397.54,59.9Z" style="fill:#fff;opacity:0.1"></path><path d="M423.29,70c.1.52.18,1,.25,1.55s.13,1,.17,1.52q.09,1.1.09,2.16c0,.58,0,1.14-.07,1.68s-.09.93-.16,1.37-.15.86-.24,1.27h0a12.77,12.77,0,0,1-1.21,3.21c-.11.2-.23.39-.35.58a7.86,7.86,0,0,1-1.85,2,6.55,6.55,0,0,1-3.65,1.31,8.43,8.43,0,0,1-2.91-.38A12.7,12.7,0,0,1,410.62,85c-.49-.29-1-.61-1.44-1Z" style="opacity:0.05"></path><path d="M423.08,80.43a11.52,11.52,0,0,1-1,2.31c-.11.2-.23.39-.35.58a7.86,7.86,0,0,1-1.85,2A6.57,6.57,0,0,1,417,86.55Z" style="opacity:0.05"></path><path d="M421.49,63.88c.42,1.06.79,2.14,1.1,3.22L407.23,82.46l-.2-.19a26.51,26.51,0,0,1-1.89-2Z" style="fill:#fff;opacity:0.15"></path><path d="M416.47,55.19a29.17,29.17,0,0,1,2,2.73l-16.9,16.91c-.55-1-1-2.1-1.5-3.19Z" style="fill:#fff;opacity:0.15"></path><path d="M414.55,53.07c.41.4.81.82,1.19,1.26L399.58,70.5q-.34-.91-.63-1.83Z" style="fill:#fff;opacity:0.15"></path><path d="M397.58,58.73h0c0-.31,0-.62.07-.92l0-.3c0-.1,0-.2,0-.3s.06-.45.1-.66a13.48,13.48,0,0,1,1-3.32,8.48,8.48,0,0,1,2.56-3.39,6.65,6.65,0,0,1,2.29-1.14,5.6,5.6,0,0,1,.59-.12,7.67,7.67,0,0,1,2.93.08l.39.09Z" style="fill:#fff;opacity:0.15"></path><path d="M400.89,61.91c0,6.91,4,14.88,9.13,18.28l.65.41c5.41,3.12,9.78-.19,9.78-7.4s-4.37-15.57-9.78-18.69c-.22-.13-.44-.24-.65-.35C404.92,51.67,400.89,55,400.89,61.91Z" style="fill:#2B2E81"></path><path d="M400.89,61.91c0,6.91,4,14.88,9.13,18.28l.65.41c5.41,3.12,9.78-.19,9.78-7.4s-4.37-15.57-9.78-18.69c-.22-.13-.44-.24-.65-.35C404.92,51.67,400.89,55,400.89,61.91Z" style="opacity:0.4"></path><path d="M401.32,62.16c0,.22,0,.44,0,.67.25,6.44,4,13.66,8.71,16.8l.12.08.5.31a8.31,8.31,0,0,0,2.94,1.07,5,5,0,0,0,5.16-2.63A10.13,10.13,0,0,0,420,74c0-.34,0-.69,0-1s0-.66,0-1a19.38,19.38,0,0,0-.24-2.12,23.67,23.67,0,0,0-6.85-13.1,13.52,13.52,0,0,0-1.49-1.18c-.24-.16-.49-.32-.74-.46l-.62-.33-.18-.09a6.26,6.26,0,0,0-3.86-.61c-2,.38-3.49,1.95-4.21,4.45A13,13,0,0,0,401.32,62.16Z" style="fill:#2B2E81"></path><path d="M401.32,62.16c0,.22,0,.44,0,.67.25,6.44,4,13.66,8.71,16.8l.12.08.5.31a8.31,8.31,0,0,0,2.94,1.07,5,5,0,0,0,5.16-2.63A10.13,10.13,0,0,0,420,74c0-.34,0-.69,0-1s0-.66,0-1a19.38,19.38,0,0,0-.24-2.12,23.67,23.67,0,0,0-6.85-13.1,13.52,13.52,0,0,0-1.49-1.18c-.24-.16-.49-.32-.74-.46l-.62-.33-.18-.09a6.26,6.26,0,0,0-3.86-.61c-2,.38-3.49,1.95-4.21,4.45A13,13,0,0,0,401.32,62.16Z" style="opacity:0.5"></path><path d="M402.89,61.93c0-.23,0-.45,0-.67a13,13,0,0,1,.47-3.65,6.9,6.9,0,0,1,2-3.38,4.42,4.42,0,0,1,.65-.17,6.26,6.26,0,0,1,3.86.61l.18.09.62.33c.25.14.5.3.74.46a13.52,13.52,0,0,1,1.49,1.18,23.67,23.67,0,0,1,6.85,13.1A19.38,19.38,0,0,1,420,72c0,.34,0,.67,0,1s0,.71,0,1a10.13,10.13,0,0,1-1.21,4.46A5.76,5.76,0,0,1,417.54,80a5.06,5.06,0,0,1-2.38.21,8.09,8.09,0,0,1-2.94-1.06l-.5-.31-.12-.09C406.89,75.59,403.14,68.37,402.89,61.93Z" style="fill:#2B2E81"></path><path d="M402.89,61.93c0-.23,0-.45,0-.67a13,13,0,0,1,.47-3.65,6.9,6.9,0,0,1,2-3.38,4.42,4.42,0,0,1,.65-.17,6.26,6.26,0,0,1,3.86.61l.18.09.62.33c.25.14.5.3.74.46a13.52,13.52,0,0,1,1.49,1.18,23.67,23.67,0,0,1,6.85,13.1A19.38,19.38,0,0,1,420,72c0,.34,0,.67,0,1s0,.71,0,1a10.13,10.13,0,0,1-1.21,4.46A5.76,5.76,0,0,1,417.54,80a5.06,5.06,0,0,1-2.38.21,8.09,8.09,0,0,1-2.94-1.06l-.5-.31-.12-.09C406.89,75.59,403.14,68.37,402.89,61.93Z" style="opacity:0.25"></path><path d="M404.24,48.58c5.65-.64,10.24,4,13.31,8.24,4.43,6.53,7.24,14.8,5.7,22.71v0a9.91,9.91,0,0,1-3.34,5.8,9.84,9.84,0,0,0,3.48-5.78h0c1.41-6.47-.36-13.27-3.32-19.06C416.91,54.75,411.53,47.8,404.24,48.58Z" style="fill:#f5f5f5"></path><path d="M417.66,73a8.1,8.1,0,0,0-2.94-5.72l.74.19,2.14-1.24a9.35,9.35,0,0,0-.39-1.36,9.07,9.07,0,0,0-1.11-2.12,11,11,0,0,0-2.74-2.72l-.08-2.22-2.64-1.53-2.14,1.24,0,.56v.12a2.66,2.66,0,0,0-.52.24l-.16.11c-.25.18-1.48.83-2,1.12l-.16.11a2.75,2.75,0,0,0-.82,2.45h0A6.92,6.92,0,0,0,406,65.69c.05.09.11.17.16.25l0,0,.18.26.16.21.07.09.13.17A15.9,15.9,0,0,0,407.86,68l.56.51-1-.25-2.14,1.24a10.22,10.22,0,0,0,4,5.78l.08,2.21,2.67,1.48,2.14-1.24,0-.69a1.5,1.5,0,0,0,.43-.18h0c.32-.21,1.75-1,2.12-1.22h0C417.4,75.18,417.71,74.35,417.66,73Z" style="fill:#2B2E81"></path><path d="M406,59.66c.55-.32,1.64-.9,1.88-1.07l.16-.11a2.42,2.42,0,0,1,.52-.24l.06,1.59A2.56,2.56,0,0,0,406,59.66Z" style="opacity:0.15"></path><path d="M412,72.56c0,.66-.36,1-1.47.39a4,4,0,0,1-2.06-2.69l-3.2-.8,2.14-1.23,1,.24.05,0,.88.75.33.28a12.12,12.12,0,0,1,1.78,1.64,2.44,2.44,0,0,1,.5.87A2.09,2.09,0,0,1,412,72.56Z" style="opacity:0.45"></path><path d="M414.2,77l0,.68-2.14,1.23-.08-2.2A3.67,3.67,0,0,0,414.2,77Z" style="opacity:0.2"></path><path d="M411.14,59.09l-2.64-1.53,2.14-1.24,2.65,1.53.07,2.21a11.26,11.26,0,0,1,2.74,2.73,9.49,9.49,0,0,1,1.12,2.12,10.8,10.8,0,0,1,.38,1.36l-2.14,1.24a9.13,9.13,0,0,0-.38-1.37A9.3,9.3,0,0,0,414,64a11.35,11.35,0,0,0-2.73-2.72Z" style="opacity:0.15"></path><path d="M413.36,60.06a8.59,8.59,0,0,1,2.41,2,7.42,7.42,0,0,1,1.45,2.8,13.45,13.45,0,0,0-1.68-2.62,14.22,14.22,0,0,0-1-1.16C414.14,60.76,413.75,60.42,413.36,60.06Z" style="opacity:0.2"></path><path d="M416.78,75.58h0c-.37.23-1.8,1-2.12,1.23.61-.4.93-1.22.88-2.53-.11-2.91-1.85-4.81-3.69-6.4s-3.23-2.39-3.29-3.8c0-.88.54-1,1.42-.48a4.37,4.37,0,0,1,2.12,3l2.63.67h0a8.18,8.18,0,0,1,2.94,5.73A2.68,2.68,0,0,1,416.78,75.58Z" style="opacity:0.35000000000000003"></path><polygon points="410.64 69.02 408.51 70.26 405.31 69.46 407.45 68.22 410.64 69.02" style="fill:#2B2E81"></polygon><polygon points="410.64 69.02 408.51 70.26 405.31 69.46 407.45 68.22 410.64 69.02" style="opacity:0.15"></polygon><polygon points="412.09 78.93 412.01 76.71 414.2 77 414.23 77.69 412.09 78.93" style="fill:#2B2E81"></polygon><polygon points="412.09 78.93 412.01 76.71 414.2 77 414.23 77.69 412.09 78.93" style="opacity:0.45"></polygon><path d="M408.52,58.12l.06,1.71a2.57,2.57,0,0,0-2.72-.12l-.16.11a2.75,2.75,0,0,0-.82,2.45h0A6.92,6.92,0,0,0,406,65.69c.05.09.11.17.16.25l0,0,.18.26.16.21.07.09.13.17A15.9,15.9,0,0,0,407.86,68c.2.19.4.38.61.55s.6.52.88.76l.34.28a13.26,13.26,0,0,1,1.78,1.64,2.47,2.47,0,0,1,.49.87,2.09,2.09,0,0,1,.08.49c0,.67-.36,1-1.47.39a3.88,3.88,0,0,1-2.06-2.68l-3.2-.8a10.22,10.22,0,0,0,4,5.78l.08,2.21,2.67,1.48L412,76.71a3,3,0,0,0,2.62.11h0c.61-.4.93-1.22.88-2.53-.11-2.91-1.85-4.81-3.69-6.4s-3.23-2.39-3.29-3.8c0-.88.55-1,1.42-.47a4.34,4.34,0,0,1,2.12,3l3.37.87a11,11,0,0,0-.38-1.37A9.46,9.46,0,0,0,414,64a11.38,11.38,0,0,0-2.74-2.72l-.08-2.22-2.65-1.52Z" style="fill:#2B2E81"></path><path d="M408.52,58.12l.06,1.71a2.57,2.57,0,0,0-2.72-.12l-.16.11a2.75,2.75,0,0,0-.82,2.45h0A6.92,6.92,0,0,0,406,65.69c.05.09.11.17.16.25l0,0,.18.26.16.21.07.09.13.17A15.9,15.9,0,0,0,407.86,68c.2.19.4.38.61.55s.6.52.88.76l.34.28a13.26,13.26,0,0,1,1.78,1.64,2.47,2.47,0,0,1,.49.87,2.09,2.09,0,0,1,.08.49c0,.67-.36,1-1.47.39a3.88,3.88,0,0,1-2.06-2.68l-3.2-.8a10.22,10.22,0,0,0,4,5.78l.08,2.21,2.67,1.48L412,76.71a3,3,0,0,0,2.62.11h0c.61-.4.93-1.22.88-2.53-.11-2.91-1.85-4.81-3.69-6.4s-3.23-2.39-3.29-3.8c0-.88.55-1,1.42-.47a4.34,4.34,0,0,1,2.12,3l3.37.87a11,11,0,0,0-.38-1.37A9.46,9.46,0,0,0,414,64a11.38,11.38,0,0,0-2.74-2.72l-.08-2.22-2.65-1.52Z" style="fill:#fff;opacity:0.1"></path><path d="M415.53,74.28a7.47,7.47,0,0,0-.88-3,10.17,10.17,0,0,0-2-2.48c-.75-.75-1.59-1.4-2.41-2.09a9.36,9.36,0,0,1-1.14-1.13,2.46,2.46,0,0,1-.59-1.46,2.45,2.45,0,0,0,.65,1.42,9.89,9.89,0,0,0,1.16,1.08c.83.67,1.67,1.32,2.44,2.07a10.1,10.1,0,0,1,2,2.54,7.36,7.36,0,0,1,.57,1.5A8.44,8.44,0,0,1,415.53,74.28Z" style="fill:#fff"></path><polygon points="411.15 59.09 413.28 57.85 413.36 60.06 411.23 61.3 411.15 59.09" style="fill:#2B2E81"></polygon><polygon points="411.15 59.09 413.28 57.85 413.36 60.06 411.23 61.3 411.15 59.09" style="opacity:0.35000000000000003"></polygon><polygon points="408.5 57.56 410.9 59.21 411.23 61.3 411.15 59.09 408.5 57.56" style="fill:#fafafa"></polygon><polygon points="409.34 75.24 409.64 77.31 412.09 78.93 409.42 77.45 409.34 75.24" style="fill:#fafafa"></polygon><path d="M405.31,69.46a9.74,9.74,0,0,0,.39,1.19l.88-.87Z" style="fill:#fff;opacity:0.15"></path><path d="M415.52,74.18a7,7,0,0,0-1-3.31L409.37,76l.05,1.44,1.82,1,.8-.81,0-.94a4.54,4.54,0,0,0,.74.24Z" style="fill:#fff;opacity:0.15"></path><path d="M404.91,62.71a6.73,6.73,0,0,0,.5,1.95L411.05,59l-1.56-.9-.94.94,0,.76a2.88,2.88,0,0,0-.52-.27Z" style="fill:#fff;opacity:0.15"></path><path d="M406.13,66l.18.26.16.21.07.09.13.17A15.9,15.9,0,0,0,407.86,68l.28.25L410,66.35a3.33,3.33,0,0,1-1.45-2.27c0-.88.55-1,1.42-.47A4.06,4.06,0,0,1,411.41,65l1.83-1.84a12,12,0,0,0-2-1.81l0-.84L406,65.7l.15.24Z" style="fill:#fff;opacity:0.15"></path></g><polygon points="418.07 55.52 418.32 52.22 418.58 55.52 421.87 55.77 418.58 56.02 418.32 59.31 418.07 56.02 414.78 55.77 418.07 55.52" style="fill:#fff"></polygon><polygon points="420.66 58.22 420.78 56.62 420.9 58.22 422.5 58.34 420.9 58.46 420.78 60.06 420.66 58.46 419.06 58.34 420.66 58.22" style="fill:#fff"></polygon></g></g><g id="freepik--paper-plane-2--inject-293"><g id="freepik--paper-plane--inject-293"><g id="freepik--lines--inject-293"><path d="M314.23,355.14a1,1,0,0,1-.55-.17l-2.5-1.64a1,1,0,1,1,1.09-1.68l2.52,1.65a1,1,0,0,1-.56,1.84Z" style="fill:#455a64"></path><path d="M306.42,350.19a1.06,1.06,0,0,1-.51-.14c-1.81-1.09-3.62-2.13-5.38-3.1a1,1,0,0,1,1-1.75c1.79,1,3.62,2,5.45,3.13a1,1,0,0,1-.52,1.86Zm-10.94-6a1,1,0,0,1-.44-.11c-1.88-.93-3.77-1.8-5.62-2.61a1,1,0,1,1,.79-1.83c1.88.81,3.8,1.71,5.71,2.65a1,1,0,0,1-.44,1.9Zm-11.46-5a1,1,0,0,1-.34-.06c-1.95-.72-3.93-1.38-5.86-2a1,1,0,1,1,.57-1.91c2,.59,4,1.27,6,2a1,1,0,0,1-.35,1.94Zm-11.95-3.6-.23,0c-2-.47-4-.87-6.06-1.21a1,1,0,0,1,.33-2c2.07.34,4.15.75,6.19,1.23a1,1,0,0,1-.23,2Zm-43.44-1a1,1,0,0,1-.13-2c2.12-.3,4.22-.55,6.23-.76a1,1,0,1,1,.21,2c-2,.2-4.06.46-6.17.75Zm31.13-1h-.1c-2-.2-4.1-.35-6.17-.43a1,1,0,0,1-1-1,1,1,0,0,1,1-1c2.11.08,4.23.23,6.29.44a1,1,0,0,1-.1,2Zm-18.71-.27a1,1,0,0,1-.06-2c2.13-.14,4.24-.22,6.29-.25a1,1,0,0,1,1,1,1,1,0,0,1-1,1c-2,0-4.1.11-6.19.24Z" style="fill:#455a64"></path><path d="M219.48,336.07a1,1,0,0,1-.18-2l3-.52a1,1,0,0,1,.33,2l-2.95.51Z" style="fill:#455a64"></path></g><g id="freepik--paper-plane--inject-293"><polygon points="457.77 436.73 326.16 352 322.57 366.98 457.77 436.73" style="fill:#f0f0f0"></polygon><polygon points="349.43 366.98 349.77 381.29 322.57 366.98 326.16 352 349.43 366.98" style="fill:#e0e0e0"></polygon><polygon points="326.16 352 322.57 366.98 323.47 367.44 327.25 352 326.16 352" style="fill:#455a64"></polygon><polygon points="253.98 392.81 457.77 436.73 309.23 360.09 253.98 392.81" style="fill:#fff"></polygon><polygon points="253.98 392.81 337.14 374.49 309.23 360.09 253.98 392.81" style="fill:#f5f5f5"></polygon><path d="M309.25,361l142.89,73.72-196-42.25L309.25,361m0-.9L254,392.81l203.79,43.92L309.23,360.09Z" style="fill:#455a64"></path><polygon points="457.77 436.73 326.16 352 382.53 319.34 457.77 436.73" style="fill:#fff"></polygon><polygon points="349.43 366.98 382.53 319.34 326.16 352 349.43 366.98" style="fill:#f5f5f5"></polygon><path d="M382.27,320.4l72.89,113.71L327.67,352l54.6-31.64m.26-1.06L326.16,352l131.61,84.73L382.53,319.34Z" style="fill:#455a64"></path></g></g></g><g id="freepik--paper-plane-1--inject-293"><g id="freepik--paper-plane--inject-293"><g id="freepik--lines--inject-293"><path d="M130.07,348.3a1,1,0,0,1-.55-.17l-2.5-1.64a1,1,0,0,1,1.09-1.68c.83.54,1.67,1.09,2.52,1.66a1,1,0,0,1,.28,1.38A1,1,0,0,1,130.07,348.3Z" style="fill:#455a64"></path><path d="M122.27,343.35a1.07,1.07,0,0,1-.52-.14c-1.81-1.09-3.62-2.13-5.38-3.1a1,1,0,1,1,1-1.75c1.78,1,3.61,2,5.44,3.13a1,1,0,0,1,.34,1.37A1,1,0,0,1,122.27,343.35Zm-11-6a1,1,0,0,1-.44-.11c-1.88-.93-3.77-1.8-5.62-2.61a1,1,0,0,1-.52-1.31,1,1,0,0,1,1.32-.52c1.87.81,3.8,1.71,5.7,2.65a1,1,0,0,1,.46,1.34A1,1,0,0,1,111.32,337.35Zm-11.46-5a1,1,0,0,1-.34-.06c-2-.72-3.92-1.38-5.86-2a1,1,0,1,1,.58-1.91c2,.59,4,1.27,6,2a1,1,0,0,1-.35,1.94Zm-12-3.6-.22,0c-2-.47-4-.87-6.06-1.21a1,1,0,1,1,.32-2c2.07.34,4.15.75,6.19,1.23a1,1,0,0,1-.23,2Zm-43.43-1a1,1,0,0,1-.14-2c2.13-.3,4.22-.55,6.23-.76a1,1,0,0,1,.21,2c-2,.2-4.06.46-6.17.75Zm31.13-1H75.5c-2-.2-4.1-.35-6.16-.43a1,1,0,1,1,.08-2c2.1.08,4.22.23,6.28.44a1,1,0,0,1-.09,2Zm-18.71-.28a1,1,0,0,1-.07-2c2.13-.14,4.24-.22,6.29-.25a1,1,0,0,1,1,1,1,1,0,0,1-1,1c-2,0-4.1.11-6.19.24Z" style="fill:#455a64"></path><path d="M35.32,329.23a1,1,0,0,1-1-.83,1,1,0,0,1,.8-1.16l3-.52a1,1,0,0,1,.33,2l-2.94.51Z" style="fill:#455a64"></path></g><g id="freepik--paper-plane--inject-293"><polygon points="40.42 398.58 330.34 461.06 119.01 352.04 40.42 398.58" style="fill:#2B2E81"></polygon><polygon points="330.34 461.06 143.1 340.53 223.29 294.07 330.34 461.06" style="fill:#2B2E81"></polygon><polygon points="40.42 398.58 158.72 372.52 119.01 352.04 40.42 398.58" style="opacity:0.2"></polygon><polygon points="176.2 361.83 223.29 294.07 143.1 340.53 176.2 361.83" style="opacity:0.2"></polygon><polygon points="330.34 461.06 143.1 340.53 137.99 361.83 330.34 461.06" style="fill:#2B2E81"></polygon><polygon points="330.34 461.06 143.1 340.53 137.99 361.83 330.34 461.06" style="opacity:0.2"></polygon><polygon points="176.2 361.83 175.88 381.38 137.99 361.83 143.1 340.53 176.2 361.83" style="opacity:0.2"></polygon></g></g></g><g id="freepik--Character--inject-293"><g id="freepik--character--inject-293"><g id="freepik--Bottom--inject-293"><g id="freepik--bottom--inject-293"><polygon points="189.75 361.34 193.16 359.6 189.75 358.7 189.75 361.34" style="fill:#263238"></polygon><path d="M223.89,367.16s-40.79-17.74-41.25-15a4.11,4.11,0,0,0,.05,1.65l-.11-.15.83,5.11a12,12,0,0,0,6.34,2.55V358.7a21,21,0,0,1,3.61,1.85c2.62,1.69,4.34,4.68,7.15,8.15,2.05,2.53,5.64,3.66,11,4.34,5.72.72,10.73-.46,12.12-2C224.7,369.77,224.1,367.52,223.89,367.16Z" style="fill:#263238"></path><path d="M222.75,366.23c-.39-.4-1.86-2-3.84-3.69-1.74-1.5-3.76-3.39-5.93-4.92a22.68,22.68,0,0,1-2.94-2.36,30.52,30.52,0,0,1-2-2.35,44.85,44.85,0,0,1-5-8.26c-.66-1.38-1.86-4.43-1.62-10.11.36-8.61,1-11.73,1-17.32l-19.27,3c.62,3.09,1.33,10,1.68,13.51.54,5.35,1.33,5.85-.67,11.23-.58,1.58-1.47,3.11-1.52,4.8-.09,2.74,2.09,5.07,4.5,6.38,2,1.08,4.3,1.52,6.24,2.67a19.88,19.88,0,0,1,5.12,4.9c1.39,1.73,2.52,3.79,4.45,5a17.71,17.71,0,0,0,6.63,2.19,35.36,35.36,0,0,0,8.87.31C222.53,370.76,225.64,369.18,222.75,366.23Z" style="fill:#ffa8a7"></path><path d="M220.38,363.28c-1.76-1.45-4.27-3.53-7.29-5.86a7.59,7.59,0,0,0-6.28.68c-6,3.27-6.91,7.8-6.91,7.8a8.68,8.68,0,0,0,5,4.24c7,2.94,19.42,1.78,19.49-1.44C224.41,366.64,222.53,365,220.38,363.28Zm-36-19.53s-.39,1.06-1.42,3.15a5.87,5.87,0,0,0,.16,6.21,9.28,9.28,0,0,0,6.16,4.07C191.14,351,186.85,345,184.41,343.75Z" style="fill:#37474f"></path><path d="M149.47,359.46c1.11,1.86-.51,8.78-.35,13.73.15,4.5.93,11.52-.28,16.76s-5.83,11-11.91,5.94c-3.77-3.13-5.25-6.85-5.64-13.32-.28-4.5,1.64-10.69,3.29-16.17,1.93-6.4,2.68-9.83,2.68-9.83Z" style="fill:#263238"></path><path d="M137.43,326.07c-.65,10.47.43,17.85.37,24.56a48.3,48.3,0,0,1-1.14,9.05c-1,4.26-2.57,10.18-3.26,12.95-1,3.86-1.67,6.29-.41,10.66a5.35,5.35,0,0,0,.42,1c1.8,3.62,6.5,6.43,8,6a2.6,2.6,0,0,0,2.66,1,3.22,3.22,0,0,0,.5-.11,3.28,3.28,0,0,0,.52-.2,5.2,5.2,0,0,0,2.6-3.24c.09-.29.18-.61.26-.94,1.21-5.38.48-8.89.42-11-.08-2.44.13-5.54.42-9.47s1.47-16.25,2.95-22.12c1.1-4.1,2.47-9.25,3.91-14.73Z" style="fill:#ffa8a7"></path><path d="M132.37,377.66c3.79-1.58,14.67-1.6,16.3,3.73,0,5-.09,8.37-3.32,12.64-4.3,5.69-9.64-.53-11.66-4.46S131.81,380.33,132.37,377.66Z" style="fill:#37474f"></path><path d="M155.5,178.55c-5.49,9.39-12.88,22.45-13.57,43.73-.91,28.36-1.5,48.67-1.7,52.09s-2.54,9.64-4.74,26.44.2,48.92.2,48.92,1.89,3.82,8.31,4.57c5.93.7,8.71-2.08,8.71-2.08s9.39-45,11.92-55.05S175.78,243,175.78,243l3.15,27.16s-2.06,9.25-.65,24.07,6.1,43.41,6.1,43.41,2.69,2.84,9,2.59a12.81,12.81,0,0,0,8.67-3.42s5.53-56.43,6-73.17,0-58.55-4.61-83.48Z" style="fill:#37474f"></path><path d="M181,216.18,175.78,243l3.15,27.16.11-25.78,5.13-25.53c4.06-.86,14.51-7.93,15.4-14.73C193.93,212.93,181,216.18,181,216.18Zm-30.2,100.71q-2.53,13-4.72,26.16,3.21-12.9,6.08-25.88c1.94-8.65,3.77-17.28,5.59-26s3.92-28.48,4.89-37.29,1.75-17.64,2.4-26.48c-1.34,8.76-2.55,17.54-3.77,26.31s-3.54,28.46-5.27,37.11S152.4,308.19,150.75,316.89Zm49.55-62.82c.07,3.84.2,7.71,0,11.51s-.52,7.66-.82,11.5l-.89,11.54q-.92,11.53-1.55,23.1,1.68-11.46,2.93-23c.84-7.68,1.64-15.34,2.11-23.1.19-7.8-.26-15.49-.74-23.21s-1.23-15.4-2.21-23.06l.82,23.13C200.09,246.37,200.23,250.22,200.3,254.07Z" style="fill:#263238"></path></g></g><g id="freepik--Top--inject-293"><path d="M158.32,83.17c-5.48,2.93-6,7.48-6.31,18.57-.5,20.11-6.66,43-6.66,43l46,.53,2.48-46s4.07-4.93,3.89-10.23-3.08-12.35-12.83-14.91C176.76,72,161,72.81,158.32,83.17Z" style="fill:#263238"></path><path d="M245.14,140.45c-2.53-11.22-8.92-26.73-11.9-34.1A72,72,0,0,1,231,98a27.25,27.25,0,0,0-3.17-8.82A20.39,20.39,0,0,0,222.89,83a1.9,1.9,0,0,0-2.36-.31A5.72,5.72,0,0,0,218.08,81a8.28,8.28,0,0,0-2.39-.14,4,4,0,0,1-2.84-1.72,4,4,0,0,0-1.33-1.1c-.89-.33-1.31.27-1.5,1a5.31,5.31,0,0,0,.29,3.24,33.71,33.71,0,0,0,2.57,4.48c1.31,2.37,3.26,5.37,3.15,8.13,0,.56-.23,1.72-.93,1A22.73,22.73,0,0,0,212.25,93a4.81,4.81,0,0,0-3.76-1.11,1.64,1.64,0,0,0-1.06.57c-.34.47-.12.79.16,1.15a11,11,0,0,1,.77,1.23q.73,1.29,1.5,2.58c3,5,4.31,7.09,8.6,10.48.67.54,2.82,1.79,4.36,6.18s2.67,18.31,2.67,18.31-2-.45-14.94-3.57a129,129,0,0,0-20.26-3.47l9.2,21.9s15.23,2.78,30.26,5.15C241.23,154.22,248.19,153.92,245.14,140.45Z" style="fill:#ffa8a7"></path><path d="M224.57,124.38,224,120a13.23,13.23,0,0,0,7.62.5c4.56-.92,6.41-3,6.41-3l1.44,3.65a21.48,21.48,0,0,1-7.22,3A21.22,21.22,0,0,1,224.57,124.38Z" style="fill:#f0f0f0"></path><path d="M190.56,125.16c6.26.31,12.27,1.41,21.19,3.48,7.95,1.85,13.48,3.34,13.48,3.34l-1-9.32s2.68,1.72,8.16.75,6.89-3.27,6.89-3.27,5.64,15.27,6.9,22.63c1.12,6.52-.57,12.23-9.47,11.44-10.93-1-39-5.93-39-5.93Z" style="fill:#2B2E81"></path><path d="M225.23,132c.44,6.07,1.66,10.64,3.88,13.31-3.8-2.08-6.18-8-6.35-14Z" style="opacity:0.15"></path><g id="freepik--Telescope--inject-293"><path d="M201.65,92.05a2.41,2.41,0,0,0-1.52,1.57,4.14,4.14,0,0,0,1.78,4.62,2.7,2.7,0,0,0,2.22.35l2.59-.89a2.39,2.39,0,0,0,1.52-1.57,4.15,4.15,0,0,0-1.78-4.63,2.68,2.68,0,0,0-2.23-.34Z" style="fill:#fafafa"></path><path d="M201.65,92.05a2.41,2.41,0,0,0-1.52,1.57,4.14,4.14,0,0,0,1.78,4.62,2.7,2.7,0,0,0,2.22.35l2.59-.89a2.39,2.39,0,0,0,1.52-1.57,4.15,4.15,0,0,0-1.78-4.63,2.68,2.68,0,0,0-2.23-.34Z" style="fill:#2B2E81"></path><path d="M201.65,92.05a2.41,2.41,0,0,0-1.52,1.57,4.14,4.14,0,0,0,1.78,4.62,2.7,2.7,0,0,0,2.22.35l2.59-.89a2.39,2.39,0,0,0,1.52-1.57,4.15,4.15,0,0,0-1.78-4.63,2.68,2.68,0,0,0-2.23-.34Z" style="fill:#fff;opacity:0.25"></path><path d="M204.47,97.37a2.44,2.44,0,0,0,3.77-1.24,4.15,4.15,0,0,0-1.78-4.63,2.44,2.44,0,0,0-3.77,1.24A4.15,4.15,0,0,0,204.47,97.37Z" style="fill:#2B2E81"></path><path d="M204.86,91.46a2.05,2.05,0,0,0-1.31,1.35,3.56,3.56,0,0,0,1.53,4,2.32,2.32,0,0,0,1.9.3l21.74-6.14c.59-.19.83-1.65,1.07-2.35a3.56,3.56,0,0,0-1.53-4c-.65-.4-1.79-1.41-2.37-1.22C225.7,83.46,205,91.4,204.86,91.46Z" style="fill:#263238"></path><g id="freepik--Lens--inject-293"><path d="M220.2,82.89a4.19,4.19,0,0,0-2.68,2.77,7.31,7.31,0,0,0,3.14,8.16,4.73,4.73,0,0,0,3.9.61c.4-.12,42.11-11.76,42.49-11.88,1.2-.39,1.71-3.41,2.2-4.84a7.3,7.3,0,0,0-3.14-8.15c-1.33-.82-3.69-2.9-4.89-2.52C260.83,67.17,220.57,82.76,220.2,82.89Z" style="fill:#e0e0e0"></path><path d="M262,81.67c3.63,2.21,7.63.9,8.93-2.94s-.58-8.73-4.21-10.94-7.63-.9-8.93,2.93S258.36,79.45,262,81.67Z" style="fill:#e0e0e0"></path></g><path d="M261.47,82.32a7.52,7.52,0,0,0,3.95,1.17h.33l2.06-.06h-.15l-.28,0c-.19,0-.4,0-.6-.07a8.71,8.71,0,0,1-3.13-1.17,10.92,10.92,0,0,1-1.45-1.08c-3.31-2.91-4.87-7.86-3.51-11.83a7.24,7.24,0,0,1,1.58-2.69l.14-.15a.86.86,0,0,1,.14-.13l0,0,.3-.26.11-.09-1.72,1.23h0c-.16.11-.31.24-.46.36a6.78,6.78,0,0,0-1.9,2.91,10.66,10.66,0,0,0,3.62,11.23L261,82l.05,0Z" style="fill:#263238"></path><path d="M271.22,80c4.52,2.75,9.51,1.12,11.13-3.66s-.72-10.88-5.25-13.64S267.6,61.6,266,66.38,266.69,77.26,271.22,80Z" style="fill:#2B2E81"></path><path d="M263.47,82.56A9.33,9.33,0,0,0,266,83.65a15.59,15.59,0,0,0,1.91.24c.16,0,.77,0,.92,0l.45-.07a5.87,5.87,0,0,0,.75-.18h0l.06,0,.11,0,.06,0,7.43-2.44-.18,0s0,0,0,0l-.22,0a3.86,3.86,0,0,1-.49.09,6.62,6.62,0,0,1-.66.08A8.47,8.47,0,0,1,271.23,80a9.92,9.92,0,0,1-1.3-.93c-3.66-3-5.41-8.41-3.95-12.71a7.49,7.49,0,0,1,2.47-3.57l.33-.24,0,0,.33-.21.35-.19a2.1,2.1,0,0,1,.3-.15l.26-.11.26-.1-7.44,2.44h0l-.34.11a7.14,7.14,0,0,0-4.29,4.59c-1.39,4.1.14,9.18,3.46,12.28.16.15.32.3.51.45A11.42,11.42,0,0,0,263.47,82.56Z" style="fill:#fafafa"></path><path d="M284.2,60.78c4.29,2.61,6.51,8.38,5,12.9a7.23,7.23,0,0,1-2.06,3.16A6.4,6.4,0,0,1,285,78.08h0l-6.2,2.07-.15.06a7,7,0,0,1-.91.2,7.73,7.73,0,0,1-5.31-1.18c-4.28-2.61-6.51-8.38-5-12.9a6.84,6.84,0,0,1,3.32-4,6.51,6.51,0,0,1,.76-.34h0l.3-.1,6.08-2h0A7.51,7.51,0,0,1,284.2,60.78Z" style="fill:#ebebeb"></path><path d="M275.63,59.89a7.1,7.1,0,0,0-4.49,4.65c-1.63,4.78.72,10.89,5.25,13.65a8,8,0,0,0,6.53,1c.67-.21,4.95-1.71,5.57-1.92A7.06,7.06,0,0,0,293,72.66c1.63-4.78-.72-10.89-5.25-13.65a7.93,7.93,0,0,0-6.57-1C280.51,58.2,276.25,59.69,275.63,59.89Z" style="fill:#fafafa"></path><path d="M263.47,82.56A9.33,9.33,0,0,0,266,83.65a15.59,15.59,0,0,0,1.91.24c.16,0,.77,0,.92,0l.45-.07a5.87,5.87,0,0,0,.75-.18h0l.06,0,.11,0,.06,0,7.43-2.44-.18,0s0,0,0,0l-.22,0a3.86,3.86,0,0,1-.49.09,6.62,6.62,0,0,1-.66.08A8.47,8.47,0,0,1,271.23,80a9.92,9.92,0,0,1-1.3-.93c-3.66-3-5.41-8.41-3.95-12.71a7.49,7.49,0,0,1,2.47-3.57l.33-.24,0,0,.33-.21.35-.19a2.1,2.1,0,0,1,.3-.15l.26-.11.26-.1-7.44,2.44h0l-.34.11a7.14,7.14,0,0,0-4.29,4.59c-1.39,4.1.14,9.18,3.46,12.28.16.15.32.3.51.45A11.42,11.42,0,0,0,263.47,82.56Z" style="fill:#2B2E81"></path><path d="M263.47,82.56A9.33,9.33,0,0,0,266,83.65a15.59,15.59,0,0,0,1.91.24c.16,0,.77,0,.92,0l.45-.07a5.87,5.87,0,0,0,.75-.18h0l.06,0,.11,0,.06,0,7.43-2.44-.18,0s0,0,0,0l-.22,0a3.86,3.86,0,0,1-.49.09,6.62,6.62,0,0,1-.66.08A8.47,8.47,0,0,1,271.23,80a9.92,9.92,0,0,1-1.3-.93c-3.66-3-5.41-8.41-3.95-12.71a7.49,7.49,0,0,1,2.47-3.57l.33-.24,0,0,.33-.21.35-.19a2.1,2.1,0,0,1,.3-.15l.26-.11.26-.1-7.44,2.44h0l-.34.11a7.14,7.14,0,0,0-4.29,4.59c-1.39,4.1.14,9.18,3.46,12.28.16.15.32.3.51.45A11.42,11.42,0,0,0,263.47,82.56Z" style="fill:#fff;opacity:0.25"></path><path d="M284.2,60.78c4.29,2.61,6.51,8.38,5,12.9a7.23,7.23,0,0,1-2.06,3.16A6.4,6.4,0,0,1,285,78.08h0l-6.2,2.07-.15.06a7,7,0,0,1-.91.2,7.73,7.73,0,0,1-5.31-1.18c-4.28-2.61-6.51-8.38-5-12.9a6.84,6.84,0,0,1,3.32-4,6.51,6.51,0,0,1,.76-.34h0l.3-.1,6.08-2h0A7.51,7.51,0,0,1,284.2,60.78Z" style="fill:#2B2E81"></path><path d="M284.2,60.78c4.29,2.61,6.51,8.38,5,12.9a7.23,7.23,0,0,1-2.06,3.16A6.4,6.4,0,0,1,285,78.08h0l-6.2,2.07-.15.06a7,7,0,0,1-.91.2,7.73,7.73,0,0,1-5.31-1.18c-4.28-2.61-6.51-8.38-5-12.9a6.84,6.84,0,0,1,3.32-4,6.51,6.51,0,0,1,.76-.34h0l.3-.1,6.08-2h0A7.51,7.51,0,0,1,284.2,60.78Z" style="fill:#fff;opacity:0.15"></path><path d="M275.63,59.89a7.1,7.1,0,0,0-4.49,4.65c-1.63,4.78.72,10.89,5.25,13.65a8,8,0,0,0,6.53,1c.67-.21,4.95-1.71,5.57-1.92A7.06,7.06,0,0,0,293,72.66c1.63-4.78-.72-10.89-5.25-13.65a7.93,7.93,0,0,0-6.57-1C280.51,58.2,276.25,59.69,275.63,59.89Z" style="fill:#2B2E81"></path><path d="M275.63,59.89a7.1,7.1,0,0,0-4.49,4.65c-1.63,4.78.72,10.89,5.25,13.65a8,8,0,0,0,6.53,1c.67-.21,4.95-1.71,5.57-1.92A7.06,7.06,0,0,0,293,72.66c1.63-4.78-.72-10.89-5.25-13.65a7.93,7.93,0,0,0-6.57-1C280.51,58.2,276.25,59.69,275.63,59.89Z" style="fill:#fff;opacity:0.25"></path><path d="M281.84,76.31c4.53,2.76,9.52,1.13,11.14-3.65s-.72-10.89-5.25-13.65-9.51-1.13-11.14,3.65S277.31,73.55,281.84,76.31Z" style="fill:#2B2E81"></path><path d="M289.64,75.38c-2.11,1.85-4.85.52-5.93-.14-4.22-2.57-6.5-8.5-5-12.95a6,6,0,0,1,1.67-2.64c2.11-1.84,4.85-.51,5.93.15,4.21,2.56,6.49,8.49,5,12.94a6,6,0,0,1-1.67,2.64Z" style="opacity:0.2"></path><path d="M283.7,60.67a7.14,7.14,0,0,0-3.23-1.08l-.07.06a6,6,0,0,0-1.67,2.64c-1.52,4.45.76,10.38,5,12.95a7.17,7.17,0,0,0,3.22,1.08l.08-.06a6.12,6.12,0,0,0,1.67-2.64C290.19,69.17,287.91,63.24,283.7,60.67Z" style="fill:#2B2E81"></path><path d="M283.7,60.67a7.14,7.14,0,0,0-3.23-1.08l-.07.06a6,6,0,0,0-1.67,2.64c-1.52,4.45.76,10.38,5,12.95a7.17,7.17,0,0,0,3.22,1.08l.08-.06a6.12,6.12,0,0,0,1.67-2.64C290.19,69.17,287.91,63.24,283.7,60.67Z" style="fill:#fff;opacity:0.6000000000000001"></path><path d="M278.67,62.47c-1.39,4.43.88,10.23,5,12.77h0A4.7,4.7,0,0,0,287.18,72a8.17,8.17,0,0,0-3.51-9.1A5.14,5.14,0,0,0,278.67,62.47Z" style="fill:#2B2E81;opacity:0.1"></path><path d="M278.31,66.23a12.55,12.55,0,0,0,2.51,6.38,3,3,0,0,0,4.41-1.78A5.26,5.26,0,0,0,283,65,3.08,3.08,0,0,0,278.31,66.23Z" style="fill:#2B2E81;opacity:0.2"></path><path d="M279.62,64.89c-.42-2.43,1.11-4.26,2.08-4.21S289,64.54,288,72.07c0,0-.17-4.79-3.05-7.92C282.23,61.19,279.77,62.53,279.62,64.89Z" style="fill:#fff;opacity:0.6000000000000001"></path><path d="M262.19,81.65h0l7.72-2.57h0l1-.92,3.78-1.26.51.45,5.51-1.84a10,10,0,0,0,1.15.81l.43.25a8.51,8.51,0,0,0,3.67,1.08,7,7,0,0,0,2.26-.24l-.06,0c-1.2.41-4.63,1.61-5.22,1.8a6.9,6.9,0,0,1-2.28.29l-.44.15a6.61,6.61,0,0,1-3,1.52l.09,0,.22,0s0,0,0,0l.18,0-7.43,2.44-.06,0-.11,0-.06,0h0a5.87,5.87,0,0,1-.75.18l-.45.07c-.15,0-.76.06-.92,0a15.59,15.59,0,0,1-1.91-.24h0a8.73,8.73,0,0,1-1.9-.73,6.61,6.61,0,0,1-.63-.35A11.42,11.42,0,0,1,262.19,81.65Z" style="opacity:0.1"></path></g><path id="freepik--Chest--inject-293" d="M149.44,189.09c.59-4.32,3.6-5,2.14-15.25-.73-5.1-3.29-18.29-3.29-18.29s8.77-6.76,6-26.48l9.43-3.8,5.14-1.81,14.38.6,7.38,2c2.53,2.18,7.16,5.61,10.89,10.87,5.38,7.6,6.35,16,.85,22.21-.06,1.22.16,20,1.58,24.59.56,1.82,1.33,4.29.14,6.73C198.75,199.17,167.37,208,149.44,189.09Z" style="fill:#fafafa"></path><path d="M183.2,124.06l7.36,1.1c7.07,5.34,15.49,15,16,22.41a20,20,0,0,1-3.3,12.43s-.1,15.09,1.62,23.05,3.64,29.3,3.64,29.3.15,1.33-5.76,3c-1.82-10.22-6.3-47.72-6.05-56.72S197.08,135.4,183.2,124.06Z" style="fill:#2B2E81"></path><path d="M183.2,124.06l7.36,1.1c7.07,5.34,15.49,15,16,22.41a20,20,0,0,1-3.3,12.43s-.1,15.09,1.62,23.05,3.64,29.3,3.64,29.3.15,1.33-5.76,3c-1.82-10.22-6.3-47.72-6.05-56.72S197.08,135.4,183.2,124.06Z" style="opacity:0.30000000000000004"></path><path d="M197.78,162.81c.58-2.39,1.22-4.76,1.87-7.13s1.27-4.75,1.86-7.12a28.37,28.37,0,0,0,.68-3.57c.18-1.13-.62-2.07-1.42-3a33.77,33.77,0,0,0-5.65-4.56l-.19-.12,0-.22a11.67,11.67,0,0,0,0-3.91,10,10,0,0,0-1.35-3.67,11.63,11.63,0,0,0-2.77-2.83,18.26,18.26,0,0,0-3.47-2A16.6,16.6,0,0,1,191,126.5a10.91,10.91,0,0,1,3,2.8,10.61,10.61,0,0,1,1.57,3.81,11.57,11.57,0,0,1,.08,4.15l-.15-.35a32.49,32.49,0,0,1,5.84,4.63,8.13,8.13,0,0,1,1.15,1.54,2.35,2.35,0,0,1,.22.45,1.62,1.62,0,0,1,.15.5,3.22,3.22,0,0,1,0,1,29.26,29.26,0,0,1-.73,3.66c-.6,2.39-1.36,4.74-2.08,7.09S198.54,160.47,197.78,162.81Z" style="opacity:0.2"></path><path d="M163.68,125.27s3.1,4,7.2,13.35,8.05,17.89,8,26.57S176,218.74,176,218.74s-12.44,1.88-23.71-2.66l.92-17.38-4.27,16.56s-5.39-1.93-7.38-3.73c2.94-18.07,9.51-26.65,9.84-33.32.22-4.58-3.67-17.28-4.41-28.73a87.85,87.85,0,0,1,1.37-20Z" style="fill:#2B2E81"></path><path d="M163.68,125.27s3.1,4,7.2,13.35,8.05,17.89,8,26.57S176,218.74,176,218.74s-12.44,1.88-23.71-2.66l.92-17.38-4.27,16.56s-5.39-1.93-7.38-3.73c2.94-18.07,9.51-26.65,9.84-33.32.22-4.58-3.67-17.28-4.41-28.73a87.85,87.85,0,0,1,1.37-20Z" style="opacity:0.30000000000000004"></path><path d="M177.22,167.77a20,20,0,0,0-3.42-6c-1.4-1.85-2.93-3.59-4.49-5.3-.78-.86-1.57-1.71-2.36-2.55l-1.2-1.27c-.2-.23-.4-.42-.6-.68a1.16,1.16,0,0,1-.16-.2,2,2,0,0,1-.15-.33,2.38,2.38,0,0,1-.06-.58,10.43,10.43,0,0,1,1.21-3.46c.55-1,1.15-2.06,1.79-3.06l.06.58-3.56-3.59-1.77-1.81-.44-.46-.22-.23a1.71,1.71,0,0,1-.3-.36,2,2,0,0,1-.09-.8c0-.22,0-.44.07-.66a39.16,39.16,0,0,1,1.21-5c.5-1.63,1-3.24,1.59-4.84-.4,1.65-.82,3.29-1.19,4.94s-.76,3.31-.94,4.95a3.29,3.29,0,0,0,0,1.06c-.06-.08,0,.05.12.11l.23.22.46.44,1.83,1.78,3.65,3.57.26.25-.2.33c-.61,1-1.18,2-1.7,3a10.32,10.32,0,0,0-1.15,3.07,2,2,0,0,0,0,.27.11.11,0,0,1,0,.07s.07.1.11.15c.15.2.36.42.55.63l1.18,1.29c.78.86,1.56,1.72,2.33,2.6a70.05,70.05,0,0,1,4.3,5.54,27.65,27.65,0,0,1,1.8,3A12.53,12.53,0,0,1,177.22,167.77Z" style="opacity:0.2"></path><g id="freepik--Head--inject-293"><g id="freepik--head--inject-293"><g id="freepik--head--inject-293"><path d="M163.36,112.69a5.93,5.93,0,0,1-5.53-1.43c-3.14-2.76-3.76-5.86-2.69-8.1.88-1.83,3.4-3.23,5.38-2.27s2.29,2,3.2,3.33,2.7,0,1.42-5.55c3.64-2.24,2.3-8.61,4.08-11.47,2.79-4.48,8.27-4,10.12-3.24a7,7,0,0,1,7.24-1.29c2.74,1.09,4.78,3.81,6.82,13.71,2.08,10.09,1.08,17.09-1,19.52-1.45,1.67-5.12,3.21-8.73,3.41l-.43,5.55s11.93,9.35-1.39,9.86c-10,.38-17.24-9.77-17.24-9.77l.79-14.11S165.3,112.09,163.36,112.69Z" style="fill:#ffa8a7"></path></g><path d="M176.34,94.11,172.75,96a2.13,2.13,0,0,1,.88-2.82A2,2,0,0,1,176.34,94.11Z" style="fill:#263238"></path><path d="M190.68,91.19l-4.06-.61a2,2,0,0,1,2.26-1.75A2.17,2.17,0,0,1,190.68,91.19Z" style="fill:#263238"></path><path d="M178.13,107.73l5.76.87a2.8,2.8,0,0,1-3.21,2.5A3.07,3.07,0,0,1,178.13,107.73Z" style="fill:#b16668"></path><path d="M181.79,111a3,3,0,0,0-3-2.22,2.79,2.79,0,0,0-.58.07,3.06,3.06,0,0,0,2.46,2.21A2.75,2.75,0,0,0,181.79,111Z" style="fill:#f28f8f"></path><path d="M190.41,95.62a1.66,1.66,0,1,1-2.24-.69A1.67,1.67,0,0,1,190.41,95.62Z" style="fill:#263238"></path><path d="M178.68,98.53c.13.33-1-.32-2.09-.16-1.44.2-2.28,1.61-2.14.7a2,2,0,0,1,2-1.78A1.93,1.93,0,0,1,178.68,98.53Z" style="fill:#263238"></path><path d="M182,94.36,184.08,105l5.7-2.39C187.85,98.6,184.51,96.11,182,94.36Z" style="fill:#f28f8f"></path></g><path d="M183.64,119.31c-5.19.38-11.55-.88-13.79-4,1.44,3.48,5.29,4.93,8.29,5.42a24,24,0,0,0,5.36.43Z" style="fill:#f28f8f"></path></g><g id="freepik--Arm--inject-293"><path d="M140.25,215.74c-1.19-1.24-2.7-2.32-3.22-4a3,3,0,0,1,.36-2.63,1.37,1.37,0,0,0,.31-.48,1.25,1.25,0,0,0,0-.47,3.24,3.24,0,0,1,.09-1.95,2,2,0,0,1,1.22-1.08,4.72,4.72,0,0,1,0-3c.36-1.12,1.5-2,2.28-.8a10.67,10.67,0,0,1,.92,1.93,22.61,22.61,0,0,1,1.22,5.2c.23,1.84.78,7.07-2.08,7.38C141.05,215.89,140.42,215.92,140.25,215.74Z" style="fill:#f28f8f"></path><path d="M151,130.49c-11,2.31-12,5.8-18.4,15s-14.35,21.72-16.31,26.16c-2.42,5.5-2.92,7.61,3,13.29,3.07,2.93,7.34,6.4,11.69,10.34,3.44,3.1,7.56,6.39,10.89,9.6a3,3,0,0,1,1.08,3,21.87,21.87,0,0,0-.53,2.23,18.19,18.19,0,0,0,.3,2.92,2.57,2.57,0,0,1-1.11,2.55,2.73,2.73,0,0,1-1.39.19,9.92,9.92,0,0,0,2.72,1.41,4.16,4.16,0,0,0,3-.16c.88-.45,1.54-1.32,2.49-1.62.51-.17,1.07-.15,1.58-.3a2.69,2.69,0,0,0,1.35-.92c.53-.7.73-1.69,1.49-2.13a9.83,9.83,0,0,1,1.19-.41,2.66,2.66,0,0,0,1.43-2,7.31,7.31,0,0,0-.11-2.55,62.21,62.21,0,0,0-1.54-6.72,6.58,6.58,0,0,0-1.13-2.06c-.53-.73-1-1.49-1.62-2.19-3.89-4.75-16.24-20.6-16.24-20.6l13.64-17.88A25.49,25.49,0,0,0,151,130.49Z" style="fill:#ffa8a7"></path><path d="M134.87,175.48c-3.28,3.36-8.48,3.73-10.4,3.66A11,11,0,0,0,136,176.91Z" style="fill:#f28f8f"></path><path d="M127.92,192.57l3.09,2.69a12.06,12.06,0,0,0,7.58-4.36c3.43-4.12,3.17-7.13,3.17-7.13l-3.59-4.06Z" style="fill:#f0f0f0"></path><path d="M151.12,128.69c-7.89,1.73-9.36,2.78-15,10.68s-15.16,23-17.64,26.85-6.17,10.62-4,14,13.86,13.26,13.86,13.26,4-.19,7.85-4.17c4-4.14,3.7-8.38,3.7-8.38l-4.35-5.45s12.17-15.68,14.37-18.58S157,144.21,151.12,128.69Z" style="fill:#2B2E81"></path><path d="M135.51,175.47c-1.58-1.78-5.43-4.67-8.26-5.16,3-.52,7.37,1.6,9.45,3.54Z" style="opacity:0.15"></path></g></g></g></g></svg>
