<svg xmlns="http://www.w3.org/2000/svg" viewBox="20.11 30.97 697.7 444.86"><g id="freepik--background-complete--inject-504"><path d="M367.53,51.46a5.34,5.34,0,0,0,3.19-5,5,5,0,1,0-10,0,5.35,5.35,0,0,0,3.2,5c-7.71,1.16-7.36,9.54-7.36,9.54l18.23.09S375.18,52.61,367.53,51.46Z" style="fill:#ebebeb"></path><path d="M653,155.47a11.79,11.79,0,0,0,7-10.92c0-6.52-4.9-11.82-11-11.85s-11.09,5.23-11.11,11.75a11.78,11.78,0,0,0,7,11c-17,2.57-16.26,21.08-16.26,21.08l40.28.19S669.93,158,653,155.47Z" style="fill:#ebebeb"></path><path d="M648.87,200.46a44.34,44.34,0,1,1,44.33-44.34A44.38,44.38,0,0,1,648.87,200.46Zm0-87.41a43.07,43.07,0,1,0,43.07,43.07A43.12,43.12,0,0,0,648.87,113.05Z" style="fill:#ebebeb"></path><path d="M169.88,98.54a10.76,10.76,0,0,0,6.42-10c0-6-4.48-10.79-10.06-10.82s-10.11,4.77-10.14,10.72a10.75,10.75,0,0,0,6.44,10.06c-15.55,2.34-14.84,19.23-14.84,19.23l36.75.17S185.29,100.87,169.88,98.54Z" style="fill:#ebebeb"></path><path d="M166.08,139.64a40.51,40.51,0,1,1,40.5-40.51A40.55,40.55,0,0,1,166.08,139.64Zm0-79.75a39.25,39.25,0,1,0,39.24,39.24A39.3,39.3,0,0,0,166.08,59.89Z" style="fill:#ebebeb"></path><path d="M526.55,88.79a8.43,8.43,0,0,0,5-7.79,7.92,7.92,0,1,0-15.81-.08,8.42,8.42,0,0,0,5,7.87c-12.16,1.84-11.61,15.06-11.61,15.06L538,104S538.61,90.62,526.55,88.79Z" style="fill:#ebebeb"></path><path d="M523.57,121A31.84,31.84,0,1,1,555.41,89.2,31.87,31.87,0,0,1,523.57,121Zm0-62.41A30.58,30.58,0,1,0,554.15,89.2,30.6,30.6,0,0,0,523.57,58.63Z" style="fill:#ebebeb"></path><path d="M411,156.63a6,6,0,0,0,3.55-5.51,5.59,5.59,0,1,0-11.16-.05,6,6,0,0,0,3.55,5.56c-8.58,1.29-8.19,10.63-8.19,10.63l20.3.09S419.55,157.91,411,156.63Z" style="fill:#ebebeb"></path><path d="M408.94,179.49A22.54,22.54,0,1,1,431.48,157,22.56,22.56,0,0,1,408.94,179.49Zm0-44.06A21.53,21.53,0,1,0,430.47,157,21.56,21.56,0,0,0,408.94,135.43Z" style="fill:#ebebeb"></path><path d="M64.87,254.64a5.42,5.42,0,0,0,3.23-5,5.09,5.09,0,1,0-10.16,0,5.41,5.41,0,0,0,3.24,5.06c-7.82,1.18-7.47,9.67-7.47,9.67l18.49.09S72.62,255.81,64.87,254.64Z" style="fill:#ebebeb"></path><path d="M63,275.62a20.69,20.69,0,1,1,20.68-20.68A20.71,20.71,0,0,1,63,275.62Zm0-40.11a19.43,19.43,0,1,0,19.42,19.43A19.46,19.46,0,0,0,63,235.51Z" style="fill:#ebebeb"></path><path d="M76.83,239.22c-.16-.1,15.77-24.39,35.57-54.24s36-54,36.13-53.88S132.75,155.49,113,185.35,77,239.32,76.83,239.22Z" style="fill:#ebebeb"></path><path d="M429.84,151.81c-.08-.12,15.39-10,34.53-22.08s34.74-21.76,34.82-21.64-15.38,10-34.54,22.08S429.92,151.93,429.84,151.81Z" style="fill:#ebebeb"></path><path d="M387.41,157c0,.14-42-7-93.65-16s-93.6-16.31-93.58-16.45,41.95,7,93.67,15.94S387.44,156.82,387.41,157Z" style="fill:#ebebeb"></path><path d="M610.11,136.81c-.08.12-13-7.59-28.92-17.23S552.47,102,552.54,101.9s13,7.59,28.92,17.23S610.18,136.69,610.11,136.81Z" style="fill:#ebebeb"></path><path d="M125.46,105.58c0,.14-12,.4-26.92.58s-26.93.21-26.93.06,12-.4,26.92-.58S125.46,105.43,125.46,105.58Z" style="fill:#ebebeb"></path><path d="M58,105.49a3.4,3.4,0,0,0,2-3.15,3.2,3.2,0,1,0-6.38,0,3.4,3.4,0,0,0,2,3.18c-4.91.74-4.68,6.08-4.68,6.08l11.61.05S62.83,106.22,58,105.49Z" style="fill:#ebebeb"></path><path d="M56.76,118.91A13.23,13.23,0,1,1,70,105.68,13.25,13.25,0,0,1,56.76,118.91Zm0-25.2a12,12,0,1,0,12,12A12,12,0,0,0,56.76,93.71Z" style="fill:#ebebeb"></path><path d="M365.65,72.53a20.78,20.78,0,1,1,20.77-20.78A20.8,20.8,0,0,1,365.65,72.53Zm0-39.57a18.8,18.8,0,1,0,18.79,18.79A18.81,18.81,0,0,0,365.65,33Z" style="fill:#ebebeb"></path><path d="M397.33,138.68a5.28,5.28,0,0,1-.27-.67l-.67-2c-.6-1.76-1.43-4.21-2.46-7.21-2.09-6.08-5.09-14.45-8.68-23.57S378.14,88,375.52,82.1l-3.13-6.94-.84-1.89a3.16,3.16,0,0,1-.26-.68,3.87,3.87,0,0,1,.35.63l.94,1.85c.8,1.61,1.92,4,3.27,6.88,2.71,5.84,6.28,14,9.88,23.13s6.55,17.52,8.55,23.64c1,3.06,1.79,5.54,2.3,7.26.24.83.44,1.49.58,2A3.32,3.32,0,0,1,397.33,138.68Z" style="fill:#ebebeb"></path><path d="M26.11,398.21v35.05H20.26v3.81h5.85v23.46H135.5V439.18h-8.1v-4.65h8.1v-7h3.6v-3.17h-4.27V398.21Z" style="fill:#f5f5f5"></path><polygon points="106.45 398.31 106.45 460.13 135.5 460.13 135.5 438.79 127.4 438.79 127.4 434.53 135.5 434.67 135.5 427.7 139.18 427.7 139.1 424.1 134.83 424 134.83 398.21 106.45 398.31" style="fill:#e0e0e0"></polygon><path d="M108.52,436.56c0,.22-19.79.39-44.2.39s-44.21-.17-44.21-.39,19.79-.39,44.21-.39S108.52,436.35,108.52,436.56Z" style="fill:#e0e0e0"></path><path d="M108.52,433c0,.22-19.79.39-44.2.39s-44.21-.17-44.21-.39,19.79-.39,44.21-.39S108.52,432.79,108.52,433Z" style="fill:#e0e0e0"></path><path d="M114.2,423.42c0,.22-19.79.39-44.2.39s-44.22-.17-44.22-.39S45.57,423,70,423,114.2,423.21,114.2,423.42Z" style="fill:#e0e0e0"></path><path d="M114.75,449.53c0,.22-19.8.39-44.21.39s-44.21-.17-44.21-.39,19.79-.39,44.21-.39S114.75,449.32,114.75,449.53Z" style="fill:#e0e0e0"></path><path d="M38.3,336.51v35.05H32.44v3.8H38.3v23.46H147.69V377.48h-8.11v-4.65h8.11v-7h3.6v-3.17H147V336.51Z" style="fill:#f5f5f5"></path><polygon points="118.64 336.61 118.64 398.43 147.69 398.43 147.69 377.09 139.58 377.09 139.58 372.83 147.69 372.97 147.69 366 151.36 366 151.29 362.4 147.01 362.29 147.01 336.51 118.64 336.61" style="fill:#e0e0e0"></polygon><path d="M120.71,374.86c0,.22-19.8.39-44.21.39s-44.21-.17-44.21-.39,19.79-.39,44.21-.39S120.71,374.65,120.71,374.86Z" style="fill:#e0e0e0"></path><path d="M120.71,371.3c0,.22-19.8.39-44.21.39s-44.21-.17-44.21-.39,19.79-.39,44.21-.39S120.71,371.09,120.71,371.3Z" style="fill:#e0e0e0"></path><path d="M126.39,361.72c0,.21-19.8.39-44.21.39S38,361.93,38,361.72s19.79-.39,44.21-.39S126.39,361.5,126.39,361.72Z" style="fill:#e0e0e0"></path><path d="M126.93,387.83c0,.21-19.79.39-44.2.39s-44.22-.18-44.22-.39,19.79-.39,44.22-.39S126.93,387.62,126.93,387.83Z" style="fill:#e0e0e0"></path><path d="M684.12,337.17c6.42-3.32,14-3.75,21.11-2.57,3.83.63,7.82,1.78,10.42,4.66s3.1,7.93.11,10.41c-1.78,1.47-4.26,1.69-6.57,1.66-5.58-.06-11.77-1-16.23,2.31-2.55,1.92-4.24,5.1-7.28,6.05s-6.33-.84-7.91-3.52a12.31,12.31,0,0,1-.9-9.07A13.84,13.84,0,0,1,684.12,337.17Z" style="fill:#ebebeb"></path><path d="M669.41,308.77c3.92,5.61,11.55,3.75,15.09.33s5-8.39,6.4-13.12c3.11-10.81,6.24-22.14,3.93-33.15a18.49,18.49,0,0,0-4.23-9c-2.32-2.44-5.87-3.89-9.12-3-3.85,1-6.24,4.78-8,8.37a79.06,79.06,0,0,0-7.81,33.92c0,5.46.62,11.19,3.71,15.7" style="fill:#ebebeb"></path><path d="M658.63,316.81c4.26-5.05,5.07-12.43,3.17-18.77s-6.18-11.73-11.12-16.13a59.83,59.83,0,0,0-19.92-11.75,21.09,21.09,0,0,0-9-1.53,9.42,9.42,0,0,0-7.52,4.55c-2.09,4-.08,8.85,2.09,12.8a151.91,151.91,0,0,0,13.08,19.92c3.92,5.06,8.41,10,14.39,12.33s12.18,2,15.34-2.13" style="fill:#ebebeb"></path><path d="M669.14,393.36a13.15,13.15,0,0,0,.36-2.55q.27-2.79.67-6.95a100.05,100.05,0,0,1,1.57-10.2,79.14,79.14,0,0,1,3.7-12,44.64,44.64,0,0,1,6.15-10.9,23.07,23.07,0,0,1,7.77-6.46,21.8,21.8,0,0,1,6.55-2,12.9,12.9,0,0,0,2.54-.37,11.81,11.81,0,0,0-2.59,0,19.93,19.93,0,0,0-6.82,1.77,22.9,22.9,0,0,0-8.2,6.52,43.71,43.71,0,0,0-6.37,11.11,72.78,72.78,0,0,0-3.68,12.24,86.51,86.51,0,0,0-1.36,10.33c-.22,2.95-.3,5.34-.34,7A12.09,12.09,0,0,0,669.14,393.36Z" style="fill:#e0e0e0"></path><path d="M669.62,388a4.86,4.86,0,0,0,.07-1.19c0-.88,0-2,0-3.38,0-2.93,0-7.18.15-12.42.26-10.49,1.16-21.77,2.91-37.68,1.65-15,3.86-32.38,6.2-43.7.51-2.57,1-4.89,1.49-6.92s.84-3.79,1.21-5.2.58-2.43.79-3.29a5.59,5.59,0,0,0,.21-1.17,4.38,4.38,0,0,0-.41,1.11c-.26.85-.59,1.92-1,3.24s-.89,3.15-1.4,5.17-1.08,4.34-1.63,6.91A381.48,381.48,0,0,0,671.69,330c-1.75,15.94-2.53,30.46-2.6,41-.07,5.25,0,9.51.18,12.44.08,1.38.15,2.49.21,3.38A5.11,5.11,0,0,0,669.62,388Z" style="fill:#e0e0e0"></path><path d="M669.69,360a23.45,23.45,0,0,0,0-3.54c-.13-2.27-.45-5.55-1.09-9.56a124.27,124.27,0,0,0-3.11-14,113.61,113.61,0,0,0-5.83-16.49c-4.83-11.47-11.4-20.85-17.12-26.66a43.07,43.07,0,0,0-4-3.75c-.61-.52-1.16-1-1.72-1.45l-1.56-1.08a23.18,23.18,0,0,0-3-1.9c-.17.23,4.21,2.81,9.74,8.69a92.83,92.83,0,0,1,16.7,26.56,130.78,130.78,0,0,1,5.86,16.35c1.53,5.12,2.54,9.83,3.31,13.8s1.15,7.23,1.41,9.48A23.64,23.64,0,0,0,669.69,360Z" style="fill:#e0e0e0"></path><polygon points="642.63 409.4 645.43 447.84 694.81 447.84 697.62 409.4 642.63 409.4" style="fill:#e0e0e0"></polygon><rect x="637.86" y="394.25" width="65.66" height="15.15" style="fill:#e0e0e0"></rect><polygon points="637.86 446.37 637.86 450.57 640.94 450.57 702.43 450.57 702.43 446.37 637.86 446.37" style="fill:#ebebeb"></polygon><polygon points="643.97 457.96 640.94 450.57 700.08 450.57 696.55 457.96 643.97 457.96" style="fill:#e0e0e0"></polygon><path d="M696.7,422a1.39,1.39,0,0,1-.23.36c-.19.26-.44.58-.74,1L692.86,427l-.13.16-.12-.17c-1.81-2.5-4.23-5.84-7.07-9.78H686l-7,9.86-.22.3-.25-.29-8.25-9.81h.48l-.46.57-7.37,9.25-.25.31-.23-.32c-2.5-3.55-4.84-6.86-7-9.85l.41,0L647.31,427l-.15.17L647,427c-1.13-1.89-2-3.41-2.68-4.51l-.69-1.2a2,2,0,0,1-.21-.43,3.25,3.25,0,0,1,.29.39l.76,1.15,2.82,4.43-.27,0,8.44-9.89.21-.25.19.27,7,9.8h-.47l7.36-9.26.46-.57.23-.3.24.29,8.23,9.84-.46,0,7-9.81.2-.28.21.28c2.78,4,5.14,7.36,6.91,9.88h-.25l3-3.59.81-.93A1.88,1.88,0,0,1,696.7,422Z" style="fill:#f5f5f5"></path><path d="M698.31,409.15c0,.17-12.38.3-27.64.3s-27.63-.13-27.63-.3,12.37-.31,27.63-.31S698.31,409,698.31,409.15Z" style="fill:#f5f5f5"></path><path d="M700.8,451c0,.17-13.45.31-30,.31s-30-.14-30-.31,13.45-.31,30-.31S700.8,450.81,700.8,451Z" style="fill:#f5f5f5"></path></g><g id="freepik--character-2--inject-504"><path d="M426,361.75s10.57-6.58,14.55-6.14l22.87,5.33s2,2.14-2,4.11-9-.86-9-.86l-5.56.78,3.84,3.21,15.17,4.67s11,3.1,9.66,4.72-4.64,1.82-9.38.48l-10.76-3s-1.88-.41,1.15,1.69,16.34,5.37,18.1,6.24,6.54,1.6,6,4.33-6.52.53-6.52.53l-19.7-4.57s7.78,3.36,9.1,4,5.63,1.81,7.93,3,3.4,2.67,3.14,3.88a2.3,2.3,0,0,1-2.49,1.94l-16.67-5.73s-7.56-3-8.07-2.9,2.95,3.33,2.95,3.33l5.32,2.73s7.68,2.57,7.7,4.7-1.58,2.05-1.58,2.05l-14-4.83-15.63-7.92-11.71-7.18s2.11-8.26,1.71-8.62S426,361.75,426,361.75Z" style="fill:#ffbe9d"></path><path d="M431.52,377.27c0-.16,1.47-.55,3.77-1.38s5.54-2.31,7.22-5.58a6.76,6.76,0,0,0,.76-4.36l-.1-.5.55-.07c2.43-.32,4.69-.85,6.22-1.05s2.51-.27,2.51-.14a12.9,12.9,0,0,1-2.39.71c-1.55.37-3.59,1-6.31,1.43l.45-.57a7.44,7.44,0,0,1-.79,5,10.2,10.2,0,0,1-3.8,4,16.16,16.16,0,0,1-4.09,1.77C433.09,377.25,431.55,377.39,431.52,377.27Z" style="fill:#eb996e"></path><polyline points="216.6 462.58 214.75 393.56 335.79 395.9 352.26 459.98 216.6 462.58" style="fill:#263238"></polyline><path d="M276.84,200.69l-9.1,8.62s-34,8.45-40,14.4-9,97.62-8.65,104,0,61.43,0,61.43-2,21,0,22.2,40.16,1.7,59.19,2.1,59.38,1.51,61.76-.47-5.91-43.08-5.91-43.08l-3.3-18.95,1-33.14,7-45.59L344,225s-13.87-8.32-20.61-9.91S276.84,200.69,276.84,200.69Z" style="fill:#455a64"></path><path d="M377.19,333.05,358.7,255.41a86.93,86.93,0,0,0-6.36-17.86c-2.87-5.89-6.42-12.31-8.37-12.54-11.47-1.32-17.44,33.7-17.44,33.7V303.1l10.82,48.08a21.27,21.27,0,0,0,14.32,15.61l73.39,23.36,8.51-36.43Z" style="fill:#455a64"></path><path d="M246.09,216.77s-27.89,3.94-36.9,25.22c0,0-27.87,108.48-23.21,122.77s40.69,69.42,40.69,69.42l31.59-16.67s-30.87-64.07-30.87-71.14S246.09,216.77,246.09,216.77Z" style="fill:#455a64"></path><path d="M258.26,417.51a1.88,1.88,0,0,1-.18-.35c-.12-.25-.27-.6-.47-1-.41-.95-1-2.29-1.76-4l-6.38-14.77c-5.34-12.51-12.71-29.75-20.85-48.79-.38-.88-.75-1.75-1.09-2.56l0-.06v0a26.21,26.21,0,0,1,.59-3.75c.26-1.22.53-2.43.82-3.61.56-2.38,1.16-4.71,1.75-7,1.19-4.57,2.35-9,3.44-13.17,2.22-8.37,4.19-15.89,5.79-22.21s2.82-11.44,3.67-15c.4-1.75.72-3.11.94-4.07.11-.45.2-.79.26-1.06a1.4,1.4,0,0,1,.11-.35,3.36,3.36,0,0,1-.06.36c-.05.27-.12.62-.21,1.07-.2,1-.48,2.34-.85,4.1-.78,3.55-1.94,8.68-3.51,15s-3.49,13.86-5.68,22.24c-1.08,4.2-2.23,8.6-3.41,13.17-.58,2.29-1.18,4.62-1.74,7a53.93,53.93,0,0,0-1.39,7.23l0-.1c.35.81.72,1.69,1.09,2.56l20.72,48.86L256,412c.71,1.74,1.27,3.09,1.67,4q.26.66.42,1.05C258.22,417.38,258.26,417.51,258.26,417.51Z" style="fill:#263238"></path><path d="M338.67,264a2.64,2.64,0,0,1,0,.64q0,.69-.09,1.8c-.11,1.63-.25,3.87-.43,6.62-.4,5.59-.88,13.31-1.77,21.82s-2.15,16.16-3.11,21.68c-.48,2.76-.89,5-1.19,6.53-.14.72-.26,1.31-.36,1.76a3.65,3.65,0,0,1-.15.62,2.7,2.7,0,0,1,.05-.63c.07-.47.15-1.06.26-1.79.25-1.61.6-3.83,1-6.55.86-5.53,2.06-13.18,2.95-21.67s1.43-16.22,1.92-21.8c.25-2.74.45-5,.6-6.61.07-.73.14-1.33.19-1.79A3,3,0,0,1,338.67,264Z" style="fill:#263238"></path><path d="M230.83,432l3.13,5.76s15.51-5.91,22.89-15.87l-2-2Z" style="fill:#ffbe9d"></path><path d="M261.43,416.25a11.19,11.19,0,0,1-.89,1.47c-.3.47-.67,1-1.15,1.66s-1,1.36-1.64,2.11-1.33,1.6-2.14,2.43-1.69,1.72-2.64,2.62a55.52,55.52,0,0,1-6.71,5.26,63.22,63.22,0,0,1-7.42,4.19,62.17,62.17,0,0,1-6.45,2.6c-.93.34-1.79.58-2.55.81s-1.4.4-1.94.52a10.92,10.92,0,0,1-1.68.36,10,10,0,0,1,1.62-.55c.53-.16,1.18-.35,1.92-.61s1.59-.52,2.51-.88c1.85-.66,4-1.57,6.36-2.69a68.92,68.92,0,0,0,7.35-4.18,60.55,60.55,0,0,0,6.67-5.18c.95-.88,1.86-1.72,2.65-2.57s1.52-1.63,2.17-2.37,1.19-1.45,1.68-2.05.9-1.15,1.22-1.6A10.19,10.19,0,0,1,261.43,416.25Z" style="fill:#455a64"></path><path d="M245.67,255.5c-.12,0,.3-1.84.21-4.79a19.34,19.34,0,0,0-.21-2.4,22.59,22.59,0,0,0-.51-2.72,26.22,26.22,0,0,0-5.85-11.11,25.67,25.67,0,0,0-2-1.95,18.55,18.55,0,0,0-1.87-1.53c-2.38-1.74-4.12-2.42-4.07-2.52a5,5,0,0,1,1.21.47,8.3,8.3,0,0,1,1.36.69,16.87,16.87,0,0,1,1.72,1.06,18.37,18.37,0,0,1,1.94,1.51,22.83,22.83,0,0,1,2,1.95,26.72,26.72,0,0,1,3.71,5.28,27,27,0,0,1,2.26,6,23.26,23.26,0,0,1,.47,2.77,19.7,19.7,0,0,1,.15,2.45,15.62,15.62,0,0,1-.09,2,10.31,10.31,0,0,1-.2,1.51A7.85,7.85,0,0,1,245.67,255.5Z" style="fill:#263238"></path><path d="M241.47,285.38c0,.14-9.24-2-20.55-4.69s-20.47-5-20.44-5.18,9.24,1.95,20.56,4.68S241.5,285.24,241.47,285.38Z" style="fill:#fff"></path><path d="M336.69,279.64c0,.15-20.72.62-46.27,1.05s-46.28.68-46.29.53,20.72-.61,46.28-1.05S336.69,279.5,336.69,279.64Z" style="fill:#fff"></path><path d="M366.33,284.84a4.72,4.72,0,0,1-1.13.24c-.72.13-1.78.28-3.09.46-2.61.36-6.23.79-10.24,1.19s-7.65.67-10.28.83c-1.32.08-2.39.13-3.13.15a4.19,4.19,0,0,1-1.15,0,6.32,6.32,0,0,1,1.14-.18l3.11-.32,10.26-1,10.25-1,3.11-.3A4.61,4.61,0,0,1,366.33,284.84Z" style="fill:#fff"></path><path d="M228.26,341.81c0,.14-8.91-1-19.84-2.59s-19.79-3-19.77-3.1,8.9,1,19.84,2.59S228.28,341.67,228.26,341.81Z" style="fill:#fff"></path><path d="M329.22,349.9c0,.14-21.46,1.74-48,3.57s-48,3.19-48,3,21.46-1.74,48-3.56S329.21,349.76,329.22,349.9Z" style="fill:#fff"></path><path d="M375.22,334.3a10,10,0,0,1-1.22,1.09l-3.44,2.84c-2.9,2.39-6.9,5.71-11.25,9.44s-8.25,7.19-11.05,9.7l-3.33,3a8.64,8.64,0,0,1-1.26,1,11,11,0,0,1,1.13-1.19c.74-.74,1.84-1.8,3.21-3.09,2.74-2.57,6.6-6.07,11-9.81s8.4-7,11.36-9.34c1.49-1.16,2.7-2.09,3.54-2.71A9.46,9.46,0,0,1,375.22,334.3Z" style="fill:#fff"></path><path d="M249.78,404.65a7.91,7.91,0,0,1-1.27.59L245,406.7l-11.64,4.77-11.61,4.87-3.52,1.46a7.53,7.53,0,0,1-1.32.48,7.55,7.55,0,0,1,1.24-.66c.81-.4,2-.95,3.46-1.62,2.93-1.34,7-3.12,11.55-5s8.69-3.5,11.71-4.63c1.51-.57,2.73-1,3.59-1.31A6.61,6.61,0,0,1,249.78,404.65Z" style="fill:#fff"></path><path d="M417.17,349.35a6.86,6.86,0,0,1-.19,1.44c-.16.92-.43,2.24-.79,3.87-.71,3.26-1.86,7.72-3.41,12.57s-3.22,9.16-4.53,12.22c-.66,1.54-1.21,2.77-1.61,3.61a7,7,0,0,1-.68,1.28,9,9,0,0,1,.49-1.36l1.46-3.67c1.22-3.09,2.82-7.4,4.37-12.24s2.75-9.27,3.55-12.5c.38-1.54.7-2.82.95-3.82A8.47,8.47,0,0,1,417.17,349.35Z" style="fill:#fff"></path><path d="M276.4,219.55a9.9,9.9,0,0,1-1.6.32l-4.38.75c-3.7.65-8.8,1.64-14.37,3s-10.55,2.79-14.14,3.91l-4.24,1.33a11,11,0,0,1-1.58.45,9.47,9.47,0,0,1,1.51-.64c1-.38,2.41-.89,4.2-1.49,3.56-1.21,8.54-2.72,14.13-4.07s10.7-2.28,14.43-2.84c1.86-.28,3.37-.48,4.41-.59A9.41,9.41,0,0,1,276.4,219.55Z" style="fill:#fff"></path><path d="M352.12,124.71c7.42,6.39,3.27,16.41,1.78,26.08s.24,20.29.63,30.07c.21,5.17,1.48,10.51-.2,15.4-1.75,5.12-6.34,8.62-9.91,12.7s-6.24,10.13-3.43,14.75a4.9,4.9,0,0,1-4.66-.64c-1.2,2.15-4.16,2.79-6.53,2.09s-4.29-2.39-6.12-4c-.28,1.77-2.43,2.73-4.19,2.37a9.28,9.28,0,0,1-4.42-2.92,12.08,12.08,0,0,0-4.24-3.23c-3.75-1.33-8.13,1.52-11.77-.1-5-2.21-4.51-10.85-9.68-12.62-2.43-.84-5.05.31-7.6.59s-5.29-2-4.94-4.52c-4.39,1.83-10,2.7-14.51,1.07a5.17,5.17,0,0,0,1.82-4.95,16.73,16.73,0,0,1-9.65-1.18,9.86,9.86,0,0,0,6.39-5.07,8.43,8.43,0,0,1-7.54-2.69c5.57.06,9.45-5.7,10.62-11.14s.76-11.26,3-16.36c2.41-5.55,7.57-9.42,10.7-14.6,4.37-7.22,4.49-16.43,9-23.56,3-4.67,5.78-8.65,10.26-11.89,5.66-4.1,8.9-6.22,15.89-6.13,5.86.08,15.88,1.71,20.88,4.77,8.88,5.44,18.31,11.51,22.25,21.15" style="fill:#263238"></path><path d="M286.4,167.55c-.42-7.72-.79-15.5.12-23.18s3.2-15.34,7.67-21.66c.68-.95,5.94-7.18,7-6.77.78.29-3.06,6.39-2.84,7.2,2.11,7.71,1,16-1.64,23.57a104.6,104.6,0,0,1-10.35,20.84" style="fill:#263238"></path><path d="M304.88,246.11c-11.53-3.33-33.23-25.9-30.15-37.5l18.53-69.78c4.38-18.91,19-32.12,37.81-27.22l1.71.56a34.69,34.69,0,0,1,23.05,41c-3.89,16.37-8.39,34.39-11.27,42.91-6,17.64-24.57,14.65-24.57,14.65s-1.22,4.14-2.68,9.41c-3.28,11.83-10.19,23.43-12.43,26Z" style="fill:#ffbe9d"></path><path d="M320,210.75s-11.38-3-20.86-14.3c0,0,1.23,15.12,19.42,19.25Z" style="fill:#eb996e"></path><path d="M344.89,167.68a2.66,2.66,0,0,1-3.27,1.76,2.54,2.54,0,0,1-1.87-3.12,2.68,2.68,0,0,1,3.27-1.77A2.56,2.56,0,0,1,344.89,167.68Z" style="fill:#263238"></path><path d="M349.53,159.78c-.42.23-1.88-1.81-4.6-2.69s-5.16-.16-5.35-.59c-.1-.19.42-.68,1.49-1a7.2,7.2,0,0,1,4.41.06,7,7,0,0,1,3.53,2.55C349.64,159,349.73,159.68,349.53,159.78Z" style="fill:#263238"></path><path d="M320,160.48a2.66,2.66,0,0,1-3.27,1.76,2.54,2.54,0,0,1-1.87-3.12,2.68,2.68,0,0,1,3.27-1.77A2.55,2.55,0,0,1,320,160.48Z" style="fill:#263238"></path><path d="M322.64,151.76c-.42.23-1.88-1.81-4.6-2.69s-5.16-.16-5.35-.59c-.09-.2.41-.69,1.49-1a7.32,7.32,0,0,1,4.42.07,7,7,0,0,1,3.53,2.55C322.75,151,322.84,151.66,322.64,151.76Z" style="fill:#263238"></path><path d="M325.62,175.84c0-.16,1.83.1,4.68.64.72.15,1.42.23,1.69-.21a3.72,3.72,0,0,0,.21-2.21c-.11-1.9-.22-3.88-.34-6-.41-8.46-.47-15.33-.13-15.34s.95,6.83,1.36,15.29q.14,3.12.25,6a4.29,4.29,0,0,1-.53,2.84,1.84,1.84,0,0,1-1.47.65,5.11,5.11,0,0,1-1.24-.22C327.3,176.54,325.58,176,325.62,175.84Z" style="fill:#263238"></path><path d="M325.7,141.51c-.6.57-3-1-6.19-2.13s-6-1.48-6.13-2.3c0-.39.71-.84,2-1a11.4,11.4,0,0,1,9.38,3.38C325.68,140.41,326,141.23,325.7,141.51Z" style="fill:#263238"></path><path d="M351,153.21c-.76.44-2.79-.89-5.46-1.74s-5.07-1.11-5.39-1.92c-.13-.38.41-.89,1.59-1.18a9,9,0,0,1,4.76.36,8.82,8.82,0,0,1,4,2.59C351.18,152.25,351.29,153,351,153.21Z" style="fill:#263238"></path><path d="M290.45,152.41c-.26-.23-11-7.54-14.54,4.69s9.47,13.27,9.59,12.92S290.45,152.41,290.45,152.41Z" style="fill:#ffbe9d"></path><path d="M283.1,164.3c0-.05-.25.09-.66.15a2.18,2.18,0,0,1-1.6-.43c-1.16-.84-1.65-3.21-1.07-5.43a7.22,7.22,0,0,1,1.48-2.88,2.53,2.53,0,0,1,2.07-1.17,1.13,1.13,0,0,1,1.09.94c.07.39-.08.62,0,.66s.32-.13.37-.67a1.38,1.38,0,0,0-.26-.9,1.7,1.7,0,0,0-1.09-.66,3.16,3.16,0,0,0-2.78,1.26,7.55,7.55,0,0,0-1.72,3.19c-.64,2.49,0,5.16,1.58,6.19a2.39,2.39,0,0,0,2,.24C283,164.59,283.14,164.34,283.1,164.3Z" style="fill:#eb996e"></path><path d="M353.58,130.64c2.3-.54-1.86-8.63-6.12-12.21C341,113,330.34,107.81,323,107.83c-8.83,0-16.77,2.2-23,8.5s-10.17,14.55-12.31,23.12c-.66,2.61-1.15,5.39-.37,8,.95,3.19,3.76,5.82,2.57,9.52a5.34,5.34,0,0,0,.22,4.1c1.58,3,5,1.55,6.85-.35,4-4.05,5.94-9.7,7.72-15.14,1.26-3.86,2.54-7.82,2.49-11.88,0-2.21-.45-4.41-.36-6.63a7.67,7.67,0,0,1,2.59-5.88,8.26,8.26,0,0,1,1.27-.72,13.27,13.27,0,0,1,13.37,1.13c6.22,4.38,17,11.33,20.73,9.85,5.38-2.13,7.06-4,7.06-4Z" style="fill:#263238"></path><path d="M317.64,175.2c-.18,0-.46.62-.52,1.75a7.1,7.1,0,0,0,1.2,4.22,11.7,11.7,0,0,0,3,3.07c.88.63,1.5.92,1.62.78s-.28-.69-1-1.48a27.08,27.08,0,0,1-2.51-3.1C317.74,177.93,318.06,175.23,317.64,175.2Z" style="fill:#263238"></path><path d="M290.2,154.09c0,.25,0,.5,0,.78C290.21,154.87,290.2,154.59,290.2,154.09Z" style="fill:#2B2E81"></path><path d="M286.94,150.63s3-1.76,3.26,3.46c-.06-6.74,1.15-55.4,47.82-42.42,0,0-15-9-28-5C310,106.64,285.44,110.23,286.94,150.63Z" style="fill:#455a64"></path><path d="M317.47,201.89c.1.19,1.41-.37,2.62-1.6s1.77-2.53,1.58-2.63-1,.94-2.14,2.07S317.35,201.7,317.47,201.89Z" style="fill:#263238"></path><path d="M314.94,200.67c.16.15,1.23-.79,2.39-2.1s2-2.48,1.8-2.63-1.24.8-2.4,2.1S314.77,200.53,314.94,200.67Z" style="fill:#263238"></path><path d="M313.4,199.07c.21.07.79-1.08,1.31-2.57s.76-2.75.55-2.82-.79,1.08-1.3,2.57S313.19,199,313.4,199.07Z" style="fill:#263238"></path><path d="M311.07,198.61c.22-.05,0-1.52.31-3.27s.95-3.07.75-3.2-1.22,1.13-1.53,3.07S310.87,198.69,311.07,198.61Z" style="fill:#263238"></path><path d="M307.79,196.66c.23,0,.14-1.47.35-3.19s.63-3.09.42-3.18-1,1.23-1.21,3.08S307.59,196.7,307.79,196.66Z" style="fill:#263238"></path><path d="M323.41,355.59s-.12.12-.38.31l-1.14.82c-1,.7-2.46,1.68-4.28,2.87-3.63,2.39-8.73,5.59-14.47,8.93s-11.05,6.17-14.93,8.15c-1.93,1-3.51,1.77-4.61,2.29l-1.27.59c-.3.13-.45.19-.46.17a2.06,2.06,0,0,1,.41-.26l1.23-.68,4.53-2.44c3.83-2,9.1-4.94,14.84-8.27s10.85-6.48,14.53-8.79l4.37-2.73,1.19-.73A1.83,1.83,0,0,1,323.41,355.59Z" style="fill:#263238"></path><path d="M377.15,332.93a37,37,0,0,0-12.45,11.72,8.83,8.83,0,0,1,1.21-2.25,26.79,26.79,0,0,1,4-4.72,27.4,27.4,0,0,1,4.95-3.68A8.87,8.87,0,0,1,377.15,332.93Z" style="fill:#263238"></path></g><g id="freepik--character-3--inject-504"><path d="M376.13,319.94s-35.53,4.21-48.67,14.71a45,45,0,0,0-5.77,5.62,60.22,60.22,0,0,0-14.29,34.15l-4.76,52.25.38,8.63a25.27,25.27,0,0,0,25.16,24.15l146.82,1s19.28-21.52,14.23-54.9c-1.19-7.85-3.09-34.77-10.53-51.34-3.93-8.76-9.95-19.58-25.84-23.8l-37.09-10.49Z" style="fill:#263238"></path><path d="M342.83,362.44a5.73,5.73,0,0,1-.3-1.17c-.16-.75-.41-1.84-.74-3.18a68.65,68.65,0,0,0-3.44-10.2,67.57,67.57,0,0,0-5.06-9.49c-.75-1.17-1.37-2.09-1.82-2.73a6.62,6.62,0,0,1-.64-1,5.21,5.21,0,0,1,.81.9c.49.6,1.16,1.5,1.95,2.64a56.73,56.73,0,0,1,5.24,9.5A57.4,57.4,0,0,1,342.15,358c.29,1.36.48,2.47.58,3.24A4.91,4.91,0,0,1,342.83,362.44Z" style="fill:#455a64"></path><path d="M349,422c-.15,0-1.72-11.4-3.51-25.51s-3.13-25.56-3-25.57,1.71,11.4,3.51,25.51S349.14,422,349,422Z" style="fill:#455a64"></path><path d="M342.5,366.93a11.31,11.31,0,0,1-2.5-1.06,45.41,45.41,0,0,1-10.69-7.53,10.62,10.62,0,0,1-1.84-2,20.31,20.31,0,0,1,2.08,1.73c1.27,1.08,3.05,2.53,5.13,4s4,2.65,5.49,3.47A18.38,18.38,0,0,1,342.5,366.93Z" style="fill:#455a64"></path><path d="M437.64,376.6a10.76,10.76,0,0,1,0-1.79,19.69,19.69,0,0,1,.14-2.09c.09-.81.15-1.74.35-2.75a32.23,32.23,0,0,1,.67-3.3c.25-1.19.65-2.42,1-3.72a46.58,46.58,0,0,1,8.65-15.36c.91-1,1.75-2,2.63-2.83a33.33,33.33,0,0,1,2.48-2.28c.76-.7,1.52-1.23,2.17-1.73a18.05,18.05,0,0,1,1.71-1.2,12.09,12.09,0,0,1,1.53-.92,11.61,11.61,0,0,1-1.41,1.08c-.47.33-1,.74-1.65,1.27s-1.37,1.07-2.11,1.77-1.59,1.44-2.41,2.31-1.68,1.83-2.57,2.84a48.59,48.59,0,0,0-8.56,15.21c-.41,1.28-.83,2.49-1.09,3.66s-.54,2.26-.73,3.26-.3,1.92-.42,2.73-.19,1.49-.23,2.07A13.12,13.12,0,0,1,437.64,376.6Z" style="fill:#455a64"></path><path d="M423,436.61a5.41,5.41,0,0,1-.11-1.84,5.55,5.55,0,0,1,2.63-4.3l0,0A45.38,45.38,0,0,1,440.54,420l-.15.21c.2-1.88.41-3.83.56-5.84a172.13,172.13,0,0,0,.3-22c-.13-2.81-.33-5.09-.44-6.66-.06-.74-.11-1.34-.15-1.81a2.82,2.82,0,0,1,0-.64,2.66,2.66,0,0,1,.12.63c.07.46.15,1.06.25,1.8.17,1.57.43,3.84.61,6.66a154.76,154.76,0,0,1-.15,22.07c-.15,2-.36,4-.57,5.86l0,.15-.14.06a46.49,46.49,0,0,0-15,10.23h0l0,0a5.31,5.31,0,0,0-1.95,2,5.46,5.46,0,0,0-.65,2C422.93,436,423.07,436.6,423,436.61Z" style="fill:#455a64"></path><path d="M464.9,432.38c-.09.05-.85-1.39-2.52-3.39a25.87,25.87,0,0,0-7.84-6.32,25.12,25.12,0,0,0-5.18-2,19.67,19.67,0,0,0-4.5-.59c-2.6,0-4.21.3-4.22.2a4.64,4.64,0,0,1,1.11-.27,20.46,20.46,0,0,1,3.11-.3,18.07,18.07,0,0,1,4.61.5,23.75,23.75,0,0,1,5.31,2,24.36,24.36,0,0,1,7.89,6.55,20.16,20.16,0,0,1,1.73,2.59A4.79,4.79,0,0,1,464.9,432.38Z" style="fill:#455a64"></path><path d="M464.18,418.71c0,.09-1.22-.47-3.25-1a24.72,24.72,0,0,0-3.6-.62,34.39,34.39,0,0,0-4.49-.12,40.79,40.79,0,0,0-8.06,1.23c-2,.53-3.25,1-3.28.89a3.24,3.24,0,0,1,.82-.4,22.39,22.39,0,0,1,2.36-.84,33.72,33.72,0,0,1,8.14-1.4,31.9,31.9,0,0,1,4.56.16,22.71,22.71,0,0,1,3.65.74,14,14,0,0,1,1.35.46,7.19,7.19,0,0,1,1,.42A3.13,3.13,0,0,1,464.18,418.71Z" style="fill:#455a64"></path><path d="M436.35,260.7c-2.93-12.44-8.16-25.15-18.48-32.71-9.18-6.73-22.58-9.29-33.94-8.45-5.59.42-11.83,3.21-16.62,6.13-6.56,4-9.15,11.77-12.15,18.85-6,14.19-4.57,33.08,0,38.2l59.39,28.94c10.17-5.72,21.18-13.42,23.55-24.83C439.69,279.05,438.17,268.43,436.35,260.7Z" style="fill:#2B2E81"></path><path d="M413.86,238.63,376.76,229c-11.9-1.34-19.91,13.27-20.75,25.21-.92,13.26-1.53,29.5,0,39.41,3,19.93,18.28,24.66,18.28,24.66s0,17.32.11,23.23l17.31,52.72,24.61-52.72,3.79-95.71A7,7,0,0,0,413.86,238.63Z" style="fill:#ffbe9d"></path><path d="M362.64,270.26a2.56,2.56,0,0,0,2.45,2.59,2.44,2.44,0,0,0,2.64-2.28,2.55,2.55,0,0,0-2.44-2.6A2.45,2.45,0,0,0,362.64,270.26Z" style="fill:#263238"></path><path d="M359.48,262.66c.31.33,2.26-1.09,5-1.06s4.76,1.41,5.06,1.08c.14-.15-.17-.75-1.05-1.4a7,7,0,0,0-4-1.27,6.75,6.75,0,0,0-4,1.25C359.61,261.91,359.32,262.51,359.48,262.66Z" style="fill:#263238"></path><path d="M387.58,270.26a2.55,2.55,0,0,0,2.44,2.59,2.45,2.45,0,0,0,2.65-2.28,2.56,2.56,0,0,0-2.44-2.6A2.44,2.44,0,0,0,387.58,270.26Z" style="fill:#263238"></path><path d="M386.49,263.35c.31.34,2.26-1.08,5-1.05s4.76,1.41,5.06,1.08c.14-.15-.17-.75-1.05-1.4a7.06,7.06,0,0,0-4-1.28,6.75,6.75,0,0,0-4,1.26C386.62,262.6,386.33,263.2,386.49,263.35Z" style="fill:#263238"></path><path d="M376.37,283.67c0-.16-1.69-.47-4.45-.84-.71-.08-1.37-.22-1.48-.7a3.49,3.49,0,0,1,.48-2.08l2.11-5.33c2.93-7.58,5.06-13.83,4.76-13.94s-2.94,5.94-5.87,13.53c-.71,1.87-1.38,3.65-2,5.36a4,4,0,0,0-.39,2.75,1.75,1.75,0,0,0,1.15,1,4.25,4.25,0,0,0,1.19.18C374.63,283.8,376.36,283.82,376.37,283.67Z" style="fill:#263238"></path><path d="M374.22,318.41l.11,5c19.92,2,26.6-11.89,26.6-11.89A50.58,50.58,0,0,1,374.22,318.41Z" style="fill:#eb996e"></path><path d="M385.42,288.86a4.42,4.42,0,0,0-3.66-2,5.75,5.75,0,0,0-5.25,2.56,3.56,3.56,0,0,0-.25,2.57c.19.44,0,.23.38.53a10,10,0,0,0,4.09,2.57,4.31,4.31,0,0,0,4.56-1.64A4.38,4.38,0,0,0,385.42,288.86Z" style="fill:#eb996e"></path><path d="M384.45,285.62c-.45,0-.48,3-3,5.05s-5.74,1.76-5.77,2.17c0,.19.71.59,2.05.63a7.37,7.37,0,0,0,4.81-1.64,6.45,6.45,0,0,0,2.36-4.24C385,286.35,384.65,285.61,384.45,285.62Z" style="fill:#263238"></path><path d="M385.25,254.55c.27.75,3,.41,6.24.82s5.82,1.31,6.25.64c.2-.32-.25-1-1.3-1.75a10.91,10.91,0,0,0-9.51-1.12C385.74,253.61,385.14,254.19,385.25,254.55Z" style="fill:#2B2E81"></path><path d="M360.54,253.17c.48.62,2.38,0,4.65,0s4.21.45,4.65-.2c.2-.31-.1-.94-.94-1.54a6.72,6.72,0,0,0-7.49.18C360.6,252.22,360.33,252.86,360.54,253.17Z" style="fill:#2B2E81"></path><path d="M414.72,270c.27-.12,11.08-3.56,11,7.56s-11.24,8.72-11.26,8.4S414.72,270,414.72,270Z" style="fill:#ffbe9d"></path><path d="M417.89,281.79s.19.14.51.29a1.9,1.9,0,0,0,1.45,0c1.18-.42,2.18-2.27,2.26-4.27a6.51,6.51,0,0,0-.52-2.78,2.21,2.21,0,0,0-1.45-1.5,1,1,0,0,0-1.14.52c-.15.31-.09.53-.14.55s-.24-.19-.15-.65a1.22,1.22,0,0,1,.45-.69,1.46,1.46,0,0,1,1.07-.27,2.71,2.71,0,0,1,2,1.74,6.63,6.63,0,0,1,.64,3.1c-.09,2.24-1.26,4.33-2.87,4.78a2.13,2.13,0,0,1-1.77-.31C417.9,282.06,417.85,281.81,417.89,281.79Z" style="fill:#eb996e"></path><path d="M421.56,285.5c.05-.06.48.46.41,1.46a2.05,2.05,0,0,1-.78,1.56,2.32,2.32,0,0,1-2.13.15,2.24,2.24,0,0,1-1.48-1.54,2.36,2.36,0,0,1,.3-1.71c.55-.86,1.25-.94,1.25-.88s-.53.3-.9,1.07a2,2,0,0,0-.15,1.39,1.79,1.79,0,0,0,1.18,1.14,1.84,1.84,0,0,0,1.63-.05,1.78,1.78,0,0,0,.69-1.18A6.6,6.6,0,0,0,421.56,285.5Z" style="fill:#263238"></path><path d="M355.12,257.34c1.5-3.22,4.41-5.57,7.5-7.33s6.43-3,9.5-4.82a33.4,33.4,0,0,0,14.94-18.68c-5.47-2.83-12.28-2.5-17.8.23A27.2,27.2,0,0,0,357,240a42.71,42.71,0,0,0-3.39,18" style="fill:#2B2E81"></path><path d="M417.27,235.66c-8.22-7.81-23.75-12.12-34.46-8.46,1.59,9.35,8.65,19.86,14.86,27s10,19.87,23.63,15.57c.93-.29,2,.56,2.85.06a3.42,3.42,0,0,0,1.31-2.06A31.86,31.86,0,0,0,417.27,235.66Z" style="fill:#2B2E81"></path><path d="M355.74,270.85a4.14,4.14,0,0,1-1.95-.11,7.65,7.65,0,0,1-4.27-3.15,11.61,11.61,0,0,1-1.69-7.68,28.85,28.85,0,0,1,.78-4.61c.36-1.59.86-3.19,1.4-4.82a49.27,49.27,0,0,1,8.66-15.21,44.69,44.69,0,0,1,3.66-3.86l1.08-.95a2,2,0,0,1,.41-.31,13.14,13.14,0,0,1-1.34,1.41c-.85.92-2.12,2.21-3.5,4a51.34,51.34,0,0,0-8.43,15.14,48.64,48.64,0,0,0-1.4,4.75,28.61,28.61,0,0,0-.8,4.53,11.38,11.38,0,0,0,1.5,7.42,7.56,7.56,0,0,0,4,3.15A10.3,10.3,0,0,0,355.74,270.85Z" style="fill:#2B2E81"></path><path d="M450,236.91c0-5.22-1.47-10.62-5-14.44-4.93-5.3-13.56-6.49-20-3.12s-10.28,10.8-9.85,18A22.39,22.39,0,0,0,426.33,255l4.59-.52c4.6,2.43,10.63.71,14.17-3.09S450,242.11,450,236.91Z" style="fill:#2B2E81"></path><path d="M421.94,233.85s-.06.14-.23.37a10.65,10.65,0,0,1-.77,1,19.73,19.73,0,0,1-3.37,3.18,21.87,21.87,0,0,1-28.26-1.55,20,20,0,0,1-3-3.53c-.31-.45-.5-.83-.65-1.08s-.21-.39-.19-.4a30.88,30.88,0,0,0,4.1,4.74,22.62,22.62,0,0,0,5.64,3.73,21.18,21.18,0,0,0,16.14.88,22.77,22.77,0,0,0,6-3.08A30,30,0,0,0,421.94,233.85Z" style="fill:#fff"></path><path d="M427.28,249a2.47,2.47,0,0,1-.37.37,11.54,11.54,0,0,1-1.17,1,17.59,17.59,0,0,1-4.95,2.6,22.36,22.36,0,0,1-8.23,1.11,25.33,25.33,0,0,1-9.84-2.54,32,32,0,0,1-8.24-6,42.13,42.13,0,0,1-5.28-6.39,49.12,49.12,0,0,1-2.89-4.79c-.32-.58-.53-1-.69-1.36a2.85,2.85,0,0,1-.2-.49,2.29,2.29,0,0,1,.3.45l.76,1.3c.67,1.14,1.66,2.76,3,4.67a44.25,44.25,0,0,0,5.32,6.27,32.69,32.69,0,0,0,8.13,5.84,25.39,25.39,0,0,0,9.64,2.52,22.45,22.45,0,0,0,8.08-1,18.85,18.85,0,0,0,5-2.42C426.7,249.42,427.24,248.94,427.28,249Z" style="fill:#fff"></path><path d="M445.51,232s-.14.26-.47.68a13.11,13.11,0,0,1-1.57,1.63,17.86,17.86,0,0,1-2.7,2,20.71,20.71,0,0,1-3.72,1.76,21.69,21.69,0,0,1-4,.93,18.71,18.71,0,0,1-3.36.1,14.15,14.15,0,0,1-2.24-.31,2.52,2.52,0,0,1-.8-.24c0-.09,1.18.15,3.05.18A20.77,20.77,0,0,0,443.23,234C444.68,232.85,445.44,232,445.51,232Z" style="fill:#fff"></path><path d="M449.65,239a1.65,1.65,0,0,1,.14.9,4.15,4.15,0,0,1-.86,2.33,7.3,7.3,0,0,1-2.93,2.23,22,22,0,0,1-4.24,1.41,22.77,22.77,0,0,1-8.07.35,21.12,21.12,0,0,1-2.41-.49,2.7,2.7,0,0,1-.84-.32c0-.09,1.25.25,3.29.44a25.31,25.31,0,0,0,7.92-.49c3-.71,5.76-1.74,7-3.35a4.43,4.43,0,0,0,.95-2.13C449.67,239.31,449.61,239,449.65,239Z" style="fill:#fff"></path><path d="M424.52,442.18a1.84,1.84,0,0,1-.55.05c-.36,0-.9,0-1.58,0a36.18,36.18,0,0,1-5.8-.56,39,39,0,0,1-29.13-22.85,36.16,36.16,0,0,1-1.92-5.5c-.19-.66-.27-1.19-.35-1.54a3.76,3.76,0,0,1-.09-.55,17.43,17.43,0,0,1,.63,2,43.26,43.26,0,0,0,2.07,5.41,39.84,39.84,0,0,0,28.86,22.64,42.22,42.22,0,0,0,5.73.72C423.76,442.13,424.52,442.14,424.52,442.18Z" style="fill:#455a64"></path><path d="M377.7,439a2.24,2.24,0,0,1-.44-.24l-1.21-.78L371.66,435a127.32,127.32,0,0,0-15-8.76A58.21,58.21,0,0,0,340.25,421a47.21,47.21,0,0,0-5.23-.48,18.63,18.63,0,0,1-1.93-.08,1.65,1.65,0,0,1,.5-.06c.32,0,.81-.07,1.43-.06a36.52,36.52,0,0,1,5.28.32,54.8,54.8,0,0,1,16.62,5.15,112.73,112.73,0,0,1,14.95,8.93c1.83,1.26,3.29,2.31,4.3,3.05l1.15.86C377.58,438.82,377.71,438.93,377.7,439Z" style="fill:#455a64"></path><polygon points="427.98 436.36 359.71 439.81 365 459.92 455.98 460.34 427.98 436.36" style="fill:#ffbe9d"></polygon><path d="M362.88,439.65s-22.06-11-24.79-11.11c-2.09-.07-14.21,2-19.79,2.95a4,4,0,0,0-3.42,4.49,3.4,3.4,0,0,0,3.18,2.75,4.29,4.29,0,0,0-2.34,4.43c.44,3.17,4.36,3.25,4.36,3.25a5.28,5.28,0,0,0-.47.57,3.8,3.8,0,0,0,2.81,6l1.78.13s-2.18,1.33-1.82,3.49c.7,4.14,10.16,3.52,10.16,3.52l32.46-.23Z" style="fill:#ffbe9d"></path><path d="M319.7,426.25c.31,1.35,1.08,4.22,3.61,5.18L336.1,429s-10.09-1.85-11.7-3.27a11.2,11.2,0,0,0-2.11-1.52A1.84,1.84,0,0,0,319.7,426.25Z" style="fill:#ffbe9d"></path><path d="M330,429.77c0,.22-2.56.87-5.82,1.31s-5.88.71-5.92.47,2.55-.87,5.81-1.31S330,429.53,330,429.77Z" style="fill:#eb996e"></path><path d="M328.23,437.39c.06.22-2.15,1-5,1.29s-5.17.11-5.16-.11,2.28-.4,5.06-.73S328.17,437.16,328.23,437.39Z" style="fill:#eb996e"></path><path d="M334.63,435.47c.21.09.07.83-.58,1.41s-1.4.63-1.47.42.4-.59.91-1.05S334.42,435.37,334.63,435.47Z" style="fill:#eb996e"></path><path d="M330.89,445.32c0,.23-2.45.72-5.51,1.08s-5.57.47-5.61.24,2.43-.71,5.51-1.07S330.87,445.09,330.89,445.32Z" style="fill:#eb996e"></path><path d="M337.71,440.76c.1,0,.34.19.48.68a2.68,2.68,0,0,1-1.81,3.21c-.5.14-.82.05-.83-.06s1.05-.54,1.64-1.6S337.5,440.85,337.71,440.76Z" style="fill:#eb996e"></path><path d="M334,453c0,.23-2.24.48-5,.56s-5.05-.05-5.05-.28,2.24-.48,5-.56S334,452.78,334,453Z" style="fill:#eb996e"></path><path d="M340.61,447.86c.1,0,.3.22.36.73a3.09,3.09,0,0,1-.42,1.85c-.77,1.28-1.76,1.85-1.9,1.72s.53-1.06,1.16-2.13S340.4,447.93,340.61,447.86Z" style="fill:#eb996e"></path></g><g id="freepik--character-1--inject-504"><path d="M275.75,449c-4.48-2.13-19.43-8-19.43-8L249,391l-29.78,4.47s17.33,63.73,22,64.17,31.23,0,31.23,0l8.66-.13S278.89,450.48,275.75,449Z" style="fill:#9b6e65"></path><path d="M255,458.08a3.33,3.33,0,0,1-1.49.55,8.66,8.66,0,0,1-7.25-1.93,3.46,3.46,0,0,1-1-1.22c.07-.06.48.37,1.25.93a10.11,10.11,0,0,0,3.31,1.57,10.3,10.3,0,0,0,3.65.29A9.62,9.62,0,0,1,255,458.08Z" style="fill:#704c45"></path><path d="M272.22,459.49c-.07.05-.69-1-1.83-2.52a12.36,12.36,0,0,0-2.3-2.37,12.67,12.67,0,0,0-3.63-1.78,35.7,35.7,0,0,1-6.82-3.22,16.29,16.29,0,0,1-2.6-1.72,19.13,19.13,0,0,1,2.78,1.4,44.62,44.62,0,0,0,6.82,3.05,12.46,12.46,0,0,1,3.75,1.89,11.22,11.22,0,0,1,2.3,2.54,21,21,0,0,1,1.19,2A2.62,2.62,0,0,1,272.22,459.49Z" style="fill:#704c45"></path><path d="M185.14,225.9l-11,7.58s-13.7-.82-23.64,2.56c-5.51,1.88-12.19,4.15-19.43,11.48a54.41,54.41,0,0,0-13.83,24.06L103.93,382.45l-20.2,78.23H218.2v-99l12.87-45.41s-3.34-5.24-3.24-7.33,7.61-50.48,7.61-50.48l-15.33-18.34Z" style="fill:#2B2E81"></path><path d="M233.64,256.16s7.61,3.55,9.47,16.84,15.34,115.86,15.34,115.86-14.89,3.44-28.48,5l-17.11,2.91-.43-68.58Z" style="fill:#2B2E81"></path><g style="opacity:0.2"><path d="M131.37,457.56c22.86-27.4,26.45-67.14,49.6-94.3l-14.17,8c2.51-23.61,4.92-48.16-3-70.55A619.24,619.24,0,0,1,130.7,457.45"></path></g><path d="M168,258.3q-.78,63.43-5.82,126.71a52.56,52.56,0,0,1-2.16,9.67,7,7,0,0,1-7.74,4.83l-27.59-4.16c-4.8-.81-6.62-1.45-8.06-4.55a15.1,15.1,0,0,1-1.32-6.83c1.06-37.75-2.24-57.75,0-93.44" style="fill:#2B2E81"></path><path d="M115.39,290.53s0,.25,0,.73-.05,1.22-.09,2.16c-.1,1.9-.23,4.69-.34,8.29s-.2,8-.22,13.13.08,10.94.26,17.38c.36,12.88,1,28.23.75,45.28,0,2.13-.09,4.28-.14,6.47a15.19,15.19,0,0,0,1.14,6.36,6.19,6.19,0,0,0,4.72,4.09,66.47,66.47,0,0,0,6.75,1.2l14,2.1,7.15,1.08c1.19.17,2.42.39,3.59.51a6.78,6.78,0,0,0,3.43-.68,6.85,6.85,0,0,0,2.63-2.32,11.15,11.15,0,0,0,1.3-3.31,54.12,54.12,0,0,0,1.56-7c.44-4.73.76-9.46,1.11-14.08.68-9.25,1.26-18.17,1.77-26.68,1-17,1.69-32.34,2.15-45.22s.72-23.3.88-30.51c.08-3.59.14-6.38.18-8.29q0-1.41.06-2.16c0-.49,0-.74,0-.74s0,.25,0,.74v2.16c0,1.91-.05,4.7-.09,8.3-.09,7.2-.29,17.63-.71,30.51s-1.07,28.22-2,45.24c-.5,8.51-1.07,17.44-1.74,26.69-.34,4.63-.66,9.32-1.11,14.11a56.67,56.67,0,0,1-1.57,7.1,11.68,11.68,0,0,1-1.37,3.45,7.17,7.17,0,0,1-2.83,2.49,7.27,7.27,0,0,1-3.69.74c-1.26-.13-2.43-.35-3.64-.52l-7.15-1.08-14-2.11a65,65,0,0,1-6.8-1.22,7.62,7.62,0,0,1-3.13-1.52,7.81,7.81,0,0,1-1.92-2.86A15.7,15.7,0,0,1,115.1,384q.08-3.27.15-6.46c.31-17-.33-32.37-.63-45.26-.16-6.44-.22-12.27-.19-17.39s.15-9.53.31-13.13.3-6.4.43-8.29l.15-2.16C115.36,290.78,115.39,290.53,115.39,290.53Z" style="fill:#263238"></path><path d="M218.2,399.24a1.57,1.57,0,0,1,0-.32c0-.24,0-.55,0-.93,0-.86.07-2.07.12-3.6.06-3.13.45-7.64,1.1-13.19.41-2.77.75-5.82,1.4-9,.3-1.62.57-3.3.94-5s.74-3.48,1.13-5.28c1.62-7.22,3.69-15.07,5.62-23.37,4-16.57,5.43-32,5.12-43.19l-.27-7.52c-.12-2.22-.34-4.12-.46-5.67s-.22-2.73-.29-3.59c0-.39-.05-.69-.06-.93s0-.32,0-.32a1.24,1.24,0,0,1,.06.31l.12.93c.09.85.22,2.05.39,3.58s.39,3.45.54,5.67.22,4.75.35,7.54c.41,11.17-.95,26.71-5,43.31-1.93,8.31-4,16.16-5.66,23.35-.4,1.8-.78,3.56-1.16,5.27s-.64,3.38-1,5c-.66,3.22-1,6.26-1.45,9-.7,5.54-1.14,10-1.26,13.16-.1,1.53-.17,2.73-.23,3.59,0,.39-.05.69-.07.93A1.64,1.64,0,0,1,218.2,399.24Z" style="fill:#263238"></path><path d="M217.25,331.89a3,3,0,0,1-.39.46l-1.19,1.24c-1,1.08-2.57,2.59-4.5,4.43-3.85,3.68-9.36,8.59-15.76,13.62s-12.47,9.22-17,12.09c-2.25,1.44-4.08,2.58-5.37,3.33l-1.49.85a2.11,2.11,0,0,1-.53.27,2.88,2.88,0,0,1,.48-.35l1.43-.95c1.26-.8,3.06-2,5.28-3.45,4.43-2.95,10.45-7.18,16.84-12.2s11.92-9.87,15.83-13.48c2-1.8,3.53-3.27,4.61-4.3l1.25-1.17A2.25,2.25,0,0,1,217.25,331.89Z" style="fill:#263238"></path><g style="opacity:0.2"><path d="M233.28,310.44c-3.28,30.45-14.12,63.72-15.08,82.93,4.3-13.69,9.74-26.77,13.74-40.55S237.74,324.08,233.28,310.44Z"></path></g><path d="M253.1,133.35A7.81,7.81,0,0,0,257,121.59c-1-1.54-2.61-2.68-3.55-4.29a25,25,0,0,1-1.58-4.34,15.79,15.79,0,0,0-10.66-9.53,20.37,20.37,0,0,0-14.42,1.69c-1.76.89-3.48,2-5.44,2.18s-3.74-.6-5.61-1a13,13,0,0,0-14.57,17.06,11.15,11.15,0,0,0-.13,22c3.16.57,6.39-.25,9.52-1a169.79,169.79,0,0,1,38.71-4.32" style="fill:#263238"></path><path d="M187.44,201.89a39.88,39.88,0,0,1-5.18-26.73c1.49-9.14,5.21-20.19,12.26-26.2-3.07-5-.5-9.43,3.32-13.91s9.51-7,15.2-8.48a63.32,63.32,0,0,1,26.1-1.38c7.07,1.11,16.18,4.16,16.12,9.4-.07,5.47-4,7.14-4,7.14a35.34,35.34,0,0,1,11.48,10.42c7.08,10.14,8.8,19.31,5.74,28.53s-6.57,16.19-13.44,21.06" style="fill:#2B2E81"></path><path d="M247.25,211.74a8.93,8.93,0,0,1,4-1.45l-.26-.07a5,5,0,0,1,.77.05,3.5,3.5,0,0,1,2.6,1h0a6.53,6.53,0,0,1,2.76,3.84,7.72,7.72,0,0,1-2.72,7.55,5.91,5.91,0,0,1-10.09-4.47A7.35,7.35,0,0,1,247.25,211.74Z" style="fill:#455a64"></path><path d="M184.63,233.25l11.12-73.36a7.2,7.2,0,0,1,7.79-5.85L243,152.31c12.26,1.21,17.18,17.63,15.45,29.82-1.92,13.55-4.8,30-8.45,39.67-7.33,19.4-23.24,18.78-23.24,18.78s-3,13.89-4.57,21.17L214,290.53Z" style="fill:#9b6e65"></path><path d="M250.65,198a2.63,2.63,0,0,1-3,2.09,2.52,2.52,0,0,1-2.17-2.87,2.63,2.63,0,0,1,3-2.09A2.52,2.52,0,0,1,250.65,198Z" style="fill:#263238"></path><path d="M253.09,189.91c-.39.27-2-1.57-4.81-2.14s-5.08.4-5.31,0c-.12-.18.33-.72,1.35-1.18a7.24,7.24,0,0,1,4.34-.42,7,7,0,0,1,3.74,2.13C253.12,189.13,253.28,189.79,253.09,189.91Z" style="fill:#263238"></path><path d="M224.6,193.23a2.62,2.62,0,0,1-3,2.08,2.51,2.51,0,0,1-2.17-2.87,2.62,2.62,0,0,1,3-2.08A2.52,2.52,0,0,1,224.6,193.23Z" style="fill:#263238"></path><path d="M225.77,184.8c-.39.27-2.05-1.57-4.81-2.14s-5.09.4-5.32,0c-.12-.18.33-.72,1.35-1.18a7.18,7.18,0,0,1,4.34-.41,6.9,6.9,0,0,1,3.75,2.12C225.79,184,226,184.68,225.77,184.8Z" style="fill:#263238"></path><path d="M231.57,207.41c0-.16,1.8-.1,4.67.12.72.08,1.42.07,1.64-.38a3.74,3.74,0,0,0,0-2.2c-.31-1.85-.64-3.78-1-5.81-1.32-8.27-2.12-15-1.79-15.06s1.68,6.61,3,14.88c.3,2,.6,4,.88,5.83a4.19,4.19,0,0,1-.21,2.85,1.8,1.8,0,0,1-1.37.79,4.75,4.75,0,0,1-1.24-.08C233.29,207.92,231.55,207.57,231.57,207.41Z" style="fill:#263238"></path><path d="M226.71,240.58a52.09,52.09,0,0,1-25.39-12.73S205,243,225.46,245.26Z" style="fill:#704c45"></path><path d="M229.8,213.91a7,7,0,0,0-5-4.13,4.54,4.54,0,0,0-4.06,1.23,4.39,4.39,0,0,0-.86,4.49,4.33,4.33,0,0,0,4.16,2.54,10.2,10.2,0,0,0,4.6-1.68,3.1,3.1,0,0,0,1.09-.85,1.44,1.44,0,0,0,.18-1.43" style="fill:#704c45"></path><path d="M223,207.65c.45.06-.16,3.07,2,5.73s5.4,3,5.33,3.42c0,.2-.83.44-2.19.2a7.67,7.67,0,0,1-4.49-2.69,6.65,6.65,0,0,1-1.46-4.77C222.34,208.26,222.82,207.59,223,207.65Z" style="fill:#263238"></path><path d="M228.43,177.52c-.43.7-3.12-.23-6.45-.51s-6.14.06-6.43-.7c-.12-.36.48-1,1.69-1.49a10.84,10.84,0,0,1,5-.67,10.66,10.66,0,0,1,4.8,1.6C228.15,176.47,228.62,177.19,228.43,177.52Z" style="fill:#263238"></path><path d="M253.73,181.69c-.62.53-2.39-.52-4.68-1s-4.32-.45-4.63-1.2c-.13-.36.31-.93,1.28-1.35a6.93,6.93,0,0,1,7.5,1.8C253.88,180.72,254,181.42,253.73,181.69Z" style="fill:#263238"></path><path d="M244.45,158.6s-18.74-4.3-37.51,13.88c-12.37,12-18.1,29.13-18.1,29.13l-.12-35,8.71-14.07L212,148l24.95,3.89,8.32,6.6" style="fill:#2B2E81"></path><path d="M207.24,152.46c31.49-.81,53.31,14.23,52.68,38.65l9.4-14.15-11.58-22.09-16.09-8.09-35.46-2.12Z" style="fill:#2B2E81"></path><path d="M184.73,198.45a9.58,9.58,0,0,1,4.27-1.56l-.28-.08a5.78,5.78,0,0,1,.83.05,3.77,3.77,0,0,1,2.8,1h0a7.06,7.06,0,0,1,3,4.15,8.35,8.35,0,0,1-2.93,8.12,6.36,6.36,0,0,1-10.86-4.82A7.9,7.9,0,0,1,184.73,198.45Z" style="fill:#455a64"></path><path d="M194.1,189.27a3,3,0,0,1-1.23-.77,7.7,7.7,0,0,1-2.16-3.34,7.8,7.8,0,0,1,.33-5.88c.48-1,1.1-2,1.51-3a3.38,3.38,0,0,0-.16-3.15,11.8,11.8,0,0,0-2.53-2.45,8.72,8.72,0,0,1-2.28-2.7,9.73,9.73,0,0,1-1-5.82,8.47,8.47,0,0,1,1.4-3.71,3.16,3.16,0,0,1,1-1.06,11.23,11.23,0,0,0-1.8,4.84,9.3,9.3,0,0,0,1.11,5.37,7.92,7.92,0,0,0,2.13,2.45,12,12,0,0,1,2.71,2.64,4.16,4.16,0,0,1,.21,3.88c-.46,1.16-1.11,2.12-1.57,3.07a7.38,7.38,0,0,0-.47,5.37,8.13,8.13,0,0,0,1.83,3.27C193.71,188.92,194.14,189.21,194.1,189.27Z" style="fill:#fff"></path><path d="M197.59,147.39a13,13,0,0,0-1.9,4.49,9.71,9.71,0,0,0,.49,5.15c.67,1.86,2.3,3.37,3.88,5.18a8.69,8.69,0,0,1,1.82,3.1,6,6,0,0,1-.07,3.38c-.61,2-1.6,3.61-1.79,5.08a4.71,4.71,0,0,0,.54,3.36c.45.69.95.86.9.94s-.13,0-.35-.1a2.39,2.39,0,0,1-.81-.64,4.82,4.82,0,0,1-.86-3.64c.14-1.65,1.12-3.31,1.63-5.21a5.25,5.25,0,0,0,0-2.94,8,8,0,0,0-1.67-2.79c-1.49-1.72-3.26-3.37-4-5.45a9.85,9.85,0,0,1-.35-5.54,9,9,0,0,1,1.52-3.4C197.16,147.65,197.56,147.36,197.59,147.39Z" style="fill:#fff"></path><path d="M215.61,166.14s-.29.26-.85,0a1.63,1.63,0,0,1-.75-.73,2.12,2.12,0,0,1-.18-1.38c.16-1,1-2,1.23-3s-.43-2.15-1.48-3a8.74,8.74,0,0,1-2.74-3,7.11,7.11,0,0,1-.7-3.31,4.29,4.29,0,0,1,.94-2.91,16.63,16.63,0,0,0-.35,2.9,7.27,7.27,0,0,0,.8,3,8.47,8.47,0,0,0,2.59,2.76,5.78,5.78,0,0,1,1.43,1.68,2.85,2.85,0,0,1,.25,2.15c-.42,1.31-1.21,2.1-1.39,2.93a1.54,1.54,0,0,0,.51,1.71C215.3,166.14,215.6,166.07,215.61,166.14Z" style="fill:#fff"></path><path d="M224.81,151.06s.21,0,.39.25a1.43,1.43,0,0,1,.11,1.24,7.71,7.71,0,0,1-.82,1.45,3.4,3.4,0,0,0-.37,1.69,7.24,7.24,0,0,0,1.06,3.19c.45.79.72,1.3.62,1.37s-.52-.31-1.11-1.05a6,6,0,0,1-1.41-3.49,3.72,3.72,0,0,1,.55-2.11c.38-.56.76-.91.93-1.27A1.61,1.61,0,0,0,224.81,151.06Z" style="fill:#fff"></path><path d="M257.1,146.53s-.12.31-.5.74-1,1-1.58,1.73a4.17,4.17,0,0,0-.91,3.07,17.14,17.14,0,0,1,.06,4.39,7.66,7.66,0,0,1-2.14,3.95,7.34,7.34,0,0,1-3.16,1.82c-2.05.55-3.34.08-3.3,0a17.73,17.73,0,0,0,3.12-.57,7.16,7.16,0,0,0,4.66-5.38,19.11,19.11,0,0,0,0-4.21,4.69,4.69,0,0,1,1.23-3.46,14.48,14.48,0,0,1,1.81-1.59C256.81,146.68,257.06,146.49,257.1,146.53Z" style="fill:#fff"></path><path d="M268.37,163.59c.09.15-1,.4-1.71,1.8-.34.73-.91,1.56-1.39,2.47a19.08,19.08,0,0,1-1.8,3.06,6.62,6.62,0,0,1-6,2.28,3.73,3.73,0,0,1-2.45-1.08c.07-.14.95.41,2.51.5a6.45,6.45,0,0,0,5.29-2.23,23,23,0,0,0,1.78-2.91c.56-1,1.14-1.68,1.56-2.39a3.26,3.26,0,0,1,1.49-1.35C268.09,163.56,268.35,163.54,268.37,163.59Z" style="fill:#fff"></path><path d="M266.79,184.22c.09.06-.08.52-.64,1.05a4.39,4.39,0,0,1-5.61.27c-.61-.48-.82-.92-.74-1s1.5,1.13,3.55,1S266.63,184.05,266.79,184.22Z" style="fill:#fff"></path><path d="M239.93,139.73c.06.14-1,.43-2.08,1.57a6.29,6.29,0,0,0-1.72,5.56c.25,1.14.74,2.44.4,3.66a4.81,4.81,0,0,1-1.7,2.54,4.92,4.92,0,0,1-2.41,1.28c-.07-.13.87-.6,2-1.71a4.64,4.64,0,0,0,1.35-2.28c.24-1-.18-2-.47-3.32a6.22,6.22,0,0,1,.36-3.71,6.59,6.59,0,0,1,1.78-2.45A3.67,3.67,0,0,1,239.93,139.73Z" style="fill:#fff"></path><path d="M218,150.14c-.2-.14.8-1.79,1.29-4s.33-4.18.58-4.22.8,1.95.24,4.4S218.14,150.29,218,150.14Z" style="fill:#fff"></path><path d="M204.48,145.25c0-.06.22-.18.47-.54a3,3,0,0,0,.54-1.76c0-1.62-1.14-3.7-2-6.22A9.82,9.82,0,0,1,203,133a5.53,5.53,0,0,1,1.12-3,3.35,3.35,0,0,1,1.75-1.21c.51-.11.79,0,.78,0s-.27.08-.68.26a3.42,3.42,0,0,0-1.37,1.25c-1,1.32-1.13,3.72-.32,6.12s2,4.61,1.78,6.5a3,3,0,0,1-.88,2C204.8,145.29,204.48,145.29,204.48,145.25Z" style="fill:#fff"></path><path d="M225.47,140.3c0-.05.18-.24.56-.53s1-.69,1.21-1.36a4.31,4.31,0,0,0-.85-2.58c-.57-.94-1.39-1.86-2.19-3a6,6,0,0,1-1.45-3.63,5.38,5.38,0,0,1,1.39-2.88c1.18-1.33,2.07-1.93,2.14-1.86a16.9,16.9,0,0,1-1.67,2.22,5.22,5.22,0,0,0-1.09,2.57,5.63,5.63,0,0,0,1.36,3.09c1.51,2,3.33,4.06,2.93,6.19a2.91,2.91,0,0,1-1.61,1.47C225.76,140.26,225.5,140.35,225.47,140.3Z" style="fill:#fff"></path><path d="M244.74,141c-.05-.12.92-.32,1.46-1.58a3.88,3.88,0,0,0,.21-2.27,17.88,17.88,0,0,0-.93-2.87,7.93,7.93,0,0,1-.63-3.17,4,4,0,0,1,1.12-2.46c1-1.19,2.16-1.21,2.13-1.06a4.86,4.86,0,0,0-1.67,1.43,3.74,3.74,0,0,0-.81,2.12,8.45,8.45,0,0,0,.64,2.86,14.14,14.14,0,0,1,.91,3,4.16,4.16,0,0,1-.44,2.66,2.72,2.72,0,0,1-1.33,1.24C245,141.05,244.74,141,244.74,141Z" style="fill:#fff"></path><path d="M251.3,141.73a12.48,12.48,0,0,1-2.31-.39c-1.47-.33-3.61-.7-6.26-1.09a69.62,69.62,0,0,0-20.83.31,104.14,104.14,0,0,0-20.08,5.84l-5.91,2.36a11.94,11.94,0,0,1-2.2.79,12,12,0,0,1,2.07-1.09c1.35-.66,3.34-1.57,5.82-2.61a93.7,93.7,0,0,1,20.16-6.12,64.87,64.87,0,0,1,21.06-.07,60.42,60.42,0,0,1,6.24,1.36A12.83,12.83,0,0,1,251.3,141.73Z" style="fill:#263238"></path><path d="M200.08,150.11l.21,0,.61-.12,1-.2,1.36-.22a37.81,37.81,0,0,1,8.73-.22,52.66,52.66,0,0,1,12.64,2.77c2.32.78,4.69,1.76,7.13,2.83s4.93,2.26,7.39,3.64c10,5.35,16.73,13.8,19.1,20.77a29.49,29.49,0,0,1,1.62,8.56c.06,1,.05,1.83,0,2.38v.62a.85.85,0,0,0,0,.21.58.58,0,0,0,0-.21c0-.17,0-.37,0-.62,0-.54.08-1.35.06-2.39a28.71,28.71,0,0,0-1.49-8.66c-2.31-7.09-9.13-15.68-19.19-21.08-2.48-1.38-5-2.57-7.43-3.65s-4.84-2-7.18-2.82A52.07,52.07,0,0,0,212,149a36.11,36.11,0,0,0-8.78.38l-1.36.26-1,.25-.6.16C200.14,150.08,200.08,150.1,200.08,150.11Z" style="fill:#263238"></path><path d="M239.26,158.53a5.35,5.35,0,0,0-.66-.11,16.79,16.79,0,0,0-1.91-.15,26.64,26.64,0,0,0-7,.78,48.47,48.47,0,0,0-20.18,11.07,74,74,0,0,0-8.63,9.4,88,88,0,0,0-6.06,8.48,48,48,0,0,0-3.33,6.19c-.32.76-.56,1.36-.7,1.77a2.9,2.9,0,0,0-.19.64,4.62,4.62,0,0,0,.28-.6q.25-.62.78-1.74a56,56,0,0,1,3.45-6.08,96.28,96.28,0,0,1,6.11-8.38,76.45,76.45,0,0,1,8.61-9.32,49.42,49.42,0,0,1,19.94-11.1,28.81,28.81,0,0,1,6.9-.93c.82,0,1.47,0,1.9.07A3.46,3.46,0,0,0,239.26,158.53Z" style="fill:#263238"></path><path d="M69.22,457.2s6.12-2,10-3.14c2.17-.63,11.15-4.6,16.61-5.63,4.56-.86,17.19-7.31,19.15-8.63s9.7-44.45,9.7-44.45l29.2,4.4s-15.57,41.6-16.55,45.57-4.68,14.24-4.68,14.24H69.22Z" style="fill:#9b6e65"></path><path d="M120.35,458.6c0-.09,1-.17,2.37-.77a9.47,9.47,0,0,0,5.88-9.41c-.09-1.53-.44-2.44-.35-2.47s.15.2.3.62a7.94,7.94,0,0,1,.42,1.82,9.26,9.26,0,0,1-6.11,9.79,7.91,7.91,0,0,1-1.82.42A1.57,1.57,0,0,1,120.35,458.6Z" style="fill:#704c45"></path><path d="M116.52,456.47a3.68,3.68,0,0,1-.59.26,11.46,11.46,0,0,1-1.8.47,41.72,41.72,0,0,1-6.84.15,16,16,0,0,0-4.6.55c-1.61.48-3.2,1.36-5,2a16.54,16.54,0,0,1-12.29-.94l-.62-.3.66-.18.59-.17a22.16,22.16,0,0,0,5.88-2.67,38.35,38.35,0,0,0,4.73-3.8,24.2,24.2,0,0,1,9.07-5,54.37,54.37,0,0,1,6.79-1.62l1.88-.31a3.15,3.15,0,0,1,.65-.07,2.43,2.43,0,0,1-.64.17l-1.85.41a63,63,0,0,0-6.72,1.77,24.29,24.29,0,0,0-8.86,5,37.69,37.69,0,0,1-4.77,3.87,22.84,22.84,0,0,1-6,2.74l-.6.17,0-.48a16.24,16.24,0,0,0,11.93.94c1.79-.57,3.4-1.45,5.06-1.93a16.4,16.4,0,0,1,4.74-.51,46.35,46.35,0,0,0,6.8,0C115.68,456.78,116.5,456.41,116.52,456.47Z" style="fill:#704c45"></path></g><g id="freepik--character-4--inject-504"><polygon points="547.64 383.24 530.67 422.51 514.93 473.09 667.44 473.81 664.84 378.01 589.88 370.37 547.64 383.24" style="fill:#263238"></polygon><path d="M466.11,389.27s-12.28,4.67-21.89,7.5-26.76,13.42-26.76,13.42S400,425.92,400.63,428s2.7,3.08,5.35.95,15.74-9.86,15.74-9.86.84,4.38,3.67,4.88a7.61,7.61,0,0,0,4.32-.2s1.16,4.11,3.2,5.45a11.76,11.76,0,0,0,3.92,1.67,3.3,3.3,0,0,0,2.7,3.08,17.27,17.27,0,0,0,5.41.64s9.11-5.52,10.56-8.18,3.22-6.25,3.22-6.25l3.76-1.88,11.55-2Z" style="fill:#c78976"></path><path d="M453.44,410.05a7.28,7.28,0,0,1-1.13,1.39,14.92,14.92,0,0,1-4.06,2.85,20.45,20.45,0,0,1-7.27,2,15.85,15.85,0,0,1-4.58-.19,12,12,0,0,1-4.65-1.91l.3-.41a32.16,32.16,0,0,1,3.22,2.73,11.4,11.4,0,0,1,1.45,1.7,5.68,5.68,0,0,1,.88,2.14,6.58,6.58,0,0,1-1.25,5.23l-.12.15-.18-.07a24.63,24.63,0,0,1-4.9-2.74c-1.48-1-2.84-2.08-4.12-3.09s-2.46-2-3.59-2.9a4.46,4.46,0,0,1-1.34-3.77,6.25,6.25,0,0,1,.52-1.68c.21-.51.42-1,.64-1.41.43-.85.85-1.56,1.21-2.13s.67-1,.89-1.25a2.53,2.53,0,0,1,.35-.41,2.38,2.38,0,0,1-.27.46c-.19.29-.47.73-.81,1.3a23.87,23.87,0,0,0-1.13,2.15c-.21.43-.41.9-.6,1.4a5.75,5.75,0,0,0-.46,1.61,4.1,4.1,0,0,0,1.27,3.44c1.08.88,2.34,1.83,3.6,2.83s2.64,2.05,4.11,3.05a24.62,24.62,0,0,0,4.82,2.66l-.3.09a6.09,6.09,0,0,0,1.15-4.82,5.33,5.33,0,0,0-.8-1.95,11.25,11.25,0,0,0-1.38-1.62,30.06,30.06,0,0,0-3.16-2.69l.3-.41a11.32,11.32,0,0,0,4.44,1.85,15.4,15.4,0,0,0,4.46.23,20.64,20.64,0,0,0,7.16-1.9,15.5,15.5,0,0,0,4.08-2.7C453,410.54,453.39,410,453.44,410.05Z" style="fill:#925b4c"></path><path d="M437,422.92a9.13,9.13,0,0,1,1.5-.6,11,11,0,0,0,3.26-1.92,3.47,3.47,0,0,0,1-1.68,2.23,2.23,0,0,0-1.36-2.54s.17-.06.46,0a1.78,1.78,0,0,1,1,.78,2.56,2.56,0,0,1,.39,1.83,3.66,3.66,0,0,1-1.14,2,9,9,0,0,1-3.5,1.9A3.61,3.61,0,0,1,437,422.92Z" style="fill:#925b4c"></path><path d="M439.57,429.89a21.39,21.39,0,0,1,2.21-1.44c.69-.44,1.49-1,2.35-1.62a18,18,0,0,0,2.6-2.26,3.56,3.56,0,0,0,.79-1.48,2.3,2.3,0,0,0-.19-1.49,3.23,3.23,0,0,0-2-1.67,5.49,5.49,0,0,0-1.86-.23,2.65,2.65,0,0,1-.71,0,1.78,1.78,0,0,1,.7-.2,5,5,0,0,1,2,.07,3.62,3.62,0,0,1,2.34,1.82,2.9,2.9,0,0,1,.25,1.81,4.07,4.07,0,0,1-.89,1.71,15.91,15.91,0,0,1-2.72,2.3c-.89.63-1.72,1.15-2.43,1.56A9.54,9.54,0,0,1,439.57,429.89Z" style="fill:#925b4c"></path><path d="M451.69,429.09a8.81,8.81,0,0,0,.43-1.35,2.94,2.94,0,0,0-4.19-3.23c-.8.35-1.13.83-1.2.77s.19-.62,1-1.1a3.21,3.21,0,0,1,4.73,3.63C452.24,428.75,451.72,429.13,451.69,429.09Z" style="fill:#925b4c"></path><path d="M527.35,442.27,524.14,447,500.21,447l-30.48,12.28h78.72c.67-.83,2.72-4,2.72-4Z" style="fill:#c78976"></path><path d="M636.43,296.61c-17.19-27.81-54.13-61.79-57.26-63.36s-53.63-4.74-53.63-4.74l-39.88,28.3L472.42,276.6c-1.81,5.63-5,14.3-3.54,20l1.23,9.76,41.6,26.85,20.69,12.08,11.52,16.34L543,389l16.3-3.1s25.1,2.48,49.16,3.07,57.15-7.05,57.15-7.05S655.6,327.64,636.43,296.61Z" style="fill:#455a64"></path><path d="M540.47,276.4l14.12,78.34-29.28,86.41,29.28,16s20.92-36.82,30.34-59.09,12.85-34.71,12.85-34.71,0-84.67-3-94.43-12.94-29.11-23.4-28.06S536.19,252.64,540.47,276.4Z" style="fill:#455a64"></path><path d="M470.11,306.4l25.23,61.78a25.55,25.55,0,0,0-3,7.27L460.87,391l9.24,29.75s39.26-13,44.82-16,21.6-14.42,24.38-23.69-12.63-42.11-12.63-42.11Z" style="fill:#455a64"></path><path d="M532.4,345.33a3,3,0,0,1-.54-.27l-1.49-.83c-1.29-.74-3.15-1.82-5.43-3.2s-5-3-7.86-5c-1.45-1-3-2.08-4.45-3.29l-4.56-3.77-15.92-13.34-4.78-4.09-1.29-1.13a2.53,2.53,0,0,1-.42-.42,2.11,2.11,0,0,1,.49.34l1.34,1c1.21,1,2.87,2.33,4.9,4,4.14,3.43,9.78,8.08,16,13.22l4.55,3.79c1.48,1.19,3,2.28,4.4,3.28,2.88,2,5.54,3.71,7.79,5.13l5.33,3.33,1.44.92A2.36,2.36,0,0,1,532.4,345.33Z" style="fill:#263238"></path><path d="M535.32,232.13a14.09,14.09,0,0,1,1.93,2.91,21,21,0,0,1,2.24,9.2,24.93,24.93,0,0,1-.79,6.54,27.78,27.78,0,0,1-3,7,37.92,37.92,0,0,1-12.16,12.16,32.24,32.24,0,0,1-16.28,5.42,21.47,21.47,0,0,1-13.37-4,17.85,17.85,0,0,1-6-7.3,11,11,0,0,1-.53-1.4,6,6,0,0,1-.28-1.06c-.06-.26-.1-.48-.14-.66a.67.67,0,0,1,0-.23,30,30,0,0,0,1.16,3.27,18,18,0,0,0,6,7.09,21.22,21.22,0,0,0,13.13,3.85,32,32,0,0,0,16-5.37,37.89,37.89,0,0,0,12-12,27.66,27.66,0,0,0,3-6.82,25,25,0,0,0,.83-6.42,21.12,21.12,0,0,0-2.06-9.12,12.91,12.91,0,0,0-.69-1.31c-.21-.37-.4-.69-.57-.93l-.37-.56C535.35,232.21,535.31,232.14,535.32,232.13Z" style="fill:#263238"></path><path d="M524.46,268.24c-.14.05-.87-1.57-2.1-3.35s-2.48-3.05-2.37-3.16a11.65,11.65,0,0,1,4.47,6.51Z" style="fill:#263238"></path><path d="M534,259.34a23.5,23.5,0,0,0-3.35-2.45,24.38,24.38,0,0,0-3.92-1.36,8,8,0,0,1,7.27,3.81Z" style="fill:#263238"></path><path d="M539.19,248.72c-.05.14-1.52-.31-3.37-.56s-3.39-.24-3.4-.39a7,7,0,0,1,3.47-.13A7.14,7.14,0,0,1,539.19,248.72Z" style="fill:#263238"></path><path d="M538.29,236.36a20.12,20.12,0,0,1-3,.84,22.38,22.38,0,0,1-3,.88,6.38,6.38,0,0,1,2.87-1.38A6.53,6.53,0,0,1,538.29,236.36Z" style="fill:#263238"></path><path d="M508.34,274.23a5.18,5.18,0,0,1-.78-3.2,5.28,5.28,0,0,1,.81-3.2c.15.05-.29,1.44-.29,3.2S508.48,274.18,508.34,274.23Z" style="fill:#263238"></path><path d="M492.21,271.07a6.47,6.47,0,0,1,1.44-2.08c.9-1.06,1.73-1.84,1.83-1.74s-.53,1-1.43,2.08S492.32,271.16,492.21,271.07Z" style="fill:#263238"></path><path d="M594.73,268.91s0,.14.12.42a10.62,10.62,0,0,1,.28,1.26c.22,1.12.42,2.81.64,5,.42,4.4.8,10.87,1.11,19.13.62,16.51,1,40.15,1.12,68.62v.06c-2.11,7.17-4.77,14.51-7.71,22.09s-6.13,15.39-9.91,23.22c-7.5,15.69-16.22,31.93-25.55,48.55l-.13.23-.22-.13-2.71-1.47-26.58-14.51-.19-.1.07-.21,29.34-86.4v.1c-4.27-23.9-7.77-43.49-10.2-57.11-1.21-6.8-2.14-12.11-2.78-15.73-.31-1.8-.55-3.18-.71-4.12s-.23-1.41-.23-1.41.11.48.29,1.4.43,2.31.77,4.11c.66,3.62,1.64,8.92,2.89,15.71,2.47,13.61,6,33.19,10.38,57.08v.05l0,.05c-8.29,24.49-18.29,54.08-29.24,86.44l-.12-.31L552,455.43l2.71,1.48-.35.1c9.32-16.62,18-32.85,25.55-48.51,3.77-7.82,7-15.63,9.92-23.18s5.62-14.91,7.73-22v.06c0-28.47-.39-52.1-.93-68.61-.28-8.26-.62-14.73-1-19.12-.2-2.2-.38-3.88-.58-5a12.31,12.31,0,0,0-.24-1.27A4.37,4.37,0,0,1,594.73,268.91Z" style="fill:#263238"></path><path d="M575.68,247.62a39.94,39.94,0,0,0-4.74-2,23.65,23.65,0,0,0-23.17,4.75,41.64,41.64,0,0,0-3.57,3.71,5.45,5.45,0,0,1,.76-1.17,21,21,0,0,1,2.56-2.82,23.1,23.1,0,0,1,23.54-4.82,20.51,20.51,0,0,1,3.46,1.59A5.59,5.59,0,0,1,575.68,247.62Z" style="fill:#263238"></path><g style="opacity:0.30000000000000004"><path d="M587.57,391.87c.16-.42.31-.84.47-1.25l-.26.18Z"></path><path d="M603.37,336.78c-1.26-12.84-2.92-25.68-6.26-38.14-2.83,21.63,2.72,43.82-1,65.32-1.58,9.17-4.81,18-8.09,26.66,8.18-5.35,13.11-14.71,15.06-24.3S604.34,346.62,603.37,336.78Z"></path></g><g style="opacity:0.30000000000000004"><path d="M529,343.3l-34.73-26.21c.39,9.77,7.82,17.79,15.55,23.79s18.23,12.9,25.55,19.38C533,354.86,531.43,348.7,529,343.3Z"></path></g><path d="M544.32,295.37a5.92,5.92,0,0,1-.56.66c-.38.42-1,1-1.71,1.81a41.75,41.75,0,0,1-7,5.91,20.5,20.5,0,0,1-5.78,2.62,14.71,14.71,0,0,1-7.28,0,27.23,27.23,0,0,1-7.31-3.38c-2.37-1.45-4.71-3.14-7.3-4.49a18.93,18.93,0,0,0-8.05-2.42,11.82,11.82,0,0,0-7.32,2.39,57.67,57.67,0,0,0-5.47,4.7,22.52,22.52,0,0,1-5.15,3.71,9.45,9.45,0,0,1-5.11,1.07,7.7,7.7,0,0,1-3.75-1.25,5.25,5.25,0,0,1-1.73-1.8,3.46,3.46,0,0,1-.35-.8s.14.27.44.74a5.43,5.43,0,0,0,1.75,1.69,7.69,7.69,0,0,0,3.66,1.13,9.28,9.28,0,0,0,4.93-1.11,22.53,22.53,0,0,0,5-3.7,57.88,57.88,0,0,1,5.48-4.77,14.9,14.9,0,0,1,3.51-1.87,11.48,11.48,0,0,1,4.1-.64,19.32,19.32,0,0,1,8.28,2.47c2.64,1.37,5,3.07,7.33,4.52a26.77,26.77,0,0,0,7.16,3.34,12.71,12.71,0,0,0,3.63.47,14.26,14.26,0,0,0,3.43-.4,20.27,20.27,0,0,0,5.69-2.51,44.16,44.16,0,0,0,7-5.75l1.77-1.73A5,5,0,0,1,544.32,295.37Z" style="fill:#fff"></path><path d="M595.05,289.3a2.57,2.57,0,0,1-.42.4,5.92,5.92,0,0,1-1.43.83,9.36,9.36,0,0,1-6,.18c-5.21-1.2-9.83-7.56-17.62-9A27.75,27.75,0,0,0,564,281a29.43,29.43,0,0,0-5.23.4,28,28,0,0,0-8.4,2.82,30.25,30.25,0,0,0-6.6,4.86,2.54,2.54,0,0,1,.37-.44l1.13-1.2c.55-.46,1.2-1.06,2-1.67l1.34-.94c.47-.34,1-.6,1.58-.93a27.57,27.57,0,0,1,8.49-3,29.46,29.46,0,0,1,5.32-.44,26.85,26.85,0,0,1,5.69.71,26.2,26.2,0,0,1,5.41,1.89c.81.46,1.63.87,2.38,1.34s1.46,1,2.15,1.48c2.71,2,5.21,3.77,7.66,4.45a9.44,9.44,0,0,0,5.85,0A8.78,8.78,0,0,0,595.05,289.3Z" style="fill:#fff"></path><path d="M621,275.27c0,.05-.46.26-1.2.83a9.67,9.67,0,0,0-2.49,3,20.26,20.26,0,0,0-1.89,5.54,37.55,37.55,0,0,1-1.91,7.06,12,12,0,0,1-4.82,5.49,13.37,13.37,0,0,1-5.67,1.91,11.38,11.38,0,0,1-4-.31,5.85,5.85,0,0,1-1-.35c-.24-.09-.36-.14-.35-.16s.51.13,1.43.31a12.25,12.25,0,0,0,3.94.15,13.47,13.47,0,0,0,5.46-2,11.74,11.74,0,0,0,4.59-5.29,40.62,40.62,0,0,0,1.92-6.95,19.79,19.79,0,0,1,2-5.62,9.07,9.07,0,0,1,2.69-3,5,5,0,0,1,.95-.54C620.9,275.3,621,275.25,621,275.27Z" style="fill:#fff"></path><path d="M504,324.79a4.13,4.13,0,0,1-.2,1.06,8.47,8.47,0,0,1-.35,1.22,16.55,16.55,0,0,1-.61,1.57,15.73,15.73,0,0,1-.93,1.82,19.62,19.62,0,0,1-1.26,2,21.85,21.85,0,0,1-8.2,6.82,20.33,20.33,0,0,1-4.15,1.43,13.55,13.55,0,0,1-1.66.29,7.71,7.71,0,0,1-1.26.1,4.74,4.74,0,0,1-1.08,0c0-.11,1.54-.12,3.91-.73a21.65,21.65,0,0,0,4-1.5,24.45,24.45,0,0,0,4.4-2.87,24.18,24.18,0,0,0,3.62-3.81,21.23,21.23,0,0,0,1.28-1.91,14.85,14.85,0,0,0,1-1.76C503.54,326.27,503.87,324.76,504,324.79Z" style="fill:#fff"></path><path d="M661.05,407.53a9.37,9.37,0,0,1-1.64.29,15.11,15.11,0,0,1-1.95.2,23.22,23.22,0,0,1-2.59.08,26.77,26.77,0,0,1-3.13-.15c-1.13-.07-2.32-.29-3.58-.48a43.91,43.91,0,0,1-7.92-2.36,42.79,42.79,0,0,1-7.26-3.95c-1-.75-2-1.43-2.87-2.19a27.35,27.35,0,0,1-2.32-2.11c-.71-.65-1.26-1.33-1.77-1.89a14.43,14.43,0,0,1-1.23-1.52,9.94,9.94,0,0,1-1-1.36,8.81,8.81,0,0,1,1.11,1.23,16.65,16.65,0,0,0,1.3,1.45c.52.54,1.09,1.2,1.8,1.82a29.49,29.49,0,0,0,2.35,2.05c.84.73,1.84,1.4,2.86,2.13a45.35,45.35,0,0,0,7.19,3.86,44.57,44.57,0,0,0,7.81,2.36c1.24.21,2.41.45,3.53.53a29.68,29.68,0,0,0,3.1.22c1,.06,1.81,0,2.57,0a17.14,17.14,0,0,0,1.94-.11A11.33,11.33,0,0,1,661.05,407.53Z" style="fill:#455a64"></path><path d="M580.88,458c-.14,0,2-9.94,4.79-22.14s5.15-22.06,5.29-22-2,9.95-4.79,22.15S581,458.07,580.88,458Z" style="fill:#455a64"></path><path d="M533.14,243.75h0a11.56,11.56,0,0,0-1-5.62l-30.35-66.44c-7.07-19.07-24.07-30.86-42.94-23.26l-1.71.81A36.37,36.37,0,0,0,438.63,195c6.22,16.5,13.31,34.64,17.44,43.12,8.55,17.55,27.5,12,27.5,12l3.54,6.76s3.7,12.73,19.52,10.95c12.17-1.38,21.17-13.19,24.69-18.58A11.48,11.48,0,0,0,533.14,243.75Z" style="fill:#c78976"></path><path d="M483.42,250.09a47.31,47.31,0,0,0,19.93-17.69s.56,15.27-17.81,22Z" style="fill:#925b4c"></path><path d="M450,208.27a2.78,2.78,0,0,0,3.63,1.4,2.67,2.67,0,0,0,1.53-3.5,2.79,2.79,0,0,0-3.63-1.4A2.66,2.66,0,0,0,450,208.27Z" style="fill:#263238"></path><path d="M446.5,201.81c.47.19,1.71-2.13,4.43-3.4s5.34-.86,5.48-1.33c.08-.22-.52-.66-1.69-.88a7.65,7.65,0,0,0-4.58.65,7.43,7.43,0,0,0-3.33,3.13C446.28,201,446.28,201.74,446.5,201.81Z" style="fill:#263238"></path><path d="M474.87,196.72a2.78,2.78,0,0,0,3.63,1.4,2.66,2.66,0,0,0,1.53-3.5,2.78,2.78,0,0,0-3.63-1.4A2.67,2.67,0,0,0,474.87,196.72Z" style="fill:#263238"></path><path d="M473.41,189.73c.46.18,1.71-2.14,4.42-3.41s5.35-.85,5.49-1.33c.07-.21-.52-.66-1.69-.88a7.65,7.65,0,0,0-4.58.66,7.31,7.31,0,0,0-3.33,3.12C473.19,188.93,473.18,189.65,473.41,189.73Z" style="fill:#263238"></path><path d="M473.06,214.5c-.06-.16-1.88.34-4.78,1.28-.73.26-1.45.43-1.79,0a3.91,3.91,0,0,1-.51-2.27c-.14-2-.28-4.06-.44-6.24-.7-8.86-1.56-16-1.91-16s-.08,7.23.62,16.08q.28,3.27.55,6.24a4.46,4.46,0,0,0,.92,2.89,1.92,1.92,0,0,0,1.62.47,5,5,0,0,0,1.25-.39C471.41,215.45,473.12,214.66,473.06,214.5Z" style="fill:#263238"></path><path d="M481.93,212.6c-.45.19.93,3.13-.6,6.41s-4.82,4.44-4.65,4.86c0,.21,1,.24,2.31-.35a8.08,8.08,0,0,0,4-3.88,7.09,7.09,0,0,0,.32-5.29C482.8,213.07,482.12,212.49,481.93,212.6Z" style="fill:#263238"></path><path d="M467.69,179.43c.61.61,3.16-1,6.52-2.14s6.35-1.46,6.46-2.33c0-.4-.74-.88-2.11-1.11a11.93,11.93,0,0,0-9.89,3.4C467.72,178.28,467.41,179.13,467.69,179.43Z" style="fill:#263238"></path><path d="M443.79,193.49c.77.39,2.34-1.13,4.57-2.22s4.35-1.55,4.48-2.4c0-.4-.55-.88-1.65-1.07a7.07,7.07,0,0,0-4.22.76,7,7,0,0,0-3.08,3C443.4,192.53,443.44,193.29,443.79,193.49Z" style="fill:#263238"></path><path d="M436.5,186.07s-.56-13.25,3.55-18.35c5-6.17,11.1-.4,16.44-5s10.09-10.53,18.62-8.74c9.33,1.95,7.83,7.12,12,14.76,16.72,30.94,26.76,37.18,21.34,21.44-.59-1.72,3.34-5.17.75-12.41-3.37-9.39-8.17-20.46-13.18-25.88-4.23-4.58-9-6.84-16.46-8.34-11.72-2.36-23.69,3.12-31.39,7.75S429.23,172.58,436.5,186.07Z" style="fill:#263238"></path><path d="M507.06,190.22a5.31,5.31,0,0,1,3-7.07c3.44-1.24,8-1.1,11,5.81,5.31,12.25-8.09,15.06-8.26,14.72S509.24,195.36,507.06,190.22Z" style="fill:#c78976"></path><path d="M513.45,197.91c0-.06.27.06.71.07a2.41,2.41,0,0,0,1.61-.66c1.08-1,1.28-3.57.38-5.8a7.62,7.62,0,0,0-1.92-2.8,2.68,2.68,0,0,0-2.31-.94,1.18,1.18,0,0,0-1,1.13c0,.42.17.63.11.68s-.35-.1-.47-.64a1.49,1.49,0,0,1,.15-1,1.72,1.72,0,0,1,1-.82,3.26,3.26,0,0,1,3.06.93,8,8,0,0,1,2.22,3.09c1,2.5.73,5.36-.82,6.64a2.52,2.52,0,0,1-2.09.53C513.6,198.2,513.41,198,513.45,197.91Z" style="fill:#925b4c"></path><path d="M495.78,166.94c-1.06,1.81-2.19,3.7-4,4.78s-4.48,1-5.68-.71c-.54-.77-.79-1.84-1.65-2.23-1-.47-2.13.35-3.09.94a8.52,8.52,0,0,1-10.6-1.75c-.27,1.76-2.38,2.69-4.15,2.46s-3.31-1.26-4.94-2-3.64-1.1-5.13-.12c-.83.55-1.41,1.48-2.35,1.82-1.65.61-3.3-.88-4.28-2.34s-2-3.21-3.78-3.43-3,1-4.38,1.92-3.4,1.45-4.45.2a3.19,3.19,0,0,1-.49-2.44,8.64,8.64,0,0,1,7.83-7.32,11.71,11.71,0,0,1,18.5-11.24,11.89,11.89,0,0,1,19-4.2,8.61,8.61,0,0,1,14.13,7.19c2.76.21,5.63,1.49,6.86,4s0,6.11-2.76,6.59a4.77,4.77,0,0,1-5.43,7.83" style="fill:#263238"></path><path d="M445.43,160.72s0,.08.11.22a4.78,4.78,0,0,0,.38.61,8.16,8.16,0,0,0,2,1.91,9.45,9.45,0,0,0,4,1.59,8.87,8.87,0,0,0,5.61-.92l-.33-.17a4.84,4.84,0,0,0,1.81,3.22,13.94,13.94,0,0,0,3.47,2,10,10,0,0,0,2,.75,4.66,4.66,0,0,0,2.25-.2A4.86,4.86,0,0,0,470,166.5l-.51.08a10,10,0,0,0,6.79,4.45,7.27,7.27,0,0,0,4.58-.57,13.29,13.29,0,0,0,3.5-2.7h-.39a10.53,10.53,0,0,0,4.62,2.37,5.56,5.56,0,0,0,4.74-.84,7.32,7.32,0,0,0,2.66-7.62l-.21.26a6.91,6.91,0,0,0,4.44-1.35,7.57,7.57,0,0,0,2.28-2.65,6.32,6.32,0,0,0,.65-2.12,2.74,2.74,0,0,0,0-.76,7.73,7.73,0,0,1-.86,2.77,7.44,7.44,0,0,1-2.27,2.5,6.61,6.61,0,0,1-4.22,1.2l-.29,0,.08.28A6.94,6.94,0,0,1,493,168.9a5.08,5.08,0,0,1-4.33.72,10,10,0,0,1-4.35-2.27l-.2-.18-.19.19a12.6,12.6,0,0,1-3.35,2.58,6.72,6.72,0,0,1-4.23.52,9.5,9.5,0,0,1-6.42-4.19l-.34-.53-.17.62a4.33,4.33,0,0,1-2.85,2.84,4.12,4.12,0,0,1-2,.19,9,9,0,0,1-1.88-.7,13.5,13.5,0,0,1-3.37-1.88,4.42,4.42,0,0,1-1.68-2.9l0-.33-.29.16a8.51,8.51,0,0,1-5.34,1,9.49,9.49,0,0,1-3.94-1.44A10.09,10.09,0,0,1,445.43,160.72Z" style="fill:#455a64"></path><path d="M462.45,205.46a24.56,24.56,0,0,0-.74-3.15,13.15,13.15,0,0,0-5.31-6.78,13,13,0,0,0-5.63-2,13.11,13.11,0,0,0-6.74,1.07,11.93,11.93,0,0,0-3.14,2,12.13,12.13,0,0,0-2.53,2.93,12.89,12.89,0,0,0,1.09,15.25,12.37,12.37,0,0,0,2.93,2.54,11.79,11.79,0,0,0,3.38,1.53,13,13,0,0,0,16.4-10.16,25.59,25.59,0,0,0,.29-3.22,7,7,0,0,1,.07.84,6,6,0,0,1,0,1,8.48,8.48,0,0,1-.15,1.39,13.27,13.27,0,0,1-9.66,10.63,13.37,13.37,0,0,1-7.07,0,12.42,12.42,0,0,1-3.52-1.57,12.63,12.63,0,0,1-3-2.63,13.33,13.33,0,0,1-1.14-15.85,12.49,12.49,0,0,1,2.64-3,12.79,12.79,0,0,1,3.26-2.06,13.43,13.43,0,0,1,7-1.05,13.24,13.24,0,0,1,5.78,2.12,13.1,13.1,0,0,1,5.3,7,8.7,8.7,0,0,1,.34,1.36,5.61,5.61,0,0,1,.16,1A6.58,6.58,0,0,1,462.45,205.46Z" style="fill:#263238"></path><path d="M493.52,190.68a22.83,22.83,0,0,0-.73-3.15,13.15,13.15,0,0,0-5.31-6.78,12.93,12.93,0,0,0-12.37-.94,12.91,12.91,0,0,0-5.67,4.93A12.87,12.87,0,0,0,470.53,200a13,13,0,0,0,6.31,4.08,13.11,13.11,0,0,0,6.83.09,13.1,13.1,0,0,0,9.57-10.25,22.14,22.14,0,0,0,.28-3.22,3.85,3.85,0,0,1,.07.84,4.92,4.92,0,0,1,0,1,9.45,9.45,0,0,1-.15,1.39,13.07,13.07,0,0,1-4.24,7.71,13.3,13.3,0,0,1-12.49,2.88,13.47,13.47,0,0,1-6.57-4.21A13.33,13.33,0,0,1,469,184.47a13.37,13.37,0,0,1,5.9-5.1,13.41,13.41,0,0,1,7-1.06A13.29,13.29,0,0,1,493,187.46a9,9,0,0,1,.34,1.36,5.74,5.74,0,0,1,.15,1A4.94,4.94,0,0,1,493.52,190.68Z" style="fill:#263238"></path><path d="M467.49,195.42a9.09,9.09,0,0,0-7.34,3.56s.11-.5.59-1.15a6.88,6.88,0,0,1,5.48-2.66C467,195.19,467.51,195.36,467.49,195.42Z" style="fill:#263238"></path><path d="M506.43,186.55a45.12,45.12,0,0,1-6.83.43,43.2,43.2,0,0,1-6.84-.09,90,90,0,0,1,13.67-.34Z" style="fill:#263238"></path></g><g id="freepik--Device--inject-504"><path d="M401.48,453.21h60.44a3,3,0,0,1,3,3h0a3,3,0,0,1-3,3H401.48a3,3,0,0,1-3-3h0A3,3,0,0,1,401.48,453.21Z" style="fill:#e0e0e0"></path><path d="M411.12,459.24H296.8L285.51,382a6.59,6.59,0,0,1,6.51-7.57l100.38.81c3.25,0,6.36,1.57,6.85,4.79Z" style="fill:#e0e0e0"></path><path d="M352.75,415.92a6.29,6.29,0,1,1-6.28-6.28A6.28,6.28,0,0,1,352.75,415.92Z" style="fill:#fff"></path><path d="M406.15,458.57c-.14,0-3.33-18.61-7.13-41.6s-6.77-41.67-6.62-41.7,3.33,18.61,7.13,41.61S406.29,458.54,406.15,458.57Z" style="fill:#263238"></path></g><g id="freepik--Desk--inject-504"><rect x="28.24" y="459.24" width="673.51" height="16.56" style="fill:#455a64"></rect><path d="M170.92,459.49l-.21.18c-.16.11-.38.28-.71.49a15.06,15.06,0,0,1-3.38,1.53,30,30,0,0,1-6.51,1.23,83.72,83.72,0,0,1-9.07.22c-3.38-.06-7-.35-10.93-.71s-8-.76-12.44-.83c-8.83-.18-18.42,1.12-28,3s-18.59,4.13-27.18,5.47c-4.29.67-8.45,1.15-12.39,1.38a94,94,0,0,1-11,0A59.76,59.76,0,0,1,34,468.77a27.13,27.13,0,0,1-4.67-2,1.43,1.43,0,0,1,.33.11l.89.38c.79.33,2,.8,3.61,1.31a61.67,61.67,0,0,0,15,2.55A92.1,92.1,0,0,0,60,471.11c3.9-.24,8-.73,12.26-1.41,8.52-1.35,17.46-3.55,27.11-5.49s19.34-3.24,28.3-3c4.48.09,8.65.52,12.53.88s7.51.68,10.84.76a83.22,83.22,0,0,0,9-.15,30.72,30.72,0,0,0,6.42-1.13A18.22,18.22,0,0,0,170.92,459.49Z" style="fill:#263238"></path><path d="M97.25,459.74a19.58,19.58,0,0,1-2,1,59,59,0,0,1-6.15,2.22,82.69,82.69,0,0,1-10,2.3,93.69,93.69,0,0,1-13.13,1.15,84.36,84.36,0,0,1-23.47-2.72,16,16,0,0,1-5.67-2.6,4.41,4.41,0,0,1-.92-1c-.14-.25-.2-.38-.18-.38A12.27,12.27,0,0,0,37,461a17.3,17.3,0,0,0,5.67,2.42,88.54,88.54,0,0,0,23.19,2.55,96.46,96.46,0,0,0,12.94-1.1,90.21,90.21,0,0,0,10-2.18c2.72-.79,4.82-1.54,6.23-2.08A18.82,18.82,0,0,1,97.25,459.74Z" style="fill:#263238"></path><path d="M255.28,470.23s.37.07,1,.22,1.72.32,3.11.46a31.4,31.4,0,0,0,11.78-1l0,.21a42.77,42.77,0,0,0-14.62-3.2,46.52,46.52,0,0,0-19,2.78c-.71.29-1.4.64-1.47,1.07s.49.83,1.26,1.07a14,14,0,0,0,2.61.52l2.87.36c3.86.48,7.84,1,12,1.3a126,126,0,0,0,12.71.49c2.17,0,4.36-.15,6.53-.35,1.09-.11,2.18-.22,3.25-.38a28.31,28.31,0,0,0,3.15-.58,12.22,12.22,0,0,0,4.08-1.65c1-.73,1.35-1.7.78-2.55a6.69,6.69,0,0,0-3.2-2,37,37,0,0,0-4.47-1.23,103.79,103.79,0,0,0-18.71-2.18A133.62,133.62,0,0,0,227,466.32a108.24,108.24,0,0,0-19.23,5.91c-2.05.89-3.63,1.6-4.64,2.12l-1.19.56-.42.19a1.78,1.78,0,0,1,.36-.22l1.14-.6c1-.55,2.53-1.28,4.56-2.2A102.88,102.88,0,0,1,226.77,466,132.21,132.21,0,0,1,259,463.11a104.24,104.24,0,0,1,19,2.19,36.5,36.5,0,0,1,4.62,1.26,7.24,7.24,0,0,1,3.53,2.24c.69,1,.28,2.17-.9,3a13,13,0,0,1-4.4,1.8,29.62,29.62,0,0,1-3.28.6c-1.09.16-2.2.28-3.31.39-2.22.2-4.44.33-6.64.35a125.6,125.6,0,0,1-12.86-.5c-4.15-.35-8.15-.83-12-1.32l-2.87-.38a14.52,14.52,0,0,1-2.82-.56,3.84,3.84,0,0,1-1.18-.59.92.92,0,0,1-.43-.89c.14-.66,1-1.06,1.78-1.36a47.46,47.46,0,0,1,19.49-2.79,42.64,42.64,0,0,1,14.84,3.35l.27.12-.3.09a31.48,31.48,0,0,1-12.05.94A21.07,21.07,0,0,1,255.28,470.23Z" style="fill:#263238"></path><path d="M342,459.92a2.27,2.27,0,0,1,.66.83,3.72,3.72,0,0,1,.45,2.49c-.22,2.13-2.55,4.93-6.56,7.22a35.11,35.11,0,0,1-6.13,2.93,38.9,38.9,0,0,1-5.91,1.61c-1.77.34-3.26.51-4.28.61a10.35,10.35,0,0,1-1.62.07c0-.08,2.26-.26,5.7-1A41.66,41.66,0,0,0,330,473a36.13,36.13,0,0,0,5.94-2.89c3.93-2.24,6.22-4.9,6.58-6.94A5.3,5.3,0,0,0,342,459.92Z" style="fill:#263238"></path><path d="M462.9,474.93c-.08,0-.95-.7-3.1-1.69a31.5,31.5,0,0,0-10.53-2.67,41,41,0,0,0-8,.13,60.64,60.64,0,0,1-9.4.49,26.94,26.94,0,0,1-9.36-2.58,42,42,0,0,0-9.4-3.14,60.15,60.15,0,0,0-20.88-.18,69.75,69.75,0,0,0-15.45,4.4,87.11,87.11,0,0,0-9,4.3l-2.29,1.27a5.63,5.63,0,0,1-.82.42,3.83,3.83,0,0,1,.7-.49c.48-.31,1.21-.76,2.18-1.33a75.82,75.82,0,0,1,8.84-4.44A69,69,0,0,1,392,464.87a61.23,61.23,0,0,1,21.37.16,42.72,42.72,0,0,1,9.62,3.21,25.77,25.77,0,0,0,8.95,2.52,61,61,0,0,0,9.2-.44,42.17,42.17,0,0,1,8.23-.08A30.69,30.69,0,0,1,460,473.1,11.67,11.67,0,0,1,462.9,474.93Z" style="fill:#263238"></path><path d="M570.88,459.4a5.62,5.62,0,0,1-.74.57c-.52.35-1.21.91-2.3,1.54a65.54,65.54,0,0,1-9.83,4.91A107.35,107.35,0,0,1,541,471.73c-3.41.78-7.08,1.48-11,2a98.41,98.41,0,0,1-12.3.89,103.3,103.3,0,0,1-23.35-2.73,105.46,105.46,0,0,1-17-5.41,67.46,67.46,0,0,1-9.77-5c-1.08-.63-1.78-1.18-2.3-1.54a5.21,5.21,0,0,1-.74-.56,6.62,6.62,0,0,1,.87.5c.56.34,1.3.87,2.41,1.48a74.76,74.76,0,0,0,9.88,4.81,107.52,107.52,0,0,0,16.9,5.28,103.25,103.25,0,0,0,23.06,2.66,98.19,98.19,0,0,0,12.13-.87c3.87-.48,7.51-1.16,10.9-1.92a111.75,111.75,0,0,0,17-5.19,72.79,72.79,0,0,0,9.94-4.77c1.12-.6,1.84-1.14,2.41-1.47A7.27,7.27,0,0,1,570.88,459.4Z" style="fill:#263238"></path><path d="M555.45,459.24s-.18.11-.57.26-1,.4-1.75.67c-1.53.56-3.81,1.32-6.74,2.14a104.46,104.46,0,0,1-10.66,2.44,79.78,79.78,0,0,1-13.91,1.34,93.79,93.79,0,0,1-24.69-3.51,70.27,70.27,0,0,1-6.69-2.21c-.76-.28-1.31-.53-1.7-.7a2.21,2.21,0,0,1-.55-.27s.88.29,2.43.82,3.83,1.28,6.77,2.07a98.5,98.5,0,0,0,24.43,3.33,81.18,81.18,0,0,0,13.68-1.28c4.12-.69,7.69-1.54,10.63-2.32s5.26-1.49,6.84-2S555.42,459.21,555.45,459.24Z" style="fill:#263238"></path><path d="M673.24,460.94H671.9l-3.8-.08-2.73-.07H662.1c-2.35,0-5,0-8,0l-4.62.08-5,.19c-3.46.1-7.08.36-10.92.57-7.61.54-15.86,1.31-24.25,2.36s-16,2.37-22.72,3.65c-3.27.69-6.48,1.3-9.24,2l-4.07.95-3.6.95c-2.34.59-4.27,1.19-6,1.7l-2.42.72-1.91.64-2.69.88a7.12,7.12,0,0,1-1,.29,3.73,3.73,0,0,1,.8-.35l2.5-.94,1.83-.68,2.35-.74c1.69-.54,3.59-1.16,5.91-1.77l3.57-1,4.06-1c2.75-.7,6-1.33,9.24-2,6.75-1.31,14.45-2.61,22.89-3.71s16.81-1.83,24.51-2.35c3.89-.2,7.55-.45,11-.53l5-.17,4.67-.05c3-.06,5.66,0,8,0l3.29,0,2.74.11,3.79.17A10.59,10.59,0,0,1,673.24,460.94Z" style="fill:#263238"></path><path d="M475,474.6a25.6,25.6,0,0,0-3.71-2.48,45.82,45.82,0,0,0-13.57-4.26c-3.16-.56-6.73-1-10.59-1.32s-8-.61-12.39-1-8.86-1.1-13.44-1.89S412,462,407,461.66A103.51,103.51,0,0,0,379,463.83c-4.12.85-7.88,1.87-11.37,2.87s-6.67,2-9.57,2.92c-5.8,1.84-10.41,3.41-13.6,4.5l-3.65,1.26-1,.32-.34.1a1.31,1.31,0,0,1,.29-.14l.91-.36,3.58-1.33c3.13-1.14,7.71-2.76,13.48-4.64,2.88-.94,6.07-1.95,9.55-3s7.26-2.07,11.42-2.93a103.31,103.31,0,0,1,28.31-2.23,146,146,0,0,1,14.48,2c4.58.8,9,1.5,13.35,1.91s8.48.72,12.36,1.08,7.47.8,10.66,1.38A44.39,44.39,0,0,1,471.52,472,12.36,12.36,0,0,1,475,474.6Z" style="fill:#263238"></path><path d="M323.3,459.49a2.16,2.16,0,0,1-.1,1.06,8.66,8.66,0,0,1-1.32,2.79c-1.55,2.26-4.74,5.32-10.35,7.45a102.15,102.15,0,0,1-15.34,4c-2.06.38-3.73.66-4.9.83a13.18,13.18,0,0,1-1.84.21,14.3,14.3,0,0,1,1.74-.39l4.8-1a115.8,115.8,0,0,0,15.08-4.05,22.83,22.83,0,0,0,10.27-7.18A16.07,16.07,0,0,0,323.3,459.49Z" style="fill:#263238"></path><path d="M166.94,475.8a12.21,12.21,0,0,1,1.64-.88c1.09-.56,2.72-1.31,4.8-2.21a173.62,173.62,0,0,1,17.17-6.22c7-2.17,13.54-3.9,18.29-5.12,2.37-.61,4.3-1.1,5.64-1.42a17.41,17.41,0,0,1,2.12-.46,14.86,14.86,0,0,1-2,.62l-5.53,1.56c-4.68,1.3-11.16,3.07-18.14,5.22s-13,4.36-17.22,6.08c-2.11.86-3.8,1.58-4.94,2.09A13.06,13.06,0,0,1,166.94,475.8Z" style="fill:#263238"></path><path d="M198.67,460.17c0,.05-1.55-.12-4.34,0a50.36,50.36,0,0,0-11.24,1.92,128.55,128.55,0,0,0-14.59,5.51,93.17,93.17,0,0,1-8.79,3.2,76,76,0,0,1-10.52,2.28,172,172,0,0,1-21.51,1.45c-6.66.11-12.64,0-17.65.15s-9,.38-11.81.65c-1.38.14-2.45.26-3.17.36a8.08,8.08,0,0,1-1.11.11s.36-.08,1.07-.2,1.77-.28,3.15-.45c2.75-.33,6.81-.66,11.84-.8s11-.12,17.65-.25A174.19,174.19,0,0,0,149,472.63a78,78,0,0,0,10.35-2.23c3.16-.95,6-2.06,8.72-3.15a122.76,122.76,0,0,1,14.78-5.45A49.12,49.12,0,0,1,194.31,460c1.41,0,2.51,0,3.25.06A7.88,7.88,0,0,1,198.67,460.17Z" style="fill:#263238"></path></g></svg>