<svg version="1.1" xmlns="http://www.w3.org/2000/svg" xmlns:xlink="http://www.w3.org/1999/xlink" x="0px" y="0px" style="enable-background:new 0 0 134 123;" xml:space="preserve" viewBox="18.9 15 93.4 93.4"> <style type="text/css"> 	.st0{fill:#F3F6FB;} 	.st1{fill:none;stroke:#2B2E81;stroke-width:2;stroke-miterlimit:10;} 	.st2{fill:#E0E1E0;} 	.st3{fill:#F1F0F0;} 	.st4{fill:#273339;} 	.st5{fill:#EBEBEB;} 	.st6{fill:#2F3180;} 	.st7{fill:#FFFFFF;} 	.st8{opacity:0.3;fill:#010101;enable-background:new    ;} 	.st9{fill:#B97A65;} 	.st10{opacity:0.2;fill:#010101;enable-background:new    ;} 	.st11{fill:#A34F40;} 	.st12{fill:#DE5854;} 	.st13{fill:#9F5C54;} 	.st14{opacity:0.2;} 	.st15{fill:#010101;} 	.st16{fill:#E9B376;} 	.st17{opacity:0.8;fill:#FFFFFF;enable-background:new    ;} 	.st18{fill:#D58745;} 	.st19{opacity:0.4;fill:#FFFFFF;enable-background:new    ;} 	.st20{fill:#EEC1BB;} 	.st21{fill:#D9857D;} 	.st22{fill:none;} 	.st23{fill:#F5F6F6;} 	.st24{fill:#FAFBFC;} 	.st25{fill:#FCBF9E;} 	.st26{fill:#F8996E;} 	.st27{fill:#465B64;} 	.st28{opacity:0.3;} 	.st29{opacity:0.25;fill:#FFFFFF;enable-background:new    ;} 	.st30{opacity:0.1;fill:#010101;enable-background:new    ;} 	.st31{opacity:0.1;fill:#FFFFFF;enable-background:new    ;} 	.st32{opacity:5.000000e-02;fill:#010101;enable-background:new    ;} 	.st33{opacity:0.15;fill:#FFFFFF;enable-background:new    ;} 	.st34{opacity:0.4;fill:#010101;enable-background:new    ;} 	.st35{opacity:0.5;fill:#010101;enable-background:new    ;} 	.st36{opacity:0.25;fill:#010101;enable-background:new    ;} 	.st37{opacity:0.15;fill:#010101;enable-background:new    ;} 	.st38{opacity:0.45;fill:#010101;enable-background:new    ;} 	.st39{opacity:0.35;fill:#010101;enable-background:new    ;} 	.st40{fill:#F8A7A8;} 	.st41{fill:#384850;} 	.st42{opacity:0.6;fill:#FFFFFF;enable-background:new    ;} 	.st43{opacity:0.1;fill:#2F3180;enable-background:new    ;} 	.st44{opacity:0.2;fill:#2F3180;enable-background:new    ;} 	.st45{fill:#B26769;} 	.st46{fill:#F3908F;} 	.st47{opacity:0.7;fill:#FFFFFF;enable-background:new    ;} 	.st48{fill:#AF7562;} 	.st49{fill:#70453A;} 	.st50{opacity:0.5;fill:#FFFFFF;enable-background:new    ;} 	.st51{opacity:0.3;fill:#FFFFFF;enable-background:new    ;} 	.st52{opacity:0.6;} 	.st53{opacity:0.7;} 	.st54{fill:#884D4D;} 	.st55{fill:#C8856A;} 	.st56{fill:#B06252;} 	.st57{fill:none;stroke:#000000;stroke-miterlimit:10;} 	.st58{fill:#D51F26;} 	.st59{fill:#E6E6E5;} 	.st60{opacity:0.15;} 	.st61{opacity:0.2;fill:#FFFFFF;enable-background:new    ;} 	.st62{opacity:0.4;} 	.st63{clip-path:url(#SVGID_2_);} 	.st64{opacity:0.1;} 	.st65{clip-path:url(#SVGID_4_);} 	.st66{clip-path:url(#SVGID_6_);} 	.st67{fill:#FFFFFF;stroke:#000000;stroke-width:2;stroke-miterlimit:10;} 	.st68{opacity:0.5;} 	.st69{fill:#FBBD9D;} 	.st70{fill:#EB9A6F;} 	.st71{opacity:0.6;fill:#010101;enable-background:new    ;} 	.st72{fill:#FAC2BE;} 	.st73{fill:#EC847E;} 	.st74{opacity:0.9;} 	.st75{fill:#803F3C;} 	.st76{fill:#631112;} 	.st77{fill:#FCB574;} 	.st78{fill:#ED893F;} 	.st79{opacity:0.9;fill:#FFFFFF;enable-background:new    ;} 	.st80{fill:#C8C7C6;} 	.st81{opacity:0.6;fill:#2F3180;enable-background:new    ;} 	.st82{fill:#FDFEFF;} 	.st83{fill:#D4766B;} 	.st84{opacity:0.3;fill:#384850;enable-background:new    ;} 	.st85{fill:#F598B9;} 	.st86{clip-path:url(#SVGID_8_);} 	.st87{clip-path:url(#SVGID_10_);} 	.st88{clip-path:url(#SVGID_12_);} 	.st89{fill:#9B6E66;} 	.st90{fill:#714D46;} 	.st91{fill:#C78976;} 	.st92{fill:#935C4D;} 	.st93{fill:#EDDDD6;} 	.st94{fill:#474780;} 	.st95{fill:#E56445;} 	.st96{fill:#FCD69F;} 	.st97{fill:#FEBF6A;} 	.st98{fill:#2D328F;} 	.st99{fill:#9492C7;} 	.st100{fill:#7470B3;} 	.st101{fill:#F8A398;} 	.st102{fill:#F3C0BC;} 	.st103{fill:#7A491D;} 	.st104{fill:#FCB45D;} 	.st105{fill:#608558;} 	.st106{fill:#F47351;} 	.st107{fill:#B77E34;} 	.st108{fill:#7D6154;} 	.st109{fill:#50784A;} 	.st110{fill:#F17E65;} 	.st111{fill:#142148;} 	.st112{fill:#F8B384;} 	.st113{fill:#E38B6D;} 	.st114{fill:#758BC6;} </style> <g id="Calque_1"> </g> <g id="Calque_2"> 	<g> 		<path class="st93" d="M112.3,61.7c0,4.1-0.5,8.2-1.6,12c-2.4,9-7.4,16.9-14.1,22.9c-0.4,0.4-0.9,0.8-1.4,1.2 			c-1.7,1.4-3.5,2.7-5.3,3.8c-0.8,0.5-1.7,1-2.5,1.4c-0.2,0.1-0.5,0.2-0.7,0.4c-6.3,3.2-13.5,5-21,5c-2.6,0-5.1-0.2-7.6-0.6 			c-1.8-0.3-3.5-0.7-5.2-1.2c-5.6-1.6-10.8-4.2-15.4-7.7c-1.1-0.8-2.1-1.7-3.2-2.6c-1.7-1.5-3.3-3.2-4.8-5c-0.5-0.6-1-1.2-1.5-1.9 			c-5.7-7.7-9.1-17.3-9.1-27.7C19.1,35.9,39.9,15,65.7,15S112.3,35.9,112.3,61.7z"></path> 	</g> 	<g> 		<path class="st94" d="M95.3,97.7c-1.7,1.4-3.5,2.7-5.3,3.8c-0.8,0.5-1.7,1-2.5,1.4c-0.2,0.1-0.5,0.2-0.7,0.4c-6.3,3.2-13.5,5-21,5 			c-2.6,0-5.1-0.2-7.6-0.6c-1.8-0.3-3.5-0.7-5.2-1.2c-5.6-1.6-10.8-4.2-15.4-7.7c-1.1-0.8-2.1-1.7-3.2-2.6c-1.7-1.5-3.3-3.2-4.8-5 			c-0.5-0.6-1-1.2-1.5-1.9c3.1-4.8,8.3-10.8,16.1-13.9c2.2-0.9,4.5-1.5,7-1.8c0.1,0,0.3,0,0.4,0c0.2,0,0.5-0.1,0.7-0.1c0,0,0,0,0,0 			c0.2,0,0.4,0,0.6,0c0.3,0,0.6,0,0.8-0.1c0.6,0,1.3-0.1,1.9-0.1c17.4-0.7,26.6,6.2,27.1,6.6c0,0,0.1,0.1,0.1,0.1 			c0.2,0.2,0.6,0.6,1.2,1.3C86.6,83.9,91.4,89.9,95.3,97.7z"></path> 	</g> 	<g> 		<path class="st95" d="M59,49.7c0,0,3.9-1,5.8-3.2c1.8-2.3,2.1-7.9,2.1-7.9s7.1,3.7,9,3.3c1.9-0.4,5.5-8.8,3.1-12.4 			c-2.5-3.6-7.5,0.9-7.5,0.9s-1-5.2-6.5-4c-6.4,1.4-8.1,7.9-8.1,7.9s-0.4-7.1-4.9-4c-4.5,3.1-2.9,11.2-2.9,11.2s-3.6,1.5-2.9,4.9 			c0.7,3.4,5.5,6.6,5.5,6.6L59,49.7z"></path> 	</g> 	<g> 		<g> 			<path class="st96" d="M58.4,59.9l-0.9,10.7c0,0,1.7,3.2,8.1,4.3c4.8,0.8,6.6-0.1,6.6-0.1L72,69.2l-0.2-5.3l-11.4-3.4L58.4,59.9z"></path> 		</g> 	</g> 	<g> 		<g> 			<path class="st15" d="M60.3,60.5c0,0.3,0.1,0.6,0.2,1.1c2,5.5,8.7,7.2,11.4,7.7l-0.2-5.3L60.3,60.5z"></path> 		</g> 	</g> 	<g> 		<g> 			<path class="st96" d="M76.4,39.8c0,0,4.6,13.8,1.7,21.1c-2.9,7.2-9.8,5.4-13.9,3.5c-4.1-1.8-5.7-4.5-5.7-4.5s-4.1,0.9-6.3-2.9 				c-2.3-3.8-0.2-7.7,2.1-8.4c2.3-0.7,4.8,1.1,4.8,1.1l-1.7-4.1C57.3,45.7,68.2,26.9,76.4,39.8z"></path> 		</g> 	</g> 	<g> 		<path class="st15" d="M58.2,55.5c-0.1,0-0.2,0-0.3-0.1l-4.7-3.9c-0.2-0.2-0.2-0.5-0.1-0.7c0.2-0.2,0.5-0.2,0.7-0.1l4.7,3.9 			c0.2,0.2,0.2,0.5,0.1,0.7C58.4,55.5,58.3,55.5,58.2,55.5z"></path> 	</g> 	<g> 		<path class="st15" d="M66.7,44.7c-0.1,0-0.2,0-0.3-0.1c-0.2-0.2-0.2-0.5,0-0.7c1.7-1.8,3.7-1.3,4.5-0.7c0.2,0.1,0.3,0.5,0.2,0.7 			c-0.1,0.2-0.5,0.3-0.7,0.2c-0.1,0-1.7-1-3.2,0.6C66.9,44.7,66.8,44.7,66.7,44.7z"></path> 	</g> 	<g> 		<path class="st15" d="M77.4,45.1c-0.1,0-0.2,0-0.3-0.1c-1.1-1-2.3-0.5-2.4-0.4c-0.3,0.1-0.5,0-0.7-0.2c-0.1-0.2,0-0.5,0.2-0.7 			c0.1,0,1.9-0.9,3.5,0.6c0.2,0.2,0.2,0.5,0,0.7C77.7,45.1,77.5,45.1,77.4,45.1z"></path> 	</g> 	<g> 		<path class="st15" d="M74.7,55.1c-0.1,0-0.1,0-0.2,0c-0.3-0.1-0.4-0.4-0.3-0.7c1.4-3.5-1-4.8-1.1-4.9c-0.2-0.1-0.3-0.4-0.2-0.7 			c0.1-0.2,0.4-0.3,0.7-0.2c0,0,3.4,1.7,1.6,6.1C75,55,74.9,55.1,74.7,55.1z"></path> 	</g> 	<g> 		<path class="st15" d="M76.9,50.2c-0.2,0-0.4-0.2-0.5-0.4l-0.5-2.5c-0.1-0.3,0.1-0.5,0.4-0.6c0.3-0.1,0.5,0.1,0.6,0.4l0.5,2.5 			C77.4,49.9,77.3,50.2,76.9,50.2C77,50.2,76.9,50.2,76.9,50.2z"></path> 	</g> 	<g> 		<path class="st15" d="M68.9,49.8c-0.2,0-0.4-0.2-0.5-0.4l-0.5-2.5c-0.1-0.3,0.1-0.5,0.4-0.6c0.3,0,0.5,0.1,0.6,0.4l0.5,2.5 			C69.5,49.5,69.3,49.7,68.9,49.8C69,49.8,68.9,49.8,68.9,49.8z"></path> 	</g> 	<g> 		<path class="st15" d="M71.5,59.1c-0.2,0-2.9-0.1-3.9-2.6c-0.1-0.3,0-0.5,0.3-0.6c0.3-0.1,0.5,0,0.6,0.3c0.7,1.9,2.9,1.9,3,2 			c0.3,0,0.5,0.2,0.5,0.5C72,58.9,71.8,59.1,71.5,59.1C71.6,59.1,71.5,59.1,71.5,59.1z"></path> 	</g> 	<g> 		<path class="st95" d="M59,49.7c0,0,4.2-0.7,5.8-4.2c1.6-3.4,1.3-6.6,1.3-6.6s2.1,2.3,5.8,1.9c3.7-0.4,4.7-4.2,4.7-4.2l-3.4-4 			c0,0-13.9,2.9-14.2,2.5c-0.3-0.4-5.4,8.6-5.4,8.6L59,49.7z"></path> 	</g> 	<g> 		<path class="st94" d="M86.7,103.3c-6.3,3.2-13.5,5-21,5c-2.6,0-5.1-0.2-7.6-0.6c-1.8-0.3-3.5-0.7-5.2-1.2 			c-5.6-1.6-10.8-4.2-15.4-7.7c2-11.9,4-21.7,5.6-22.8c0.4-0.2,0.8-0.5,1.2-0.7c2.1-1.1,4.8-1.6,7-1.8c0.1,0,0.3,0,0.4,0 			c0.2,0,0.5-0.1,0.7-0.1c0.2,0,0.4,0,0.6-0.1c0.3,0,0.6,0,0.8-0.1c1.1-0.1,1.9,0,1.9,0s0,0,0-0.1c0-0.7,0.5-5.8,1.9-5.7 			c1.5,0.1,5.1,2.6,8.9,2.9s5.9,0,6.6,0c0.8,0,0.9,4.1,0.9,4.1s5.1,1.7,8.8,5.4c0,0,0.1,0.1,0.1,0.1c0.2,0.2,0.6,0.6,1.2,1.3 			c0.5,0.6,0.9,1.2,1.2,1.9C86.6,85.2,86.8,93.5,86.7,103.3z"></path> 	</g> 	<g> 		<path class="st97" d="M63.9,75.5c-3.5,0-8-1.6-8.3-1.7c-0.3-0.1-0.4-0.4-0.3-0.6c0.1-0.3,0.4-0.4,0.6-0.3c0.1,0,6.2,2.3,9.5,1.5 			c0.3-0.1,0.5,0.1,0.6,0.4c0.1,0.3-0.1,0.5-0.4,0.6C65.2,75.4,64.6,75.5,63.9,75.5z"></path> 	</g> 	<g> 		<path class="st15" d="M53.6,55.4c-0.2,0-0.4-0.1-0.4-0.3c-0.1-0.2,0-0.5,0.2-0.7l2.7-1.4c0.2-0.1,0.5,0,0.7,0.2 			c0.1,0.2,0,0.5-0.2,0.7l-2.7,1.4C53.8,55.4,53.7,55.4,53.6,55.4z"></path> 	</g> 	<g> 		<path class="st15" d="M69.5,52.6h-2.4c-1.3,0-2.4-1.1-2.4-2.4v-2.5c0-0.5,0.4-0.9,0.9-0.9H71c0.5,0,0.9,0.4,0.9,0.9v2.5 			C71.9,51.5,70.8,52.6,69.5,52.6z"></path> 	</g> 	<g> 		<path class="st15" d="M79.7,52.8h-2.4c-1.3,0-2.4-1.1-2.4-2.4v-2.5c0-0.5,0.4-0.9,0.9-0.9h5.5c0.5,0,0.9,0.4,0.9,0.9v2.5 			C82.1,51.7,81,52.8,79.7,52.8z"></path> 	</g> 	<g> 		<path class="st15" d="M71.9,50.7c-0.1,0-0.3,0-0.4-0.1c-0.2-0.2-0.2-0.5,0-0.7c0.1-0.1,1.7-1.7,4.5-1c0.3,0.1,0.4,0.3,0.4,0.6 			c-0.1,0.3-0.3,0.4-0.6,0.4c-2.2-0.5-3.5,0.7-3.6,0.8C72.2,50.6,72.1,50.7,71.9,50.7z"></path> 	</g> 	<g> 		<path class="st15" d="M55.8,48.6c-0.2,0-0.4-0.2-0.5-0.4c-0.1-0.3,0.1-0.5,0.4-0.6c6.1-1.4,9.9-0.1,10.1,0 			c0.3,0.1,0.4,0.4,0.3,0.6c-0.1,0.3-0.4,0.4-0.6,0.3c0,0-3.7-1.3-9.5,0.1C55.9,48.6,55.9,48.6,55.8,48.6z"></path> 	</g> </g> </svg>