<svg version="1.1" xmlns="http://www.w3.org/2000/svg" xmlns:xlink="http://www.w3.org/1999/xlink" x="0px" y="0px" style="enable-background:new 0 0 134 123;" xml:space="preserve" viewBox="20.1 18 93.2 93.3"> <style type="text/css"> 	.st0{fill:#F3F6FB;} 	.st1{fill:none;stroke:#2B2E81;stroke-width:2;stroke-miterlimit:10;} 	.st2{fill:#E0E1E0;} 	.st3{fill:#F1F0F0;} 	.st4{fill:#273339;} 	.st5{fill:#EBEBEB;} 	.st6{fill:#2F3180;} 	.st7{fill:#FFFFFF;} 	.st8{opacity:0.3;fill:#010101;enable-background:new    ;} 	.st9{fill:#B97A65;} 	.st10{opacity:0.2;fill:#010101;enable-background:new    ;} 	.st11{fill:#A34F40;} 	.st12{fill:#DE5854;} 	.st13{fill:#9F5C54;} 	.st14{opacity:0.2;} 	.st15{fill:#010101;} 	.st16{fill:#E9B376;} 	.st17{opacity:0.8;fill:#FFFFFF;enable-background:new    ;} 	.st18{fill:#D58745;} 	.st19{opacity:0.4;fill:#FFFFFF;enable-background:new    ;} 	.st20{fill:#EEC1BB;} 	.st21{fill:#D9857D;} 	.st22{fill:none;} 	.st23{fill:#F5F6F6;} 	.st24{fill:#FAFBFC;} 	.st25{fill:#FCBF9E;} 	.st26{fill:#F8996E;} 	.st27{fill:#465B64;} 	.st28{opacity:0.3;} 	.st29{opacity:0.25;fill:#FFFFFF;enable-background:new    ;} 	.st30{opacity:0.1;fill:#010101;enable-background:new    ;} 	.st31{opacity:0.1;fill:#FFFFFF;enable-background:new    ;} 	.st32{opacity:5.000000e-02;fill:#010101;enable-background:new    ;} 	.st33{opacity:0.15;fill:#FFFFFF;enable-background:new    ;} 	.st34{opacity:0.4;fill:#010101;enable-background:new    ;} 	.st35{opacity:0.5;fill:#010101;enable-background:new    ;} 	.st36{opacity:0.25;fill:#010101;enable-background:new    ;} 	.st37{opacity:0.15;fill:#010101;enable-background:new    ;} 	.st38{opacity:0.45;fill:#010101;enable-background:new    ;} 	.st39{opacity:0.35;fill:#010101;enable-background:new    ;} 	.st40{fill:#F8A7A8;} 	.st41{fill:#384850;} 	.st42{opacity:0.6;fill:#FFFFFF;enable-background:new    ;} 	.st43{opacity:0.1;fill:#2F3180;enable-background:new    ;} 	.st44{opacity:0.2;fill:#2F3180;enable-background:new    ;} 	.st45{fill:#B26769;} 	.st46{fill:#F3908F;} 	.st47{opacity:0.7;fill:#FFFFFF;enable-background:new    ;} 	.st48{fill:#AF7562;} 	.st49{fill:#70453A;} 	.st50{opacity:0.5;fill:#FFFFFF;enable-background:new    ;} 	.st51{opacity:0.3;fill:#FFFFFF;enable-background:new    ;} 	.st52{opacity:0.6;} 	.st53{opacity:0.7;} 	.st54{fill:#884D4D;} 	.st55{fill:#C8856A;} 	.st56{fill:#B06252;} 	.st57{fill:none;stroke:#000000;stroke-miterlimit:10;} 	.st58{fill:#D51F26;} 	.st59{fill:#E6E6E5;} 	.st60{opacity:0.15;} 	.st61{opacity:0.2;fill:#FFFFFF;enable-background:new    ;} 	.st62{opacity:0.4;} 	.st63{clip-path:url(#SVGID_2_);} 	.st64{opacity:0.1;} 	.st65{clip-path:url(#SVGID_4_);} 	.st66{clip-path:url(#SVGID_6_);} 	.st67{fill:#FFFFFF;stroke:#000000;stroke-width:2;stroke-miterlimit:10;} 	.st68{opacity:0.5;} 	.st69{fill:#FBBD9D;} 	.st70{fill:#EB9A6F;} 	.st71{opacity:0.6;fill:#010101;enable-background:new    ;} 	.st72{fill:#FAC2BE;} 	.st73{fill:#EC847E;} 	.st74{opacity:0.9;} 	.st75{fill:#803F3C;} 	.st76{fill:#631112;} 	.st77{fill:#FCB574;} 	.st78{fill:#ED893F;} 	.st79{opacity:0.9;fill:#FFFFFF;enable-background:new    ;} 	.st80{fill:#C8C7C6;} 	.st81{opacity:0.6;fill:#2F3180;enable-background:new    ;} 	.st82{fill:#FDFEFF;} 	.st83{fill:#D4766B;} 	.st84{opacity:0.3;fill:#384850;enable-background:new    ;} 	.st85{fill:#F598B9;} 	.st86{clip-path:url(#SVGID_8_);} 	.st87{clip-path:url(#SVGID_10_);} 	.st88{clip-path:url(#SVGID_12_);} 	.st89{fill:#9B6E66;} 	.st90{fill:#714D46;} 	.st91{fill:#C78976;} 	.st92{fill:#935C4D;} 	.st93{fill:#EDDDD6;} 	.st94{fill:#474780;} 	.st95{fill:#E56445;} 	.st96{fill:#FCD69F;} 	.st97{fill:#FEBF6A;} 	.st98{fill:#2D328F;} 	.st99{fill:#9492C7;} 	.st100{fill:#7470B3;} 	.st101{fill:#F8A398;} 	.st102{fill:#F3C0BC;} 	.st103{fill:#7A491D;} 	.st104{fill:#FCB45D;} 	.st105{fill:#608558;} 	.st106{fill:#F47351;} 	.st107{fill:#B77E34;} 	.st108{fill:#7D6154;} 	.st109{fill:#50784A;} 	.st110{fill:#F17E65;} 	.st111{fill:#142148;} 	.st112{fill:#F8B384;} 	.st113{fill:#E38B6D;} 	.st114{fill:#758BC6;} </style> <g id="Calque_1"> </g> <g id="Calque_2"> 	<g> 		<path class="st93" d="M113.3,64.6c0,7.1-1.6,13.8-4.4,19.8c-1.1,2.3-2.3,4.5-3.8,6.6c-1.4,2-2.9,3.9-4.6,5.7 			c-4.7,4.9-10.4,8.8-16.8,11.3c-0.2,0.1-0.4,0.2-0.6,0.2c-5.1,1.9-10.6,3-16.4,3c-0.7,0-1.5,0-2.2-0.1c-8.7-0.4-16.7-3.2-23.5-7.6 			c-1.1-0.7-2.1-1.4-3.1-2.2c-3.8-3-7.1-6.5-9.8-10.5c0-0.1-0.1-0.1-0.1-0.2c-5-7.4-7.9-16.3-7.9-26C20.1,38.9,41,18,66.7,18 			C92.5,18,113.3,38.9,113.3,64.6z"></path> 	</g> 	<g> 		<path class="st95" d="M58.6,40.8c0,0,6.5-13.1,17.4-6.8c10.9,6.3,1.8,19,18.3,22.4c8.6,1.8,14,8.9,11.7,17.2 			c-2.1,8.1-11.7,8.5-11.7,8.5s-10.5,15-22.4,10.6C60,88.2,54.4,81.2,55.4,69.9C56.4,58.6,58.6,40.8,58.6,40.8z"></path> 	</g> 	<g> 		<path class="st95" d="M47,52.3c0,0-6.9-9.8,6.7-17.9c13.7-8,23.9,2.6,24.1,8.3c0.2,5.8-3.1,8.5-3.1,8.5S76.2,63.7,64.1,63 			C52.1,62.3,47,52.3,47,52.3z"></path> 	</g> 	<g> 		<g> 			<path class="st107" d="M65.3,61l0.4,10.1c0,0-1.7,3-7.6,3.7c-4.4,0.5-6-0.4-6-0.4l0.4-5.1l0.4-5l10.6-2.8L65.3,61z"></path> 		</g> 	</g> 	<g> 		<g> 			<path class="st15" d="M65.2,60.5c0,0.3-0.1,0.6-0.3,1c-2.1,5.1-9.9,7.4-12.5,7.7l0.4-5L65.2,60.5z"></path> 		</g> 	</g> 	<g> 		<g> 			<path class="st107" d="M49.8,41.3c0,0-4.8,12.9-2.4,19.8c2.4,7,8.7,5.5,12.5,3.9c3.8-1.6,5.4-4,5.4-4s3.7,1,5.9-2.5 				c2.2-3.5,0.5-7.2-1.6-8s-4.5,0.8-4.5,0.8l1.7-3.8C66.8,47.6,57.8,29.5,49.8,41.3z"></path> 		</g> 	</g> 	<g> 		<path class="st15" d="M51,56.7c-0.2,0-0.4-0.2-0.5-0.4c-0.8-4.3,0.9-6.6,1-6.7c0.2-0.2,0.5-0.3,0.7-0.1c0.2,0.2,0.3,0.5,0.1,0.7 			c0,0-1.5,2.1-0.8,5.9C51.5,56.4,51.3,56.6,51,56.7C51,56.7,51,56.7,51,56.7z"></path> 	</g> 	<g> 		<path class="st15" d="M65.5,56.6c-0.2,0-0.3-0.1-0.4-0.3c-0.1-0.2,0-0.5,0.2-0.7l4.9-2.7c0.2-0.1,0.5,0,0.7,0.2 			c0.1,0.2,0,0.5-0.2,0.7l-4.9,2.7C65.6,56.6,65.6,56.6,65.5,56.6z"></path> 	</g> 	<g> 		<path class="st15" d="M70.1,57.4c-0.1,0-0.2,0-0.3-0.1l-2.4-2c-0.2-0.2-0.2-0.5-0.1-0.7c0.2-0.2,0.5-0.2,0.7-0.1l2.4,2 			c0.2,0.2,0.2,0.5,0.1,0.7C70.4,57.4,70.2,57.4,70.1,57.4z"></path> 	</g> 	<g> 		<path class="st95" d="M47,52.3c0,0,0.7-3.9,4.4-8.4c3.7-4.5,3.7-4.5,3.7-4.5s0.2,7.9,4,11.1c3.8,3.1,6.1,0.9,6.1,0.9l6.3-6.5 			L58.6,34.8C58.6,34.8,45,35.3,47,52.3z"></path> 	</g> 	<g> 		<path class="st104" d="M83.1,108.3c-5.1,1.9-10.6,3-16.4,3c-0.7,0-1.5,0-2.2-0.1c-8.7-0.4-16.7-3.2-23.5-7.6 			c-1.1-0.7-2.1-1.4-3.1-2.2c-0.4-2.1-0.9-4.9-1-8.2c-0.3-4.7,1.3-9.2,3-12.8c1.4-3,3.8-5.4,6.8-6.8c1-0.5,2.1-0.9,3.2-1.1l3-0.6 			c0,0,21.6-1.9,25.6-0.1c0,0,0,0,0.1,0c0.3,0.2,0.5,0.4,0.6,0.6C79.2,74.9,81.4,93.9,83.1,108.3z"></path> 	</g> 	<g> 		<path class="st104" d="M105.2,91c-1.4,2-2.9,3.9-4.6,5.7c-4.7,4.9-10.4,8.8-16.8,11.3c-0.2,0.1-0.4,0.2-0.6,0.2 			c-5.1,1.9-10.6,3-16.4,3c-0.7,0-1.5,0-2.2-0.1l-0.2-1.3l14.1-38.1c0,0,0,0,0.1,0C79.3,72.1,98,75.5,105.2,91z"></path> 	</g> 	<g> 		<path class="st107" d="M52.3,71.3l-3.8,1.5c0,0-0.7,7.6,8.2,7.3C66.2,79.9,73,71,73,71l-8.3-0.7L52.3,71.3z"></path> 	</g> 	<g> 		<path class="st7" d="M56.4,80.6c-2.7,0-4.8-0.7-6.3-2.2c-2.3-2.3-2.1-5.6-2.1-5.7c0-0.3,0.3-0.5,0.5-0.5c0.3,0,0.5,0.3,0.5,0.5 			c0,0-0.2,2.9,1.8,4.9c1.5,1.5,3.7,2.1,6.8,1.8c9.4-0.7,15-8.8,15-8.8c0.2-0.2,0.5-0.3,0.7-0.1c0.2,0.2,0.3,0.5,0.1,0.7 			c-0.2,0.3-5.9,8.5-15.8,9.3C57.2,80.6,56.8,80.6,56.4,80.6z"></path> 	</g> 	<g> 		<path class="st15" d="M54.2,60.3c-0.2,0-0.4-0.1-0.5-0.3c-0.1-0.3,0-0.5,0.3-0.6c0,0,1.2-0.5,2-1.8c0.1-0.2,0.4-0.3,0.7-0.2 			c0.2,0.1,0.3,0.4,0.2,0.7c-1,1.7-2.5,2.2-2.6,2.3C54.3,60.3,54.2,60.3,54.2,60.3z"></path> 	</g> 	<g> 		<path class="st104" d="M77.6,45.9c-0.3,0-0.5-0.2-0.5-0.5c0.2-9.8-7.9-12.8-8.2-12.9c-0.3-0.1-0.4-0.4-0.3-0.6 			c0.1-0.3,0.4-0.4,0.6-0.3c0.1,0,9.1,3.3,8.9,13.9C78.1,45.7,77.9,45.9,77.6,45.9z"></path> 	</g> 	<g> 		<path class="st104" d="M46.7,73.6c0,0-2.4,29.3-2.4,29.3l-3.2,0.6c-1.1-0.7-2.1-1.4-3.1-2.2c-3.8-3-7.1-6.5-9.8-10.5 			c0-0.1-0.1-0.1-0.1-0.2c2.3-3,5.9-7.3,9.5-10.5C43.9,74.4,46.7,73.6,46.7,73.6z"></path> 	</g> 	<g> 		<path class="st7" d="M37.7,100.8c-0.2,0-0.4-0.2-0.5-0.4c-3.3-14.7,3.9-22.1,4.2-22.4c0.2-0.2,0.5-0.2,0.7,0 			c0.2,0.2,0.2,0.5,0,0.7c-0.1,0.1-7.1,7.4-3.9,21.5c0.1,0.3-0.1,0.5-0.4,0.6C37.8,100.8,37.8,100.8,37.7,100.8z"></path> 	</g> 	<g> 		<path class="st15" d="M48.3,46.6c-0.2,0-0.4-0.2-0.5-0.4c-0.1-0.3,0.1-0.5,0.4-0.6l2.4-0.6c0.3-0.1,0.5,0.1,0.6,0.4 			c0.1,0.3-0.1,0.5-0.4,0.6l-2.4,0.6C48.3,46.6,48.3,46.6,48.3,46.6z"></path> 	</g> 	<g> 		<path class="st15" d="M57.5,46.9c-0.1,0-0.1,0-0.2,0l-2.9-1c-0.3-0.1-0.4-0.4-0.3-0.6c0.1-0.3,0.4-0.4,0.6-0.3l2.9,1 			c0.3,0.1,0.4,0.4,0.3,0.6C57.9,46.8,57.7,46.9,57.5,46.9z"></path> 	</g> 	<g> 		<path class="st15" d="M49.1,51.4C49.1,51.4,49,51.4,49.1,51.4c-0.4-0.1-0.5-0.3-0.5-0.6l0.3-1.8l-0.6-0.7 			c-0.2-0.2-0.2-0.5,0.1-0.7c0.2-0.2,0.5-0.2,0.7,0.1l0.8,0.9c0.1,0.1,0.1,0.3,0.1,0.4L49.6,51C49.6,51.2,49.3,51.4,49.1,51.4z"></path> 	</g> 	<g> 		<path class="st15" d="M55.9,51.6C55.8,51.6,55.8,51.6,55.9,51.6c-0.4-0.1-0.5-0.3-0.5-0.6l0.3-1.8L55,48.5c-0.2-0.2-0.2-0.5,0-0.7 			c0.2-0.2,0.5-0.2,0.7,0l0.9,0.9c0.1,0.1,0.2,0.3,0.1,0.5l-0.4,2.1C56.3,51.4,56.1,51.6,55.9,51.6z"></path> 	</g> </g> </svg>