<svg version="1.1" xmlns="http://www.w3.org/2000/svg" xmlns:xlink="http://www.w3.org/1999/xlink" x="0px" y="0px" style="enable-background:new 0 0 201 123;" xml:space="preserve" viewBox="15.6 35.1 173.4 53"> <style type="text/css"> 	.st0{fill:#F3F6FB;} 	.st1{fill:none;stroke:#2B2E81;stroke-width:2;stroke-miterlimit:10;} 	.st2{fill:#E0E1E0;} 	.st3{fill:#F1F0F0;} 	.st4{fill:#273339;} 	.st5{fill:#EBEBEB;} 	.st6{fill:#2F3180;} 	.st7{fill:#FFFFFF;} 	.st8{opacity:0.3;fill:#010101;enable-background:new    ;} 	.st9{fill:#B97A65;} 	.st10{opacity:0.2;fill:#010101;enable-background:new    ;} 	.st11{fill:#A34F40;} 	.st12{fill:#DE5854;} 	.st13{fill:#9F5C54;} 	.st14{opacity:0.2;} 	.st15{fill:#010101;} 	.st16{fill:#E9B376;} 	.st17{opacity:0.8;fill:#FFFFFF;enable-background:new    ;} 	.st18{fill:#D58745;} 	.st19{opacity:0.4;fill:#FFFFFF;enable-background:new    ;} 	.st20{fill:#EEC1BB;} 	.st21{fill:#D9857D;} 	.st22{fill:none;} 	.st23{fill:#F5F6F6;} 	.st24{fill:#FAFBFC;} 	.st25{fill:#FCBF9E;} 	.st26{fill:#F8996E;} 	.st27{fill:#465B64;} 	.st28{opacity:0.3;} 	.st29{opacity:0.25;fill:#FFFFFF;enable-background:new    ;} 	.st30{opacity:0.1;fill:#010101;enable-background:new    ;} 	.st31{opacity:0.1;fill:#FFFFFF;enable-background:new    ;} 	.st32{opacity:5.000000e-02;fill:#010101;enable-background:new    ;} 	.st33{opacity:0.15;fill:#FFFFFF;enable-background:new    ;} 	.st34{opacity:0.4;fill:#010101;enable-background:new    ;} 	.st35{opacity:0.5;fill:#010101;enable-background:new    ;} 	.st36{opacity:0.25;fill:#010101;enable-background:new    ;} 	.st37{opacity:0.15;fill:#010101;enable-background:new    ;} 	.st38{opacity:0.45;fill:#010101;enable-background:new    ;} 	.st39{opacity:0.35;fill:#010101;enable-background:new    ;} 	.st40{fill:#F8A7A8;} 	.st41{fill:#384850;} 	.st42{opacity:0.6;fill:#FFFFFF;enable-background:new    ;} 	.st43{opacity:0.1;fill:#2F3180;enable-background:new    ;} 	.st44{opacity:0.2;fill:#2F3180;enable-background:new    ;} 	.st45{fill:#B26769;} 	.st46{fill:#F3908F;} 	.st47{opacity:0.7;fill:#FFFFFF;enable-background:new    ;} 	.st48{fill:#AF7562;} 	.st49{fill:#70453A;} 	.st50{opacity:0.5;fill:#FFFFFF;enable-background:new    ;} 	.st51{opacity:0.3;fill:#FFFFFF;enable-background:new    ;} 	.st52{opacity:0.6;} 	.st53{opacity:0.7;} 	.st54{fill:#884D4D;} 	.st55{fill:#C8856A;} 	.st56{fill:#B06252;} 	.st57{fill:none;stroke:#000000;stroke-miterlimit:10;} 	.st58{fill:#D51F26;} 	.st59{fill:#E6E6E5;} 	.st60{opacity:0.15;} 	.st61{opacity:0.2;fill:#FFFFFF;enable-background:new    ;} 	.st62{opacity:0.4;} 	.st63{clip-path:url(#SVGID_2_);} 	.st64{opacity:0.1;} 	.st65{clip-path:url(#SVGID_4_);} 	.st66{clip-path:url(#SVGID_6_);} 	.st67{fill:#FFFFFF;stroke:#000000;stroke-width:2;stroke-miterlimit:10;} 	.st68{opacity:0.5;} 	.st69{fill:#FBBD9D;} 	.st70{fill:#EB9A6F;} 	.st71{opacity:0.6;fill:#010101;enable-background:new    ;} 	.st72{fill:#FAC2BE;} 	.st73{fill:#EC847E;} 	.st74{opacity:0.9;} 	.st75{fill:#803F3C;} 	.st76{fill:#631112;} 	.st77{fill:#FCB574;} 	.st78{fill:#ED893F;} 	.st79{opacity:0.9;fill:#FFFFFF;enable-background:new    ;} 	.st80{fill:#C8C7C6;} 	.st81{opacity:0.6;fill:#2F3180;enable-background:new    ;} 	.st82{fill:#FDFEFF;} 	.st83{fill:#D4766B;} 	.st84{opacity:0.3;fill:#384850;enable-background:new    ;} 	.st85{fill:#F598B9;} 	.st86{clip-path:url(#SVGID_8_);} 	.st87{clip-path:url(#SVGID_10_);} 	.st88{clip-path:url(#SVGID_12_);} 	.st89{fill:#9B6E66;} 	.st90{fill:#714D46;} 	.st91{fill:#C78976;} 	.st92{fill:#935C4D;} 	.st93{fill:#EDDDD6;} 	.st94{fill:#474780;} 	.st95{fill:#E56445;} 	.st96{fill:#FCD69F;} 	.st97{fill:#FEBF6A;} 	.st98{fill:#2D328F;} 	.st99{fill:#9492C7;} 	.st100{fill:#7470B3;} 	.st101{fill:#F8A398;} 	.st102{fill:#F3C0BC;} 	.st103{fill:#7A491D;} 	.st104{fill:#FCB45D;} 	.st105{fill:#608558;} 	.st106{fill:#F47351;} 	.st107{fill:#B77E34;} 	.st108{fill:#7D6154;} 	.st109{fill:#50784A;} 	.st110{fill:#F17E65;} 	.st111{fill:#142148;} 	.st112{fill:#F8B384;} 	.st113{fill:#E38B6D;} 	.st114{fill:#758BC6;} </style> <g id="Calque_1"> </g> <g id="Calque_2"> 	<g> 		<path class="st93" d="M68,61.2c0,2.7-0.4,5.4-1.2,7.8c-1.2,3.8-3.2,7.2-5.8,10c-0.1,0.1-0.1,0.1-0.2,0.2l-0.1,0.1 			c-0.1,0.1-0.1,0.1-0.2,0.2c-1.6,1.6-3.3,3-5.3,4.2c-3.9,2.3-8.5,3.7-13.4,3.7c-1,0-2-0.1-3-0.2c-0.1,0-0.3,0-0.4,0c0,0,0,0,0,0 			c-1.2-0.2-2.4-0.4-3.6-0.7c-1.4-0.4-2.7-0.9-4-1.5c-0.2-0.1-0.4-0.2-0.6-0.3c-1.3-0.6-2.5-1.3-3.6-2.2c-1.1-0.8-2.2-1.7-3.2-2.7 			c-1.1-1-2-2.2-2.9-3.4c-0.2-0.3-0.4-0.6-0.6-0.9c-0.5-0.8-1-1.6-1.4-2.4c-1.8-3.6-2.9-7.6-2.9-11.9c0-14.4,11.7-26.1,26.1-26.1 			S68,46.8,68,61.2z"></path> 	</g> 	<g> 		<g> 			<path class="st15" d="M36.5,50.9c0,0-8.4,3.2-8.9,12.8C27,77.5,43.6,74.3,43.6,74.3s9.4,1,12-5.9c2.6-6.9-5.7-11.1-5.7-11.1 				S39.7,48.3,36.5,50.9z"></path> 		</g> 	</g> 	<g> 		<path class="st108" d="M60.7,79.3c-0.1,0.1-0.1,0.1-0.2,0.2c-1.5,1.5-3.2,2.9-5,4c-0.1,0.1-0.2,0.1-0.3,0.2 			c-0.1,0.1-0.2,0.1-0.4,0.2c-3.8,2.2-8.3,3.5-13,3.5c-1,0-2-0.1-3-0.2c-0.1,0-0.3,0-0.4,0c0,0,0,0,0,0c-1.2-0.2-2.4-0.4-3.6-0.7 			c-1.4-0.4-2.7-0.9-4-1.5c-0.2-0.1-0.4-0.2-0.6-0.3c-1.3-0.6-2.5-1.3-3.6-2.2c-1.1-0.8-2.2-1.7-3.2-2.7c1.9-5.2,6.7-15,16.9-16.6 			c0,0,0,0,0.1,0c0.7-0.1,1.4-0.2,2.1-0.2C54.1,62.6,58.9,73.4,60.7,79.3z"></path> 	</g> 	<g> 		<path class="st108" d="M55.3,83.7c-3.9,2.3-8.5,3.7-13.4,3.7c-1,0-2-0.1-3-0.2c-0.1,0-0.3,0-0.4,0c0,0,0,0,0,0 			c-1.2-0.2-2.4-0.4-3.6-0.7c-1.4-0.4-2.7-0.9-4-1.5c-0.2-0.1-0.4-0.2-0.6-0.3c-1.3-0.6-2.5-1.3-3.6-2.2c-0.1-3.9-0.1-6.9-0.1-6.9 			l10-7.4l4.9-3.6c0.1,0,0.1,0,0.2,0c2.7,0.1,5,0.6,6.8,1.3c0.3,0.1,0.6,0.2,0.8,0.3c2.5,1.1,3.8,2.2,3.8,2.2S54.2,76.2,55.3,83.7z"></path> 	</g> 	<g> 		<g> 			<path class="st101" d="M40.3,59.4l0.2,5.6c0,0,1.1,1.6,4.3,1.7c2.4,0.1,3.3-0.5,3.3-0.5l-0.4-2.8l-0.4-2.7l-5.9-1.1L40.3,59.4z"></path> 		</g> 	</g> 	<g> 		<g> 			<path class="st15" d="M40.3,59.1c0,0.2,0.1,0.3,0.2,0.5c1.3,2.7,5.8,3.7,7.2,3.7l-0.4-2.7L40.3,59.1z"></path> 		</g> 	</g> 	<g> 		<g> 			<path class="st101" d="M48,47.9c0,0,3.2,6.9,2.2,10.8c-1,3.9-4.6,3.4-6.7,2.7c-2.1-0.7-3.2-2-3.2-2s-2,0.7-3.3-1.1 				s-0.6-4,0.5-4.5c1.1-0.5,2.5,0.3,2.5,0.3l-1.1-2C38.9,52.1,43.1,41.8,48,47.9z"></path> 		</g> 	</g> 	<g> 		<path class="st15" d="M44,51.3c-0.1,0-0.2-0.1-0.3-0.2c-0.1-0.1,0-0.3,0.1-0.4l1.6-0.7c0.1-0.1,0.3,0,0.4,0.1 			c0.1,0.1,0,0.3-0.1,0.4l-1.6,0.7C44.1,51.3,44,51.3,44,51.3z"></path> 	</g> 	<g> 		<path class="st15" d="M45.8,58.7c-0.1,0-0.2,0-0.3,0c-0.9-0.3-1-1.3-1-1.3c0-0.1,0-0.2,0.1-0.2c0.1-0.1,0.2-0.1,0.3-0.1l2.1,0.5 			c0.1,0,0.2,0.1,0.2,0.2c0,0.1,0,0.2,0,0.3C47,58.1,46.5,58.7,45.8,58.7z M45.2,57.7c0.1,0.2,0.2,0.3,0.5,0.4 			c0.2,0.1,0.5,0,0.6-0.1L45.2,57.7z"></path> 	</g> 	<g> 		<path class="st15" d="M40,57c0,0-0.1,0-0.1,0l-2.8-1.3c-0.1-0.1-0.2-0.2-0.1-0.4c0.1-0.1,0.2-0.2,0.4-0.1l2.8,1.3 			c0.1,0.1,0.2,0.2,0.1,0.4C40.2,56.9,40.1,57,40,57z"></path> 	</g> 	<g> 		<path class="st15" d="M37.5,57.6c-0.1,0-0.1,0-0.2-0.1c-0.1-0.1-0.1-0.3,0-0.4l1.2-1.2c0.1-0.1,0.3-0.1,0.4,0 			c0.1,0.1,0.1,0.3,0,0.4l-1.2,1.2C37.7,57.6,37.6,57.6,37.5,57.6z"></path> 	</g> 	<g> 		<path class="st15" d="M44,48.3c0,0,1.6-0.2,3.3,0.8c1.7,1,2,2,2,2s1-2.6-1.2-4.9c-2.3-2.3-6.6-2.9-9.1-0.2 			c-2.5,2.7-2.3,5.1-2.3,5.1l3.4,3C40,54.1,45.3,53.1,44,48.3z"></path> 	</g> 	<g> 		<path class="st15" d="M38.4,47.1c0,0-3.2-6.1-6.5-3.5c-3.2,2.6,0.4,7.8,3.6,8.1C38.7,52.1,38.4,47.1,38.4,47.1z"></path> 	</g> 	<g> 		<path class="st108" d="M38.9,87.2c-0.1,0-0.3,0-0.4,0c0,0,0,0,0,0c-1.2-0.2-2.4-0.4-3.6-0.7l1.7-18.2l0.1-0.6l3.8-4.4l0-0.1 			c0,0,0,0,0,0c0.1,0.2,0.5,0.8,1.2,1.4c1.3,1.2,3.6,2.6,6.7,1.3c0.5-0.2,0.8-0.1,0.8,0.3C49.5,68.5,43.5,79.4,38.9,87.2z"></path> 	</g> 	<g> 		<path class="st104" d="M45.8,66.7c-3.7,0-5.5-3.4-5.6-3.4c-0.1-0.1,0-0.3,0.1-0.4c0.1-0.1,0.3,0,0.4,0.1c0.1,0.2,2.6,4.6,7.6,2.6 			c0.1-0.1,0.3,0,0.4,0.2c0.1,0.1,0,0.3-0.2,0.4C47.5,66.6,46.6,66.7,45.8,66.7z"></path> 	</g> 	<g> 		<path class="st100" d="M40.7,59.1c0,0.6-0.4,1-1,1c-0.6,0-1-0.4-1-1c0-0.6,0.4-1,1-1C40.3,58.1,40.7,58.5,40.7,59.1z"></path> 	</g> 	<g> 		<path class="st15" d="M44.8,54.2c-0.2,0-0.3-0.1-0.3-0.3v-1.2c0-0.1,0-0.1,0.1-0.2l0.5-0.5c0.1-0.1,0.3-0.1,0.4,0 			c0.1,0.1,0.1,0.3,0,0.4l-0.5,0.5v1.1C45.1,54,44.9,54.2,44.8,54.2z"></path> 	</g> 	<g> 		<path class="st93" d="M130,61.7c0,3.4-0.7,6.7-1.9,9.7c-0.9,2.2-2.1,4.2-3.5,6.1c-3.3,4.2-8,7.4-13.3,8.9 			c-2.2,0.6-4.5,0.9-6.9,0.9c-0.9,0-1.8,0-2.7-0.1c-0.6-0.1-1.1-0.1-1.7-0.2c-0.6-0.1-1.2-0.2-1.9-0.4c-0.1,0-0.2-0.1-0.4-0.1 			c-1-0.3-1.9-0.6-2.9-0.9c-1.6-0.6-3.2-1.5-4.7-2.4c-0.5-0.3-0.9-0.6-1.3-0.9c-0.9-0.6-1.7-1.3-2.4-2.1c-1.8-1.8-3.4-3.8-4.6-6.1 			c-2-3.6-3.1-7.8-3.1-12.2c0-14.1,11.5-25.6,25.6-25.6S130,47.5,130,61.7z"></path> 	</g> 	<g> 		<path class="st15" d="M98.1,50.6c0,0-2.5,2.1-2.7,4.1s-0.2,2.1-0.2,2.1s-2.9,0.9-3.8,4.5c-1.2,4.8,2.1,6.5,2.1,6.5l25.5,2.7 			c0,0,3-2.6,2.4-6.8c-0.6-4.2-3.1-5.6-3.1-5.6s0.4-2.7-1-5.4c-1.6-3.1-4.8-3.2-4.8-3.2L98.1,50.6z"></path> 	</g> 	<g> 		<path class="st109" d="M124.6,77.4c-3.3,4.2-8,7.4-13.3,8.9c-2.2,0.6-4.5,0.9-6.9,0.9c-0.9,0-1.8,0-2.7-0.1 			c-0.6-0.1-1.1-0.1-1.7-0.2c-0.6-0.1-1.2-0.2-1.9-0.4c-0.1,0-0.2-0.1-0.4-0.1c-1-0.3-1.9-0.6-2.9-0.9c-1.6-0.6-3.2-1.5-4.7-2.4 			c0.1-1.4,0.1-2.1,0.1-2.1l4.1-13l0.4-1.3c0.2-0.8,0.7-1.4,1.4-1.8c0.3-0.2,0.7-0.4,1.1-0.5c0.8-0.2,1.7-0.4,2.8-0.5 			c0.3,0,0.7-0.1,1-0.2c1.1-0.2,2.3-0.3,3.6-0.3c0.8,0,1.5,0,2.3,0c0.3,0,0.7,0,1,0c0.4,0,0.8,0.1,1.2,0.1c0.4,0.1,0.9,0.1,1.3,0.2 			c1,0.2,2,0.4,2.9,0.8c2.4,0.9,4.6,2.9,6.3,5.1C122,72.3,123.7,75.4,124.6,77.4z"></path> 	</g> 	<g> 		<path class="st104" d="M108.2,62c0,0,1.8,0.6,2.3,1.4c0.6,0.9-0.5,3.4-3.8,5.3c-2.4,1.4-4.4,1.9-4.4,1.9s-2.1-2.8-2.5-4.6 			c-0.4-1.7,1.1-4,1.1-4L108.2,62z"></path> 	</g> 	<g> 		<path class="st15" d="M98.7,53.8c0,0-2.2-3.3-2.1-4.9c0-1.6,5.4-7.3,11.1-5.7s7.1,8.4,6.4,11.4c-1.8,7.8-8.7,5.5-8.7,5.5 			S94.7,58.7,98.7,53.8z"></path> 	</g> 	<g> 		<g> 			<g> 				<g> 					<path class="st110" d="M101,61.9l0,0.1l0.4,2.7l0.3,2.1c0,0-0.1,0.5,2.3,0.1c3.3-0.6,4.2-2.2,4.2-2.2l-0.5-5l-1,0.3L101,61.9z"></path> 				</g> 			</g> 		</g> 	</g> 	<g> 		<g> 			<g> 				<g> 					<path class="st15" d="M101,62.1l0.4,2.7c1.6-0.4,4.4-1.4,5.3-4.1c0.1-0.2,0.1-0.4,0.1-0.6L101,62.1L101,62.1z"></path> 				</g> 			</g> 		</g> 	</g> 	<g> 		<g> 			<g> 				<g> 					<path class="st110" d="M98.4,49.3c0,0-2.2,7.4-0.6,11.2s5.1,2.7,7.2,1.7c2.1-1,2.9-2.5,2.9-2.5s2.1,0.4,3.2-1.6 						c1.1-2,0-4.1-1.2-4.4c-1.2-0.4-2.5,0.6-2.5,0.6l0.8-2.2C108.2,52.2,102.5,42.4,98.4,49.3z"></path> 				</g> 			</g> 		</g> 	</g> 	<g> 		<path class="st15" d="M99.8,58.2c-0.1,0-0.2-0.1-0.3-0.2c-0.7-1.5,0.2-3.1,0.2-3.2c0.1-0.1,0.2-0.2,0.4-0.1 			c0.1,0.1,0.2,0.2,0.1,0.4c0,0-0.8,1.5-0.2,2.7c0.1,0.1,0,0.3-0.1,0.4C99.9,58.2,99.8,58.2,99.8,58.2z"></path> 	</g> 	<g> 		<path class="st15" d="M108.1,57.7c-0.1,0-0.1,0-0.2-0.1c-0.1-0.1-0.1-0.3-0.1-0.4l1.6-2.3c0.1-0.1,0.3-0.1,0.4-0.1 			c0.1,0.1,0.1,0.3,0.1,0.4l-1.6,2.3C108.3,57.6,108.2,57.7,108.1,57.7z"></path> 	</g> 	<g> 		<path class="st15" d="M110,56.9c0,0-1.4,0-1.4,0c-0.2,0-0.3-0.1-0.3-0.3c0-0.2,0.1-0.3,0.3-0.3l1.3,0c0.2,0,0.3,0.1,0.3,0.3 			C110.3,56.8,110.2,56.9,110,56.9z"></path> 	</g> 	<g> 		<path class="st15" d="M101.4,60.8c-0.1,0-0.2,0-0.2,0c-0.6-0.2-1-1-1-1.1c-0.1-0.1,0-0.3,0.1-0.3l2.6-1.3c0.1,0,0.2,0,0.3,0 			c0.1,0.1,0.1,0.2,0.1,0.3c0,0.1-0.6,1.7-1.4,2.3C101.7,60.8,101.5,60.8,101.4,60.8z M100.8,59.7c0.1,0.2,0.3,0.5,0.5,0.6 			c0.1,0,0.1,0,0.3-0.1c0.4-0.3,0.7-0.9,0.9-1.4L100.8,59.7z"></path> 	</g> 	<g> 		<path class="st15" d="M103.5,52.5c-0.1,0-0.2,0-0.2-0.1c-0.4-0.5-1.2-0.3-1.2-0.3c-0.1,0-0.3,0-0.4-0.2c-0.1-0.1,0-0.3,0.2-0.3 			c0.1,0,1.2-0.4,1.8,0.5c0.1,0.1,0.1,0.3-0.1,0.4C103.6,52.5,103.6,52.5,103.5,52.5z"></path> 	</g> 	<g> 		<path class="st15" d="M97.5,52.5c-0.1,0-0.1,0-0.2-0.1c-0.1-0.1-0.1-0.3,0-0.4c0.1-0.1,0.6-0.6,1.2-0.6c0.3,0,0.6,0.1,0.8,0.4 			c0.1,0.1,0.1,0.3,0,0.4c-0.1,0.1-0.3,0.1-0.4,0c-0.1-0.1-0.3-0.2-0.4-0.2c-0.3,0-0.7,0.3-0.8,0.4C97.7,52.5,97.6,52.5,97.5,52.5z"></path> 	</g> 	<g> 		<path class="st15" d="M107.4,54.4c0,0-3.3-1.2-4.7-3.2c-1.4-2.1-1.6-3.2-1.6-3.2s-0.3,1.5-1.3,2s-1.8,0.6-1.8,0.6l-0.4,2.1l-0.2-5 			c0,0,2.8-2,3.2-2.1c0.4-0.1,5.6,0.2,6,0.5c0.3,0.3,2.5,4,2.5,4l0.3,1.8L107.4,54.4z"></path> 	</g> 	<g> 		<path class="st15" d="M103.5,54.3c-0.1,0-0.2-0.1-0.2-0.2c-0.1-0.2-0.2-0.4-0.4-0.4c-0.3-0.1-0.8,0.2-0.9,0.4 			c-0.1,0.1-0.3,0.1-0.4,0c-0.1-0.1-0.1-0.3,0-0.4c0.1-0.1,0.7-0.6,1.4-0.5c0.2,0,0.6,0.2,0.8,0.7c0.1,0.1,0,0.3-0.1,0.4 			C103.6,54.3,103.5,54.3,103.5,54.3z"></path> 	</g> 	<g> 		<path class="st15" d="M98,54.3C98,54.3,97.9,54.3,98,54.3c-0.2-0.1-0.3-0.2-0.3-0.4c0.2-0.5,0.5-0.8,0.8-0.8c0.6,0,0.9,0.6,1,0.7 			c0.1,0.1,0,0.3-0.1,0.4c-0.1,0.1-0.3,0-0.4-0.1c-0.1-0.2-0.3-0.4-0.5-0.4c-0.1,0-0.2,0.1-0.3,0.5C98.2,54.2,98.1,54.3,98,54.3z"></path> 	</g> 	<g> 		<path class="st104" d="M108.1,62.4c0,0-3.5,3.3-5.5,3.3c-2,0-1.8-1.7-1.8-1.7l0.3,3.9l1.8,0.6l4.5-1.8l2.5-2.8L108.1,62.4z"></path> 	</g> 	<g> 		<path class="st104" d="M104.4,68.7c0,0,1.5,2.1,1.8,5.4c0.3,3.3-1.6,7-1.6,7s-3.1-3.5-3.5-6.1c-0.4-2.6,1-6.3,1-6.3 			s-1.4,3.1-1.7,5.1c-0.3,1.9-0.8,4.4-0.8,4.4s-1.9-2.5-1.7-5.4c0.1-2.9,3.3-4.8,3.3-4.8L104.4,68.7z"></path> 	</g> 	<g> 		<path class="st106" d="M104,69.7c-0.8,0-1.9-0.3-2.1-0.3c0,0,0,0,0,0c-0.1,0-0.1-0.1-0.1-0.1c-0.2-0.4-1.1-2.7-0.5-3.4 			c0.1-0.2,0.3-0.3,0.7-0.3c0.3,0,0.6,0.2,0.7,0.4c0.5,0.8-0.1,2.3-0.3,3c0.6,0.1,1.6,0.3,2.1,0.2c0.5-0.1,0.8-1.8,0.6-2.8 			c0-0.1,0.1-0.3,0.2-0.3c0.1,0,0.3,0.1,0.3,0.2c0.2,0.9,0.1,3.1-1,3.4C104.4,69.7,104.2,69.7,104,69.7z M101.8,66 			c-0.1,0-0.2,0.1-0.2,0.1c-0.2,0.3,0,1.3,0.3,2.2c0.3-0.8,0.4-1.8,0.2-2.1C102.1,66,102,66,101.8,66C101.9,66,101.9,66,101.8,66z"></path> 	</g> 	<g> 		<path class="st106" d="M103.9,74.1c-0.2,0-0.4-0.1-0.6-0.3c-0.7-0.9-0.1-4,0-4.4c0-0.1,0.1-0.2,0.3-0.2c0.1,0,0.2,0.1,0.3,0.2 			c0.2,0.6,1.2,3.5,0.6,4.4C104.3,74,104.1,74.1,103.9,74.1C103.9,74.1,103.9,74.1,103.9,74.1z M103.7,70.6 			c-0.2,1.2-0.3,2.5,0.1,2.9c0,0.1,0.1,0.1,0.2,0.1s0.1,0,0.1-0.1C104.3,73.1,104,71.8,103.7,70.6z"></path> 	</g> 	<g> 		<path class="st109" d="M98.1,86.5c-0.1,0-0.2-0.1-0.4-0.1c-1-0.3-1.9-0.6-2.9-0.9c-1.6-0.6-3.2-1.5-4.7-2.4 			c-0.5-0.3-0.9-0.6-1.3-0.9c-0.9-0.6-1.7-1.3-2.4-2.1c0-0.1,0-0.1,0-0.2c1.4-6.3,4.1-10.2,6.3-12.5c2-2,3.9-2.8,3.9-2.8 			c0,0.1-0.3,0.1-0.3,0.2C96.1,65.5,96,66.6,96,68C96,72.7,97.1,80.3,98.1,86.5z"></path> 	</g> 	<g> 		<path class="st93" d="M189,62.7c0,4.9-1.4,9.4-3.7,13.3c-0.4,0.7-0.9,1.3-1.3,1.9c-1.2,1.7-2.7,3.2-4.3,4.5 			c-0.6,0.5-1.2,1-1.9,1.4c-0.5,0.3-1,0.6-1.4,0.9c-2.8,1.6-5.9,2.7-9.2,3.2c-1,0.1-2.1,0.2-3.1,0.2c-0.2,0-0.3,0-0.5,0 			c-2.1,0-4.1-0.2-6-0.7c-2.8-0.7-5.4-1.8-7.8-3.3c-0.9-0.5-1.7-1.1-2.4-1.8c-1.1-0.9-2.1-1.9-3.1-3c-0.4-0.5-0.8-1-1.2-1.5 			c-0.1-0.1-0.2-0.2-0.3-0.3c-0.9-1.3-1.8-2.7-2.4-4.2c-1.5-3.2-2.3-6.9-2.3-10.6c0-14.1,11.4-25.5,25.5-25.5 			C177.6,37.2,189,48.6,189,62.7z"></path> 	</g> 	<g> 		<path class="st94" d="M179.7,82.4c-0.6,0.5-1.2,1-1.9,1.4c-0.5,0.3-1,0.6-1.4,0.9c-2.8,1.6-5.9,2.7-9.2,3.2 			c-1,0.1-2.1,0.2-3.1,0.2c-0.2,0-0.3,0-0.5,0c-2.1,0-4.1-0.2-6-0.7c-2.8-0.7-5.4-1.8-7.8-3.3c-0.9-0.5-1.7-1.1-2.4-1.8 			c-1.1-0.9-2.1-1.9-3.1-3c-0.4-0.5-0.8-1-1.2-1.5c1.7-4.1,4.9-10,9.2-11.4c6.8-2.3,21.3,0.9,21.3,0.9S178.6,69.7,179.7,82.4z"></path> 	</g> 	<g> 		<path class="st94" d="M176.4,84.7c-2.8,1.6-5.9,2.7-9.2,3.2c-1,0.1-2.1,0.2-3.1,0.2c-0.2,0-0.3,0-0.5,0c-2.1,0-4.1-0.2-6-0.7 			c-2.8-0.7-5.4-1.8-7.8-3.3c-0.9-0.5-1.7-1.1-2.4-1.8c0-6.7,0.5-12.7,2.2-14.2c0.8-0.7,1.8-1.3,2.8-1.7c2.4-1,5-1.4,6.7-1.5 			c1.2-0.1,1.9,0,1.9,0s1.5,0.1,3.6,0.3c0.6,0.1,1.2,0.1,1.8,0.2c3.5,0.5,7.7,1.5,8.7,3.4C176,70.4,176.3,77.6,176.4,84.7z"></path> 	</g> 	<g> 		<path class="st104" d="M168.4,51.5c0,0,3.3-5.6,0.6-6.8c-2.7-1.2-6,1.9-6,1.9s-6.1,0.5-8.5,3.8c-2.3,3.3,3.4,9,3.4,9L168.4,51.5z"></path> 	</g> 	<g> 		<g> 			<path class="st110" d="M159,60.8l-0.3,5.7c0,0,0.9,1.7,4.2,2.2c2.5,0.4,3.4-0.2,3.4-0.2l-0.2-2.9l-0.2-2.8L160,61L159,60.8z"></path> 		</g> 	</g> 	<g> 		<g> 			<path class="st15" d="M160,61c0,0.2,0.1,0.3,0.1,0.6c1.1,2.9,4.5,3.7,5.9,3.9l-0.2-2.8L160,61z"></path> 		</g> 	</g> 	<g> 		<g> 			<path class="st110" d="M167.9,49.9c0,0,2.5,7.3,1.1,11.1c-1.4,3.9-5,3-7.1,2c-2.1-0.9-3-2.3-3-2.3s-2.1,0.5-3.3-1.4 				c-1.2-2-0.2-4.1,1-4.5c1.2-0.4,2.5,0.5,2.5,0.5l-0.9-2.1C158.3,53.3,163.6,43.2,167.9,49.9z"></path> 		</g> 	</g> 	<g> 		<path class="st15" d="M158.8,58.5c-0.1,0-0.1,0-0.2-0.1l-2.4-2c-0.1-0.1-0.1-0.3,0-0.4c0.1-0.1,0.3-0.1,0.4,0l2.4,2 			c0.1,0.1,0.1,0.3,0,0.4C159,58.4,158.9,58.5,158.8,58.5z"></path> 	</g> 	<g> 		<path class="st15" d="M156.5,58.3c-0.1,0-0.2-0.1-0.3-0.2c0-0.1,0.1-0.3,0.2-0.3l1.7-0.3c0.1,0,0.3,0.1,0.3,0.2 			c0,0.1-0.1,0.3-0.2,0.3L156.5,58.3C156.5,58.3,156.5,58.3,156.5,58.3z"></path> 	</g> 	<g> 		<path class="st15" d="M163,53c-0.1,0-0.1,0-0.2-0.1c-0.1-0.1-0.1-0.3,0-0.4c0.8-1,1.9-0.7,2.3-0.4c0.1,0.1,0.2,0.2,0.1,0.4 			c-0.1,0.1-0.2,0.2-0.4,0.1c-0.1-0.1-0.9-0.5-1.6,0.3C163.2,52.9,163.1,53,163,53z"></path> 	</g> 	<g> 		<path class="st15" d="M168.5,52.7c-0.1,0-0.1,0-0.2-0.1c-0.5-0.5-1.2-0.2-1.2-0.2c-0.1,0.1-0.3,0-0.4-0.1c-0.1-0.1,0-0.3,0.1-0.4 			c0,0,1-0.5,1.8,0.3c0.1,0.1,0.1,0.3,0,0.4C168.7,52.7,168.6,52.7,168.5,52.7z"></path> 	</g> 	<g> 		<path class="st15" d="M167.3,58C167.2,58,167.2,58,167.3,58c-0.2-0.1-0.3-0.2-0.3-0.4c0.7-2-0.2-3.1-0.3-3.1 			c-0.1-0.1-0.1-0.3,0-0.4c0.1-0.1,0.3-0.1,0.4,0c0,0.1,1.2,1.4,0.4,3.7C167.5,58,167.4,58,167.3,58z"></path> 	</g> 	<g> 		<path class="st15" d="M168.3,55.4c-0.1,0-0.2-0.1-0.3-0.2l-0.3-1.3c0-0.1,0.1-0.3,0.2-0.3c0.1,0,0.3,0.1,0.3,0.2l0.3,1.3 			C168.6,55.3,168.6,55.4,168.3,55.4C168.4,55.4,168.4,55.4,168.3,55.4z"></path> 	</g> 	<g> 		<path class="st15" d="M164.2,55.5c-0.1,0-0.2-0.1-0.3-0.2l-0.3-1.3c0-0.1,0.1-0.3,0.2-0.3c0.1,0,0.3,0.1,0.3,0.2l0.3,1.3 			C164.5,55.4,164.4,55.5,164.2,55.5C164.3,55.5,164.2,55.5,164.2,55.5z"></path> 	</g> 	<g> 		<path class="st104" d="M168.4,51.5c0,0-0.5-1.2-2-1.3c-1.4-0.1-2.3,0.8-2.3,0.8s0.5,2.4-1.5,3.6c-2,1.1-3.5,0.7-3.5,0.7l-1.4-0.6 			l-0.9-2.1l4.3-4.1l5.4-2.4l2.5,2.6L168.4,51.5z"></path> 	</g> 	<g> 		<path class="st15" d="M165.7,60.2c-0.2,0-1.5-0.1-2-1.3c-0.1-0.1,0-0.3,0.2-0.4c0.1-0.1,0.3,0,0.4,0.2c0.4,1,1.5,1,1.5,1 			c0.1,0,0.3,0.1,0.3,0.3C166,60.1,165.9,60.2,165.7,60.2C165.7,60.2,165.7,60.2,165.7,60.2z"></path> 	</g> 	<g> 		<path class="st7" d="M164.7,69c-3.7,0-6.5-2.6-6.7-2.7c-0.1-0.1-0.1-0.3,0-0.4c0.1-0.1,0.3-0.1,0.4,0c0,0,3.7,3.4,8,2.3 			c0.1,0,0.3,0.1,0.3,0.2c0,0.1-0.1,0.3-0.2,0.3C165.9,68.9,165.3,69,164.7,69z"></path> 	</g> </g> </svg>