<svg version="1.1" xmlns="http://www.w3.org/2000/svg" xmlns:xlink="http://www.w3.org/1999/xlink" x="0px" y="0px" style="enable-background:new 0 0 134 123;" xml:space="preserve" viewBox="20.9 17.3 93.1 93.2"> <style type="text/css"> 	.st0{fill:#F3F6FB;} 	.st1{fill:none;stroke:#2B2E81;stroke-width:2;stroke-miterlimit:10;} 	.st2{fill:#E0E1E0;} 	.st3{fill:#F1F0F0;} 	.st4{fill:#273339;} 	.st5{fill:#EBEBEB;} 	.st6{fill:#2F3180;} 	.st7{fill:#FFFFFF;} 	.st8{opacity:0.3;fill:#010101;enable-background:new    ;} 	.st9{fill:#B97A65;} 	.st10{opacity:0.2;fill:#010101;enable-background:new    ;} 	.st11{fill:#A34F40;} 	.st12{fill:#DE5854;} 	.st13{fill:#9F5C54;} 	.st14{opacity:0.2;} 	.st15{fill:#010101;} 	.st16{fill:#E9B376;} 	.st17{opacity:0.8;fill:#FFFFFF;enable-background:new    ;} 	.st18{fill:#D58745;} 	.st19{opacity:0.4;fill:#FFFFFF;enable-background:new    ;} 	.st20{fill:#EEC1BB;} 	.st21{fill:#D9857D;} 	.st22{fill:none;} 	.st23{fill:#F5F6F6;} 	.st24{fill:#FAFBFC;} 	.st25{fill:#FCBF9E;} 	.st26{fill:#F8996E;} 	.st27{fill:#465B64;} 	.st28{opacity:0.3;} 	.st29{opacity:0.25;fill:#FFFFFF;enable-background:new    ;} 	.st30{opacity:0.1;fill:#010101;enable-background:new    ;} 	.st31{opacity:0.1;fill:#FFFFFF;enable-background:new    ;} 	.st32{opacity:5.000000e-02;fill:#010101;enable-background:new    ;} 	.st33{opacity:0.15;fill:#FFFFFF;enable-background:new    ;} 	.st34{opacity:0.4;fill:#010101;enable-background:new    ;} 	.st35{opacity:0.5;fill:#010101;enable-background:new    ;} 	.st36{opacity:0.25;fill:#010101;enable-background:new    ;} 	.st37{opacity:0.15;fill:#010101;enable-background:new    ;} 	.st38{opacity:0.45;fill:#010101;enable-background:new    ;} 	.st39{opacity:0.35;fill:#010101;enable-background:new    ;} 	.st40{fill:#F8A7A8;} 	.st41{fill:#384850;} 	.st42{opacity:0.6;fill:#FFFFFF;enable-background:new    ;} 	.st43{opacity:0.1;fill:#2F3180;enable-background:new    ;} 	.st44{opacity:0.2;fill:#2F3180;enable-background:new    ;} 	.st45{fill:#B26769;} 	.st46{fill:#F3908F;} 	.st47{opacity:0.7;fill:#FFFFFF;enable-background:new    ;} 	.st48{fill:#AF7562;} 	.st49{fill:#70453A;} 	.st50{opacity:0.5;fill:#FFFFFF;enable-background:new    ;} 	.st51{opacity:0.3;fill:#FFFFFF;enable-background:new    ;} 	.st52{opacity:0.6;} 	.st53{opacity:0.7;} 	.st54{fill:#884D4D;} 	.st55{fill:#C8856A;} 	.st56{fill:#B06252;} 	.st57{fill:none;stroke:#000000;stroke-miterlimit:10;} 	.st58{fill:#D51F26;} 	.st59{fill:#E6E6E5;} 	.st60{opacity:0.15;} 	.st61{opacity:0.2;fill:#FFFFFF;enable-background:new    ;} 	.st62{opacity:0.4;} 	.st63{clip-path:url(#SVGID_2_);} 	.st64{opacity:0.1;} 	.st65{clip-path:url(#SVGID_4_);} 	.st66{clip-path:url(#SVGID_6_);} 	.st67{fill:#FFFFFF;stroke:#000000;stroke-width:2;stroke-miterlimit:10;} 	.st68{opacity:0.5;} 	.st69{fill:#FBBD9D;} 	.st70{fill:#EB9A6F;} 	.st71{opacity:0.6;fill:#010101;enable-background:new    ;} 	.st72{fill:#FAC2BE;} 	.st73{fill:#EC847E;} 	.st74{opacity:0.9;} 	.st75{fill:#803F3C;} 	.st76{fill:#631112;} 	.st77{fill:#FCB574;} 	.st78{fill:#ED893F;} 	.st79{opacity:0.9;fill:#FFFFFF;enable-background:new    ;} 	.st80{fill:#C8C7C6;} 	.st81{opacity:0.6;fill:#2F3180;enable-background:new    ;} 	.st82{fill:#FDFEFF;} 	.st83{fill:#D4766B;} 	.st84{opacity:0.3;fill:#384850;enable-background:new    ;} 	.st85{fill:#F598B9;} 	.st86{clip-path:url(#SVGID_8_);} 	.st87{clip-path:url(#SVGID_10_);} 	.st88{clip-path:url(#SVGID_12_);} 	.st89{fill:#9B6E66;} 	.st90{fill:#714D46;} 	.st91{fill:#C78976;} 	.st92{fill:#935C4D;} 	.st93{fill:#EDDDD6;} 	.st94{fill:#474780;} 	.st95{fill:#E56445;} 	.st96{fill:#FCD69F;} 	.st97{fill:#FEBF6A;} 	.st98{fill:#2D328F;} 	.st99{fill:#9492C7;} 	.st100{fill:#7470B3;} 	.st101{fill:#F8A398;} 	.st102{fill:#F3C0BC;} 	.st103{fill:#7A491D;} 	.st104{fill:#FCB45D;} 	.st105{fill:#608558;} 	.st106{fill:#F47351;} 	.st107{fill:#B77E34;} 	.st108{fill:#7D6154;} 	.st109{fill:#50784A;} 	.st110{fill:#F17E65;} 	.st111{fill:#142148;} 	.st112{fill:#F8B384;} 	.st113{fill:#E38B6D;} 	.st114{fill:#758BC6;} </style> <g id="Calque_1"> </g> <g id="Calque_2"> 	<g> 		<path class="st93" d="M114,63.8c0,8-2,15.6-5.6,22.1c-0.8,1.6-1.8,3.1-2.8,4.5c-2.9,4.2-6.5,7.9-10.6,10.9c0,0-0.1,0-0.1,0.1 			c-0.3,0.2-0.5,0.4-0.8,0.6c-5.1,3.6-10.9,6.1-17.1,7.4c-3.1,0.7-6.3,1-9.6,1c-7.6,0-14.7-1.8-21-5c-3.6-1.8-7-4.2-10-6.8 			c-1.6-1.5-3.1-3-4.6-4.7c-0.6-0.8-1.2-1.5-1.8-2.3c-1.6-2.1-2.9-4.3-4.1-6.6c-3.2-6.3-5-13.5-5-21.1c0-25.8,20.9-46.6,46.6-46.6 			C93.1,17.2,114,38.1,114,63.8z"></path> 	</g> 	<g> 		<path class="st94" d="M81.5,52.8c-0.7-3.3-3.2-5.5-5.5-5L74.8,48c-0.1,0-0.3,0-0.4,0.1c-2.3,0.5-3.6,3.6-2.9,6.8 			c0.7,3.3,3.2,5.5,5.5,5l1.2-0.2c0.1,0,0.3,0,0.4-0.1C80.9,59.1,82.2,56,81.5,52.8z"></path> 	</g> 	<g> 		<path class="st98" d="M108.4,86c-0.8,1.6-1.8,3.1-2.8,4.5c-2.9,4.2-6.5,7.9-10.6,10.9c0,0-0.1,0-0.1,0.1c-0.3,0.2-0.5,0.4-0.8,0.6 			c-5.1,3.6-10.9,6.1-17.1,7.4c-3.1,0.7-6.3,1-9.6,1c-7.6,0-14.7-1.8-21-5c-3.6-1.8-7-4.2-10-6.8c-1.6-1.5-3.1-3-4.6-4.7 			c-0.6-0.8-1.2-1.5-1.8-2.3c7.4-8.9,13.9-10.7,13.9-10.7c-0.2-0.2-2.5-2.9,0-7.8c3.3-6.4,13.5-10.4,13.5-10.4l18-1.1 			c0,0,7.6,0.5,13.2,7c4.7,5.3,3.8,8.7,3.4,9.7c-0.1,0.2-0.2,0.3-0.2,0.3S99.6,81.3,108.4,86z"></path> 	</g> 	<g> 		<path class="st99" d="M92,78.4c-3.7,2.4-9.7,5.3-18.2,7.2c-15.8,3.5-29.9-4.7-29.9-4.7c-0.2-0.2-2.5-2.9,0-7.8 			c3.3-6.4,13.5-10.4,13.5-10.4l18-1.1c0,0,7.6,0.5,13.2,7C93.2,74,92.4,77.3,92,78.4z"></path> 	</g> 	<g> 		<path class="st100" d="M59.9,74.6c0,0-7.1-3.7-6.7-5.9c0.4-2.2,7.4-3.6,11.8-2.8c4.4,0.8,15,1,15,4.8c0,3.4-4.8,6.6-4.8,6.6 			L65,74.3L59.9,74.6z"></path> 	</g> 	<g> 		<g> 			<g> 				<g> 					<path class="st101" d="M59.7,63.4l0.2,11.2c0,0,2.1,3.2,8.6,3.6c4.9,0.3,6.6-0.9,6.6-0.9l-0.8-5.7l-0.8-5.5l-11.9-2.3 						L59.7,63.4z"></path> 				</g> 			</g> 		</g> 	</g> 	<g> 		<g> 			<g> 				<g> 					<path class="st15" d="M61.7,63.8c0,0.3,0.2,0.7,0.3,1.1c2.6,5.5,9.5,6.6,12.3,6.8l-0.8-5.5L61.7,63.8z"></path> 				</g> 			</g> 		</g> 	</g> 	<g> 		<g> 			<g> 				<g> 					<path class="st101" d="M75.5,40.5c0,0,6.2,13.9,4,21.7c-2.1,7.8-9.3,6.7-13.6,5.2c-4.3-1.5-6.3-4.1-6.3-4.1s-4,1.4-6.7-2.3 						c-2.7-3.7-1.1-8,1.2-8.9c2.3-1,5,0.6,5,0.6l-2.1-4C57.1,48.7,65.8,28.1,75.5,40.5z"></path> 				</g> 			</g> 		</g> 	</g> 	<g> 		<path class="st15" d="M75,58.3c0,0-0.1,0-0.1,0c-0.3-0.1-0.4-0.4-0.3-0.6c0.8-2.5-1.1-5.3-1.1-5.3c-0.2-0.2-0.1-0.5,0.1-0.7 			c0.2-0.2,0.5-0.1,0.7,0.1c0.1,0.1,2.2,3.2,1.3,6.2C75.4,58.2,75.2,58.3,75,58.3z"></path> 	</g> 	<g> 		<path class="st15" d="M58.6,59.3c-0.1,0-0.3-0.1-0.4-0.2l-3.8-4c-0.2-0.2-0.2-0.5,0-0.7c0.2-0.2,0.5-0.2,0.7,0l3.8,4 			c0.2,0.2,0.2,0.5,0,0.7C58.9,59.3,58.7,59.3,58.6,59.3z"></path> 	</g> 	<g> 		<path class="st15" d="M54.6,58.2c-0.2,0-0.4-0.2-0.5-0.4c0-0.3,0.1-0.5,0.4-0.5l2.6-0.4c0.3,0,0.5,0.1,0.5,0.4 			c0,0.3-0.1,0.5-0.4,0.5L54.6,58.2C54.7,58.2,54.6,58.2,54.6,58.2z"></path> 	</g> 	<g> 		<path class="st15" d="M59.2,52.7c0,0,1.4,0.9,2.5-0.7c1-1.6-1.2-6.5-1.2-6.5s4.3,1,7-0.4c2.7-1.4,4-5.4,4-5.4s2,4.1,7.9,2.3 			c5.9-1.8,7-9.8,0.7-11.5c-6.3-1.6-9.7,1.1-9.7,1.1s-0.8-5.8-8.6-2.9c-7.1,2.6-8.3,11.5-8.3,11.5s-4.3,0.2-5.1,4.8 			c-0.8,4.6,4.6,8,4.6,8S56,51.3,59.2,52.7z"></path> 	</g> 	<g> 		<path class="st15" d="M68.7,53.1c-0.2,0-0.5-0.2-0.5-0.4l-0.3-2.6c0-0.3,0.2-0.5,0.4-0.6c0.3,0,0.5,0.2,0.6,0.4l0.3,2.6 			C69.2,52.8,69,53.1,68.7,53.1C68.7,53.1,68.7,53.1,68.7,53.1z"></path> 	</g> 	<g> 		<path class="st15" d="M76.4,52.5c-0.2,0-0.5-0.2-0.5-0.4l-0.4-2.6c0-0.3,0.1-0.5,0.4-0.6c0.3,0,0.5,0.1,0.6,0.4l0.4,2.6 			C76.9,52.2,76.7,52.4,76.4,52.5C76.4,52.5,76.4,52.5,76.4,52.5z"></path> 	</g> 	<g> 		<path class="st15" d="M66.2,48.1c-0.1,0-0.2,0-0.2-0.1c-0.2-0.1-0.3-0.4-0.2-0.7c1-1.9,3.3-1.4,3.4-1.4c0.3,0.1,0.4,0.3,0.4,0.6 			c-0.1,0.3-0.3,0.4-0.6,0.4c-0.1,0-1.7-0.3-2.3,0.8C66.6,48,66.4,48.1,66.2,48.1z"></path> 	</g> 	<g> 		<path class="st15" d="M73.8,46.5c-0.1,0-0.2,0-0.3-0.1c-0.2-0.2-0.3-0.5-0.1-0.7c0.4-0.6,0.9-0.9,1.5-1c1.2-0.2,2.4,0.9,2.4,0.9 			c0.2,0.2,0.2,0.5,0,0.7c-0.2,0.2-0.5,0.2-0.7,0c-0.2-0.2-1-0.7-1.7-0.7c-0.3,0-0.6,0.2-0.8,0.6C74.1,46.5,73.9,46.5,73.8,46.5z"></path> 	</g> 	<g> 		<path class="st94" d="M67.7,87.3c-14.8-0.8-20.6-4.2-20.8-4.4c-0.2-0.1-0.3-0.5-0.2-0.7c0.1-0.2,0.4-0.3,0.7-0.2 			c0.1,0,5.8,3.4,20.3,4.2c0.3,0,0.5,0.3,0.5,0.5C68.2,87.1,67.9,87.3,67.7,87.3z"></path> 	</g> 	<g> 		<path class="st94" d="M68.1,104.2c-0.3,0-0.5-0.2-0.5-0.5l0.4-12c0-0.3,0.2-0.5,0.5-0.5c0.3,0,0.5,0.2,0.5,0.5l-0.4,12 			C68.6,104,68.4,104.2,68.1,104.2z"></path> 	</g> 	<g> 		<path class="st94" d="M87.7,100.5c-0.2,0-0.3-0.1-0.4-0.2l-6-10.1c-0.1-0.2-0.1-0.5,0.2-0.7c0.2-0.1,0.5-0.1,0.7,0.2l6,10.1 			c0.1,0.2,0.1,0.5-0.2,0.7C87.8,100.5,87.7,100.5,87.7,100.5z"></path> 	</g> 	<g> 		<path class="st94" d="M87.7,81.4c-0.2,0-0.4-0.1-0.4-0.3c-0.1-0.2,0-0.5,0.2-0.7l4.1-2.2c0.2-0.1,0.5,0,0.7,0.2 			c0.1,0.2,0,0.5-0.2,0.7l-4.1,2.2C87.8,81.4,87.7,81.4,87.7,81.4z"></path> 	</g> 	<g> 		<g> 			<path class="st94" d="M62.3,56.9c0.4,3.3-1.1,6.2-3.5,6.5c-2.3,0.3-4.6-2.1-5-5.5c-0.4-3.3,1.1-6.2,3.5-6.5 				C59.6,51.1,61.9,53.5,62.3,56.9z"></path> 		</g> 		<g> 			<polygon class="st94" points="57.3,51.4 55.6,51.7 57.2,63.7 58.8,63.4 60.6,61.5 61.1,54.8 			"></polygon> 		</g> 		<g> 			<path class="st7" d="M60.7,57.2c0.4,3.3-1.1,6.2-3.5,6.5c-2.3,0.3-4.6-2.1-5-5.5c-0.4-3.3,1.1-6.2,3.5-6.5 				C58,51.4,60.2,53.9,60.7,57.2z"></path> 		</g> 	</g> 	<g> 		<path class="st7" d="M54.5,36.5c0,0-1.8,2.1-2.3,4c-0.5,1.9,2.4,13.8,2.4,13.8l3.7-0.8L54.5,36.5z"></path> 	</g> 	<g> 		<path class="st15" d="M71.7,62.2c-1.7,0-3-1.3-3.4-2.1c-0.1-0.2-0.1-0.5,0.2-0.7c0.2-0.1,0.5-0.1,0.7,0.2c0,0.1,1.2,2,3.3,1.5 			c0.3-0.1,0.5,0.1,0.6,0.4c0.1,0.3-0.1,0.5-0.4,0.6C72.3,62.2,72,62.2,71.7,62.2z"></path> 	</g> </g> </svg>