<svg version="1.1" xmlns="http://www.w3.org/2000/svg" xmlns:xlink="http://www.w3.org/1999/xlink" x="0px" y="0px" style="enable-background:new 0 0 134 123;" xml:space="preserve" viewBox="19.8 16 93.3 93.2"> <style type="text/css"> 	.st0{fill:#F3F6FB;} 	.st1{fill:none;stroke:#2B2E81;stroke-width:2;stroke-miterlimit:10;} 	.st2{fill:#E0E1E0;} 	.st3{fill:#F1F0F0;} 	.st4{fill:#273339;} 	.st5{fill:#EBEBEB;} 	.st6{fill:#2F3180;} 	.st7{fill:#FFFFFF;} 	.st8{opacity:0.3;fill:#010101;enable-background:new    ;} 	.st9{fill:#B97A65;} 	.st10{opacity:0.2;fill:#010101;enable-background:new    ;} 	.st11{fill:#A34F40;} 	.st12{fill:#DE5854;} 	.st13{fill:#9F5C54;} 	.st14{opacity:0.2;} 	.st15{fill:#010101;} 	.st16{fill:#E9B376;} 	.st17{opacity:0.8;fill:#FFFFFF;enable-background:new    ;} 	.st18{fill:#D58745;} 	.st19{opacity:0.4;fill:#FFFFFF;enable-background:new    ;} 	.st20{fill:#EEC1BB;} 	.st21{fill:#D9857D;} 	.st22{fill:none;} 	.st23{fill:#F5F6F6;} 	.st24{fill:#FAFBFC;} 	.st25{fill:#FCBF9E;} 	.st26{fill:#F8996E;} 	.st27{fill:#465B64;} 	.st28{opacity:0.3;} 	.st29{opacity:0.25;fill:#FFFFFF;enable-background:new    ;} 	.st30{opacity:0.1;fill:#010101;enable-background:new    ;} 	.st31{opacity:0.1;fill:#FFFFFF;enable-background:new    ;} 	.st32{opacity:5.000000e-02;fill:#010101;enable-background:new    ;} 	.st33{opacity:0.15;fill:#FFFFFF;enable-background:new    ;} 	.st34{opacity:0.4;fill:#010101;enable-background:new    ;} 	.st35{opacity:0.5;fill:#010101;enable-background:new    ;} 	.st36{opacity:0.25;fill:#010101;enable-background:new    ;} 	.st37{opacity:0.15;fill:#010101;enable-background:new    ;} 	.st38{opacity:0.45;fill:#010101;enable-background:new    ;} 	.st39{opacity:0.35;fill:#010101;enable-background:new    ;} 	.st40{fill:#F8A7A8;} 	.st41{fill:#384850;} 	.st42{opacity:0.6;fill:#FFFFFF;enable-background:new    ;} 	.st43{opacity:0.1;fill:#2F3180;enable-background:new    ;} 	.st44{opacity:0.2;fill:#2F3180;enable-background:new    ;} 	.st45{fill:#B26769;} 	.st46{fill:#F3908F;} 	.st47{opacity:0.7;fill:#FFFFFF;enable-background:new    ;} 	.st48{fill:#AF7562;} 	.st49{fill:#70453A;} 	.st50{opacity:0.5;fill:#FFFFFF;enable-background:new    ;} 	.st51{opacity:0.3;fill:#FFFFFF;enable-background:new    ;} 	.st52{opacity:0.6;} 	.st53{opacity:0.7;} 	.st54{fill:#884D4D;} 	.st55{fill:#C8856A;} 	.st56{fill:#B06252;} 	.st57{fill:none;stroke:#000000;stroke-miterlimit:10;} 	.st58{fill:#D51F26;} 	.st59{fill:#E6E6E5;} 	.st60{opacity:0.15;} 	.st61{opacity:0.2;fill:#FFFFFF;enable-background:new    ;} 	.st62{opacity:0.4;} 	.st63{clip-path:url(#SVGID_2_);} 	.st64{opacity:0.1;} 	.st65{clip-path:url(#SVGID_4_);} 	.st66{clip-path:url(#SVGID_6_);} 	.st67{fill:#FFFFFF;stroke:#000000;stroke-width:2;stroke-miterlimit:10;} 	.st68{opacity:0.5;} 	.st69{fill:#FBBD9D;} 	.st70{fill:#EB9A6F;} 	.st71{opacity:0.6;fill:#010101;enable-background:new    ;} 	.st72{fill:#FAC2BE;} 	.st73{fill:#EC847E;} 	.st74{opacity:0.9;} 	.st75{fill:#803F3C;} 	.st76{fill:#631112;} 	.st77{fill:#FCB574;} 	.st78{fill:#ED893F;} 	.st79{opacity:0.9;fill:#FFFFFF;enable-background:new    ;} 	.st80{fill:#C8C7C6;} 	.st81{opacity:0.6;fill:#2F3180;enable-background:new    ;} 	.st82{fill:#FDFEFF;} 	.st83{fill:#D4766B;} 	.st84{opacity:0.3;fill:#384850;enable-background:new    ;} 	.st85{fill:#F598B9;} 	.st86{clip-path:url(#SVGID_8_);} 	.st87{clip-path:url(#SVGID_10_);} 	.st88{clip-path:url(#SVGID_12_);} 	.st89{fill:#9B6E66;} 	.st90{fill:#714D46;} 	.st91{fill:#C78976;} 	.st92{fill:#935C4D;} 	.st93{fill:#EDDDD6;} 	.st94{fill:#474780;} 	.st95{fill:#E56445;} 	.st96{fill:#FCD69F;} 	.st97{fill:#FEBF6A;} 	.st98{fill:#2D328F;} 	.st99{fill:#9492C7;} 	.st100{fill:#7470B3;} 	.st101{fill:#F8A398;} 	.st102{fill:#F3C0BC;} 	.st103{fill:#7A491D;} 	.st104{fill:#FCB45D;} 	.st105{fill:#608558;} 	.st106{fill:#F47351;} 	.st107{fill:#B77E34;} 	.st108{fill:#7D6154;} 	.st109{fill:#50784A;} 	.st110{fill:#F17E65;} 	.st111{fill:#142148;} 	.st112{fill:#F8B384;} 	.st113{fill:#E38B6D;} 	.st114{fill:#758BC6;} </style> <g id="Calque_1"> </g> <g id="Calque_2"> 	<g> 		<path class="st93" d="M113.1,62.6c0,8.4-2.2,16.2-6.1,23c-1.1,2-2.4,3.8-3.8,5.6c-2,2.5-4.2,4.9-6.7,6.9c-1.4,1.2-2.8,2.3-4.4,3.3 			c-1.3,0.8-2.6,1.6-4,2.4c-0.3,0.2-0.6,0.3-0.9,0.5c-1.9,1-3.9,1.8-6,2.5c-4.7,1.6-9.7,2.4-14.9,2.4c-8.8,0-17.1-2.5-24.1-6.7 			c-0.3-0.2-0.6-0.4-0.9-0.6c-0.1,0-0.1-0.1-0.2-0.1c-2.9-1.9-5.7-4.1-8.1-6.7c-0.5-0.5-0.9-0.9-1.3-1.4c-0.5-0.6-1-1.1-1.5-1.7 			c-1.4-1.7-2.6-3.5-3.8-5.4c-4.2-7-6.6-15.2-6.6-24C19.9,36.9,40.8,16,66.5,16C92.3,16,113.1,36.9,113.1,62.6z"></path> 	</g> 	<g> 		<path class="st15" d="M80.4,38.7c0,0,10.6,1.7,14.5,15.1s1.6,30.6,1.6,30.6l-19.6-5.9l0.9-23.7L80.4,38.7z"></path> 	</g> 	<g> 		<path class="st100" d="M103.3,91.3c-2,2.5-4.2,4.9-6.7,6.9c-1.4,1.2-2.8,2.3-4.4,3.3c-3.3,2.2-7,4-10.8,5.3 			c-4.7,1.6-9.7,2.4-14.9,2.4c-9.3,0-18-2.7-25.3-7.5c-2.9-1.9-5.7-4.1-8.1-6.7c0.2-1.6,0.6-3.5,1-5.6c0.2-1,0.4-2,0.7-3.1 			c0.7-2.7,1.5-5.5,2.6-8.3c0.4-0.9,0.8-1.9,1.2-2.8c2.8-5.9,7-10.7,12.9-11.4c0.2,0,0.5-0.1,0.7-0.1c14.5-1.8,29.4,0.6,33.1,1.3 			c0.5,0.1,0.8,0.2,0.8,0.2s5.7,3.2,10.9,11.4c0.5,0.8,1,1.7,1.6,2.6c1.3,2.3,2.5,4.9,3.5,7.9c0.3,0.9,0.6,1.9,0.9,2.9 			C103.1,90.5,103.2,90.9,103.3,91.3z"></path> 	</g> 	<g> 		<path class="st15" d="M71.3,58c0,0,6.1,0.3,9.5-8.2c3.5-8.4-0.9-15.1-0.9-15.1l-7.6,4l-4.1,15.1L71.3,58z"></path> 	</g> 	<g> 		<path class="st100" d="M92.3,101.5c-3.3,2.2-7,4-10.8,5.3c-4.7,1.6-9.7,2.4-14.9,2.4c-9.3,0-18-2.7-25.3-7.5c0-14,0.4-30,2.3-33.3 			c1.2-2.1,4.7-3.6,8.7-4.6c7.3-1.9,16.2-2.2,16.2-2.2s9.8-0.3,16.9,3.5c1.2,0.6,2.3,1.4,3.2,2.3C92.1,70.7,92.6,86.7,92.3,101.5z"></path> 	</g> 	<g> 		<g> 			<path class="st103" d="M71.1,54.3l0.8,9.9c0,0-1.6,3-7.3,4c-4.3,0.7-5.9-0.1-5.9-0.1l0.2-5.1l0.2-5l10.3-3.2L71.1,54.3z"></path> 		</g> 	</g> 	<g> 		<g> 			<path class="st15" d="M69.4,54.8c0,0.3-0.1,0.6-0.2,1c-1.8,5.2-7.8,6.7-10.3,7.2l0.2-5L69.4,54.8z"></path> 		</g> 	</g> 	<g> 		<g> 			<path class="st103" d="M54.9,35.6c0,0-4.2,12.9-1.5,19.7c2.6,6.8,8.9,5,12.5,3.3c3.7-1.7,5.2-4.2,5.2-4.2s3.7,0.8,5.7-2.7 				c2-3.5,0.2-7.2-1.9-7.8s-4.4,1-4.4,1L72,41C72,41,62.3,23.6,54.9,35.6z"></path> 		</g> 	</g> 	<g> 		<path class="st15" d="M71.3,50.3c-0.1,0-0.3-0.1-0.4-0.2c-0.2-0.2-0.2-0.5,0.1-0.7l4.2-3.6c0.2-0.2,0.5-0.2,0.7,0.1 			c0.2,0.2,0.2,0.5-0.1,0.7l-4.2,3.6C71.5,50.2,71.4,50.3,71.3,50.3z"></path> 	</g> 	<g> 		<path class="st15" d="M75.4,49.9C75.4,49.9,75.3,49.9,75.4,49.9l-3.1-0.5c-0.3,0-0.5-0.3-0.4-0.6c0-0.3,0.3-0.4,0.6-0.4l3,0.5 			c0.3,0,0.5,0.3,0.4,0.6C75.8,49.7,75.6,49.9,75.4,49.9z"></path> 	</g> 	<g> 		<path class="st15" d="M63.6,40.2c-0.1,0-0.3-0.1-0.4-0.2c-1.3-1.4-2.7-0.6-2.8-0.5c-0.2,0.1-0.5,0.1-0.7-0.1 			c-0.1-0.2-0.1-0.5,0.1-0.7c0.8-0.5,2.6-1,4.1,0.7c0.2,0.2,0.2,0.5,0,0.7C63.9,40.2,63.8,40.2,63.6,40.2z"></path> 	</g> 	<g> 		<path class="st15" d="M54,40.6c-0.1,0-0.3-0.1-0.4-0.2c-0.2-0.2-0.2-0.5,0-0.7c1.4-1.4,2.5-1,2.6-1c0.3,0.1,0.4,0.4,0.3,0.6 			c-0.1,0.3-0.4,0.4-0.6,0.3c0,0-0.6-0.1-1.5,0.7C54.2,40.5,54.1,40.6,54,40.6z"></path> 	</g> 	<g> 		<path class="st15" d="M56.2,50.7c-0.2,0-0.4-0.2-0.5-0.4c-1-4.3,1.5-6.4,1.6-6.5c0.2-0.2,0.5-0.1,0.7,0.1c0.2,0.2,0.1,0.5-0.1,0.7 			c-0.1,0.1-2.1,1.8-1.3,5.5c0.1,0.3-0.1,0.5-0.4,0.6C56.3,50.7,56.3,50.7,56.2,50.7z"></path> 	</g> 	<g> 		<path class="st15" d="M54.4,45.3C54.4,45.3,54.3,45.3,54.4,45.3c-0.4-0.1-0.5-0.3-0.5-0.6l0.4-2.1l-0.6-0.8 			c-0.2-0.2-0.1-0.5,0.1-0.7c0.2-0.2,0.5-0.1,0.7,0.1l0.8,1c0.1,0.1,0.1,0.3,0.1,0.4l-0.4,2.3C54.9,45.2,54.6,45.3,54.4,45.3z"></path> 	</g> 	<g> 		<path class="st15" d="M60.7,54.2c-0.9,0-1.7-0.7-1.8-0.7c-0.1-0.1-0.2-0.3-0.2-0.4c0-0.2,0.1-0.3,0.2-0.4l3.1-2.1 			c0.2-0.1,0.4-0.1,0.5,0c0.2,0.1,0.3,0.3,0.2,0.5c-0.2,1.7-0.7,2.7-1.5,3C61.1,54.2,60.9,54.2,60.7,54.2z M60.2,53.1 			c0.3,0.1,0.5,0.2,0.8,0.1c0.3-0.1,0.5-0.5,0.7-1.1L60.2,53.1z"></path> 	</g> 	<g> 		<path class="st15" d="M61.7,44.9C61.7,44.9,61.7,44.9,61.7,44.9c-0.4-0.1-0.5-0.3-0.5-0.6l0.4-2.1l-0.8-0.9 			c-0.2-0.2-0.2-0.5,0-0.7c0.2-0.2,0.5-0.2,0.7,0l1,1.1c0.1,0.1,0.2,0.3,0.1,0.4l-0.4,2.3C62.2,44.8,62,44.9,61.7,44.9z"></path> 	</g> 	<g> 		<path class="st15" d="M70.5,44.8l-1.2,1.3l0.6-1.9c0,0-2.7,0-6.3-2.3c-3.6-2.3-4.4-7.7-4.4-7.7s-1.5,0.7-3.2,2 			c-1.7,1.3-2,2.7-2,2.7s-4.5-12.4,4.9-14c9.4-1.6,16,6.3,16,6.3s5.4,0.7,5.9,6c0.5,5.3-3.1,9.3-3.1,9.3S75.3,42.3,70.5,44.8z"></path> 	</g> 	<g> 		<path class="st103" d="M58.7,68.1l-0.6,4.5c0,0,12.4-5.2,13.2-7.5c0.8-2.3-12.1,1.3-12.1,1.3L58.7,68.1z"></path> 	</g> 	<g> 		<path class="st7" d="M58.1,73.1c-0.1,0-0.2,0-0.3-0.1c-0.1-0.1-0.2-0.3-0.2-0.4l0.5-8c0-0.3,0.2-0.5,0.5-0.5 			c0.3,0,0.5,0.3,0.5,0.5l-0.4,7.2c2.6-1.2,11.3-5.5,12.8-7.8c0.2-0.2,0.5-0.3,0.7-0.1c0.2,0.2,0.3,0.5,0.1,0.7 			c-2,3-13.5,8.3-14,8.5C58.3,73.1,58.2,73.1,58.1,73.1z"></path> 	</g> 	<g> 		<g> 			<path class="st104" d="M98.6,79.4C97,80,94.7,80.9,92,81.8c-6.2,2-15,4.1-24,4.1c-0.9,0-1.8,0-2.8-0.1c-9.8-0.5-18-3.2-23.5-5.6 				c-1.7-0.7-3.1-1.4-4.3-2c0.4-0.9,0.8-1.9,1.2-2.8c0.9,0.5,2,1,3.3,1.6c5.3,2.4,13.6,5.3,23.4,5.8c9.8,0.5,19.7-2,26.4-4.2 				c2.2-0.7,4-1.4,5.3-1.9C97.6,77.6,98.1,78.5,98.6,79.4z"></path> 		</g> 	</g> 	<g> 		<g> 			<path class="st104" d="M103,90.2c-2.2,0.9-6,2.4-10.6,3.9C84.8,96.5,75,99,66.2,99c-0.8,0-1.5,0-2.2-0.1 				C55,98.5,47,95.8,41.3,93.3c-3.1-1.4-5.5-2.7-7.2-3.7c0.2-1,0.4-2,0.7-3.1c1.4,0.8,3.6,2.1,6.5,3.5c5.6,2.6,13.7,5.5,22.7,6 				c9.3,0.5,20.2-2.3,28.3-5c4.3-1.4,7.7-2.8,9.8-3.6C102.4,88.2,102.7,89.2,103,90.2z"></path> 		</g> 	</g> 	<g> 		<g> 			<path class="st94" d="M44.6,84.4l-2.2,18.1c-0.3-0.2-0.6-0.4-0.9-0.6l2.2-17.7c0-0.3,0.3-0.5,0.5-0.4 				C44.4,83.9,44.6,84.1,44.6,84.4z"></path> 		</g> 	</g> </g> </svg>