<svg version="1.1" xmlns="http://www.w3.org/2000/svg" xmlns:xlink="http://www.w3.org/1999/xlink" x="0px" y="0px" style="enable-background:new 0 0 247 240;" xml:space="preserve" viewBox="11.1 11.4 221.1 220.7"> <style type="text/css"> 	.st0{fill:#F3F6FB;} 	.st1{fill:none;stroke:#2B2E81;stroke-width:2;stroke-miterlimit:10;} 	.st2{fill:#E0E1E0;} 	.st3{fill:#F1F0F0;} 	.st4{fill:#273339;} 	.st5{fill:#EBEBEB;} 	.st6{fill:#2F3180;} 	.st7{fill:#FFFFFF;} 	.st8{opacity:0.3;fill:#010101;enable-background:new    ;} 	.st9{fill:#B97A65;} 	.st10{opacity:0.2;fill:#010101;enable-background:new    ;} 	.st11{fill:#A34F40;} 	.st12{fill:#DE5854;} 	.st13{fill:#9F5C54;} 	.st14{opacity:0.2;} 	.st15{fill:#010101;} 	.st16{fill:#E9B376;} 	.st17{opacity:0.8;fill:#FFFFFF;enable-background:new    ;} 	.st18{fill:#D58745;} 	.st19{opacity:0.4;fill:#FFFFFF;enable-background:new    ;} 	.st20{fill:#EEC1BB;} 	.st21{fill:#D9857D;} 	.st22{fill:none;} 	.st23{fill:#F5F6F6;} 	.st24{fill:#FAFBFC;} 	.st25{fill:#FCBF9E;} 	.st26{fill:#F8996E;} 	.st27{fill:#465B64;} 	.st28{opacity:0.3;} 	.st29{opacity:0.25;fill:#FFFFFF;enable-background:new    ;} 	.st30{opacity:0.1;fill:#010101;enable-background:new    ;} 	.st31{opacity:0.1;fill:#FFFFFF;enable-background:new    ;} 	.st32{opacity:5.000000e-02;fill:#010101;enable-background:new    ;} 	.st33{opacity:0.15;fill:#FFFFFF;enable-background:new    ;} 	.st34{opacity:0.4;fill:#010101;enable-background:new    ;} 	.st35{opacity:0.5;fill:#010101;enable-background:new    ;} 	.st36{opacity:0.25;fill:#010101;enable-background:new    ;} 	.st37{opacity:0.15;fill:#010101;enable-background:new    ;} 	.st38{opacity:0.45;fill:#010101;enable-background:new    ;} 	.st39{opacity:0.35;fill:#010101;enable-background:new    ;} 	.st40{fill:#F8A7A8;} 	.st41{fill:#384850;} 	.st42{opacity:0.6;fill:#FFFFFF;enable-background:new    ;} 	.st43{opacity:0.1;fill:#2F3180;enable-background:new    ;} 	.st44{opacity:0.2;fill:#2F3180;enable-background:new    ;} 	.st45{fill:#B26769;} 	.st46{fill:#F3908F;} 	.st47{opacity:0.7;fill:#FFFFFF;enable-background:new    ;} 	.st48{fill:#AF7562;} 	.st49{fill:#70453A;} 	.st50{opacity:0.5;fill:#FFFFFF;enable-background:new    ;} 	.st51{opacity:0.3;fill:#FFFFFF;enable-background:new    ;} 	.st52{opacity:0.6;} 	.st53{opacity:0.7;} 	.st54{fill:#884D4D;} 	.st55{fill:#C8856A;} 	.st56{fill:#B06252;} 	.st57{fill:none;stroke:#000000;stroke-miterlimit:10;} 	.st58{fill:#D51F26;} 	.st59{fill:#E6E6E5;} 	.st60{opacity:0.15;} 	.st61{opacity:0.2;fill:#FFFFFF;enable-background:new    ;} 	.st62{opacity:0.4;} 	.st63{clip-path:url(#SVGID_2_);} 	.st64{opacity:0.1;} 	.st65{clip-path:url(#SVGID_4_);} 	.st66{clip-path:url(#SVGID_6_);} 	.st67{fill:#FFFFFF;stroke:#000000;stroke-width:2;stroke-miterlimit:10;} 	.st68{opacity:0.5;} 	.st69{fill:#FBBD9D;} 	.st70{fill:#EB9A6F;} 	.st71{opacity:0.6;fill:#010101;enable-background:new    ;} 	.st72{fill:#FAC2BE;} 	.st73{fill:#EC847E;} 	.st74{opacity:0.9;} 	.st75{fill:#803F3C;} 	.st76{fill:#631112;} 	.st77{fill:#FCB574;} 	.st78{fill:#ED893F;} 	.st79{opacity:0.9;fill:#FFFFFF;enable-background:new    ;} 	.st80{fill:#C8C7C6;} 	.st81{opacity:0.6;fill:#2F3180;enable-background:new    ;} 	.st82{fill:#FDFEFF;} 	.st83{fill:#D4766B;} 	.st84{opacity:0.3;fill:#384850;enable-background:new    ;} 	.st85{fill:#F598B9;} 	.st86{clip-path:url(#SVGID_8_);} 	.st87{clip-path:url(#SVGID_10_);} 	.st88{clip-path:url(#SVGID_12_);} 	.st89{fill:#9B6E66;} 	.st90{fill:#714D46;} 	.st91{fill:#C78976;} 	.st92{fill:#935C4D;} 	.st93{fill:#EDDDD6;} 	.st94{fill:#474780;} 	.st95{fill:#E56445;} 	.st96{fill:#FCD69F;} 	.st97{fill:#FEBF6A;} 	.st98{fill:#2D328F;} 	.st99{fill:#9492C7;} 	.st100{fill:#7470B3;} 	.st101{fill:#F8A398;} 	.st102{fill:#F3C0BC;} 	.st103{fill:#7A491D;} 	.st104{fill:#FCB45D;} 	.st105{fill:#608558;} 	.st106{fill:#F47351;} 	.st107{fill:#B77E34;} 	.st108{fill:#7D6154;} 	.st109{fill:#50784A;} 	.st110{fill:#F17E65;} 	.st111{fill:#142148;} 	.st112{fill:#F8B384;} 	.st113{fill:#E38B6D;} 	.st114{fill:#758BC6;} 	.st115{fill:none;stroke:#2F3180;stroke-width:4;stroke-miterlimit:10;} 	.st116{fill:#2B2E81;} 	.st117{display:none;fill:#4174B9;} 	.st118{display:none;fill:#E6F5F8;} 	.st119{opacity:0.37;fill:#FFFFFF;} 	.st120{fill:#F4D242;} 	.st121{fill:#5A5A5C;} 	.st122{fill:#808184;} 	.st123{clip-path:url(#SVGID_14_);} 	.st124{clip-path:url(#SVGID_16_);} 	.st125{clip-path:url(#SVGID_18_);} </style> <g id="Calque_1"> </g> <g id="Calque_2"> 	<g> 		<path class="st93" d="M232.2,121.6c0,21.9-6.4,42.3-17.4,59.4c-2.3,3.7-4.9,7.2-7.7,10.6c-0.3,0.4-0.6,0.8-0.9,1.2 			c-2,2.4-4.2,4.8-6.4,7c-3.6,3.6-7.5,7-11.6,10c-0.1,0.1-0.2,0.2-0.4,0.3c-0.9,0.7-1.7,1.3-2.6,1.9c-1,0.8-2.1,1.5-3.2,2.2 			c-0.2,0.2-0.5,0.3-0.7,0.4c-3,1.9-6.1,3.7-9.3,5.4c-0.7,0.4-1.5,0.8-2.2,1.1c-3.4,1.7-7,3.1-10.6,4.5c-4.8,1.7-9.7,3.1-14.8,4.2 			c-7.3,1.5-14.9,2.3-22.7,2.3c-1.5,0-3.1,0-4.6-0.1c-1.8-0.1-3.5-0.2-5.3-0.4c-0.1,0-0.2,0-0.3,0c-3.3-0.3-6.6-0.8-9.8-1.4 			c-1.8-0.3-3.7-0.7-5.5-1.1c-5.3-1.2-10.3-2.8-15.3-4.8c-4.3-1.7-8.4-3.6-12.5-5.9c-0.1,0-0.2-0.1-0.3-0.1 			c-0.5-0.3-0.9-0.5-1.4-0.8c-1.4-0.8-2.9-1.7-4.3-2.6c-1.3-0.8-2.6-1.7-3.8-2.5c-2.2-1.5-4.5-3.2-6.6-4.9c-0.3-0.2-0.5-0.4-0.8-0.6 			c-3-2.5-5.9-5.2-8.6-8c-0.8-0.8-1.5-1.6-2.3-2.4c-1.8-1.9-3.4-3.8-5-5.8c-0.4-0.4-0.7-0.8-1-1.3c0,0-0.1-0.1-0.1-0.1 			c-1.8-2.4-3.6-4.8-5.2-7.3c-11.3-17.3-17.9-38-17.9-60.2c0-61,49.4-110.4,110.4-110.4S232.2,60.7,232.2,121.6z"></path> 	</g> 	<g> 		<path class="st15" d="M171.4,144.8c0,0-2-109.1-40.6-113.1S87.6,54.9,87.6,54.9S77.9,58.4,76,73c-1.9,14.7-2.9,73.2-2.9,73.2 			l87.2,5L171.4,144.8z"></path> 	</g> 	<g> 		<path class="st6" d="M211.6,184.9c-1.4,2.3-2.8,4.5-4.4,6.7c-0.3,0.4-0.6,0.8-0.9,1.2c-2,2.4-4.2,4.8-6.4,7 			c-3.6,3.6-7.5,7-11.6,10c-2,1.5-4,3-6.2,4.3c-0.2,0.2-0.5,0.3-0.7,0.4c-3,1.9-6.1,3.7-9.3,5.4c-0.7,0.4-1.5,0.8-2.2,1.1 			c-3.4,1.7-7,3.1-10.6,4.5c-4.8,1.7-9.7,3.1-14.8,4.2c-7.3,1.5-14.9,2.3-22.7,2.3c-1.5,0-3.1,0-4.6-0.1c-1.8-0.1-3.5-0.2-5.3-0.4 			c-0.1,0-0.2,0-0.3,0c-3.3-0.3-6.6-0.8-9.8-1.4c-1.8-0.3-3.7-0.7-5.5-1.1c-5.3-1.2-10.3-2.8-15.3-4.8c-4.3-1.7-8.4-3.6-12.5-5.9 			c-0.1,0-0.2-0.1-0.3-0.1c-0.5-0.3-0.9-0.5-1.4-0.8c-1.4-0.8-2.9-1.7-4.3-2.6c-7.4-29.2-10.3-55.6-1.2-66.3c0.4-0.6,1-1.1,1.6-1.6 			c2.2-1.8,4.5-3.5,6.8-5.1c0.1,0,0.2-0.1,0.2-0.1c4-2.6,8.3-4.8,12.8-6.7c0,0,0.1-0.1,0.1-0.1c29-12.1,66.3-10.1,86.7-1.6 			C182.9,138.7,199,162.7,211.6,184.9z"></path> 	</g> 	<g> 		<g> 			<g> 				<g> 					<path class="st102" d="M104,105.7l0,26.8c0,0,4.8,7.7,20.5,9c11.7,0.9,15.4-5,15.4-5l-2.8-23.5l-28.3-6.2L104,105.7z"></path> 				</g> 			</g> 		</g> 	</g> 	<g> 		<g> 			<g> 				<g> 					<path class="st15" d="M104.1,104.1c0.1,0.7,0.3,1.6,0.8,2.6c6,13.4,27.1,19,33.8,19.6l-1.6-13.2L104.1,104.1z"></path> 				</g> 			</g> 		</g> 	</g> 	<g> 		<g> 			<path class="st7" d="M189.2,199l-1.2,11c-0.9,0.7-1.7,1.3-2.6,1.9l1.5-13.1c1.8-16.5-6.4-37-6.5-37.2c-0.2-0.6,0-1.3,0.7-1.5 				c0.6-0.3,1.3,0,1.5,0.6C182.9,161.5,191.1,181.9,189.2,199z"></path> 		</g> 	</g> 	<g> 		<g> 			<g> 				<g> 					<path class="st102" d="M143.1,51.9c0,0,14.1,33.6,8.5,52.3c-5.5,18.7-22.6,15.5-32.8,11.7c-10.2-3.8-14.8-10.1-14.8-10.1 						s-9.6,3.1-15.8-5.9c-6.2-9-2.2-19.1,3.3-21.4c5.5-2.3,11.9,1.8,11.9,1.8l-4.9-9.8C98.5,70.5,120.6,21.5,143.1,51.9z"></path> 				</g> 			</g> 		</g> 	</g> 	<g> 		<path class="st15" d="M140.9,94.4c-0.1,0-0.2,0-0.4-0.1c-0.6-0.2-1-0.9-0.7-1.5c2-6-2.4-12.7-2.4-12.8c-0.4-0.5-0.2-1.3,0.3-1.6 			c0.5-0.4,1.3-0.2,1.6,0.3c0.2,0.3,5.1,7.7,2.7,14.9C141.8,94.1,141.4,94.4,140.9,94.4z"></path> 	</g> 	<g> 		<path class="st15" d="M101.7,96c-0.3,0-0.6-0.1-0.9-0.4l-8.9-9.8c-0.4-0.5-0.4-1.2,0.1-1.7c0.5-0.4,1.2-0.4,1.7,0.1l8.9,9.8 			c0.4,0.5,0.4,1.2-0.1,1.7C102.2,95.9,101.9,96,101.7,96z"></path> 	</g> 	<g> 		<path class="st15" d="M92.1,93.2c-0.6,0-1.1-0.4-1.2-1c-0.1-0.6,0.4-1.2,1-1.3l6.3-0.8c0.6-0.1,1.2,0.4,1.3,1 			c0.1,0.6-0.4,1.2-1,1.3l-6.3,0.8C92.2,93.2,92.2,93.2,92.1,93.2z"></path> 	</g> 	<g> 		<path class="st15" d="M148,67.2c-0.1,0-0.2,0-0.2,0l-5.9-1.2c-0.6-0.1-1.1-0.8-0.9-1.4c0.1-0.6,0.8-1.1,1.4-0.9l5.9,1.2 			c0.6,0.1,1.1,0.8,0.9,1.4C149,66.8,148.5,67.2,148,67.2z"></path> 	</g> 	<g> 		<path class="st15" d="M123.3,70.5c-0.4,0-0.9-0.2-1.1-0.7c-0.3-0.6,0-1.3,0.6-1.6l7.9-3.8c0.6-0.3,1.3,0,1.6,0.6 			c0.3,0.6,0,1.3-0.6,1.6l-7.9,3.8C123.6,70.5,123.4,70.5,123.3,70.5z"></path> 	</g> 	<g> 		<path class="st15" d="M145.3,80.9c-0.5,0-1-0.3-1.1-0.9l-1.7-6.1c-0.1-0.4,0-0.8,0.2-1.1l1.9-2.2c0.4-0.5,1.2-0.6,1.7-0.1 			c0.5,0.4,0.6,1.2,0.1,1.7l-1.5,1.7l1.5,5.5c0.2,0.6-0.2,1.3-0.8,1.5C145.5,80.9,145.4,80.9,145.3,80.9z"></path> 	</g> 	<g> 		<path class="st15" d="M126,82.1c-0.5,0-1-0.3-1.1-0.9l-1.7-6.1c-0.1-0.4,0-0.8,0.3-1.1l2.6-2.9c0.4-0.5,1.2-0.5,1.7-0.1 			c0.5,0.4,0.5,1.2,0.1,1.7l-2.2,2.4l1.5,5.4c0.2,0.6-0.2,1.3-0.8,1.5C126.2,82.1,126.1,82.1,126,82.1z"></path> 	</g> 	<g> 		<path class="st15" d="M152.7,63.8c0,0-9.3-1.8-15.8-1.6c-6.5,0.2-6.5,0.2-6.5,0.2L127.8,52l0,11.4c0,0-4.6,0.8-9.1,3.2 			c-4.5,2.4-7.6,5.3-7.6,5.3l-4.3-8.8l1.8,11.1l-5.3,6.1l-7.9-7.4l5.1-15.4c0,0,12-16.7,12.9-16.9c0.9-0.2,18.2-1.2,18.2-1.2 			s14.9,5.8,15.2,6.3C147.3,46.1,152.7,63.8,152.7,63.8z"></path> 	</g> 	<g> 		<path class="st7" d="M126.6,141.8c-6.8,0-15.3-1.8-24.4-8.1c-0.5-0.4-0.7-1.1-0.3-1.6c0.4-0.5,1.1-0.7,1.6-0.3 			c20.5,14.2,37,4.8,37.7,4.4c0.6-0.3,1.3-0.1,1.6,0.4c0.3,0.6,0.1,1.3-0.4,1.6C142.4,138.3,136.1,141.8,126.6,141.8z"></path> 	</g> 	<g> 		<path class="st6" d="M111.6,231.5c-3.3-0.3-6.6-0.8-9.8-1.4c-1.8-0.3-3.7-0.7-5.5-1.1c-5.3-1.2-10.3-2.8-15.3-4.8 			c-4.3-1.7-8.4-3.6-12.5-5.9c-0.1,0-0.2-0.1-0.3-0.1c-0.5-0.3-0.9-0.5-1.4-0.8c-1.4-0.8-2.9-1.7-4.3-2.6c-1.3-0.8-2.6-1.7-3.8-2.5 			c-2.2-1.5-4.5-3.2-6.6-4.9c-0.3-0.2-0.5-0.4-0.8-0.6c-3-2.5-5.9-5.2-8.6-8c-0.8-0.8-1.5-1.6-2.3-2.4c-1.8-1.9-3.4-3.8-5-5.8 			c-0.4-0.4-0.7-0.8-1-1.3c0,0-0.1-0.1-0.1-0.1c7.8-19.7,18-32.5,27-40.7c3-2.7,5.8-4.9,8.4-6.7c0.1,0,0.2-0.1,0.2-0.1 			c6.7-4.6,11.7-6.4,12.8-6.7c0,0,0.1-0.1,0.1-0.1C83.1,134.8,111.6,231.5,111.6,231.5z"></path> 	</g> 	<g> 		<path class="st15" d="M137.4,104.6c-2.7,0-6.2-2.8-7-3.5c-0.4-0.3-0.5-0.9-0.3-1.3c0.2-0.5,0.6-0.8,1.1-0.8l10.9,0.2 			c0.5,0,0.9,0.3,1.1,0.7c0.2,0.4,0.1,0.9-0.2,1.3c-0.1,0.1-1.7,1.8-4.1,3C138.4,104.5,137.9,104.6,137.4,104.6z M135.1,101.5 			c1.2,0.6,2.2,1,2.7,0.7c0.4-0.2,0.7-0.4,1.1-0.7L135.1,101.5z"></path> 	</g> 	<g> 		<path class="st7" d="M104,105.2c0,3.1-2.5,5.6-5.6,5.6c-3.1,0-5.6-2.5-5.6-5.6s2.5-5.6,5.6-5.6C101.5,99.6,104,102.1,104,105.2z"></path> 	</g> </g> <g id="Calque_3"> </g> </svg>