<svg version="1.1" xmlns="http://www.w3.org/2000/svg" xmlns:xlink="http://www.w3.org/1999/xlink" x="0px" y="0px" style="enable-background:new 0 0 134 123;" xml:space="preserve" viewBox="19.9 18.7 93.2 93.3"> <style type="text/css"> 	.st0{fill:#F3F6FB;} 	.st1{fill:none;stroke:#2B2E81;stroke-width:2;stroke-miterlimit:10;} 	.st2{fill:#E0E1E0;} 	.st3{fill:#F1F0F0;} 	.st4{fill:#273339;} 	.st5{fill:#EBEBEB;} 	.st6{fill:#2F3180;} 	.st7{fill:#FFFFFF;} 	.st8{opacity:0.3;fill:#010101;enable-background:new    ;} 	.st9{fill:#B97A65;} 	.st10{opacity:0.2;fill:#010101;enable-background:new    ;} 	.st11{fill:#A34F40;} 	.st12{fill:#DE5854;} 	.st13{fill:#9F5C54;} 	.st14{opacity:0.2;} 	.st15{fill:#010101;} 	.st16{fill:#E9B376;} 	.st17{opacity:0.8;fill:#FFFFFF;enable-background:new    ;} 	.st18{fill:#D58745;} 	.st19{opacity:0.4;fill:#FFFFFF;enable-background:new    ;} 	.st20{fill:#EEC1BB;} 	.st21{fill:#D9857D;} 	.st22{fill:none;} 	.st23{fill:#F5F6F6;} 	.st24{fill:#FAFBFC;} 	.st25{fill:#FCBF9E;} 	.st26{fill:#F8996E;} 	.st27{fill:#465B64;} 	.st28{opacity:0.3;} 	.st29{opacity:0.25;fill:#FFFFFF;enable-background:new    ;} 	.st30{opacity:0.1;fill:#010101;enable-background:new    ;} 	.st31{opacity:0.1;fill:#FFFFFF;enable-background:new    ;} 	.st32{opacity:5.000000e-02;fill:#010101;enable-background:new    ;} 	.st33{opacity:0.15;fill:#FFFFFF;enable-background:new    ;} 	.st34{opacity:0.4;fill:#010101;enable-background:new    ;} 	.st35{opacity:0.5;fill:#010101;enable-background:new    ;} 	.st36{opacity:0.25;fill:#010101;enable-background:new    ;} 	.st37{opacity:0.15;fill:#010101;enable-background:new    ;} 	.st38{opacity:0.45;fill:#010101;enable-background:new    ;} 	.st39{opacity:0.35;fill:#010101;enable-background:new    ;} 	.st40{fill:#F8A7A8;} 	.st41{fill:#384850;} 	.st42{opacity:0.6;fill:#FFFFFF;enable-background:new    ;} 	.st43{opacity:0.1;fill:#2F3180;enable-background:new    ;} 	.st44{opacity:0.2;fill:#2F3180;enable-background:new    ;} 	.st45{fill:#B26769;} 	.st46{fill:#F3908F;} 	.st47{opacity:0.7;fill:#FFFFFF;enable-background:new    ;} 	.st48{fill:#AF7562;} 	.st49{fill:#70453A;} 	.st50{opacity:0.5;fill:#FFFFFF;enable-background:new    ;} 	.st51{opacity:0.3;fill:#FFFFFF;enable-background:new    ;} 	.st52{opacity:0.6;} 	.st53{opacity:0.7;} 	.st54{fill:#884D4D;} 	.st55{fill:#C8856A;} 	.st56{fill:#B06252;} 	.st57{fill:none;stroke:#000000;stroke-miterlimit:10;} 	.st58{fill:#D51F26;} 	.st59{fill:#E6E6E5;} 	.st60{opacity:0.15;} 	.st61{opacity:0.2;fill:#FFFFFF;enable-background:new    ;} 	.st62{opacity:0.4;} 	.st63{clip-path:url(#SVGID_2_);} 	.st64{opacity:0.1;} 	.st65{clip-path:url(#SVGID_4_);} 	.st66{clip-path:url(#SVGID_6_);} 	.st67{fill:#FFFFFF;stroke:#000000;stroke-width:2;stroke-miterlimit:10;} 	.st68{opacity:0.5;} 	.st69{fill:#FBBD9D;} 	.st70{fill:#EB9A6F;} 	.st71{opacity:0.6;fill:#010101;enable-background:new    ;} 	.st72{fill:#FAC2BE;} 	.st73{fill:#EC847E;} 	.st74{opacity:0.9;} 	.st75{fill:#803F3C;} 	.st76{fill:#631112;} 	.st77{fill:#FCB574;} 	.st78{fill:#ED893F;} 	.st79{opacity:0.9;fill:#FFFFFF;enable-background:new    ;} 	.st80{fill:#C8C7C6;} 	.st81{opacity:0.6;fill:#2F3180;enable-background:new    ;} 	.st82{fill:#FDFEFF;} 	.st83{fill:#D4766B;} 	.st84{opacity:0.3;fill:#384850;enable-background:new    ;} 	.st85{fill:#F598B9;} 	.st86{clip-path:url(#SVGID_8_);} 	.st87{clip-path:url(#SVGID_10_);} 	.st88{clip-path:url(#SVGID_12_);} 	.st89{fill:#9B6E66;} 	.st90{fill:#714D46;} 	.st91{fill:#C78976;} 	.st92{fill:#935C4D;} 	.st93{fill:#EDDDD6;} 	.st94{fill:#474780;} 	.st95{fill:#E56445;} 	.st96{fill:#FCD69F;} 	.st97{fill:#FEBF6A;} 	.st98{fill:#2D328F;} 	.st99{fill:#9492C7;} 	.st100{fill:#7470B3;} 	.st101{fill:#F8A398;} 	.st102{fill:#F3C0BC;} 	.st103{fill:#7A491D;} 	.st104{fill:#FCB45D;} 	.st105{fill:#608558;} 	.st106{fill:#F47351;} 	.st107{fill:#B77E34;} 	.st108{fill:#7D6154;} 	.st109{fill:#50784A;} 	.st110{fill:#F17E65;} 	.st111{fill:#142148;} 	.st112{fill:#F8B384;} 	.st113{fill:#E38B6D;} 	.st114{fill:#758BC6;} </style> <g id="Calque_1"> </g> <g id="Calque_2"> 	<g> 		<path class="st93" d="M113.1,65.3c0,7.8-1.9,15.1-5.3,21.6c0,0.1-0.1,0.1-0.1,0.2c-0.2,0.4-0.4,0.7-0.6,1.1 			c-5.2,9.3-13.6,16.6-23.6,20.5c-0.6,0.2-1.2,0.5-1.9,0.7c-0.6,0.2-1.1,0.4-1.7,0.6c-0.6,0.2-1.2,0.3-1.8,0.5c-2,0.5-4,0.9-6.1,1.1 			c-0.4,0.1-0.8,0.1-1.1,0.1c-1.5,0.1-2.9,0.2-4.4,0.2c-1.7,0-3.5-0.1-5.1-0.3c-2.1-0.2-4.1-0.6-6.1-1.1c-1.5-0.4-2.9-0.8-4.3-1.3 			c-0.2-0.1-0.5-0.2-0.7-0.2c-0.5-0.2-1.1-0.4-1.6-0.6c-1.4-0.6-2.7-1.2-4-1.9c-0.6-0.3-1.1-0.6-1.7-0.9c-0.1-0.1-0.3-0.2-0.4-0.2 			c-1.1-0.7-2.1-1.3-3.2-2.1c-0.6-0.4-1.2-0.9-1.8-1.4c-2.9-2.3-5.5-4.9-7.8-7.8c-0.3-0.4-0.6-0.8-1-1.3c-0.6-0.8-1.1-1.6-1.6-2.4 			c-4.7-7.2-7.3-15.9-7.3-25.1c0-25.8,20.9-46.6,46.6-46.6C92.3,18.7,113.1,39.6,113.1,65.3z"></path> 	</g> 	<g> 		<path class="st105" d="M83,102.5l-1,0.4l-3,1.3l-17.7,7.5c-2.1-0.2-4.1-0.6-6.1-1.1c-1.5-0.4-2.9-0.8-4.3-1.3 			c-0.2-0.1-0.5-0.2-0.7-0.2c-0.5-0.2-1.1-0.4-1.6-0.6c-1.4-0.6-2.7-1.2-4-1.9c-0.6-0.3-1.1-0.6-1.7-0.9c-0.1-0.1-0.3-0.2-0.4-0.2 			c-1.1-0.7-2.1-1.3-3.2-2.1c-0.6-0.4-1.2-0.9-1.8-1.4c-2.9-2.3-5.5-4.9-7.8-7.8c-0.3-0.4-0.6-0.8-1-1.3 			c5.8-9.1,17.1-23.5,30.6-25.3c1.9-0.3,3.7-0.1,5.3,0.3c4,1,7.1,3.9,9.6,7.6c0.4,0.6,0.8,1.1,1.1,1.7C81.5,87.5,83,102.5,83,102.5z 			"></path> 	</g> 	<g> 		<path class="st15" d="M54.8,46.6c0,0-3.6-10.3-0.5-14.9c2.7-4.1,16.2-1.9,21,1.2c4.8,3.1,5,7.2,5,7.2s2.3,0.6,2.9,2.6 			c0.5,2-1.2,5.3-1.2,5.3s-2.4-3-5.8-1.1C72.8,48.9,54.8,46.6,54.8,46.6z"></path> 	</g> 	<g> 		<g> 			<path class="st7" d="M83.6,108.7c-0.6,0.2-1.2,0.5-1.9,0.7c-0.6,0.2-1.1,0.4-1.7,0.6c-0.6,0.2-1.2,0.3-1.8,0.5 				c-3.7,1-7.6,1.5-11.7,1.5c-1.7,0-3.5-0.1-5.1-0.3c-2.1-0.2-4.1-0.6-6.1-1.1c-1.5-0.4-2.9-0.8-4.3-1.3c-0.2-0.1-0.5-0.2-0.7-0.2 				c-0.5-0.2-1.1-0.4-1.6-0.6c-1.4-0.6-2.7-1.2-4-1.9c0.6-5.5,1.1-9.1,1.1-9.1l13.7-29.8l5.3,0.3c0,0,8.4,0.4,8.4,0.4 				c0,0,0,0.1,0,0.1c0,0,2.3,8.8,2.3,8.8l6.6,25.8L83.6,108.7z"></path> 		</g> 	</g> 	<g> 		<g> 			<g> 				<g> 					<g> 						<path class="st101" d="M73.2,61.4l0.5,9c0,0-3.4,2.8-7.2,3c-5.1,0.3-7-3.6-7-3.6l0-9.2L73.2,61.4z"></path> 					</g> 				</g> 			</g> 		</g> 	</g> 	<g> 		<g> 			<g> 				<g> 					<g> 						<path class="st15" d="M72.9,62.7c0,0-1.6,6.2-7.4,5.5c-4.7-0.5-6.2-6.8-6.2-6.8L72.9,62.7z"></path> 					</g> 				</g> 			</g> 		</g> 	</g> 	<g> 		<g> 			<g> 				<g> 					<g> 						<path class="st101" d="M56.3,40.8c0,0-2.2,14.2,2.6,20.8c4.8,6.6,10.7,4.4,13.3,2.3c3.5-2.9,4.1-6.8,4.1-6.8s5,0.8,6.5-3.3 							c1.6-4.3-1.6-7.6-4.1-7.7c-2.5-0.1-2.8,0.3-2.8,0.3l0.6-4.5C76.5,41.9,60.9,25.7,56.3,40.8z"></path> 					</g> 				</g> 			</g> 		</g> 	</g> 	<g> 		<g> 			<g> 				<g> 					<g> 						<path class="st101" d="M58.9,47.3c0,0-7.6-2.9-8,2.9c-0.5,6.7,7.6,6.5,7.6,6.5L58.9,47.3z"></path> 					</g> 				</g> 			</g> 		</g> 	</g> 	<g> 		<g> 			<path class="st15" d="M77.1,46.8c0,0-2.6,1.2-8.2-2.7c-5.7-3.8-4.2-8.7-4.2-8.7s-7.4,5-8.9,10.9c-1.5,6-2.9-13.8,5.7-13.7 				C70,32.8,83,38,77.1,46.8z"></path> 		</g> 	</g> 	<g> 		<g> 			<path class="st105" d="M59.4,67.5c0,0-4.9,14.1-8.4,41.6c0,0.1,0,0.1,0,0.2c-0.2-0.1-0.5-0.2-0.7-0.2c-0.5-0.2-1.1-0.4-1.6-0.6 				c-1.4-0.6-2.7-1.2-4-1.9c-0.6-0.3-1.1-0.6-1.7-0.9c-0.1-0.1-0.3-0.2-0.4-0.2c-1.1-0.7-2.1-1.3-3.2-2.1c0.2-3.6,0.4-5.8,0.4-5.8 				L59.4,67.5z"></path> 		</g> 	</g> 	<g> 		<g> 			<path class="st105" d="M107.8,86.9c0,0.1-0.1,0.1-0.1,0.2c-0.2,0.4-0.4,0.7-0.6,1.1c-5.2,9.3-13.6,16.6-23.6,20.5 				c-0.6,0.2-1.2,0.5-1.9,0.7c-0.6,0.2-1.1,0.4-1.7,0.6c-0.3-1.8-0.6-3.7-0.9-5.8c-1.4-8.6-3.1-19.3-4.7-28.8 				c-0.4-2.4-0.7-8.4-0.8-8.7c0,0,18.7-0.9,33.6,19.3C107.4,86.3,107.6,86.6,107.8,86.9z"></path> 		</g> 	</g> 	<g> 		<path class="st15" d="M76.9,53.7c-0.1,0-0.2,0-0.3-0.1c-0.2-0.2-0.2-0.5-0.1-0.7l3.2-3.8c0.2-0.2,0.5-0.2,0.7-0.1 			c0.2,0.2,0.2,0.5,0.1,0.7l-3.2,3.8C77.2,53.6,77.1,53.7,76.9,53.7z"></path> 	</g> 	<g> 		<path class="st15" d="M80.5,52.5C80.5,52.5,80.5,52.5,80.5,52.5l-2.4-0.2c-0.3,0-0.5-0.3-0.4-0.5c0-0.3,0.3-0.5,0.5-0.4l2.4,0.2 			c0.3,0,0.5,0.3,0.4,0.5C81,52.3,80.8,52.5,80.5,52.5z"></path> 	</g> 	<g> 		<path class="st15" d="M69.3,49c-0.3,0-0.5-0.2-0.5-0.5l0-2.4c0-0.3,0.2-0.5,0.5-0.5c0.3,0,0.5,0.2,0.5,0.5l0,2.4 			C69.8,48.8,69.6,49,69.3,49C69.3,49,69.3,49,69.3,49z"></path> 	</g> 	<g> 		<path class="st15" d="M60.5,49.5c-0.3,0-0.5-0.2-0.5-0.5l0-2.4c0-0.3,0.2-0.5,0.5-0.5c0.3,0,0.5,0.2,0.5,0.5l0,2.4 			C61,49.2,60.8,49.5,60.5,49.5z"></path> 	</g> 	<g> 		<path class="st15" d="M55.4,53.4c-0.2,0-0.3-0.1-0.4-0.2l-2.8-3.8c-0.2-0.2-0.1-0.5,0.1-0.7c0.2-0.2,0.5-0.1,0.7,0.1l2.8,3.8 			c0.2,0.2,0.1,0.5-0.1,0.7C55.6,53.4,55.5,53.4,55.4,53.4z"></path> 	</g> 	<g> 		<path class="st15" d="M52.2,52.4c-0.2,0-0.5-0.2-0.5-0.4c0-0.3,0.2-0.5,0.4-0.6l2.2-0.3c0.3,0,0.5,0.2,0.6,0.4 			c0,0.3-0.2,0.5-0.4,0.6L52.2,52.4C52.3,52.4,52.2,52.4,52.2,52.4z"></path> 	</g> 	<g> 		<path class="st15" d="M65,56.2c-0.2,0-0.3-0.1-0.4-0.2c-2-2.8-0.4-6.5-0.4-6.6c0.1-0.3,0.4-0.4,0.7-0.3c0.3,0.1,0.4,0.4,0.3,0.7 			c0,0-1.4,3.3,0.3,5.7c0.2,0.2,0.1,0.5-0.1,0.7C65.2,56.2,65.1,56.2,65,56.2z"></path> 	</g> 	<g> 		<path class="st15" d="M68.3,59.1c-0.8,0-1.5-0.4-1.6-0.5c-0.1-0.1-0.2-0.2-0.2-0.4c0-0.2,0.1-0.3,0.2-0.4l2.7-2 			c0.1-0.1,0.3-0.1,0.5-0.1c0.2,0.1,0.3,0.2,0.3,0.4c0.1,1.4-0.3,2.3-1,2.8C68.9,59.1,68.6,59.1,68.3,59.1z M68,58.1 			c0.3,0.1,0.6,0.1,0.8,0c0.2-0.1,0.4-0.4,0.4-0.8L68,58.1z"></path> 	</g> 	<g> 		<path class="st15" d="M59.1,44.8c-0.2,0-0.3-0.1-0.4-0.3c-0.1-0.2,0-0.5,0.2-0.7l2-1.1c0.2-0.1,0.5,0,0.7,0.2 			c0.1,0.2,0,0.5-0.2,0.7l-2,1.1C59.2,44.8,59.2,44.8,59.1,44.8z"></path> 	</g> 	<g> 		<path class="st15" d="M70.1,44.6c-0.1,0-0.1,0-0.2,0l-3-1.2c-0.3-0.1-0.4-0.4-0.3-0.6c0.1-0.3,0.4-0.4,0.6-0.3l3,1.2 			c0.3,0.1,0.4,0.4,0.3,0.6C70.5,44.4,70.3,44.6,70.1,44.6z"></path> 	</g> 	<g> 		<path class="st106" d="M80,50.3c0,0,0.8,1.8-0.2,2.5c-1,0.7-2.1,0.1-2.1,0.1L80,50.3z"></path> 	</g> 	<g> 		<path class="st106" d="M52.7,50.1c0,0-0.9,1.7,0,2.5c0.9,0.8,2.1,0.3,2.1,0.3L52.7,50.1z"></path> 	</g> 	<g> 		<path class="st106" d="M66.3,79.5c-8.4,0-13-26-13.2-27.1c0-0.3,0.1-0.5,0.4-0.6c0.3-0.1,0.5,0.1,0.6,0.4 			c1.3,7.4,6,26.3,12.2,26.3c0.1,0,0.1,0,0.2,0c8.8-0.6,12.3-26.3,12.3-26.6c0-0.3,0.3-0.5,0.6-0.4c0.3,0,0.5,0.3,0.4,0.6 			c-0.1,1.1-3.7,26.8-13.2,27.4C66.5,79.5,66.4,79.5,66.3,79.5z"></path> 	</g> 	<g> 		<g> 			<path class="st106" d="M72.1,111.6c-0.4,0.1-0.8,0.1-1.1,0.1c-6.5-9.5-5-31.7-4.9-32.7c0-0.3,0.3-0.5,0.5-0.5 				c0.3,0,0.5,0.3,0.5,0.5C67,79.3,65.4,102.7,72.1,111.6z"></path> 		</g> 	</g> </g> </svg>