<svg version="1.1" xmlns="http://www.w3.org/2000/svg" xmlns:xlink="http://www.w3.org/1999/xlink" x="0px" y="0px" style="enable-background:new 0 0 300 198;" xml:space="preserve" viewBox="36.6 24.8 219.76 146.1"> <style type="text/css"> 	.st0{fill:#F3F6FB;} 	.st1{fill:none;stroke:#2B2E81;stroke-width:2;stroke-miterlimit:10;} 	.st2{fill:#E0E1E0;} 	.st3{fill:#F1F0F0;} 	.st4{fill:#273339;} 	.st5{fill:#EBEBEB;} 	.st6{fill:#2F3180;} 	.st7{fill:#FFFFFF;} 	.st8{opacity:0.3;fill:#010101;enable-background:new    ;} 	.st9{fill:#B97A65;} 	.st10{opacity:0.2;fill:#010101;enable-background:new    ;} 	.st11{fill:#A34F40;} 	.st12{fill:#DE5854;} 	.st13{fill:#9F5C54;} 	.st14{opacity:0.2;} 	.st15{fill:#010101;} 	.st16{fill:#E9B376;} 	.st17{opacity:0.8;fill:#FFFFFF;enable-background:new    ;} 	.st18{fill:#D58745;} 	.st19{opacity:0.4;fill:#FFFFFF;enable-background:new    ;} 	.st20{fill:#EEC1BB;} 	.st21{fill:#D9857D;} 	.st22{fill:none;} 	.st23{fill:#F5F6F6;} 	.st24{fill:#FAFBFC;} 	.st25{fill:#FCBF9E;} 	.st26{fill:#F8996E;} 	.st27{fill:#465B64;} 	.st28{opacity:0.3;} 	.st29{opacity:0.25;fill:#FFFFFF;enable-background:new    ;} 	.st30{opacity:0.1;fill:#010101;enable-background:new    ;} 	.st31{opacity:0.1;fill:#FFFFFF;enable-background:new    ;} 	.st32{opacity:5.000000e-02;fill:#010101;enable-background:new    ;} 	.st33{opacity:0.15;fill:#FFFFFF;enable-background:new    ;} 	.st34{opacity:0.4;fill:#010101;enable-background:new    ;} 	.st35{opacity:0.5;fill:#010101;enable-background:new    ;} 	.st36{opacity:0.25;fill:#010101;enable-background:new    ;} 	.st37{opacity:0.15;fill:#010101;enable-background:new    ;} 	.st38{opacity:0.45;fill:#010101;enable-background:new    ;} 	.st39{opacity:0.35;fill:#010101;enable-background:new    ;} 	.st40{fill:#F8A7A8;} 	.st41{fill:#384850;} 	.st42{opacity:0.6;fill:#FFFFFF;enable-background:new    ;} 	.st43{opacity:0.1;fill:#2F3180;enable-background:new    ;} 	.st44{opacity:0.2;fill:#2F3180;enable-background:new    ;} 	.st45{fill:#B26769;} 	.st46{fill:#F3908F;} 	.st47{opacity:0.7;fill:#FFFFFF;enable-background:new    ;} 	.st48{fill:#AF7562;} 	.st49{fill:#70453A;} 	.st50{opacity:0.5;fill:#FFFFFF;enable-background:new    ;} 	.st51{opacity:0.3;fill:#FFFFFF;enable-background:new    ;} 	.st52{opacity:0.6;} 	.st53{opacity:0.7;} 	.st54{fill:#884D4D;} 	.st55{fill:#C8856A;} 	.st56{fill:#B06252;} 	.st57{fill:none;stroke:#000000;stroke-miterlimit:10;} 	.st58{fill:#D51F26;} 	.st59{fill:#E6E6E5;} 	.st60{opacity:0.15;} 	.st61{opacity:0.2;fill:#FFFFFF;enable-background:new    ;} 	.st62{opacity:0.4;} 	.st63{clip-path:url(#SVGID_2_);} 	.st64{opacity:0.1;} 	.st65{clip-path:url(#SVGID_4_);} 	.st66{clip-path:url(#SVGID_6_);} 	.st67{fill:#FFFFFF;stroke:#000000;stroke-width:2;stroke-miterlimit:10;} 	.st68{opacity:0.5;} 	.st69{fill:#FBBD9D;} 	.st70{fill:#EB9A6F;} 	.st71{opacity:0.6;fill:#010101;enable-background:new    ;} 	.st72{fill:#FAC2BE;} 	.st73{fill:#EC847E;} 	.st74{opacity:0.9;} 	.st75{fill:#803F3C;} 	.st76{fill:#631112;} 	.st77{fill:#FCB574;} 	.st78{fill:#ED893F;} 	.st79{opacity:0.9;fill:#FFFFFF;enable-background:new    ;} 	.st80{fill:#C8C7C6;} 	.st81{opacity:0.6;fill:#2F3180;enable-background:new    ;} 	.st82{fill:#FDFEFF;} 	.st83{fill:#D4766B;} 	.st84{opacity:0.3;fill:#384850;enable-background:new    ;} 	.st85{fill:#F598B9;} 	.st86{clip-path:url(#SVGID_8_);} 	.st87{clip-path:url(#SVGID_10_);} 	.st88{clip-path:url(#SVGID_12_);} 	.st89{fill:#9B6E66;} 	.st90{fill:#714D46;} 	.st91{fill:#C78976;} 	.st92{fill:#935C4D;} 	.st93{fill:#EDDDD6;} 	.st94{fill:#474780;} 	.st95{fill:#E56445;} 	.st96{fill:#FCD69F;} 	.st97{fill:#FEBF6A;} 	.st98{fill:#2D328F;} 	.st99{fill:#9492C7;} 	.st100{fill:#7470B3;} 	.st101{fill:#F8A398;} 	.st102{fill:#F3C0BC;} 	.st103{fill:#7A491D;} 	.st104{fill:#FCB45D;} 	.st105{fill:#608558;} 	.st106{fill:#F47351;} 	.st107{fill:#B77E34;} 	.st108{fill:#7D6154;} 	.st109{fill:#50784A;} 	.st110{fill:#F17E65;} 	.st111{fill:#142148;} 	.st112{fill:#F8B384;} 	.st113{fill:#E38B6D;} 	.st114{fill:#758BC6;} </style> <g id="Calque_1"> </g> <g id="Calque_2"> 	<g> 		<g> 			<path class="st111" d="M170,145.3c0,0,18.3-14.9-7.8-66.3l-12.7,49.6L170,145.3z"></path> 		</g> 		<g> 			<g> 				<path class="st112" d="M88.9,153.4l99.4-23.2c12.1,4.2,23,4.6,32.1-0.6c14.5,11.7,32,3.4,26.7-8.7c3.7-4.3,5.3-8.8,3.5-13.6 					c3.7-2.7,5.9-7.2,4.4-11.7c4.9-14.7-3.3-27.3-26.1-28.5c10.1-16.2,18.6-32.1,7.2-42.3c-10.8,17.9-21.7,36.4-28.7,41.5 					c-9.9,3.4-18.9,6.9-24.6,10.5L80.3,87.4L88.9,153.4z"></path> 			</g> 			<g> 				<path class="st113" d="M228.9,97.1c-1.5-0.6-3-1.3-4.3-2.3c-3.8-2.6-4.6-5.4-4.8-6.5c-0.3-1.7,0.7-4.8,2.8-6.6 					c1.6-1.5,3.5-1.8,5.4-1l5.8,2.7L244,79l0.3,1l-10.7,4.7l-6.1-2.9c-1.9-0.8-3.4,0-4.3,0.8c-1.7,1.5-2.7,4.1-2.4,5.5 					c0.2,0.9,0.9,3.4,4.4,5.8c3.6,2.5,8,3.6,12.4,3.1l17.3-2l0,1.1l-17.3,2C234.7,98.4,231.7,98.1,228.9,97.1z"></path> 			</g> 			<g> 				<path class="st113" d="M226.2,109.1c-0.6-0.2-1.2-0.5-1.7-0.8c-6.1-4.1-8.4-10.3-8.2-12.7c0.1-2.2,3.7-4.9,4.1-5.2l0.6,0.9 					c-1.3,1-3.5,3.1-3.6,4.3c-0.1,1.6,1.6,7.6,7.8,11.7c5.9,4,25.1-0.5,25.3-0.6l0.2,1.1C249.9,108,233.7,111.8,226.2,109.1z"></path> 			</g> 			<g> 				<path class="st113" d="M225.5,120.3c-1-0.3-1.9-0.8-2.8-1.2c-10.1-5.3-12.3-8-12.5-10.7c-0.1-1.5,0.9-4,2.9-5.4 					c1.3-0.9,4-2,7.6,0.6l-0.6,1c-3-2.2-5.2-1.5-6.5-0.6c-1.7,1.2-2.5,3.2-2.4,4.3c0.2,2.2,2.3,4.7,12,9.8c9.4,5,23.6,2.3,23.8,2.3 					l0.1,1.1C246.6,121.6,234.9,123.8,225.5,120.3z"></path> 			</g> 			<g> 				<path class="st113" d="M220,130.1c-3.5-3.3-7.7-10-6.5-13.4c0.3-0.9,1.1-1.9,3.2-2.1l0,1.1c-1.8,0.1-2.1,1-2.2,1.3 					c-0.9,2.6,2.6,8.8,6.2,12.1L220,130.1z"></path> 			</g> 			<g> 				<path class="st113" d="M205.6,108.2l0.1-1.1c5.7,0,10.7-11.2,13.6-17.9l0.5-1.2l0.9,0.4l-0.5,1.2C217,97,212,108.3,205.6,108.2z 					"></path> 			</g> 		</g> 		<g> 			<path class="st114" d="M162.1,79c-3.2,20.6-1.7,44.5,7.8,66.3L58.4,170.9L36.6,80.1L162.1,79z"></path> 		</g> 	</g> </g> </svg>