<svg version="1.1" id="Calque_1" xmlns="http://www.w3.org/2000/svg" xmlns:xlink="http://www.w3.org/1999/xlink" x="0px" y="0px" style="enable-background:new 0 0 213 227.8;" xml:space="preserve" viewBox="14 17.8 188.6 188.6"> <style type="text/css"> 	.st0{fill:none;stroke:#000000;stroke-width:0.75;} 	.st1{fill:#E5EAFF;stroke:#E5EAFF;stroke-width:0.25;stroke-linecap:round;stroke-linejoin:round;stroke-miterlimit:8;} 	.st2{fill:none;stroke:#282D86;stroke-miterlimit:10;} 	.st3{fill:#F3F6FB;} 	.st4{fill-rule:evenodd;clip-rule:evenodd;fill:#282D86;stroke:#282D86;stroke-width:0.5;stroke-miterlimit:10;} 	.st5{fill:none;stroke:#0058C4;stroke-width:4;stroke-miterlimit:10;} 	.st6{fill:#2F76D0;} 	.st7{display:none;fill:#E5F5F9;} 	.st8{opacity:0.37;fill:#FFFFFF;} 	.st9{fill:#F4D242;} 	.st10{fill:#59595B;} 	.st11{fill:#808183;} 	.st12{fill:#FFFFFF;} </style> <circle class="st8" cx="108.3" cy="112.1" r="94.3"></circle> <g> 	<g> 		<g> 			<path class="st9" d="M158.5,108.7c0-25.6-22.3-46.4-49.8-46.4c-27.5,0-49.9,21-49.8,46.6c0,12.7,5.6,24.3,14.5,32.6 				c7,6.5,12.1,14.6,14.6,23.4l4,13.8h32.6l3.8-13.1c2.6-9.1,7.9-17.3,15.1-23.8C152.8,133.4,158.5,121.6,158.5,108.7z"></path> 			<path class="st10" d="M116.2,194.9h-15.9c-4.5,0-8.4-3.1-8.6-7l-1.3-15.2l36-0.2l-1.5,15.4C124.6,191.8,120.7,194.9,116.2,194.9z 				"></path> 		</g> 		<path class="st11" d="M123.2,179.1c-10.1,0.4-20.2-0.1-30.2,0.3c-0.9,0-0.8,1.3,0.1,1.3c10.1,0.3,20.2-0.3,30.2,0 			C124.4,180.8,124.3,179.1,123.2,179.1z"></path> 		<path class="st11" d="M123.2,183.2c-10.1,0.4-20.2-0.1-30.2,0.3c-0.9,0-0.8,1.3,0.1,1.3c10.1,0.3,20.2-0.3,30.2,0 			C124.4,184.9,124.3,183.1,123.2,183.2z"></path> 	</g> 	<g> 		<path class="st9" d="M112.8,38.6c0,3-1.7,13.8-3.8,13.8c-2.1,0-3.8-10.8-3.8-13.8c0-3,1.7-5.4,3.8-5.4 			C111.1,33.2,112.8,35.6,112.8,38.6z"></path> 		<path class="st9" d="M160.2,55.1c-2.4,2-10.1,10.2-8.7,11.7s11.2-4.3,13.7-6.3c2.4-2,3.3-4.7,1.9-6.2 			C165.7,52.8,162.7,53.2,160.2,55.1z"></path> 		<path class="st9" d="M178.7,103.1c-3.2,0.4-14.8,0.2-15.1-1.8c-0.3-1.9,11-4.9,14.1-5.3c3.2-0.4,6,0.9,6.2,2.8 			C184.3,100.9,181.9,102.8,178.7,103.1z"></path> 		<path class="st9" d="M62,51.6c2.5,1.8,10.6,9.7,9.3,11.3c-1.3,1.5-11.4-3.8-14-5.7c-2.5-1.8-3.5-4.6-2.2-6.1 			C56.4,49.5,59.5,49.7,62,51.6z"></path> 		<path class="st9" d="M37.9,95.5c3.2,0.4,14.8,0.2,15.1-1.8c0.3-1.9-11-4.9-14.1-5.3c-3.2-0.4-6,0.9-6.2,2.8 			C32.4,93.2,34.8,95.1,37.9,95.5z"></path> 	</g> 	<g> 		<path class="st12" d="M130.2,132.3c-1.6-1.1-2.8-2.5-3.7-4.1c1.8-2.1,2.6-4.9,2.9-7.5c0.2-1.6,0.3-3.2,0.3-4.8 			c0-1.5-0.2-2.8-1.6-3.8c-1.2-0.9-2.9-0.1-3.9,0.7c-1.1,1-1.6,2.5-2.1,3.8c-0.9,2.6-0.8,5.5-0.3,8.2c0.2,0.9,0.5,1.9,0.8,2.7 			c-0.7,0.5-1.5,0.9-2.4,1.2c-2.7,0.8-4.8-0.6-6-2.8c-0.2-0.4-0.4-0.7-0.6-1.1c0.2-0.5,0.4-1.1,0.6-1.6c0.9-2.6,1.4-5.3,1.7-8 			c0.2-2.2,0.3-4.9-2-6.2c-0.7-0.4-1.6-0.1-2,0.5c-3.4,4.4-3.2,10.1-1.3,15.1c-0.6,1.3-1.3,2.6-2,3.8c-0.8,1.4-2.5,3.5-4.4,3.2 			c-1.8-0.2-3.3-2.4-4.2-3.7c-0.7-1-1.2-2-1.6-3.1c0.2-0.6,0.4-1.1,0.6-1.7c0.8-2.3,1.2-4.7,1.4-7.1c0.2-2,0.2-4.8-2.1-5.7 			c-0.7-0.3-1.7-0.2-2,0.5c-2,4.3-2.4,8.9-1.1,13.4c0,0.2,0.1,0.3,0.1,0.5c-1.4,3.4-3.6,6.5-6.2,9.1c-1.2,1.2,0.7,2.9,1.9,1.8 			c2.3-2.2,4.3-4.7,5.8-7.5c0.4,0.8,1,1.5,1.5,2.3c1.5,2,3.4,3.8,6.2,4c2.6,0.1,4.6-1.9,6-3.6c0.7-0.8,1.2-1.8,1.8-2.7 			c1.3,1.9,3.1,3.3,5.5,3.7c2.3,0.3,4.5-0.4,6.3-1.5c1.1,1.7,2.5,3.3,4.1,4.6C130,136.2,132.2,133.7,130.2,132.3z M113,112.9 			c0.1,1.1-0.2,2.5-0.2,3.2c-0.1,1.2-0.4,2.5-0.7,3.7C111.8,117.4,112,115,113,112.9z M124.7,119.9c0.1-1.2,0.4-2.3,0.8-3.4 			c0.2-0.5,0.4-1,0.7-1.4c0,0,0.1-0.2,0.2-0.3c0,0.1,0,0.2,0.1,0.3c0.2,2.8-0.1,5.9-1,8.5c-0.1,0.3-0.3,0.7-0.4,1 			C124.7,123.2,124.5,121.5,124.7,119.9z"></path> 		<path class="st12" d="M133,125.5c-5.3,15.1-10.9,30.1-16.8,44.9c-0.7,1.8,2.2,2.9,2.9,1.1c6-14.9,11.5-29.9,16.5-45.1 			C136.1,124.9,133.6,123.9,133,125.5z"></path> 		<path class="st12" d="M84.9,124.5c4.2,15.4,8.2,30.8,11.7,46.3c0.4,1.9,3.5,1.3,3.1-0.6c-3.5-15.5-7.5-31-12.1-46.2 			C87.1,122.5,84.4,122.9,84.9,124.5z"></path> 	</g> </g> </svg>